<?xml version="1.0" encoding="UTF-8" standalone="no"?>
<!-- Created with Inkscape (http://www.inkscape.org/) -->

<svg
   xmlns:dc="http://purl.org/dc/elements/1.1/"
   xmlns:cc="http://creativecommons.org/ns#"
   xmlns:rdf="http://www.w3.org/1999/02/22-rdf-syntax-ns#"
   xmlns:svg="http://www.w3.org/2000/svg"
   xmlns="http://www.w3.org/2000/svg"
   xmlns:sodipodi="http://sodipodi.sourceforge.net/DTD/sodipodi-0.dtd"
   xmlns:inkscape="http://www.inkscape.org/namespaces/inkscape"
   width="210mm"
   height="297mm"
   viewBox="0 0 210 297"
   version="1.1"
   id="svg962"
   inkscape:version="0.92.3 (2405546, 2018-03-11)"
   sodipodi:docname="polybius_biotech_pathed.svg"
   inkscape:export-filename="D:\Projects\cybar\polybius_biotech.png"
   inkscape:export-xdpi="96"
   inkscape:export-ydpi="96">
  <defs
     id="defs956" />
  <sodipodi:namedview
     id="base"
     pagecolor="#ffffff"
     bordercolor="#666666"
     borderopacity="1.0"
     inkscape:pageopacity="0.0"
     inkscape:pageshadow="2"
     inkscape:zoom="1.979899"
     inkscape:cx="477.03249"
     inkscape:cy="955.83437"
     inkscape:document-units="mm"
     inkscape:current-layer="layer1"
     showgrid="false"
     inkscape:window-width="1920"
     inkscape:window-height="1177"
     inkscape:window-x="1912"
     inkscape:window-y="-8"
     inkscape:window-maximized="1" />
  <metadata
     id="metadata959">
    <rdf:RDF>
      <cc:Work
         rdf:about="">
        <dc:format>image/svg+xml</dc:format>
        <dc:type
           rdf:resource="http://purl.org/dc/dcmitype/StillImage" />
        <dc:title></dc:title>
      </cc:Work>
    </rdf:RDF>
  </metadata>
  <g
     inkscape:label="Layer 1"
     inkscape:groupmode="layer"
     id="layer1">
    <g
       aria-label="Polybius Biotech"
       style="font-style:normal;font-variant:normal;font-weight:normal;font-stretch:normal;font-size:4.23333311px;line-height:1.25;font-family:'Eurostile Cond';-inkscape-font-specification:'Eurostile Cond';letter-spacing:0px;word-spacing:0px;fill:#000000;fill-opacity:1;stroke:none;stroke-width:0.26458332"
       id="text1748"
       inkscape:export-xdpi="96"
       inkscape:export-ydpi="96">
      <path
         d="m 64.325216,67.210213 h 1.6256 v -2.7305 h 1.8923 c 1.5367,-0.0254 1.5367,-0.0254 1.8796,-0.1397 0.9779,-0.2921 1.3716,-1.0668 1.3716,-2.6416 0,-1.0287 -0.1016,-1.5748 -0.381,-2.0447 -0.3175,-0.5207 -0.9017,-0.8382 -1.651,-0.889 -0.3175,-0.0254 -0.4064,-0.0254 -1.3081,-0.0254 h -3.429 z m 1.6256,-4.1275 v -2.9972 h 1.9939 c 0.6858,0 0.8382,0.0254 1.0668,0.127 0.3302,0.1778 0.4318,0.5207 0.4318,1.4605 0,1.2192 -0.2286,1.4097 -1.6637,1.4097 z"
         style="font-style:normal;font-variant:normal;font-weight:bold;font-stretch:normal;font-size:12.69999981px;font-family:Eurostile;-inkscape-font-specification:'Eurostile, Bold';font-variant-ligatures:normal;font-variant-caps:normal;font-variant-numeric:normal;font-feature-settings:normal;text-align:start;writing-mode:lr-tb;text-anchor:start;stroke-width:0.26458332"
         id="path850" />
      <path
         d="m 74.716793,61.203113 c -1.2573,0 -1.7907,0.1143 -2.2098,0.4826 -0.4572,0.4064 -0.635,1.0414 -0.635,2.3368 0,1.4478 0.0889,1.9939 0.381,2.4638 0.3556,0.5842 1.0287,0.8001 2.4257,0.8001 2.3114,0 2.794,-0.5461 2.794,-3.1877 0,-1.3462 -0.1651,-1.9812 -0.6096,-2.4003 -0.3937,-0.3683 -0.9398,-0.4953 -2.1463,-0.4953 z m -0.0508,1.1176 c 1.1684,0 1.3462,0.2413 1.3462,1.8034 0,1.7907 -0.1651,2.0447 -1.3589,2.0447 -1.1557,0 -1.3208,-0.2413 -1.3208,-1.9812 0,-1.6256 0.1778,-1.8669 1.3335,-1.8669 z"
         style="font-style:normal;font-variant:normal;font-weight:bold;font-stretch:normal;font-size:12.69999981px;font-family:Eurostile;-inkscape-font-specification:'Eurostile, Bold';font-variant-ligatures:normal;font-variant-caps:normal;font-variant-numeric:normal;font-feature-settings:normal;text-align:start;writing-mode:lr-tb;text-anchor:start;stroke-width:0.26458332"
         id="path852" />
      <path
         d="m 80.096235,58.739313 h -1.4351 v 8.4709 h 1.4351 z"
         style="font-style:normal;font-variant:normal;font-weight:bold;font-stretch:normal;font-size:12.69999981px;font-family:Eurostile;-inkscape-font-specification:'Eurostile, Bold';font-variant-ligatures:normal;font-variant-caps:normal;font-variant-numeric:normal;font-feature-settings:normal;text-align:start;writing-mode:lr-tb;text-anchor:start;stroke-width:0.26458332"
         id="path854" />
      <path
         d="m 86.489692,61.279313 h -1.4859 l -0.5842,2.5146 c -0.1905,0.8763 -0.3048,1.3716 -0.3302,1.5113 -0.0762,0.3302 -0.1524,0.6731 -0.2159,1.0033 h -0.0381 c -0.1143,-0.4445 -0.2286,-0.8255 -0.3429,-1.2573 l -0.381,-1.2573 -0.7366,-2.5146 h -1.524 l 1.9431,5.9309 h 0.7239 c -0.0762,0.508 -0.2286,0.9652 -0.4191,1.2446 -0.127,0.2159 -0.3937,0.3302 -0.7747,0.3302 l -0.2667,-0.0127 v 1.0414 c 0.1905,0.0254 0.3048,0.0254 0.4953,0.0254 1.4351,0 1.9431,-0.4826 2.3749,-2.2606 z"
         style="font-style:normal;font-variant:normal;font-weight:bold;font-stretch:normal;font-size:12.69999981px;font-family:Eurostile;-inkscape-font-specification:'Eurostile, Bold';font-variant-ligatures:normal;font-variant-caps:normal;font-variant-numeric:normal;font-feature-settings:normal;text-align:start;writing-mode:lr-tb;text-anchor:start;stroke-width:0.26458332"
         id="path856" />
      <path
         d="m 87.144337,67.210213 h 1.4351 l -0.0635,-0.9398 h 0.0254 c 0.3302,0.7366 0.8128,1.016 1.8161,1.016 0.9017,0 1.4986,-0.2032 1.8288,-0.6477 0.3937,-0.508 0.508,-1.0287 0.508,-2.4003 0,-1.4605 -0.1397,-2.0955 -0.5842,-2.5273 -0.3302,-0.3302 -0.889,-0.508 -1.6383,-0.508 -1.0795,0 -1.6002,0.2667 -1.8669,0.9398 l -0.0254,-0.0127 v -3.3909 h -1.4351 z m 2.8321,-4.8641 c 1.0541,0 1.2573,0.3175 1.2573,1.8923 0,1.6129 -0.2032,1.9177 -1.2954,1.9177 -1.1557,0 -1.3335,-0.2921 -1.3335,-2.0955 0,-1.3081 0.3175,-1.7145 1.3716,-1.7145 z"
         style="font-style:normal;font-variant:normal;font-weight:bold;font-stretch:normal;font-size:12.69999981px;font-family:Eurostile;-inkscape-font-specification:'Eurostile, Bold';font-variant-ligatures:normal;font-variant-caps:normal;font-variant-numeric:normal;font-feature-settings:normal;text-align:start;writing-mode:lr-tb;text-anchor:start;stroke-width:0.26458332"
         id="path858" />
      <path
         d="m 95.301508,58.739313 h -1.4351 v 1.2192 h 1.4351 z m 0,2.54 h -1.4351 v 5.9309 h 1.4351 z"
         style="font-style:normal;font-variant:normal;font-weight:bold;font-stretch:normal;font-size:12.69999981px;font-family:Eurostile;-inkscape-font-specification:'Eurostile, Bold';font-variant-ligatures:normal;font-variant-caps:normal;font-variant-numeric:normal;font-feature-settings:normal;text-align:start;writing-mode:lr-tb;text-anchor:start;stroke-width:0.26458332"
         id="path860" />
      <path
         d="m 101.96464,61.279313 h -1.4351 v 3.2385 c 0,0.5715 -0.0254,0.8001 -0.127,1.016 -0.2032,0.4064 -0.584196,0.5969 -1.231896,0.5969 -0.5207,0 -0.8001,-0.1143 -0.9398,-0.381 -0.0762,-0.1397 -0.1143,-0.381 -0.1143,-0.8255 v -3.6449 h -1.4351 v 3.9878 c 0,1.397 0.6096,2.0193 1.9939,2.0193 1.0414,0 1.612896,-0.3302 1.904996,-1.1049 l 0.0254,0.0127 -0.0762,1.016 h 1.4351 z"
         style="font-style:normal;font-variant:normal;font-weight:bold;font-stretch:normal;font-size:12.69999981px;font-family:Eurostile;-inkscape-font-specification:'Eurostile, Bold';font-variant-ligatures:normal;font-variant-caps:normal;font-variant-numeric:normal;font-feature-settings:normal;text-align:start;writing-mode:lr-tb;text-anchor:start;stroke-width:0.26458332"
         id="path862" />
      <path
         d="m 108.3069,62.904913 c 0,-1.3462 -0.5334,-1.7018 -2.5146,-1.7018 -2.1082,0 -2.667,0.3683 -2.667,1.7653 0,1.4732 0.5207,1.7653 3.1242,1.7907 0.6731,0.0127 0.8509,0.1651 0.8509,0.7366 0,0.635 -0.254,0.7874 -1.2954,0.7874 -1.0287,0 -1.2446,-0.1397 -1.2446,-0.762 v -0.1778 h -1.4732 c 0,0.5334 0.0127,0.6477 0.1016,0.9144 0.2286,0.762 0.9017,1.0287 2.54,1.0287 1.2319,0 1.8288,-0.127 2.2479,-0.4699 0.3556,-0.3048 0.5461,-0.7874 0.5461,-1.4351 0,-0.6477 -0.1778,-1.1176 -0.5334,-1.3843 -0.3175,-0.2413 -0.635,-0.3048 -1.9304,-0.3683 -0.9906,-0.0381 -1.0541,-0.0508 -1.1938,-0.0889 -0.2286,-0.0762 -0.3302,-0.2667 -0.3302,-0.635 0,-0.6096 0.1778,-0.7112 1.2065,-0.7112 1.0033,0 1.1049,0.0635 1.1684,0.7112 z"
         style="font-style:normal;font-variant:normal;font-weight:bold;font-stretch:normal;font-size:12.69999981px;font-family:Eurostile;-inkscape-font-specification:'Eurostile, Bold';font-variant-ligatures:normal;font-variant-caps:normal;font-variant-numeric:normal;font-feature-settings:normal;text-align:start;writing-mode:lr-tb;text-anchor:start;stroke-width:0.26458332"
         id="path864" />
      <path
         d="m 112.86799,67.210213 h 4.4069 c 1.8542,0 2.5019,-0.6096 2.5019,-2.3241 0,-1.3589 -0.3429,-1.8415 -1.4478,-2.0193 v -0.0381 c 0.9144,-0.2032 1.2446,-0.6985 1.2446,-1.8669 0,-1.0287 -0.254,-1.6383 -0.8128,-1.9558 -0.3556,-0.1905 -0.8128,-0.2667 -1.7145,-0.2667 h -4.1783 z m 1.6256,-4.9149 v -2.2098 h 2.2987 c 0.4572,0 0.635,0.0254 0.7874,0.0889 0.2667,0.1397 0.381,0.4064 0.381,0.9525 0,0.5842 -0.1016,0.8636 -0.3683,1.016 -0.2032,0.1143 -0.4445,0.1524 -1.1303,0.1524 z m 0,3.5687 v -2.3622 h 2.0574 c 0.7747,0 0.9779,0.0127 1.1684,0.1016 0.3302,0.1524 0.4445,0.4445 0.4445,1.1176 0,1.016 -0.2159,1.143 -1.905,1.143 z"
         style="font-style:normal;font-variant:normal;font-weight:bold;font-stretch:normal;font-size:12.69999981px;font-family:Eurostile;-inkscape-font-specification:'Eurostile, Bold';font-variant-ligatures:normal;font-variant-caps:normal;font-variant-numeric:normal;font-feature-settings:normal;text-align:start;writing-mode:lr-tb;text-anchor:start;stroke-width:0.26458332"
         id="path866" />
      <path
         d="m 122.33862,58.739313 h -1.4351 v 1.2192 h 1.4351 z m 0,2.54 h -1.4351 v 5.9309 h 1.4351 z"
         style="font-style:normal;font-variant:normal;font-weight:bold;font-stretch:normal;font-size:12.69999981px;font-family:Eurostile;-inkscape-font-specification:'Eurostile, Bold';font-variant-ligatures:normal;font-variant-caps:normal;font-variant-numeric:normal;font-feature-settings:normal;text-align:start;writing-mode:lr-tb;text-anchor:start;stroke-width:0.26458332"
         id="path868" />
      <path
         d="m 126.36015,61.203113 c -1.2573,0 -1.7907,0.1143 -2.2098,0.4826 -0.4572,0.4064 -0.635,1.0414 -0.635,2.3368 0,1.4478 0.0889,1.9939 0.381,2.4638 0.3556,0.5842 1.0287,0.8001 2.4257,0.8001 2.3114,0 2.794,-0.5461 2.794,-3.1877 0,-1.3462 -0.1651,-1.9812 -0.6096,-2.4003 -0.3937,-0.3683 -0.9398,-0.4953 -2.1463,-0.4953 z m -0.0508,1.1176 c 1.1684,0 1.3462,0.2413 1.3462,1.8034 0,1.7907 -0.1651,2.0447 -1.3589,2.0447 -1.1557,0 -1.3208,-0.2413 -1.3208,-1.9812 0,-1.6256 0.1778,-1.8669 1.3335,-1.8669 z"
         style="font-style:normal;font-variant:normal;font-weight:bold;font-stretch:normal;font-size:12.69999981px;font-family:Eurostile;-inkscape-font-specification:'Eurostile, Bold';font-variant-ligatures:normal;font-variant-caps:normal;font-variant-numeric:normal;font-feature-settings:normal;text-align:start;writing-mode:lr-tb;text-anchor:start;stroke-width:0.26458332"
         id="path870" />
      <path
         d="m 134.26391,61.279313 h -2.2606 v -1.3208 h -1.4351 v 1.3208 h -0.7747 v 1.0795 h 0.7747 v 3.175 c 0,0.5715 0.0254,0.7747 0.1524,1.016 0.2667,0.5207 0.762,0.7366 1.7526,0.7366 0.9144,0 1.4097,-0.1651 1.7145,-0.5588 0.2413,-0.3302 0.3175,-0.635 0.3175,-1.4605 v -0.3429 h -1.2065 c 0.0127,0.127 0.0127,0.1905 0.0127,0.2413 0,0.8128 -0.1397,1.016 -0.6985,1.016 -0.4953,0 -0.6096,-0.1651 -0.6096,-0.8509 v -2.9718 h 2.2606 z"
         style="font-style:normal;font-variant:normal;font-weight:bold;font-stretch:normal;font-size:12.69999981px;font-family:Eurostile;-inkscape-font-specification:'Eurostile, Bold';font-variant-ligatures:normal;font-variant-caps:normal;font-variant-numeric:normal;font-feature-settings:normal;text-align:start;writing-mode:lr-tb;text-anchor:start;stroke-width:0.26458332"
         id="path872" />
      <path
         d="m 139.31137,65.317913 c -0.0127,0.762 -0.2032,0.9017 -1.2446,0.9017 -1.0922,0 -1.3462,-0.2794 -1.3462,-1.4859 v -0.2286 h 4.0132 c 0,-1.3081 -0.0254,-1.6002 -0.1524,-2.0193 -0.3048,-0.9398 -0.9652,-1.2827 -2.5146,-1.2827 -1.1938,0 -1.8542,0.1905 -2.2733,0.6477 -0.381,0.4318 -0.5207,1.0668 -0.5207,2.3622 0,2.5146 0.5334,3.0734 2.9083,3.0734 1.9558,0 2.5527,-0.4572 2.5527,-1.9685 z m 0.0127,-1.7018 h -2.5908 c 0.0127,-0.5207 0.0254,-0.6858 0.1016,-0.8763 0.1524,-0.3683 0.4318,-0.4699 1.2065,-0.4699 1.0668,0 1.2573,0.1778 1.2827,1.1176 z"
         style="font-style:normal;font-variant:normal;font-weight:bold;font-stretch:normal;font-size:12.69999981px;font-family:Eurostile;-inkscape-font-specification:'Eurostile, Bold';font-variant-ligatures:normal;font-variant-caps:normal;font-variant-numeric:normal;font-feature-settings:normal;text-align:start;writing-mode:lr-tb;text-anchor:start;stroke-width:0.26458332"
         id="path874" />
      <path
         d="m 145.70979,64.949613 c 0,1.0541 -0.1524,1.2192 -1.1811,1.2192 -0.5588,0 -0.8763,-0.0635 -1.0287,-0.2159 -0.2286,-0.2286 -0.3175,-0.7112 -0.3175,-1.6764 0,-1.7272 0.1524,-1.9431 1.3081,-1.9431 0.9398,0 1.1557,0.1905 1.1557,1.0414 h 1.397 c 0,-1.7018 -0.5715,-2.1717 -2.6289,-2.1717 -1.1557,0 -1.8542,0.2286 -2.2352,0.7493 -0.3429,0.4572 -0.4572,1.0541 -0.4572,2.286 0,1.4605 0.1778,2.1082 0.6731,2.54 0.4318,0.3683 1.0287,0.508 2.1844,0.508 1.3462,0 1.905,-0.1778 2.2606,-0.7366 0.2032,-0.3048 0.2921,-0.7366 0.2921,-1.397 v -0.2032 z"
         style="font-style:normal;font-variant:normal;font-weight:bold;font-stretch:normal;font-size:12.69999981px;font-family:Eurostile;-inkscape-font-specification:'Eurostile, Bold';font-variant-ligatures:normal;font-variant-caps:normal;font-variant-numeric:normal;font-feature-settings:normal;text-align:start;writing-mode:lr-tb;text-anchor:start;stroke-width:0.26458332"
         id="path876" />
      <path
         d="m 149.57416,58.739313 h -1.4351 v 8.4709 h 1.4351 v -3.3655 c 0,-1.1049 0.3556,-1.4859 1.4351,-1.4859 0.4953,0 0.762,0.1016 0.9144,0.3683 0.1143,0.1778 0.127,0.2921 0.127,0.8382 v 3.6449 h 1.4351 v -4.0259 c 0,-1.4097 -0.5842,-1.9812 -2.0447,-1.9812 -1.1049,0 -1.5367,0.254 -1.8415,1.0541 h -0.0254 z"
         style="font-style:normal;font-variant:normal;font-weight:bold;font-stretch:normal;font-size:12.69999981px;font-family:Eurostile;-inkscape-font-specification:'Eurostile, Bold';font-variant-ligatures:normal;font-variant-caps:normal;font-variant-numeric:normal;font-feature-settings:normal;text-align:start;writing-mode:lr-tb;text-anchor:start;stroke-width:0.26458332"
         id="path878" />
    </g>
    <g
       aria-label="improving life"
       style="font-style:normal;font-variant:normal;font-weight:normal;font-stretch:normal;font-size:4.23333311px;line-height:1.25;font-family:'Eurostile Cond';-inkscape-font-specification:'Eurostile Cond';letter-spacing:0px;word-spacing:0px;fill:#000000;fill-opacity:1;stroke:none;stroke-width:0.26458332"
       id="text1760"
       inkscape:export-xdpi="96"
       inkscape:export-ydpi="96">
      <path
         d="m 105.44186,72.518745 h 0.45085 v -3.00355 h -0.45085 z m 0,-3.7211 h 0.45085 v -0.55245 h -0.45085 z"
         style="font-style:normal;font-variant:normal;font-weight:normal;font-stretch:normal;font-size:6.3499999px;font-family:'Eurostile Extd';-inkscape-font-specification:'Eurostile Extd, Normal';font-variant-ligatures:normal;font-variant-caps:normal;font-variant-numeric:normal;font-feature-settings:normal;text-align:start;writing-mode:lr-tb;text-anchor:start;stroke-width:0.26458332"
         id="path881" />
      <path
         d="m 106.90534,72.518745 h 0.45085 v -1.7653 c 0,-0.6477 0.38735,-0.9017 1.3716,-0.9017 0.9017,0 1.12395,0.15875 1.12395,0.79375 v 1.87325 h 0.45085 v -1.7653 c 0,-0.64135 0.3937,-0.9017 1.3716,-0.9017 0.9017,0 1.12395,0.15875 1.12395,0.79375 v 1.87325 h 0.45085 v -1.8923 c 0,-0.9017 -0.32385,-1.1557 -1.45415,-1.1557 -1.07315,0 -1.4351,0.1397 -1.63195,0.635 -0.1524,-0.4826 -0.47625,-0.635 -1.3208,-0.635 -1.0033,0 -1.30175,0.127 -1.4859,0.635 v -0.59055 h -0.45085 z"
         style="font-style:normal;font-variant:normal;font-weight:normal;font-stretch:normal;font-size:6.3499999px;font-family:'Eurostile Extd';-inkscape-font-specification:'Eurostile Extd, Normal';font-variant-ligatures:normal;font-variant-caps:normal;font-variant-numeric:normal;font-feature-settings:normal;text-align:start;writing-mode:lr-tb;text-anchor:start;stroke-width:0.26458332"
         id="path883" />
      <path
         d="m 114.27233,69.515195 v 4.27355 h 0.45085 v -1.7145 c 0.1905,0.37465 0.5334,0.48895 1.50495,0.48895 0.889,0 1.3081,-0.08255 1.55575,-0.29845 0.26035,-0.2286 0.3683,-0.5969 0.3683,-1.2446 0,-0.65405 -0.10795,-1.02235 -0.3683,-1.25095 -0.24765,-0.2159 -0.66675,-0.29845 -1.55575,-0.29845 -0.97155,0 -1.31445,0.1143 -1.50495,0.48895 v -0.4445 z m 1.92405,0.33655 c 0.7493,0 1.07315,0.05715 1.2446,0.2159 0.1651,0.1524 0.23495,0.4445 0.23495,0.9525 0,0.45085 -0.0571,0.7366 -0.18415,0.89535 -0.17145,0.2032 -0.4699,0.2667 -1.30175,0.2667 -1.28905,0 -1.4732,-0.14605 -1.4732,-1.1811 0,-0.43815 0.0635,-0.7239 0.18415,-0.88265 0.1651,-0.2032 0.4699,-0.2667 1.2954,-0.2667 z"
         style="font-style:normal;font-variant:normal;font-weight:normal;font-stretch:normal;font-size:6.3499999px;font-family:'Eurostile Extd';-inkscape-font-specification:'Eurostile Extd, Normal';font-variant-ligatures:normal;font-variant-caps:normal;font-variant-numeric:normal;font-feature-settings:normal;text-align:start;writing-mode:lr-tb;text-anchor:start;stroke-width:0.26458332"
         id="path885" />
      <path
         d="m 119.08444,72.518745 h 0.45085 v -1.7653 c 0,-0.65405 0.3429,-0.9017 1.2446,-0.9017 0.83185,0 1.016,0.14605 1.016,0.79375 v 0.15875 h 0.45085 v -0.1778 c 0,-0.89535 -0.29845,-1.1557 -1.33985,-1.1557 -0.93345,0 -1.2065,0.127 -1.3716,0.635 v -0.59055 h -0.45085 z"
         style="font-style:normal;font-variant:normal;font-weight:normal;font-stretch:normal;font-size:6.3499999px;font-family:'Eurostile Extd';-inkscape-font-specification:'Eurostile Extd, Normal';font-variant-ligatures:normal;font-variant-caps:normal;font-variant-numeric:normal;font-feature-settings:normal;text-align:start;writing-mode:lr-tb;text-anchor:start;stroke-width:0.26458332"
         id="path887" />
      <path
         d="m 124.88288,69.470745 c -0.9144,0 -1.3335,0.0762 -1.58115,0.29845 -0.26035,0.2286 -0.3683,0.5969 -0.3683,1.2446 0,0.65405 0.10795,1.02235 0.3683,1.25095 0.254,0.22225 0.66675,0.29845 1.58115,0.29845 0.92075,0 1.3335,-0.0762 1.5875,-0.29845 0.254,-0.2286 0.3683,-0.5969 0.3683,-1.22555 0,-0.6731 -0.10795,-1.03505 -0.3683,-1.27 -0.254,-0.22225 -0.66675,-0.29845 -1.5875,-0.29845 z m 0.0127,0.381 c 0.74295,0 1.06045,0.05715 1.2319,0.2159 0.1651,0.15875 0.23495,0.4445 0.23495,0.9652 0,0.43815 -0.0635,0.7239 -0.18415,0.88265 -0.1651,0.2032 -0.4699,0.2667 -1.28905,0.2667 -0.75565,0 -1.07315,-0.05715 -1.2446,-0.2159 -0.1651,-0.1524 -0.23495,-0.4445 -0.23495,-0.9525 0,-0.45085 0.0572,-0.7366 0.18415,-0.89535 0.1651,-0.2032 0.4699,-0.2667 1.30175,-0.2667 z"
         style="font-style:normal;font-variant:normal;font-weight:normal;font-stretch:normal;font-size:6.3499999px;font-family:'Eurostile Extd';-inkscape-font-specification:'Eurostile Extd, Normal';font-variant-ligatures:normal;font-variant-caps:normal;font-variant-numeric:normal;font-feature-settings:normal;text-align:start;writing-mode:lr-tb;text-anchor:start;stroke-width:0.26458332"
         id="path889" />
      <path
         d="m 127.19309,69.515195 1.7272,3.00355 h 0.65405 l 1.7272,-3.00355 h -0.508 l -1.54305,2.6924 -1.54305,-2.6924 z"
         style="font-style:normal;font-variant:normal;font-weight:normal;font-stretch:normal;font-size:6.3499999px;font-family:'Eurostile Extd';-inkscape-font-specification:'Eurostile Extd, Normal';font-variant-ligatures:normal;font-variant-caps:normal;font-variant-numeric:normal;font-feature-settings:normal;text-align:start;writing-mode:lr-tb;text-anchor:start;stroke-width:0.26458332"
         id="path891" />
      <path
         d="m 131.90846,72.518745 h 0.45085 v -3.00355 h -0.45085 z m 0,-3.7211 h 0.45085 v -0.55245 h -0.45085 z"
         style="font-style:normal;font-variant:normal;font-weight:normal;font-stretch:normal;font-size:6.3499999px;font-family:'Eurostile Extd';-inkscape-font-specification:'Eurostile Extd, Normal';font-variant-ligatures:normal;font-variant-caps:normal;font-variant-numeric:normal;font-feature-settings:normal;text-align:start;writing-mode:lr-tb;text-anchor:start;stroke-width:0.26458332"
         id="path893" />
      <path
         d="m 133.37194,72.518745 h 0.45085 v -1.7653 c 0,-0.65405 0.40005,-0.89535 1.47955,-0.89535 1.00965,0 1.2319,0.14605 1.2319,0.79375 v 1.8669 h 0.45085 v -1.8923 c 0,-0.50165 -0.0953,-0.762 -0.33655,-0.94615 -0.2413,-0.18415 -0.5715,-0.24765 -1.2192,-0.24765 -1.0922,0 -1.4097,0.13335 -1.60655,0.67945 v -0.5969 h -0.45085 z"
         style="font-style:normal;font-variant:normal;font-weight:normal;font-stretch:normal;font-size:6.3499999px;font-family:'Eurostile Extd';-inkscape-font-specification:'Eurostile Extd, Normal';font-variant-ligatures:normal;font-variant-caps:normal;font-variant-numeric:normal;font-feature-settings:normal;text-align:start;writing-mode:lr-tb;text-anchor:start;stroke-width:0.26458332"
         id="path895" />
      <path
         d="m 141.79531,69.515195 h -0.45085 v 0.4445 c -0.22225,-0.38735 -0.5334,-0.48895 -1.4986,-0.48895 -0.889,0 -1.3081,0.08255 -1.5621,0.29845 -0.26035,0.2286 -0.3683,0.5969 -0.3683,1.25095 0,0.6477 0.10795,1.016 0.3683,1.2446 0.254,0.2159 0.6731,0.29845 1.55575,0.29845 0.97155,0 1.2827,-0.1016 1.50495,-0.48895 -0.006,0.73025 -0.0254,0.889 -0.1143,1.09855 -0.1397,0.31115 -0.3937,0.381 -1.32715,0.381 -0.8255,0 -1.0795,-0.0381 -1.26365,-0.19685 -0.12065,-0.10795 -0.1905,-0.27305 -0.1905,-0.45085 v -0.0635 h -0.46355 v 0.0635 c 0,0.31115 0.13335,0.59055 0.36195,0.76835 0.26035,0.19685 0.6477,0.26035 1.53035,0.26035 0.89535,0 1.3081,-0.08255 1.55575,-0.29845 0.2794,-0.24765 0.36195,-0.5715 0.36195,-1.4097 z m -1.9431,0.33655 c 0.7874,0 1.04775,0.04445 1.2319,0.2159 0.1651,0.15875 0.23495,0.43815 0.23495,0.9652 0,0.43815 -0.0635,0.7239 -0.18415,0.8763 -0.18415,0.22225 -0.4318,0.27305 -1.2954,0.27305 -0.80645,0 -1.0541,-0.04445 -1.2446,-0.2159 -0.1651,-0.15875 -0.23495,-0.43815 -0.23495,-0.9525 0,-0.45085 0.0572,-0.7366 0.1905,-0.889 0.1778,-0.22225 0.42545,-0.27305 1.30175,-0.27305 z"
         style="font-style:normal;font-variant:normal;font-weight:normal;font-stretch:normal;font-size:6.3499999px;font-family:'Eurostile Extd';-inkscape-font-specification:'Eurostile Extd, Normal';font-variant-ligatures:normal;font-variant-caps:normal;font-variant-numeric:normal;font-feature-settings:normal;text-align:start;writing-mode:lr-tb;text-anchor:start;stroke-width:0.26458332"
         id="path897" />
      <path
         d="m 144.39762,72.518745 h 0.45085 v -4.27355 h -0.45085 z"
         style="font-style:normal;font-variant:normal;font-weight:normal;font-stretch:normal;font-size:6.3499999px;font-family:'Eurostile Extd';-inkscape-font-specification:'Eurostile Extd, Normal';font-variant-ligatures:normal;font-variant-caps:normal;font-variant-numeric:normal;font-feature-settings:normal;text-align:start;writing-mode:lr-tb;text-anchor:start;stroke-width:0.26458332"
         id="path899" />
      <path
         d="m 145.8611,72.518745 h 0.45085 v -3.00355 h -0.45085 z m 0,-3.7211 h 0.45085 v -0.55245 h -0.45085 z"
         style="font-style:normal;font-variant:normal;font-weight:normal;font-stretch:normal;font-size:6.3499999px;font-family:'Eurostile Extd';-inkscape-font-specification:'Eurostile Extd, Normal';font-variant-ligatures:normal;font-variant-caps:normal;font-variant-numeric:normal;font-feature-settings:normal;text-align:start;writing-mode:lr-tb;text-anchor:start;stroke-width:0.26458332"
         id="path901" />
      <path
         d="m 147.47062,72.518745 h 0.45085 v -2.62255 h 1.4986 v -0.381 h -1.4986 v -0.254 c 0,-0.2921 0.0699,-0.45085 0.23495,-0.55245 0.17145,-0.09525 0.3556,-0.12065 0.95885,-0.12065 h 0.3048 v -0.381 h -0.40005 c -0.5969,0 -0.89535,0.0381 -1.11125,0.1397 -0.29845,0.1397 -0.43815,0.43815 -0.43815,0.93345 v 0.23495 h -0.65405 v 0.381 h 0.65405 z"
         style="font-style:normal;font-variant:normal;font-weight:normal;font-stretch:normal;font-size:6.3499999px;font-family:'Eurostile Extd';-inkscape-font-specification:'Eurostile Extd, Normal';font-variant-ligatures:normal;font-variant-caps:normal;font-variant-numeric:normal;font-feature-settings:normal;text-align:start;writing-mode:lr-tb;text-anchor:start;stroke-width:0.26458332"
         id="path903" />
      <path
         d="m 153.68737,71.102695 c 0.006,-0.6477 -0.0571,-0.94615 -0.23495,-1.18745 -0.2413,-0.33655 -0.65405,-0.4445 -1.6637,-0.4445 -0.8636,0 -1.28905,0.08255 -1.5367,0.29845 -0.26035,0.2286 -0.3683,0.5969 -0.3683,1.25095 0,0.6477 0.10795,1.016 0.3683,1.2446 0.24765,0.2159 0.6731,0.29845 1.54305,0.29845 0.9525,0 1.37795,-0.0889 1.63195,-0.3429 0.15875,-0.1524 0.23495,-0.3302 0.254,-0.60325 h -0.46355 c -0.0635,0.4572 -0.3302,0.56515 -1.397,0.56515 -0.84455,0 -1.07315,-0.04445 -1.27,-0.254 -0.1524,-0.1651 -0.1905,-0.31115 -0.1905,-0.8255 z m -3.3274,-0.3683 c 0.006,-0.254 0.0254,-0.3683 0.0889,-0.48895 0.1651,-0.3175 0.4191,-0.3937 1.33985,-0.3937 0.9144,0 1.16205,0.0762 1.3335,0.3937 0.0635,0.127 0.0825,0.24765 0.0889,0.48895 z"
         style="font-style:normal;font-variant:normal;font-weight:normal;font-stretch:normal;font-size:6.3499999px;font-family:'Eurostile Extd';-inkscape-font-specification:'Eurostile Extd, Normal';font-variant-ligatures:normal;font-variant-caps:normal;font-variant-numeric:normal;font-feature-settings:normal;text-align:start;writing-mode:lr-tb;text-anchor:start;stroke-width:0.26458332"
         id="path905" />
    </g>
    <path
       style="fill:none;stroke:#ff7545;stroke-width:4;stroke-linecap:round;stroke-linejoin:round;stroke-miterlimit:4;stroke-dasharray:none;stroke-opacity:1"
       d="m 96.766057,18.043248 12.933583,7.4256 12.89074,-7.49978 0.0428,14.92534 -12.89054,7.49978 0.0428,14.92536 -12.933563,-7.42558 -0.043,-14.92536"
       id="path1648"
       inkscape:connector-curvature="0"
       inkscape:export-xdpi="96"
       inkscape:export-ydpi="96" />
    <g
       aria-label=" ポリュビオス　バイオテク　"
       style="font-style:normal;font-variant:normal;font-weight:normal;font-stretch:normal;font-size:4.23333311px;line-height:1.25;font-family:'Eurostile Cond';-inkscape-font-specification:'Eurostile Cond';letter-spacing:0px;word-spacing:0px;fill:#000000;fill-opacity:1;stroke:none;stroke-width:0.26458332"
       id="text1523"
       inkscape:export-xdpi="96"
       inkscape:export-ydpi="96">
      <path
         d="m 122.76675,54.728231 q 0.0882,0 0.14332,-0.05512 0.0551,-0.05512 0.0551,-0.143316 0,-0.0882 -0.0551,-0.143316 -0.0551,-0.05512 -0.14332,-0.05512 -0.0882,0 -0.14331,0.05512 -0.0551,0.05512 -0.0551,0.143316 0,0.08819 0.0551,0.143316 0.0551,0.05512 0.14331,0.05512 z m 0,0.110243 q -0.13229,0 -0.22048,-0.08819 -0.0882,-0.08819 -0.0882,-0.220486 0,-0.132292 0.0882,-0.220486 0.0882,-0.08819 0.22048,-0.08819 0.13229,0 0.22049,0.08819 0.0882,0.08819 0.0882,0.220486 0,0.132291 -0.0882,0.220486 -0.0882,0.08819 -0.22049,0.08819 z m -0.37482,0.617361 q 0.39687,0.418924 0.59531,0.771702 l -0.24254,0.165364 q -0.23151,-0.407899 -0.56224,-0.760677 z m -0.52917,-0.474045 h 1.01424 v 0.242535 h -1.01424 v 1.532379 h -0.25356 v -1.532379 h -0.99219 V 54.98179 h 0.99219 v -0.617361 h 0.23151 q 0.12127,0.02205 0.022,0.08819 z m -0.58429,0.606337 q 0.0662,0.05512 -0.0441,0.07717 -0.16536,0.363802 -0.41892,0.760677 l -0.24253,-0.132291 q 0.2756,-0.396875 0.46302,-0.837848 z"
         style="font-style:normal;font-variant:normal;font-weight:normal;font-stretch:normal;font-size:2.82222223px;font-family:'Eurostile Cond';-inkscape-font-specification:'Eurostile Cond, Normal';font-variant-ligatures:normal;font-variant-caps:normal;font-variant-numeric:normal;font-feature-settings:normal;text-align:start;writing-mode:lr-tb;text-anchor:start"
         id="path827" />
      <path
         d="m 125.25825,55.610176 q 0,0.826823 -0.77171,1.190625 l -0.22048,-0.187413 q 0.7276,-0.33073 0.73863,-1.014237 v -1.10243 h 0.23151 q 0.11024,0.02205 0.0221,0.08819 z m -1.13551,0.242534 h -0.25356 v -1.245746 h 0.24254 q 0.11024,0.01102 0.011,0.08819 z"
         style="font-style:normal;font-variant:normal;font-weight:normal;font-stretch:normal;font-size:2.82222223px;font-family:'Eurostile Cond';-inkscape-font-specification:'Eurostile Cond, Normal';font-variant-ligatures:normal;font-variant-caps:normal;font-variant-numeric:normal;font-feature-settings:normal;text-align:start;writing-mode:lr-tb;text-anchor:start"
         id="path829" />
      <path
         d="m 128.38915,56.49212 h -1.98438 v -0.209462 h 1.19063 l 0.0221,-0.826823 h -0.904 v -0.209461 h 1.12448 l -0.022,1.036284 h 0.57327 z"
         style="font-style:normal;font-variant:normal;font-weight:normal;font-stretch:normal;font-size:2.82222223px;font-family:'Eurostile Cond';-inkscape-font-specification:'Eurostile Cond, Normal';font-variant-ligatures:normal;font-variant-caps:normal;font-variant-numeric:normal;font-feature-settings:normal;text-align:start;writing-mode:lr-tb;text-anchor:start"
         id="path831" />
      <path
         d="m 131.10113,55.213301 q 0.0551,0.09922 -0.0992,0.03307 -0.61736,0.165364 -1.30087,0.253559 v 0.71658 q 0,0.143316 0.14332,0.143316 h 1.26779 l -0.0221,0.242534 h -1.28984 q -0.35278,0 -0.35278,-0.286632 v -1.730816 h 0.22049 q 0.12127,0.02205 0.0331,0.08819 v 0.562239 q 0.74965,-0.08819 1.31189,-0.275607 z m -0.13229,-0.363802 q -0.17639,-0.220486 -0.34176,-0.385851 l 0.15434,-0.121267 q 0.15434,0.143316 0.34176,0.38585 z m 0.3197,-0.154341 q -0.19844,-0.23151 -0.34175,-0.374826 l 0.13229,-0.121267 q 0.16536,0.15434 0.35278,0.374826 z"
         style="font-style:normal;font-variant:normal;font-weight:normal;font-stretch:normal;font-size:2.82222223px;font-family:'Eurostile Cond';-inkscape-font-specification:'Eurostile Cond, Normal';font-variant-ligatures:normal;font-variant-caps:normal;font-variant-numeric:normal;font-feature-settings:normal;text-align:start;writing-mode:lr-tb;text-anchor:start"
         id="path833" />
      <path
         d="m 131.79566,56.293683 q 0.70555,-0.451997 1.10243,-1.080382 h -1.03629 v -0.242535 h 1.16858 v -0.606337 h 0.23151 q 0.0992,0.02205 0.0221,0.08819 v 0.518142 h 0.92604 v 0.242535 h -0.92604 v 1.289843 q 0,0.264584 -0.25356,0.264584 h -0.30868 l -0.0441,-0.242535 h 0.22049 q 0.13229,-0.02205 0.13229,-0.143316 v -0.926042 q -0.41892,0.617362 -1.01424,1.036285 z"
         style="font-style:normal;font-variant:normal;font-weight:normal;font-stretch:normal;font-size:2.82222223px;font-family:'Eurostile Cond';-inkscape-font-specification:'Eurostile Cond, Normal';font-variant-ligatures:normal;font-variant-caps:normal;font-variant-numeric:normal;font-feature-settings:normal;text-align:start;writing-mode:lr-tb;text-anchor:start"
         id="path835" />
      <path
         d="m 136.04002,55.577103 q 0.47404,0.363802 0.93706,0.837847 l -0.22048,0.187413 q -0.46302,-0.485069 -0.89297,-0.815798 -0.42995,0.46302 -0.98117,0.826823 L 134.673,56.425974 q 1.16858,-0.760677 1.49931,-1.521354 l -1.20165,0.07717 -0.0331,-0.264583 1.27882,-0.05512 0.13229,-0.03307 0.17639,0.176388 q 0.0772,0.07717 -0.0441,0.09922 -0.20946,0.363802 -0.44097,0.672483 z"
         style="font-style:normal;font-variant:normal;font-weight:normal;font-stretch:normal;font-size:2.82222223px;font-family:'Eurostile Cond';-inkscape-font-specification:'Eurostile Cond, Normal';font-variant-ligatures:normal;font-variant-caps:normal;font-variant-numeric:normal;font-feature-settings:normal;text-align:start;writing-mode:lr-tb;text-anchor:start"
         id="path837" />
      <path
         d="m 141.99314,54.860523 q 0.55122,0.694531 0.78273,1.466233 l -0.29766,0.09922 q -0.27561,-0.87092 -0.71658,-1.389062 z m -0.83785,0.253559 q 0.0882,0.05512 -0.0221,0.09922 -0.19843,0.694531 -0.6394,1.267795 l -0.25356,-0.165365 q 0.48507,-0.584288 0.65043,-1.322916 z m 1.32292,-0.859896 q 0.14332,0.121268 0.35278,0.341754 l -0.14332,0.132291 q -0.19844,-0.220486 -0.35278,-0.352777 z m -0.26458,0.165365 q 0.16536,0.15434 0.35277,0.374826 l -0.16536,0.121267 q -0.16536,-0.220486 -0.34175,-0.374826 z"
         style="font-style:normal;font-variant:normal;font-weight:normal;font-stretch:normal;font-size:2.82222223px;font-family:'Eurostile Cond';-inkscape-font-specification:'Eurostile Cond, Normal';font-variant-ligatures:normal;font-variant-caps:normal;font-variant-numeric:normal;font-feature-settings:normal;text-align:start;writing-mode:lr-tb;text-anchor:start"
         id="path839" />
      <path
         d="m 143.19479,55.77554 q 1.15755,-0.485069 1.75287,-1.367014 l 0.20946,0.176389 q 0.0882,0.06615 -0.0772,0.09922 -0.20946,0.275608 -0.54019,0.56224 v 1.499305 h -0.25356 v -1.289844 q -0.38585,0.297657 -0.904,0.540191 z"
         style="font-style:normal;font-variant:normal;font-weight:normal;font-stretch:normal;font-size:2.82222223px;font-family:'Eurostile Cond';-inkscape-font-specification:'Eurostile Cond, Normal';font-variant-ligatures:normal;font-variant-caps:normal;font-variant-numeric:normal;font-feature-settings:normal;text-align:start;writing-mode:lr-tb;text-anchor:start"
         id="path841" />
      <path
         d="m 145.90677,56.293683 q 0.70556,-0.451997 1.10243,-1.080382 h -1.03628 v -0.242535 h 1.16857 v -0.606337 h 0.23151 q 0.0992,0.02205 0.0221,0.08819 v 0.518142 h 0.92604 v 0.242535 h -0.92604 v 1.289843 q 0,0.264584 -0.25356,0.264584 h -0.30868 l -0.0441,-0.242535 h 0.22049 q 0.13229,-0.02205 0.13229,-0.143316 v -0.926042 q -0.41892,0.617362 -1.01423,1.036285 z"
         style="font-style:normal;font-variant:normal;font-weight:normal;font-stretch:normal;font-size:2.82222223px;font-family:'Eurostile Cond';-inkscape-font-specification:'Eurostile Cond, Normal';font-variant-ligatures:normal;font-variant-caps:normal;font-variant-numeric:normal;font-feature-settings:normal;text-align:start;writing-mode:lr-tb;text-anchor:start"
         id="path843" />
      <path
         d="m 149.94167,55.477884 h -1.10244 v -0.242535 h 2.25999 v 0.242535 h -0.904 V 55.6212 q 0,0.694531 -0.49609,1.146528 l -0.22049,-0.165365 q 0.46303,-0.363802 0.46303,-0.981163 z m -0.70556,-0.672483 v -0.242534 h 1.46623 v 0.242534 z"
         style="font-style:normal;font-variant:normal;font-weight:normal;font-stretch:normal;font-size:2.82222223px;font-family:'Eurostile Cond';-inkscape-font-specification:'Eurostile Cond, Normal';font-variant-ligatures:normal;font-variant-caps:normal;font-variant-numeric:normal;font-feature-settings:normal;text-align:start;writing-mode:lr-tb;text-anchor:start"
         id="path845" />
      <path
         d="m 153.60173,55.069985 q -0.20946,1.201649 -1.37803,1.719791 l -0.19844,-0.209461 q 1.08038,-0.440973 1.30087,-1.521355 h -0.88195 q -0.25356,0.418924 -0.52916,0.672483 l -0.22049,-0.143316 q 0.57326,-0.518142 0.73863,-1.212673 l 0.25356,0.08819 q 0.0661,0.03307 -0.0221,0.06615 -0.0441,0.143316 -0.12127,0.286632 h 0.79375 l 0.0992,-0.05512 0.19844,0.198438 q 0.0772,0.07717 -0.0331,0.110243 z"
         style="font-style:normal;font-variant:normal;font-weight:normal;font-stretch:normal;font-size:2.82222223px;font-family:'Eurostile Cond';-inkscape-font-specification:'Eurostile Cond, Normal';font-variant-ligatures:normal;font-variant-caps:normal;font-variant-numeric:normal;font-feature-settings:normal;text-align:start;writing-mode:lr-tb;text-anchor:start"
         id="path847" />
    </g>
  </g>
</svg>
