<?xml version="1.0" standalone="no"?>
<!DOCTYPE svg PUBLIC "-//W3C//DTD SVG 1.1//EN" "http://www.w3.org/Graphics/SVG/1.1/DTD/svg11.dtd" >
<svg xmlns="http://www.w3.org/2000/svg" xmlns:xlink="http://www.w3.org/1999/xlink" version="1.1">
<metadata>
Created by FontForge 20160405 at Sun Aug  5 15:33:37 2018
 By www-data
Copyright (URW)++,Copyright 2008 by (URW)++ Design &#38; Development
</metadata>
<defs>
<font id="EurostileExt-Reg" horiz-adv-x="500" >
  <font-face 
    font-family="Eurostile Extd"
    font-weight="400"
    font-stretch="normal"
    units-per-em="1000"
    panose-1="0 0 5 0 0 0 0 0 0 0"
    ascent="673"
    descent="-327"
    x-height="473"
    cap-height="667"
    bbox="-257 -250 1971 870"
    underline-thickness="66"
    underline-position="-99"
    stemh="62"
    stemv="73"
    unicode-range="U+0020-FB04"
  />
<missing-glyph horiz-adv-x="250" 
 />
    <glyph glyph-name="fi" unicode="fi" horiz-adv-x="621" 
d="M541 473v-473h-71v413h-296v-413h-71v413h-103v60h103v37c0 78 22 125 69 147c34 16 81 22 175 22h63v-60h-48c-95 0 -124 -4 -151 -19c-26 -16 -37 -41 -37 -87v-40h367zM470 586v87h71v-87h-71z" />
    <glyph glyph-name="fl" unicode="fl" horiz-adv-x="621" 
d="M0 473h103v37c0 78 22 125 69 147c34 16 81 22 176 22h193v-679h-71v619h-108c-95 0 -124 -4 -150 -19c-27 -16 -38 -41 -38 -87v-40h223v-60h-223v-413h-71v413h-103v60z" />
    <glyph glyph-name="ff" unicode="ff" horiz-adv-x="780" 
d="M0 413v60h103v37c0 78 22 125 69 147c34 16 81 22 175 22h63v-60h-48c-95 0 -124 -4 -151 -19c-26 -16 -37 -41 -37 -87v-40h320v37c0 78 22 125 69 147c34 16 81 22 175 22h62v-60h-48c-95 0 -123 -4 -150 -19c-26 -16 -37 -41 -37 -87v-40h235v-60h-235v-413h-71v413
h-320v-413h-71v413h-103z" />
    <glyph glyph-name="ffi" unicode="ffi" horiz-adv-x="1011" 
d="M0 413v60h103v37c0 78 22 125 69 147c34 16 81 22 175 22h63v-60h-48c-95 0 -124 -4 -151 -19c-26 -16 -37 -41 -37 -87v-40h320v37c0 78 22 125 69 147c34 16 81 22 175 22h62v-60h-48c-95 0 -123 -4 -150 -19c-26 -16 -37 -41 -37 -87v-40h366v-473h-71v413h-295v-413
h-71v413h-320v-413h-71v413h-103zM860 586v87h71v-87h-71z" />
    <glyph glyph-name="ffl" unicode="ffl" horiz-adv-x="1011" 
d="M0 413v60h103v37c0 78 22 125 69 147c34 16 81 22 175 22h63v-60h-48c-95 0 -124 -4 -151 -19c-26 -16 -37 -41 -37 -87v-40h320v37c0 78 22 125 69 147c34 16 81 22 175 22h193v-679h-71v619h-108c-95 0 -123 -4 -150 -19c-26 -16 -37 -41 -37 -87v-40h222v-60h-222
v-413h-71v413h-320v-413h-71v413h-103z" />
    <glyph glyph-name=".notdef" horiz-adv-x="250" 
 />
    <glyph glyph-name="space" unicode=" " horiz-adv-x="250" 
 />
    <glyph glyph-name="exclam" unicode="!" horiz-adv-x="288" 
d="M108 197l-4 470h81l-4 -470h-73zM93 0v112h101v-112h-101z" />
    <glyph glyph-name="quotedbl" unicode="&#x22;" horiz-adv-x="336" 
d="M117 400h-56l-11 267h78zM276 400h-57l-10 267h78z" />
    <glyph glyph-name="numbersign" unicode="#" horiz-adv-x="907" 
d="M357 488h242l29 179h64l-29 -179h146l-10 -61h-145l-29 -179h146l-10 -65h-146l-29 -183h-64l29 183h-242l-29 -183h-62l29 183h-150l10 65h150l29 179h-150l9 61h150l29 179h62zM319 248h242l29 179h-242z" />
    <glyph glyph-name="dollar" unicode="$" horiz-adv-x="907" 
d="M479 599v-224l97 -2c133 -3 159 -7 197 -30c49 -29 71 -75 71 -148c0 -77 -21 -127 -67 -157c-42 -27 -101 -38 -213 -38h-85v-67h-64v67h-94c-196 0 -257 44 -257 186c0 4 0 15 1 26h83v-17c0 -108 31 -127 204 -127h63v238l-82 2c-111 2 -121 3 -160 13
c-68 19 -102 74 -102 168c0 80 25 130 77 156c37 17 75 22 187 22h80v73h64v-73h94c95 0 135 -4 165 -16c47 -20 78 -58 86 -107c2 -14 2 -31 2 -66h-79c0 53 -3 68 -14 85c-13 21 -37 31 -79 34c-18 2 -18 2 -82 2h-93zM415 599h-76c-150 0 -187 -22 -187 -110
c0 -46 12 -76 35 -92c22 -14 33 -16 146 -19l82 -2v223zM479 68h106c65 0 120 13 147 35c22 18 31 44 31 86c0 51 -13 80 -41 94c-30 15 -49 17 -146 20l-97 2v-237z" />
    <glyph glyph-name="percent" unicode="%" horiz-adv-x="1437" 
d="M375 -5l585 676h99l-585 -676h-99zM336 692c118 0 170 -10 208 -40c46 -36 60 -81 60 -197c0 -110 -14 -156 -60 -192c-38 -30 -90 -40 -208 -40c-119 0 -171 10 -209 40c-46 36 -60 82 -60 195c0 112 14 158 60 194c38 30 90 40 209 40zM336 629
c-100 0 -137 -8 -163 -34c-24 -25 -32 -59 -32 -137c0 -84 9 -118 38 -143c26 -22 63 -29 157 -29c99 0 136 8 162 34c24 25 32 59 32 135c0 86 -9 120 -38 145c-26 22 -63 29 -156 29zM1103 452c118 0 170 -10 208 -40c46 -36 60 -81 60 -197c0 -110 -14 -156 -60 -192
c-38 -30 -90 -40 -208 -40c-119 0 -171 10 -209 40c-46 36 -60 82 -60 195c0 112 14 158 60 194c38 30 90 40 209 40zM1103 389c-100 0 -137 -8 -163 -34c-24 -25 -32 -59 -32 -137c0 -84 9 -118 38 -143c26 -22 63 -29 157 -29c99 0 136 8 162 34c24 25 32 59 32 135
c0 86 -9 120 -38 145c-26 22 -63 29 -156 29z" />
    <glyph glyph-name="ampersand" unicode="&#x26;" horiz-adv-x="999" 
d="M978 2l-139 72c-34 -58 -94 -73 -289 -73c-243 0 -329 6 -374 24c-67 29 -96 84 -96 185c0 135 43 182 168 187c-63 40 -81 68 -81 128s19 101 59 125c32 19 66 24 165 24c283 0 317 -3 363 -37c38 -27 52 -69 52 -150v-14h-85c0 122 -9 128 -207 128
c-157 0 -186 -1 -209 -4c-38 -7 -55 -30 -55 -76c0 -48 13 -62 99 -108l438 -231c5 22 6 33 6 63c0 17 -1 42 -3 80h86c1 -23 2 -38 2 -58c0 -52 -3 -80 -13 -126l134 -70zM762 115l-460 242c-54 -3 -89 -14 -109 -35c-19 -21 -28 -57 -28 -120c0 -54 9 -82 33 -100
c31 -23 119 -33 281 -33c186 0 263 13 283 46z" />
    <glyph glyph-name="quoteright" unicode="&#x2019;" horiz-adv-x="288" 
d="M93 673h102v-112c0 -71 -36 -107 -107 -108h-7v54c34 0 49 17 48 54h-36v112z" />
    <glyph glyph-name="parenleft" unicode="(" horiz-adv-x="348" 
d="M321 689v-66c-101 0 -120 -4 -141 -29c-28 -32 -28 -38 -28 -357s0 -326 28 -358c21 -25 40 -29 141 -29v-66c-124 0 -162 8 -196 45c-25 26 -38 62 -42 120c-3 29 -3 81 -3 288c0 297 0 302 13 350c12 46 47 81 92 92c33 9 58 10 136 10z" />
    <glyph glyph-name="parenright" unicode=")" horiz-adv-x="348" 
d="M27 -216v66c101 0 120 4 141 29c28 32 28 39 28 358c0 318 0 325 -28 357c-21 25 -40 29 -141 29v66c124 0 162 -8 196 -45c25 -26 38 -62 42 -120c3 -29 3 -81 3 -287c0 -297 0 -303 -13 -351c-12 -46 -47 -81 -92 -92c-33 -8 -58 -10 -136 -10z" />
    <glyph glyph-name="asterisk" unicode="*" horiz-adv-x="678" 
d="M367 767v-145l212 69l18 -58l-205 -66l119 -138l-46 -42l-126 145l-127 -145l-46 42l119 138l-205 66l18 58l212 -69v145h57z" />
    <glyph glyph-name="plus" unicode="+" horiz-adv-x="840" 
d="M449 372h285v-59h-285v-273h-60v273h-284v59h284v268h60v-268z" />
    <glyph glyph-name="comma" unicode="," horiz-adv-x="288" 
d="M93 112h102v-112c0 -71 -36 -107 -107 -108h-7v54c34 0 49 17 48 54h-36v112z" />
    <glyph glyph-name="hyphen" unicode="-" horiz-adv-x="333" 
d="M0 297h333v-67h-333v67z" />
    <glyph glyph-name="period" unicode="." horiz-adv-x="288" 
d="M93 0v112h101v-112h-101z" />
    <glyph glyph-name="slash" unicode="/" horiz-adv-x="738" 
d="M615 671h92l-749 -864h-92z" />
    <glyph glyph-name="zero" unicode="0" horiz-adv-x="907" 
d="M453 674c247 0 294 -9 339 -61c40 -46 48 -96 48 -286c0 -175 -9 -228 -48 -273c-45 -52 -92 -61 -339 -61c-246 0 -293 9 -338 61c-39 46 -48 97 -48 280c0 182 9 234 48 279c45 52 93 61 338 61zM430 606c-174 0 -224 -8 -252 -42c-25 -31 -32 -78 -32 -230
c0 -153 7 -200 32 -231c28 -34 78 -42 252 -42c235 0 268 5 299 42c26 30 32 74 32 228c0 160 -6 202 -32 233c-31 37 -64 42 -299 42z" />
    <glyph glyph-name="one" unicode="1" horiz-adv-x="907" 
d="M235 398l-47 52l276 217h107v-667h-77v610z" />
    <glyph glyph-name="two" unicode="2" horiz-adv-x="907" 
d="M169 420h-78c0 70 2 96 7 121c14 62 48 98 108 115c46 12 123 18 248 18c196 0 265 -10 309 -44c43 -32 60 -80 60 -164c0 -91 -20 -142 -67 -172c-32 -20 -69 -28 -167 -35l-246 -18c-158 -10 -179 -30 -180 -173h661v-68h-742v41c-5 209 40 262 231 270l247 19
c156 11 182 30 182 130c0 64 -8 93 -32 111c-35 28 -88 35 -255 35c-256 0 -286 -17 -286 -163v-23z" />
    <glyph glyph-name="three" unicode="3" horiz-adv-x="907" 
d="M354 374h257c92 0 119 27 119 118c0 61 -11 87 -45 100c-29 11 -65 14 -195 14c-220 0 -264 -4 -300 -28c-25 -16 -34 -45 -34 -116h-78c0 64 2 87 12 112c18 47 51 72 115 86c47 10 116 14 264 14c193 0 246 -7 293 -40c37 -25 50 -64 50 -148
c0 -101 -22 -130 -109 -141c41 -5 61 -13 79 -29c29 -25 38 -54 38 -125c0 -99 -19 -143 -75 -172c-40 -20 -83 -24 -259 -24c-277 0 -327 6 -370 48c-33 31 -43 68 -43 161h79c0 -78 6 -99 34 -118c25 -17 95 -24 249 -24c179 0 234 4 261 17c33 16 43 41 43 106
c0 69 -8 92 -36 109c-17 9 -35 12 -87 12h-262v68z" />
    <glyph glyph-name="four" unicode="4" horiz-adv-x="907" 
d="M82 146v105l537 416h111v-453h108v-68h-108v-146h-77v146h-571zM145 214h508v398z" />
    <glyph glyph-name="five" unicode="5" horiz-adv-x="907" 
d="M86 203h77c0 -76 8 -98 39 -116c30 -19 99 -26 237 -26c172 0 221 4 261 22c41 18 52 50 52 149c0 86 -15 119 -62 137c-34 13 -100 17 -257 17c-199 0 -246 -12 -256 -65h-80l8 346h708v-68h-635l-3 -228c15 36 31 53 62 66c32 13 76 17 204 17c213 0 269 -6 323 -37
c27 -15 48 -41 58 -71c8 -22 11 -53 11 -108c0 -125 -15 -176 -60 -205c-48 -32 -107 -40 -289 -40c-178 0 -269 5 -303 17c-47 16 -78 49 -89 96c-5 21 -6 43 -6 97z" />
    <glyph glyph-name="six" unicode="6" horiz-adv-x="907" 
d="M815 477h-84c0 61 -5 81 -25 98c-28 25 -68 31 -219 31c-189 0 -233 -5 -274 -29c-34 -21 -45 -54 -45 -133v-146c15 42 29 63 57 76c33 17 83 21 255 21c143 0 206 -4 246 -17c29 -8 55 -28 71 -52c15 -21 22 -60 22 -116c0 -89 -14 -136 -49 -167
c-47 -41 -99 -50 -297 -50c-176 0 -222 3 -265 15c-60 17 -93 53 -108 114c-10 38 -13 95 -13 214c0 204 12 254 70 296c49 35 107 42 329 42c186 0 245 -12 290 -61c29 -31 37 -60 39 -136zM450 327c-149 0 -199 -5 -231 -22c-35 -18 -49 -50 -49 -112
c0 -72 20 -104 73 -119c30 -8 109 -13 225 -13c241 0 270 16 270 147c0 56 -8 82 -30 96c-31 19 -72 23 -258 23z" />
    <glyph glyph-name="seven" unicode="7" horiz-adv-x="907" 
d="M64 667h752v-97l-499 -570h-105l525 599h-673v68z" />
    <glyph glyph-name="eight" unicode="8" horiz-adv-x="907" 
d="M702 339c98 -11 122 -41 122 -154c0 -93 -17 -135 -66 -164c-42 -24 -83 -28 -305 -28c-231 0 -270 4 -313 33c-43 30 -58 71 -58 159c0 113 24 143 123 154c-45 10 -59 15 -75 28c-31 25 -41 56 -41 125c0 59 7 91 24 117c27 39 70 55 159 59c121 6 121 6 181 6
c140 0 239 -8 283 -21c32 -11 59 -38 71 -71c6 -19 10 -52 10 -90c0 -73 -12 -106 -47 -130c-15 -10 -28 -14 -68 -23zM453 606c-106 0 -193 -4 -225 -11c-43 -10 -59 -36 -59 -100s7 -87 32 -100c30 -16 65 -19 248 -19c192 0 226 2 256 19c25 13 32 36 32 100
s-16 90 -59 100c-32 7 -119 11 -225 11zM456 309c-182 0 -227 -4 -258 -21c-25 -15 -35 -42 -35 -97c0 -119 24 -130 290 -130s290 11 290 130c0 55 -10 82 -35 97c-31 17 -77 21 -252 21z" />
    <glyph glyph-name="nine" unicode="9" horiz-adv-x="907" 
d="M91 190h84c0 -61 5 -81 25 -98c28 -25 68 -31 219 -31c189 0 233 5 274 29c34 21 45 54 45 133v146c-15 -42 -29 -63 -57 -76c-33 -17 -83 -21 -255 -21c-143 0 -206 4 -246 17c-29 8 -55 28 -71 52c-15 21 -22 60 -22 116c0 89 14 136 49 167c47 41 99 50 297 50
c176 0 222 -3 265 -15c60 -17 93 -53 108 -114c10 -38 13 -95 13 -214c0 -204 -12 -254 -70 -296c-49 -35 -107 -42 -329 -42c-186 0 -245 12 -290 61c-29 31 -37 60 -39 136zM438 606c-241 0 -270 -16 -270 -147c0 -56 8 -82 30 -96c31 -19 72 -23 258 -23
c149 0 199 5 231 22c35 18 49 50 49 112c0 72 -20 104 -73 119c-30 8 -110 13 -225 13z" />
    <glyph glyph-name="colon" unicode=":" horiz-adv-x="288" 
d="M93 0v112h101v-112h-101zM93 361v112h101v-112h-101z" />
    <glyph glyph-name="semicolon" unicode=";" horiz-adv-x="288" 
d="M93 112h102v-112c0 -71 -36 -107 -107 -108h-7v54c34 0 49 17 48 54h-36v112zM93 361v112h101v-112h-101z" />
    <glyph glyph-name="less" unicode="&#x3c;" 
d="M466 570v-71l-356 -162l356 -163v-71l-433 203v62z" />
    <glyph glyph-name="equal" unicode="=" horiz-adv-x="840" 
d="M116 423h609v-57h-609v57zM116 316h609v-57h-609v57z" />
    <glyph glyph-name="greater" unicode="&#x3e;" 
d="M34 103v71l356 163l-356 162v71l433 -203v-62z" />
    <glyph glyph-name="question" unicode="?" horiz-adv-x="753" 
d="M294 213v14c0 50 14 82 44 102c29 19 33 20 159 39c90 14 112 37 112 115c0 116 -24 128 -247 128c-136 0 -178 -6 -204 -29c-23 -21 -24 -30 -24 -128h-77v42c0 85 9 111 47 141c42 31 82 37 254 37c171 0 216 -6 260 -33c49 -30 66 -73 66 -165
c0 -79 -22 -123 -74 -149c-27 -14 -40 -17 -171 -38c-58 -10 -71 -25 -70 -76h-75zM281 0v112h101v-112h-101z" />
    <glyph glyph-name="at" unicode="@" horiz-adv-x="938" 
d="M809 69h60c-6 -48 -30 -86 -69 -108c-47 -27 -105 -33 -329 -33c-271 0 -322 9 -372 67c-42 49 -52 106 -52 305s10 256 52 305c50 58 101 67 370 67s321 -9 370 -67c39 -45 53 -116 53 -271c0 -91 -7 -148 -20 -175c-20 -39 -48 -49 -135 -49c-106 0 -129 9 -136 57
c-34 -48 -71 -61 -179 -61c-155 0 -198 24 -198 114c0 50 16 134 34 175c34 77 84 99 230 99c111 0 144 -13 160 -61l10 56h62l-46 -258c-2 -12 -3 -24 -3 -32c0 -27 16 -34 74 -34c44 0 60 6 69 26c9 19 14 72 14 152c0 137 -9 195 -36 227c-32 40 -80 47 -323 47
s-290 -7 -323 -47c-28 -34 -36 -92 -36 -270s8 -236 36 -270c18 -22 49 -36 86 -40c46 -6 88 -7 238 -7c203 0 238 2 278 15c33 11 51 31 61 71zM485 439c-127 0 -153 -11 -174 -74c-12 -35 -23 -97 -23 -131c0 -63 20 -73 150 -73c119 0 148 13 170 75c12 32 23 95 23 128
c0 29 -5 45 -18 56c-18 15 -42 19 -128 19z" />
    <glyph glyph-name="A" unicode="A" horiz-adv-x="859" 
d="M703 150h-546l-88 -150h-89l393 667h113l393 -667h-88zM665 213l-235 398l-235 -398h470z" />
    <glyph glyph-name="B" unicode="B" horiz-adv-x="931" 
d="M93 0v667h534c98 0 137 -9 170 -39s47 -71 47 -136c0 -99 -27 -128 -128 -140c63 -4 87 -10 109 -27c29 -22 43 -64 43 -130c0 -138 -62 -195 -211 -195h-564zM173 380h398c107 0 132 3 155 17c24 15 35 44 35 91c0 85 -34 112 -143 112h-445v-220zM173 67h448
c132 0 164 25 164 127s-30 123 -182 123h-430v-250z" />
    <glyph glyph-name="C" unicode="C" horiz-adv-x="937" 
d="M792 224h78v-28c0 -80 -8 -115 -34 -145c-25 -30 -58 -44 -119 -51c-38 -3 -152 -7 -242 -7c-241 0 -300 10 -349 61c-43 44 -53 97 -53 279c0 208 14 261 82 304c51 32 106 37 381 37c167 0 225 -8 266 -38c45 -31 59 -73 62 -179h-78v17c0 118 -28 130 -308 130
c-320 0 -322 -1 -322 -271c0 -152 7 -200 35 -229c32 -33 83 -41 270 -41c300 0 331 11 331 123v38z" />
    <glyph glyph-name="D" unicode="D" horiz-adv-x="990" 
d="M93 0v667h519c147 0 221 -27 261 -97c30 -49 44 -128 44 -236c0 -109 -14 -188 -44 -237c-40 -70 -114 -97 -261 -97h-519zM173 67h445c94 0 155 22 182 65c23 38 34 100 34 198c0 103 -12 173 -36 210c-27 41 -84 60 -186 60h-439v-533z" />
    <glyph glyph-name="E" unicode="E" horiz-adv-x="819" 
d="M93 0v667h664v-67h-584v-223h563v-63h-563v-247h589v-67h-669z" />
    <glyph glyph-name="F" unicode="F" horiz-adv-x="768" 
d="M93 0v667h638v-67h-558v-230h529v-63h-529v-307h-80z" />
    <glyph glyph-name="G" unicode="G" horiz-adv-x="982" 
d="M477 329h435c0 -109 0 -109 -4 -151c-8 -87 -38 -139 -95 -162c-43 -18 -104 -23 -307 -23c-278 0 -329 8 -380 61c-43 45 -53 97 -53 279c0 183 10 235 53 280c52 54 99 61 404 61c205 0 259 -7 307 -40c46 -31 65 -76 68 -163h-79c-2 63 -6 81 -25 98
c-32 31 -61 35 -243 35c-263 0 -320 -5 -355 -30c-38 -28 -47 -73 -47 -241c0 -152 7 -201 35 -229c32 -34 81 -41 281 -41c260 0 295 4 329 42c25 27 30 52 33 157h-357v67z" />
    <glyph glyph-name="H" unicode="H" horiz-adv-x="972" 
d="M93 0v667h80v-292h625v292h80v-667h-80v312h-625v-312h-80z" />
    <glyph glyph-name="I" unicode="I" horiz-adv-x="267" 
d="M93 0v667h80v-667h-80z" />
    <glyph glyph-name="J" unicode="J" horiz-adv-x="740" 
d="M574 667h80v-435c0 -110 -10 -151 -47 -189c-38 -39 -95 -50 -252 -50c-176 0 -243 12 -285 50c-36 34 -43 63 -43 176v26h78v-47c0 -79 12 -105 55 -119c30 -11 96 -16 190 -16c88 0 148 7 176 21c37 19 48 57 48 173v410z" />
    <glyph glyph-name="K" unicode="K" horiz-adv-x="870" 
d="M93 0v667h80v-291h121l436 291h135l-487 -323l512 -344h-134l-464 313h-119v-313h-80z" />
    <glyph glyph-name="L" unicode="L" horiz-adv-x="722" 
d="M93 0v667h80v-600h529v-67h-609z" />
    <glyph glyph-name="M" unicode="M" horiz-adv-x="1246" 
d="M93 0v667h129l402 -574l403 574h125v-667h-80v601l-420 -601h-59l-420 601v-601h-80z" />
    <glyph glyph-name="N" unicode="N" horiz-adv-x="1026" 
d="M93 0v667h129l630 -610v610h80v-667h-129l-630 610v-610h-80z" />
    <glyph glyph-name="O" unicode="O" horiz-adv-x="1005" 
d="M506 674c269 0 321 -9 372 -61c43 -45 53 -97 53 -279c0 -183 -10 -235 -53 -280c-51 -53 -102 -61 -376 -61s-325 8 -376 61c-43 45 -53 97 -53 279c0 183 10 236 53 280c51 53 102 61 380 61zM506 604c-230 0 -283 -7 -315 -41c-28 -29 -35 -77 -35 -230
c0 -152 7 -200 35 -229c34 -36 76 -41 311 -41s277 6 311 41c28 29 35 77 35 229c0 153 -7 201 -35 230c-31 34 -87 41 -307 41z" />
    <glyph glyph-name="P" unicode="P" horiz-adv-x="896" 
d="M93 0v667h538c105 0 146 -10 178 -44c29 -30 40 -73 40 -153c0 -98 -13 -139 -53 -171c-33 -26 -75 -37 -147 -37h-476v-262h-80zM173 329h417c144 0 176 25 176 136c0 108 -32 135 -160 135h-433v-271z" />
    <glyph glyph-name="Q" unicode="Q" horiz-adv-x="1005" 
d="M977 84l-34 -65l-61 39c-53 -57 -101 -65 -380 -65c-274 0 -325 8 -376 61c-43 45 -53 97 -53 280c0 182 10 234 53 279c51 53 102 61 376 61s325 -8 376 -61c43 -45 53 -97 53 -279c0 -121 -3 -167 -15 -210zM539 279l40 62l262 -169c5 37 7 90 7 163
c0 150 -7 199 -35 228c-31 34 -86 41 -311 41s-280 -7 -311 -41c-28 -29 -35 -77 -35 -230c0 -152 7 -200 35 -229c33 -35 77 -41 304 -41c245 0 278 4 317 40z" />
    <glyph glyph-name="R" unicode="R" horiz-adv-x="946" 
d="M93 0v667h550c101 0 148 -13 183 -51c27 -30 41 -81 41 -153c0 -76 -17 -121 -53 -142c-24 -13 -44 -18 -97 -23c44 -5 62 -9 83 -20c37 -20 54 -52 54 -105v-173h-80v127c0 65 -7 93 -26 113c-23 22 -50 29 -117 29h-458v-269h-80zM173 332h439c137 0 172 27 172 135
c0 106 -36 133 -177 133h-434v-268z" />
    <glyph glyph-name="S" unicode="S" horiz-adv-x="894" 
d="M67 208h80v-18c0 -67 14 -94 57 -108c39 -13 113 -19 233 -19c261 0 308 20 308 131c0 56 -17 81 -62 94c-44 12 -48 12 -346 14c-121 1 -173 10 -214 37c-40 27 -56 64 -56 130c0 100 36 157 115 180c57 17 145 25 282 25c154 0 233 -11 279 -40c49 -30 64 -65 67 -158
h-78c-1 53 -10 77 -32 94c-31 24 -100 34 -235 34c-263 0 -314 -21 -314 -128c0 -46 13 -72 41 -85c35 -16 65 -18 254 -19c212 -1 258 -5 306 -28c54 -26 76 -71 76 -154c0 -92 -31 -147 -97 -172c-49 -18 -125 -25 -279 -25c-162 0 -238 7 -292 25c-60 21 -93 72 -93 144
v46z" />
    <glyph glyph-name="T" unicode="T" horiz-adv-x="744" 
d="M332 0v600h-339v67h757v-67h-338v-600h-80z" />
    <glyph glyph-name="U" unicode="U" horiz-adv-x="959" 
d="M793 667h80v-453c0 -74 -2 -94 -10 -118c-31 -84 -100 -103 -383 -103c-231 0 -307 12 -351 54c-24 23 -36 50 -40 89c-2 16 -2 32 -2 78v453h80v-439c0 -62 0 -68 4 -84c16 -70 58 -81 309 -81c212 0 266 8 293 45c18 25 20 36 20 120v439z" />
    <glyph glyph-name="V" unicode="V" horiz-adv-x="810" 
d="M-20 667h90l335 -608l336 608h89l-369 -667h-112z" />
    <glyph glyph-name="W" unicode="W" horiz-adv-x="1370" 
d="M-7 667h88l277 -594l281 594h94l281 -594l278 594h84l-315 -667h-98l-278 589l-279 -589h-98z" />
    <glyph glyph-name="X" unicode="X" horiz-adv-x="846" 
d="M-13 0l369 354l-336 313h111l292 -274l293 274h111l-336 -313l369 -354h-110l-327 315l-326 -315h-110z" />
    <glyph glyph-name="Y" unicode="Y" horiz-adv-x="814" 
d="M407 346l317 321h110l-387 -387v-280h-80v280l-387 387h110z" />
    <glyph glyph-name="Z" unicode="Z" horiz-adv-x="832" 
d="M27 0v67l644 533h-617v67h734v-67l-644 -533h655v-67h-772z" />
    <glyph glyph-name="bracketleft" unicode="[" horiz-adv-x="309" 
d="M282 683v-61h-131v-771h131v-61h-202v893h202z" />
    <glyph glyph-name="backslash" unicode="\" horiz-adv-x="738" 
d="M122 671l749 -864h-92l-749 864h92z" />
    <glyph glyph-name="bracketright" unicode="]" horiz-adv-x="309" 
d="M27 -210v61h131v771h-131v61h202v-893h-202z" />
    <glyph glyph-name="asciicircum" unicode="^" 
d="M104 366h-78l177 303h95l177 -303h-78l-147 246z" />
    <glyph glyph-name="underscore" unicode="_" 
d="M0 -66h500v-66h-500v66z" />
    <glyph glyph-name="quoteleft" unicode="&#x2018;" horiz-adv-x="288" 
d="M194 454h-101v112c0 71 36 107 107 108h7v-53c-35 0 -50 -17 -48 -55h35v-112z" />
    <glyph glyph-name="a" unicode="a" horiz-adv-x="716" 
d="M158 336h-76c1 62 16 95 52 116c38 22 81 28 204 28c161 0 211 -8 253 -41c35 -28 45 -60 45 -147v-292h-71v64c-24 -60 -60 -71 -222 -71c-157 0 -201 5 -235 30c-35 24 -48 56 -48 118c0 58 13 95 41 114c34 23 91 31 230 31c111 0 154 -4 182 -15
c27 -11 40 -24 52 -50v50c0 137 -18 149 -225 149c-157 0 -181 -11 -182 -84zM352 226c-187 0 -219 -13 -219 -88c0 -41 16 -67 47 -75c28 -8 62 -10 165 -10c94 0 136 3 164 13c40 13 57 37 57 78c0 31 -13 52 -39 66c-22 11 -72 16 -175 16z" />
    <glyph glyph-name="b" unicode="b" horiz-adv-x="758" 
d="M80 0v673h71v-270c30 59 84 77 237 77c139 0 206 -13 245 -47c41 -36 58 -94 58 -197c0 -102 -17 -160 -58 -196c-39 -34 -105 -47 -245 -47c-152 0 -208 18 -237 77v-70h-71zM383 420c-130 0 -178 -10 -204 -42c-19 -25 -29 -70 -29 -139c0 -163 29 -186 232 -186
c131 0 178 10 205 42c20 25 29 70 29 141c0 80 -11 126 -37 150c-27 25 -78 34 -196 34z" />
    <glyph glyph-name="c" unicode="c" horiz-adv-x="713" 
d="M583 173h77c-3 -64 -11 -88 -36 -118c-39 -47 -103 -62 -262 -62c-139 0 -202 12 -239 47c-40 36 -56 94 -56 197c0 102 16 160 56 196c37 35 100 47 238 47c141 0 204 -12 243 -47c31 -28 46 -63 49 -116v-10h-78v10c-1 31 -8 51 -26 68c-28 27 -72 35 -195 35
c-120 0 -158 -9 -184 -43c-19 -24 -28 -69 -28 -140c0 -80 11 -125 35 -149c28 -28 64 -35 187 -35c131 0 172 9 200 45c13 18 18 37 19 75z" />
    <glyph glyph-name="d" unicode="d" horiz-adv-x="758" 
d="M678 0h-71v70c-30 -59 -84 -77 -237 -77c-140 0 -206 13 -245 47c-41 36 -58 94 -58 196c0 103 17 161 58 197c39 34 106 47 245 47c153 0 207 -18 237 -77v270h71v-673zM376 420c-131 0 -178 -10 -205 -42c-20 -25 -29 -70 -29 -141c0 -80 11 -126 37 -150
c27 -25 77 -34 196 -34c129 0 178 10 204 42c19 25 29 70 29 139c0 163 -29 186 -232 186z" />
    <glyph glyph-name="e" unicode="e" horiz-adv-x="729" 
d="M666 223h-524c0 -81 6 -104 30 -130c31 -33 67 -40 200 -40c168 0 210 17 220 89h73c-3 -43 -15 -71 -40 -95c-40 -40 -107 -54 -257 -54c-137 0 -204 13 -243 47c-41 36 -58 94 -58 196c0 103 17 161 58 197c39 34 106 47 242 47c159 0 224 -17 262 -70
c28 -38 38 -85 37 -187zM142 281h449c-1 38 -4 57 -14 77c-27 50 -66 62 -210 62c-145 0 -185 -12 -211 -62c-10 -19 -13 -37 -14 -77z" />
    <glyph glyph-name="f" unicode="f" horiz-adv-x="390" 
d="M103 0v413h-103v60h103v37c0 78 22 125 69 147c34 16 81 22 175 22h63v-60h-48c-95 0 -124 -4 -151 -19c-26 -16 -37 -41 -37 -87v-40h236v-60h-236v-413h-71z" />
    <glyph glyph-name="g" unicode="g" horiz-adv-x="758" 
d="M678 473v-427c0 -132 -13 -183 -57 -222c-39 -34 -104 -47 -245 -47c-139 0 -200 10 -241 41c-36 28 -57 72 -57 121v10h73v-10c0 -28 11 -54 30 -71c29 -25 69 -31 199 -31c147 0 187 11 209 60c14 33 17 58 18 173c-35 -61 -84 -77 -237 -77c-139 0 -205 13 -245 47
c-41 36 -58 94 -58 196c0 103 17 161 58 197c40 34 106 47 246 47c152 0 201 -16 236 -77v70h71zM372 420c-138 0 -177 -8 -205 -43c-21 -24 -30 -69 -30 -140c0 -81 11 -125 37 -150c30 -27 69 -34 196 -34c136 0 175 8 204 43c19 24 29 69 29 138c0 83 -11 127 -37 152
c-29 27 -70 34 -194 34z" />
    <glyph glyph-name="h" unicode="h" horiz-adv-x="727" 
d="M80 0v673h71v-294c11 35 27 55 56 72c36 20 89 28 196 28c102 0 153 -10 191 -37c38 -28 53 -68 53 -144v-298h-71v294c0 102 -35 124 -193 124c-171 0 -232 -37 -232 -140v-278h-71z" />
    <glyph glyph-name="i" unicode="i" horiz-adv-x="231" 
d="M80 0v473h71v-473h-71zM80 586v87h71v-87h-71z" />
    <glyph glyph-name="j" unicode="j" horiz-adv-x="231" 
d="M80 473h71v-497c0 -65 -8 -95 -31 -117c-24 -22 -52 -29 -124 -29v60c74 0 84 12 84 100v483zM80 586v87h71v-87h-71z" />
    <glyph glyph-name="k" unicode="k" horiz-adv-x="629" 
d="M80 0v673h71v-390h41l298 190h119l-345 -220l378 -253h-117l-333 223h-41v-223h-71z" />
    <glyph glyph-name="l" unicode="l" horiz-adv-x="231" 
d="M80 0v673h71v-673h-71z" />
    <glyph glyph-name="m" unicode="m" horiz-adv-x="1159" 
d="M80 0v473h71v-93c29 80 76 100 234 100c133 0 184 -24 208 -100c31 78 88 100 257 100c178 0 229 -40 229 -182v-298h-71v295c0 100 -35 125 -177 125c-154 0 -216 -41 -216 -142v-278h-71v295c0 100 -35 125 -177 125c-155 0 -216 -40 -216 -142v-278h-71z" />
    <glyph glyph-name="n" unicode="n" horiz-adv-x="729" 
d="M80 0v473h71v-94c31 86 81 107 253 107c102 0 154 -10 192 -39s53 -70 53 -149v-298h-71v294c0 102 -35 125 -194 125c-170 0 -233 -38 -233 -141v-278h-71z" />
    <glyph glyph-name="o" unicode="o" horiz-adv-x="748" 
d="M374 480c145 0 210 -12 250 -47c41 -37 58 -94 58 -200c0 -99 -18 -157 -58 -193c-40 -35 -105 -47 -250 -47c-144 0 -209 12 -249 47c-41 36 -58 94 -58 197c0 102 17 160 58 196c39 35 105 47 249 47zM376 420c-131 0 -179 -10 -205 -42c-20 -25 -29 -70 -29 -141
c0 -80 11 -126 37 -150c27 -25 77 -34 196 -34c129 0 177 10 203 42c19 25 29 70 29 139c0 82 -11 127 -37 152c-27 25 -77 34 -194 34z" />
    <glyph glyph-name="p" unicode="p" horiz-adv-x="758" 
d="M80 473h71v-70c30 59 84 77 237 77c140 0 206 -13 245 -47c41 -36 58 -94 58 -197c0 -102 -17 -160 -58 -196c-39 -34 -105 -47 -245 -47c-153 0 -207 18 -237 77v-270h-71v673zM383 420c-130 0 -178 -10 -204 -42c-19 -25 -29 -70 -29 -139c0 -163 29 -186 232 -186
c131 0 178 10 205 42c20 25 29 70 29 141c0 80 -11 126 -37 150c-27 25 -78 34 -196 34z" />
    <glyph glyph-name="q" unicode="q" horiz-adv-x="758" 
d="M678 473v-673h-71v270c-30 -59 -84 -77 -237 -77c-140 0 -206 13 -245 47c-41 36 -58 94 -58 197c0 102 17 160 58 196c39 34 105 47 245 47c152 0 208 -18 237 -77v70h71zM376 420c-131 0 -178 -10 -205 -42c-20 -25 -29 -70 -29 -141c0 -80 11 -126 37 -150
c27 -25 77 -34 196 -34c129 0 178 10 204 42c19 25 29 70 29 139c0 163 -29 186 -232 186z" />
    <glyph glyph-name="r" unicode="r" horiz-adv-x="598" 
d="M80 0v473h71v-93c26 80 69 100 216 100c164 0 211 -41 211 -182v-28h-71v25c0 102 -29 125 -160 125c-142 0 -196 -39 -196 -142v-278h-71z" />
    <glyph glyph-name="s" unicode="s" horiz-adv-x="714" 
d="M566 339v11c0 58 -32 70 -196 70c-195 0 -229 -12 -229 -80c0 -31 10 -48 33 -57c19 -8 49 -9 182 -10c179 -1 206 -4 245 -24c37 -19 52 -51 52 -112c0 -68 -19 -104 -64 -123c-43 -17 -89 -21 -234 -21c-160 0 -209 6 -246 29c-37 25 -49 54 -49 126v12h73v-12
c0 -48 4 -61 24 -73c27 -17 77 -22 216 -22c183 0 206 9 206 81c0 43 -10 60 -41 69c-25 8 -25 8 -298 10c-81 1 -120 10 -145 35c-18 18 -28 50 -28 92c0 56 18 95 53 112c41 21 98 28 226 28c165 0 215 -7 253 -35c27 -19 38 -49 38 -98v-8h-71z" />
    <glyph glyph-name="t" unicode="t" horiz-adv-x="544" 
d="M-7 413v60h114l2 105h71l-1 -105h324v-60h-326l-4 -237v-8c0 -97 24 -115 151 -115c65 0 98 10 114 36c10 16 12 30 12 100v16h64v-19c0 -93 -4 -118 -25 -144c-27 -35 -78 -49 -170 -49c-99 0 -146 10 -179 40c-31 28 -39 53 -39 121v22l5 237h-113z" />
    <glyph glyph-name="u" unicode="u" horiz-adv-x="729" 
d="M649 473v-473h-71v94c-31 -86 -81 -107 -253 -107c-102 0 -154 10 -192 39s-53 70 -53 149v298h71v-294c0 -102 35 -125 194 -125c170 0 233 38 233 141v278h71z" />
    <glyph glyph-name="v" unicode="v" horiz-adv-x="607" 
d="M-20 473h81l243 -424l243 424h80l-272 -473h-103z" />
    <glyph glyph-name="w" unicode="w" horiz-adv-x="943" 
d="M0 473h78l185 -418l156 418h108l156 -418l185 418h75l-211 -473h-101l-159 423l-160 -423h-100z" />
    <glyph glyph-name="x" unicode="x" horiz-adv-x="622" 
d="M-7 0l265 248l-230 225h93l190 -186l190 186h93l-230 -225l264 -248h-95l-222 209l-223 -209h-95z" />
    <glyph glyph-name="y" unicode="y" horiz-adv-x="567" 
d="M-17 473h78l235 -426l213 426h75l-255 -511c-52 -104 -66 -126 -96 -150c-33 -28 -77 -41 -137 -41c-9 0 -16 0 -29 1v60c9 -1 18 -1 23 -1c82 0 109 21 164 131l19 38h-27z" />
    <glyph glyph-name="z" unicode="z" horiz-adv-x="608" 
d="M33 0v60l430 353h-411v60h513v-60l-430 -353h432v-60h-534z" />
    <glyph glyph-name="braceleft" unicode="{" horiz-adv-x="348" 
d="M321 689v-66c-89 0 -109 -2 -130 -17c-33 -24 -40 -57 -40 -197v-55c0 -64 -14 -92 -56 -117c42 -25 56 -54 56 -118v-55c0 -146 8 -180 48 -201c20 -11 40 -13 122 -13v-66c-106 0 -141 5 -174 26c-26 17 -46 45 -54 76c-10 38 -13 74 -13 176v53c0 52 -16 77 -57 87v69
c41 11 57 36 57 87v53c0 124 5 167 23 202c21 42 52 63 106 71c26 4 49 5 112 5z" />
    <glyph glyph-name="bar" unicode="|" 
d="M214 667h72v-834h-72v834z" />
    <glyph glyph-name="braceright" unicode="}" horiz-adv-x="348" 
d="M27 -216v66c89 0 109 3 130 17c33 24 40 57 40 197v55c0 64 14 93 56 118c-42 25 -56 53 -56 117v55c0 147 -8 180 -48 201c-20 11 -40 13 -122 13v66c106 0 141 -5 174 -26c26 -16 46 -44 54 -76c10 -38 13 -74 13 -176v-53c0 -51 16 -76 57 -87v-69
c-41 -10 -57 -35 -57 -87v-53c0 -124 -5 -167 -23 -202c-21 -42 -52 -62 -106 -71c-26 -4 -49 -5 -112 -5z" />
    <glyph glyph-name="asciitilde" unicode="~" horiz-adv-x="667" 
d="M136 583l-43 28c42 84 77 114 137 114c27 0 58 -9 112 -34c58 -27 73 -32 97 -32c38 0 60 16 91 68l44 -26c-39 -77 -83 -111 -144 -111c-28 0 -51 8 -140 48c-26 12 -49 18 -66 18c-35 0 -60 -21 -88 -73z" />
    <glyph glyph-name="exclamdown" unicode="&#xa1;" horiz-adv-x="288" 
d="M179 276l5 -469h-82l5 469h72zM194 473v-112h-101v112h101z" />
    <glyph glyph-name="cent" unicode="&#xa2;" horiz-adv-x="907" 
d="M493 99v-99h-64v98c-115 2 -167 11 -202 35c-50 34 -71 94 -71 208c0 120 23 182 80 214c33 19 92 28 193 30v82h64v-83c182 -2 241 -40 250 -162l1 -10h-78c1 84 -39 109 -173 110v-361c139 -1 179 25 180 116h78c-6 -136 -64 -176 -258 -178zM429 160v363
c-89 -1 -116 -5 -143 -20c-37 -20 -52 -67 -52 -162s15 -141 52 -161c27 -15 54 -19 143 -20z" />
    <glyph glyph-name="sterling" unicode="&#xa3;" horiz-adv-x="907" 
d="M40 329h120v119c0 108 15 150 66 184c46 31 121 42 292 42c181 0 239 -10 279 -51c32 -32 41 -66 41 -162h-81c-1 142 -7 145 -241 145c-240 0 -279 -22 -279 -161v-116h336v-68h-336v-73c0 -65 -11 -90 -55 -120h684v-68h-792v68c66 7 86 37 86 127v66h-120v68z" />
    <glyph glyph-name="fraction" unicode="&#x2044;" horiz-adv-x="133" 
d="M-257 -5l586 676h61l-585 -676h-62z" />
    <glyph glyph-name="yen" unicode="&#xa5;" horiz-adv-x="907" 
d="M454 342l317 325h108l-264 -264h205v-61h-274l-54 -62v-31h328v-61h-328v-188h-77v188h-328v61h328v31l-54 62h-274v61h205l-264 264h108z" />
    <glyph glyph-name="florin" unicode="&#x192;" horiz-adv-x="907" 
d="M433 473l10 37c21 78 55 125 109 147c41 18 73 22 167 22h12l-16 -60h-12c-124 0 -163 -23 -186 -106l-10 -40h172l-16 -60h-172l-118 -437c-29 -115 -74 -148 -197 -146l16 60c71 -1 89 15 111 100l114 423h-104l16 60h104z" />
    <glyph glyph-name="section" unicode="&#xa7;" horiz-adv-x="907" 
d="M371 411l226 -16c81 -5 110 -11 137 -27c40 -24 57 -65 57 -139c0 -90 -25 -136 -87 -159c36 -26 49 -57 49 -120c0 -68 -18 -109 -59 -134c-37 -22 -92 -29 -246 -29c-173 0 -231 12 -265 54c-25 31 -30 57 -30 152h78v-24c0 -104 20 -115 218 -115c204 0 224 9 224 102
c0 71 -18 82 -137 91l-226 16c-82 5 -110 11 -137 27c-40 24 -57 65 -57 139c0 90 25 136 87 159c-37 26 -50 57 -50 120c0 69 18 109 59 135c37 22 92 29 247 29c173 0 230 -12 264 -55c25 -31 30 -56 30 -152h-78c1 10 1 21 1 24c0 105 -20 116 -219 116
c-204 0 -224 -9 -224 -102c0 -72 18 -83 138 -92zM334 131l225 -16c4 0 6 0 23 -1c115 3 129 16 129 119c0 74 -17 85 -138 94l-226 16c-4 0 -9 0 -12 1h-10c-115 -3 -129 -16 -129 -119c0 -74 17 -85 138 -94z" />
    <glyph glyph-name="currency" unicode="&#xa4;" horiz-adv-x="679" 
d="M70 98l91 93c-35 44 -52 91 -52 143s15 94 52 142l-94 93l35 35l93 -93c48 37 91 53 145 53s97 -16 144 -53l93 92l35 -34l-93 -92c37 -49 52 -91 52 -144c0 -52 -15 -94 -51 -142l93 -93l-34 -35l-94 93c-44 -35 -91 -52 -144 -52c-51 0 -94 15 -145 52l-92 -93z
M342 510c-99 0 -177 -78 -177 -177c0 -96 79 -175 175 -175c97 0 175 79 175 175c0 97 -78 177 -173 177z" />
    <glyph glyph-name="quotesingle" unicode="'" horiz-adv-x="178" 
d="M118 400h-57l-11 267h78z" />
    <glyph glyph-name="quotedblleft" unicode="&#x201c;" horiz-adv-x="483" 
d="M194 454h-101v112c0 71 36 107 107 108h7v-53c-35 0 -50 -17 -48 -55h35v-112zM389 446h-101v112c0 74 37 109 114 109v-54c-35 0 -50 -17 -48 -55h35v-112z" />
    <glyph glyph-name="guillemotleft" unicode="&#xab;" horiz-adv-x="522" 
d="M50 249l149 254l53 -36l-127 -218l127 -219l-53 -36zM263 249l149 254l54 -36l-128 -218l128 -219l-54 -36z" />
    <glyph glyph-name="guilsinglleft" unicode="&#x2039;" horiz-adv-x="309" 
d="M50 249l149 254l53 -36l-127 -218l127 -219l-53 -36z" />
    <glyph glyph-name="guilsinglright" unicode="&#x203a;" horiz-adv-x="309" 
d="M259 248l-149 -254l-53 36l127 218l-127 219l53 36z" />
    <glyph glyph-name="endash" unicode="&#x2013;" horiz-adv-x="907" 
d="M67 294h773v-60h-773v60z" />
    <glyph glyph-name="dagger" unicode="&#x2020;" horiz-adv-x="789" 
d="M409 687l33 -170l-27 -63l70 26l237 -33v-25l-230 -33l-77 27l27 -70l-33 -546h-29l-33 546l27 70l-77 -27l-230 33v25l230 33l77 -26l-27 70l33 163h29z" />
    <glyph glyph-name="daggerdbl" unicode="&#x2021;" horiz-adv-x="789" 
d="M409 687l33 -170l-27 -63l70 26l237 -33v-25l-230 -33l-77 27l42 -179l-42 -180l77 27l230 -33v-25l-230 -33l-77 26l27 -70l-33 -183h-29l-33 190l27 63l-70 -26l-237 33v25l230 33l77 -27l-42 179l42 180l-77 -27l-230 33v25l230 33l77 -26l-27 70l33 163h29z" />
    <glyph glyph-name="periodcentered" unicode="&#xb7;" horiz-adv-x="261" 
d="M80 187v112h101v-112h-101z" />
    <glyph glyph-name="paragraph" unicode="&#xb6;" horiz-adv-x="655" 
d="M304 -100v419c-114 0 -153 5 -185 23c-42 25 -59 68 -59 150c0 74 14 116 46 141s84 34 198 34h258v-767h-65v713h-128v-713h-65z" />
    <glyph glyph-name="bullet" unicode="&#x2022;" horiz-adv-x="667" 
d="M337 477c74 0 136 -63 136 -138c0 -77 -62 -139 -138 -139s-139 62 -139 138c0 78 62 139 141 139z" />
    <glyph glyph-name="quotesinglbase" unicode="&#x201a;" horiz-adv-x="288" 
d="M93 112h102v-112c0 -71 -36 -107 -107 -108h-7v54c34 0 49 17 48 54h-36v112z" />
    <glyph glyph-name="quotedblbase" unicode="&#x201e;" horiz-adv-x="483" 
d="M288 112h102v-112c0 -71 -36 -107 -107 -108h-7v54c34 0 49 17 48 54h-36v112zM93 112h102v-112c0 -71 -36 -107 -107 -108h-7v54c34 0 49 17 48 54h-36v112z" />
    <glyph glyph-name="quotedblright" unicode="&#x201d;" horiz-adv-x="483" 
d="M288 667h102v-112c0 -71 -36 -107 -107 -108h-7v54c34 0 49 17 48 54h-36v112zM93 667h102v-112c0 -71 -36 -107 -107 -108h-7v54c34 0 49 17 48 54h-36v112z" />
    <glyph glyph-name="guillemotright" unicode="&#xbb;" horiz-adv-x="522" 
d="M473 248l-149 -254l-54 36l128 218l-128 219l54 36zM259 248l-149 -254l-53 36l127 218l-127 219l53 36z" />
    <glyph glyph-name="ellipsis" unicode="&#x2026;" horiz-adv-x="864" 
d="M93 0v112h101v-112h-101zM381 0v112h101v-112h-101zM670 0v112h101v-112h-101z" />
    <glyph glyph-name="perthousand" unicode="&#x2030;" horiz-adv-x="2037" 
d="M375 -5l585 676h99l-585 -676h-99zM336 692c118 0 170 -10 208 -40c46 -36 60 -81 60 -197c0 -110 -14 -156 -60 -192c-38 -30 -90 -40 -208 -40c-119 0 -171 10 -209 40c-46 36 -60 82 -60 195c0 112 14 158 60 194c38 30 90 40 209 40zM336 629
c-100 0 -137 -8 -163 -34c-24 -25 -32 -59 -32 -137c0 -84 9 -118 38 -143c26 -22 63 -29 157 -29c99 0 136 8 162 34c24 25 32 59 32 135c0 86 -9 120 -38 145c-26 22 -63 29 -156 29zM1103 452c118 0 170 -10 208 -40c46 -36 60 -81 60 -197c0 -110 -14 -156 -60 -192
c-38 -30 -90 -40 -208 -40c-119 0 -171 10 -209 40c-46 36 -60 82 -60 195c0 112 14 158 60 194c38 30 90 40 209 40zM1103 389c-100 0 -137 -8 -163 -34c-24 -25 -32 -59 -32 -137c0 -84 9 -118 38 -143c26 -22 63 -29 157 -29c99 0 136 8 162 34c24 25 32 59 32 135
c0 86 -9 120 -38 145c-26 22 -63 29 -156 29zM1703 452c118 0 170 -10 208 -40c46 -36 60 -81 60 -197c0 -110 -14 -156 -60 -192c-38 -30 -90 -40 -208 -40c-119 0 -171 10 -209 40c-46 36 -60 82 -60 195c0 112 14 158 60 194c38 30 90 40 209 40zM1703 389
c-100 0 -137 -8 -163 -34c-24 -25 -32 -59 -32 -137c0 -84 9 -118 38 -143c26 -22 63 -29 157 -29c99 0 136 8 162 34c24 25 32 59 32 135c0 86 -9 120 -38 145c-26 22 -63 29 -156 29z" />
    <glyph glyph-name="questiondown" unicode="&#xbf;" horiz-adv-x="753" 
d="M460 260v-14c0 -50 -14 -82 -44 -102c-29 -19 -32 -20 -159 -39c-90 -14 -112 -37 -112 -115c0 -116 24 -128 247 -128c136 0 178 6 204 29c23 21 24 30 24 128h77v-42c0 -85 -9 -111 -47 -141c-42 -31 -81 -37 -254 -37c-171 0 -216 6 -260 33c-49 30 -66 73 -66 165
c0 78 22 123 74 149c27 14 37 16 171 38c58 10 71 25 70 76h75zM472 473v-112h-101v112h101z" />
    <glyph glyph-name="grave" unicode="`" 
d="M316 543l-210 57l23 67l198 -84z" />
    <glyph glyph-name="acute" unicode="&#xb4;" 
d="M184 543l-11 40l198 84l23 -67z" />
    <glyph glyph-name="circumflex" unicode="&#x2c6;" 
d="M250 670l162 -91l-10 -40l-152 55l-153 -55l-10 40z" />
    <glyph glyph-name="tilde" unicode="&#x2dc;" 
d="M354 643l69 -12c-13 -54 -48 -85 -94 -85c-27 0 -27 0 -99 29c-18 8 -31 11 -43 11c-20 0 -34 -11 -40 -33l-69 12c12 52 47 84 94 84c27 0 27 0 99 -29c18 -8 31 -11 43 -11c20 0 33 11 40 34z" />
    <glyph glyph-name="macron" unicode="&#xaf;" 
d="M65 619h370v-53h-370v53z" />
    <glyph glyph-name="breve" unicode="&#x2d8;" horiz-adv-x="392" 
d="M33 664h66c2 -58 23 -74 97 -74s93 14 96 74h66c-11 -102 -43 -128 -162 -128c-120 0 -153 26 -163 128z" />
    <glyph glyph-name="dotaccent" unicode="&#x2d9;" 
d="M182 561v64h136v-64h-136z" />
    <glyph glyph-name="dieresis" unicode="&#xa8;" 
d="M64 561v64h136v-64h-136zM301 561v64h136v-64h-136z" />
    <glyph glyph-name="ring" unicode="&#x2da;" 
d="M250 691c84 0 134 -29 134 -76c0 -48 -50 -76 -136 -76c-82 0 -132 29 -132 76s50 76 134 76zM250 650c-51 0 -77 -12 -77 -35s26 -35 76 -35c53 0 78 11 78 35c0 23 -26 35 -77 35z" />
    <glyph glyph-name="cedilla" unicode="&#xb8;" 
d="M172 -171l-27 42l148 86l36 -60z" />
    <glyph glyph-name="hungarumlaut" unicode="&#x2dd;" horiz-adv-x="613" 
d="M357 537l-23 38l171 110l32 -57zM164 537l-22 38l171 110l31 -57z" />
    <glyph glyph-name="ogonek" unicode="&#x2db;" 
d="M377 0h80c-67 -22 -97 -47 -97 -80c0 -31 28 -49 76 -49c20 0 30 1 48 7v-44c-20 -8 -35 -11 -58 -11c-76 0 -128 35 -128 87c0 40 22 65 79 90z" />
    <glyph glyph-name="caron" unicode="&#x2c7;" 
d="M250 539l-163 91l10 40l153 -55l152 55l10 -40z" />
    <glyph glyph-name="emdash" unicode="&#x2014;" horiz-adv-x="999" 
d="M0 290h999v-54h-999v54z" />
    <glyph glyph-name="AE" unicode="&#xc6;" horiz-adv-x="1376" 
d="M-33 0l536 667h812v-67h-571v-223h549v-63h-549v-247h575v-67h-655v146h-482l-117 -146h-98zM549 604l-316 -395h431v395h-115z" />
    <glyph glyph-name="ordfeminine" unicode="&#xaa;" horiz-adv-x="446" 
d="M108 464h-55c1 43 10 63 34 77c24 13 50 17 124 17c98 0 129 -5 155 -25c23 -18 29 -37 29 -90v-176h-52v24c-21 -24 -41 -28 -128 -28c-96 0 -123 3 -144 18c-22 15 -31 36 -31 73c0 76 26 90 168 90c94 0 110 -3 135 -26v12c0 78 -9 84 -131 84c-94 0 -104 -5 -104 -50
zM218 399c-108 0 -125 -6 -125 -47c0 -40 13 -45 125 -45c102 0 125 9 125 49c0 36 -22 43 -125 43z" />
    <glyph glyph-name="Lslash" unicode="&#x141;" horiz-adv-x="722" 
d="M0 156v69l93 59v383h80v-344l307 190v-69l-307 -190v-187h529v-67h-609v215z" />
    <glyph glyph-name="Oslash" unicode="&#xd8;" horiz-adv-x="1005" 
d="M47 -3v79l47 30c-17 50 -21 92 -21 230c0 180 10 233 53 277c51 53 103 61 375 61s321 -8 374 -58l82 54v-79l-47 -30c17 -49 21 -92 21 -230c0 -179 -10 -233 -53 -277c-51 -53 -103 -61 -375 -61s-321 8 -374 58zM837 513l-638 -417c38 -29 78 -33 309 -33
c229 0 272 6 305 41c28 29 35 77 35 230c0 90 -3 149 -11 179zM167 154l638 417c-35 27 -91 33 -307 33c-221 0 -276 -7 -307 -41c-28 -29 -35 -77 -35 -230c0 -89 4 -149 11 -179z" />
    <glyph glyph-name="OE" unicode="&#x152;" horiz-adv-x="1539" 
d="M826 667h651v-67h-571v-223h549v-63h-549v-247h576v-67h-656v73c-16 -26 -32 -42 -55 -54c-41 -21 -90 -26 -276 -26c-265 0 -318 9 -369 61c-43 45 -53 97 -53 279c0 183 10 235 53 280c51 52 103 61 369 61c186 0 235 -5 276 -26c23 -12 39 -28 55 -54v73zM502 604
c-234 0 -279 -6 -311 -40c-28 -29 -35 -78 -35 -231s7 -201 35 -230c34 -36 67 -40 309 -40c171 0 212 2 244 11c71 21 82 57 82 259c0 153 -7 202 -33 231c-29 34 -72 40 -291 40z" />
    <glyph glyph-name="ordmasculine" unicode="&#xba;" horiz-adv-x="466" 
d="M233 557c156 0 189 -26 189 -149c0 -59 -11 -95 -37 -116c-24 -21 -64 -29 -152 -29c-155 0 -189 27 -189 147s34 147 189 147zM234 513c-120 0 -136 -12 -136 -102c0 -91 16 -103 135 -103s135 12 135 101c0 92 -15 104 -134 104z" />
    <glyph glyph-name="ae" unicode="&#xe6;" horiz-adv-x="1224" 
d="M158 336h-76c1 62 16 95 52 116c38 22 81 28 204 28c134 0 181 -6 217 -29c25 -16 37 -31 48 -60c34 69 93 89 260 89c158 0 223 -17 261 -69c28 -39 37 -86 37 -188h-525c1 -81 6 -104 30 -130c32 -33 68 -40 200 -40c169 0 211 17 221 89h72c-3 -43 -14 -71 -39 -95
c-40 -40 -107 -54 -256 -54c-165 0 -219 17 -258 83c-13 -24 -29 -41 -53 -56c-34 -21 -81 -27 -211 -27c-156 0 -200 5 -234 30c-35 24 -48 56 -48 118c0 122 41 144 271 144c173 0 208 -10 234 -64v50c0 137 -18 149 -225 149c-157 0 -181 -11 -182 -84zM352 225
c-187 0 -219 -13 -219 -87c0 -41 16 -67 47 -75c28 -8 62 -10 165 -10c93 0 136 3 164 13c40 13 57 37 57 78c0 30 -13 51 -39 65c-22 11 -73 16 -175 16zM636 281h450c-1 38 -4 57 -15 77c-26 50 -65 62 -210 62s-185 -12 -210 -62c-10 -19 -13 -37 -15 -77z" />
    <glyph glyph-name="dotlessi" unicode="&#x131;" horiz-adv-x="231" 
d="M80 0v473h71v-473h-71z" />
    <glyph glyph-name="lslash" unicode="&#x142;" horiz-adv-x="257" 
d="M0 224v67l93 67v315h71v-279l93 67v-67l-93 -67v-327h-71v291z" />
    <glyph glyph-name="oslash" unicode="&#xf8;" horiz-adv-x="748" 
d="M48 56l43 28c-18 40 -25 82 -25 152c0 103 17 161 58 197c40 35 105 47 250 47c150 0 214 -13 254 -52l77 50v-61l-47 -31c16 -38 23 -81 23 -149c0 -103 -17 -161 -58 -197c-40 -35 -105 -47 -251 -47c-147 0 -208 12 -250 50l-74 -48v61zM155 125l411 264
c-35 24 -76 31 -190 31c-132 0 -179 -10 -206 -42c-20 -26 -29 -69 -29 -144c0 -48 4 -78 14 -109zM594 345l-410 -263c34 -22 77 -29 187 -29c132 0 179 10 206 42c20 25 29 70 29 143c0 49 -3 77 -12 107z" />
    <glyph glyph-name="oe" unicode="&#x153;" horiz-adv-x="1266" 
d="M1129 142h73c-3 -43 -15 -71 -40 -95c-40 -40 -107 -54 -256 -54c-169 0 -229 20 -263 88c-35 -69 -94 -88 -270 -88c-143 0 -209 12 -248 47c-41 36 -58 94 -58 197c0 102 17 160 58 196c39 35 105 47 248 47c176 0 235 -19 270 -87c34 67 94 87 262 87
c158 0 223 -17 261 -70c28 -38 38 -85 37 -187h-524c0 -81 6 -104 30 -130c31 -33 67 -40 200 -40c168 0 210 17 220 89zM376 420c-131 0 -179 -10 -205 -42c-20 -25 -29 -70 -29 -142c0 -79 11 -124 37 -149c27 -25 77 -34 196 -34c129 0 177 10 203 43c19 24 29 69 29 138
c0 82 -11 127 -37 152c-27 25 -77 34 -194 34zM679 281h449c-1 38 -4 57 -14 77c-27 50 -66 62 -210 62c-145 0 -185 -12 -211 -62c-10 -19 -13 -37 -14 -77z" />
    <glyph glyph-name="germandbls" unicode="&#xdf;" horiz-adv-x="747" 
d="M80 0v462c0 103 11 143 48 174c42 35 95 44 256 44c117 0 164 -6 199 -24s51 -53 51 -110c0 -70 -21 -97 -90 -114c35 -5 66 -17 88 -34c36 -29 48 -71 48 -174c0 -105 -10 -143 -46 -179c-37 -38 -87 -52 -183 -52c-99 0 -145 10 -180 39c-31 25 -47 68 -47 126l1 26h72
c0 -7 0 -13 1 -15c1 -62 8 -81 34 -98c18 -13 53 -18 114 -18c136 0 159 27 159 184c0 73 -9 105 -35 130c-24 23 -57 32 -120 32h-186v63h186c79 0 101 16 101 74c0 74 -21 84 -188 84c-190 0 -212 -18 -212 -173v-447h-71z" />
    <glyph glyph-name="onesuperior" unicode="&#xb9;" horiz-adv-x="561" 
d="M149 499l-35 37l171 131h71v-400h-56v352z" />
    <glyph glyph-name="logicalnot" unicode="&#xac;" 
d="M394 0v200h-361v67h433v-267h-72z" />
    <glyph glyph-name="mu" unicode="&#xb5;" horiz-adv-x="729" 
d="M80 -200v673h71v-278c0 -99 64 -142 214 -142c149 0 213 43 213 142v278h71v-473h-71v94c-28 -80 -83 -107 -213 -107c-131 0 -186 27 -214 107v-294h-71z" />
    <glyph glyph-name="trademark" unicode="&#x2122;" horiz-adv-x="1214" 
d="M199 285v337h-207v45h470v-45h-206v-337h-57zM507 285v382h85l243 -319l243 319h83v-382h-57v329l-250 -329h-40l-250 329v-329h-57z" />
    <glyph glyph-name="Eth" unicode="&#xd0;" horiz-adv-x="990" 
d="M93 312h-93v63h93v292h519c147 0 221 -27 262 -97c28 -49 43 -129 43 -237s-15 -187 -43 -236c-41 -70 -115 -97 -262 -97h-519v312zM173 312v-245h446c93 0 154 22 181 65c23 38 34 100 34 198c0 102 -12 173 -36 210c-27 42 -84 60 -185 60h-440v-225h319v-63h-319z
" />
    <glyph glyph-name="onehalf" unicode="&#xbd;" horiz-adv-x="1255" 
d="M149 499l-35 37l171 131h71v-400h-56v352zM303 -5l586 676h62l-586 -676h-62zM752 246v18c0 67 11 97 43 117c28 17 74 23 178 23c120 0 162 -6 189 -26c27 -21 38 -50 38 -101c0 -54 -13 -86 -42 -104c-21 -13 -41 -17 -102 -21l-148 -11c-91 -5 -102 -16 -103 -92h396
v-49h-454v30c-4 123 26 157 142 162l149 10c90 7 104 16 104 72c0 74 -15 81 -168 81c-150 0 -166 -9 -166 -90v-19h-56z" />
    <glyph glyph-name="plusminus" unicode="&#xb1;" horiz-adv-x="840" 
d="M449 419h285v-59h-285v-253h-60v253h-282v59h282v248h60v-248zM734 59v-59h-627v59h627z" />
    <glyph glyph-name="Thorn" unicode="&#xde;" horiz-adv-x="896" 
d="M93 0v667h80v-100h458c105 0 146 -10 178 -44c29 -30 40 -72 40 -153c0 -97 -13 -138 -53 -170c-33 -26 -75 -37 -147 -37h-476v-163h-80zM173 230h417c144 0 176 25 176 135c0 108 -32 135 -160 135h-433v-270z" />
    <glyph glyph-name="onequarter" unicode="&#xbc;" horiz-adv-x="1255" 
d="M149 499l-35 37l171 131h71v-400h-56v352zM303 -5l586 676h62l-586 -676h-62zM746 85v68l326 247h73v-266h64v-49h-64v-85h-56v85h-343zM802 134h283v217z" />
    <glyph glyph-name="divide" unicode="&#xf7;" horiz-adv-x="840" 
d="M105 370h629v-57h-629v57zM370 556h100v-109h-100v109zM369 236h100v-109h-100v109z" />
    <glyph glyph-name="brokenbar" unicode="&#xa6;" 
d="M214 667h72v-333h-72v333zM214 153h72v-320h-72v320z" />
    <glyph glyph-name="degree" unicode="&#xb0;" horiz-adv-x="366" 
d="M185 674c76 0 141 -65 141 -142c0 -81 -64 -145 -143 -145s-143 64 -143 144c0 79 64 143 145 143zM184 622c-52 0 -94 -41 -94 -91c0 -52 41 -93 93 -93s93 41 93 93c0 49 -42 91 -92 91z" />
    <glyph glyph-name="thorn" unicode="&#xfe;" horiz-adv-x="758" 
d="M80 673h71v-270c29 59 84 77 237 77c139 0 206 -13 245 -47c41 -36 58 -94 58 -197c0 -102 -17 -160 -58 -196c-39 -34 -105 -47 -245 -47c-153 0 -207 18 -237 77v-270h-71v873zM383 420c-130 0 -178 -10 -204 -42c-19 -25 -29 -70 -29 -139c0 -163 29 -186 232 -186
c131 0 178 10 205 42c20 25 29 70 29 141c0 80 -11 126 -37 150c-27 25 -78 34 -196 34z" />
    <glyph glyph-name="threequarters" unicode="&#xbe;" horiz-adv-x="1255" 
d="M216 495h159c53 0 67 14 67 65c0 59 -7 62 -148 62c-184 0 -187 -1 -188 -85h-56c0 66 8 89 35 107c31 22 71 27 203 27c118 0 151 -4 180 -24c24 -16 32 -40 32 -91c0 -52 -10 -71 -45 -83c37 -12 50 -34 50 -85c0 -65 -12 -91 -48 -109c-24 -12 -51 -15 -158 -15
c-146 0 -179 3 -208 18c-31 16 -44 45 -44 99v15h57v-16c0 -63 12 -68 164 -68c175 0 179 1 179 68c0 58 -8 66 -69 66h-162v49zM303 -5l586 676h62l-586 -676h-62zM746 85v68l326 247h73v-266h64v-49h-64v-85h-56v85h-343zM802 134h283v217z" />
    <glyph glyph-name="twosuperior" unicode="&#xb2;" horiz-adv-x="561" 
d="M58 513v18c0 67 11 97 43 117c28 17 74 23 178 23c120 0 162 -6 189 -26c27 -21 38 -50 38 -101c0 -54 -13 -86 -42 -104c-21 -13 -41 -17 -102 -21l-148 -11c-91 -5 -102 -16 -103 -92h396v-49h-454v30c-4 123 26 157 142 162l149 10c90 7 104 16 104 72
c0 74 -15 81 -168 81c-150 0 -166 -9 -166 -90v-19h-56z" />
    <glyph glyph-name="registered" unicode="&#xae;" horiz-adv-x="896" 
d="M224 133v400h327c102 0 135 -30 135 -123c0 -63 -17 -89 -66 -98c41 -9 59 -31 59 -73v-106h-54v79c0 67 -13 80 -81 80h-266v-159h-54zM278 336h255c78 0 97 15 97 76c0 60 -20 75 -100 75h-252v-151zM455 693c161 0 240 -22 305 -85c58 -57 85 -143 85 -274
c0 -132 -27 -218 -85 -275c-65 -64 -144 -85 -311 -85c-154 0 -236 23 -299 85c-58 57 -85 143 -85 275s26 217 85 274c63 62 145 85 305 85zM455 644c-138 0 -207 -19 -262 -73c-50 -49 -73 -124 -73 -237c0 -114 23 -189 73 -238c54 -53 125 -73 257 -73
c143 0 211 19 267 73c50 49 73 124 73 238c0 113 -23 187 -73 237c-55 53 -125 73 -262 73z" />
    <glyph glyph-name="minus" unicode="&#x2212;" horiz-adv-x="840" 
d="M734 372v-59h-627v59h627z" />
    <glyph glyph-name="eth" unicode="&#xf0;" horiz-adv-x="748" 
d="M411 578l-74 -56l-34 43l66 50c-18 19 -37 36 -83 73l46 45c24 -18 60 -49 91 -78l78 58l37 -40l-75 -57c55 -52 94 -94 137 -152c57 -75 82 -148 82 -240c0 -89 -19 -150 -58 -184c-41 -35 -105 -47 -250 -47c-144 0 -209 12 -249 47c-41 36 -58 94 -58 196
c0 103 17 161 58 197c24 21 48 30 97 38c33 5 87 9 131 9c75 0 131 -8 172 -24c-22 25 -22 25 -36 40c-7 8 -27 29 -60 64zM367 420c-194 0 -225 -25 -225 -183c0 -80 11 -126 37 -150c27 -25 77 -34 196 -34c128 0 177 10 203 42c18 23 29 72 29 131c0 70 -17 124 -47 153
s-87 41 -193 41z" />
    <glyph glyph-name="multiply" unicode="&#xd7;" horiz-adv-x="840" 
d="M420 376l198 198l42 -43l-198 -198l198 -198l-42 -42l-198 198l-198 -198l-43 42l198 198l-198 198l43 43z" />
    <glyph glyph-name="threesuperior" unicode="&#xb3;" horiz-adv-x="561" 
d="M216 495h159c53 0 67 14 67 65c0 59 -7 62 -148 62c-184 0 -187 -1 -188 -85h-56c0 66 8 89 35 107c31 22 71 27 203 27c118 0 151 -4 180 -24c24 -16 32 -40 32 -91c0 -52 -10 -71 -45 -83c37 -12 50 -34 50 -85c0 -65 -12 -91 -48 -109c-24 -12 -51 -15 -158 -15
c-146 0 -179 3 -208 18c-31 16 -44 45 -44 99v15h57v-16c0 -63 12 -68 164 -68c175 0 179 1 179 68c0 58 -8 66 -69 66h-162v49z" />
    <glyph glyph-name="copyright" unicode="&#xa9;" horiz-adv-x="896" 
d="M633 272h53v-20c0 -65 -13 -93 -50 -109c-23 -10 -78 -14 -186 -14c-144 0 -179 6 -209 37c-26 27 -32 59 -32 167c0 109 6 140 32 167c32 33 60 37 238 37c107 0 139 -4 165 -23c28 -19 37 -45 39 -111h-54v12v7c-1 60 -19 67 -177 67c-187 0 -187 0 -187 -156
s1 -156 178 -156c173 0 190 6 190 69v26zM448 693c161 0 240 -22 305 -85c58 -57 85 -143 85 -274c0 -132 -27 -218 -85 -275c-65 -64 -144 -85 -311 -85c-154 0 -236 23 -299 85c-58 57 -85 143 -85 275s26 217 85 274c63 62 145 85 305 85zM448 644
c-138 0 -207 -19 -262 -73c-50 -49 -73 -124 -73 -237c0 -114 23 -189 73 -238c54 -53 125 -73 257 -73c143 0 211 19 267 73c50 49 73 124 73 238c0 113 -23 187 -73 237c-55 53 -125 73 -262 73z" />
    <glyph glyph-name="Aacute" unicode="&#xc1;" horiz-adv-x="859" 
d="M703 150h-546l-88 -150h-89l393 667h113l393 -667h-88zM665 213l-235 398l-235 -398h470zM366 729l-15 45l250 77l27 -71z" />
    <glyph glyph-name="Acircumflex" unicode="&#xc2;" horiz-adv-x="859" 
d="M703 150h-546l-88 -150h-89l393 667h113l393 -667h-88zM665 213l-235 398l-235 -398h470zM430 851l194 -79l-13 -43l-181 46l-182 -46l-13 43z" />
    <glyph glyph-name="Adieresis" unicode="&#xc4;" horiz-adv-x="859" 
d="M703 150h-546l-88 -150h-89l393 667h113l393 -667h-88zM665 213l-235 398l-235 -398h470zM237 745v69h140v-69h-140zM482 745v69h140v-69h-140z" />
    <glyph glyph-name="Agrave" unicode="&#xc0;" horiz-adv-x="859" 
d="M703 150h-546l-88 -150h-89l393 667h113l393 -667h-88zM665 213l-235 398l-235 -398h470zM500 729l-263 51l27 71l250 -77z" />
    <glyph glyph-name="Aring" unicode="&#xc5;" horiz-adv-x="859" 
d="M703 150h-546l-88 -150h-89l393 667h113l393 -667h-88zM665 213l-235 398l-235 -398h470zM430 870c84 0 139 -30 139 -76c0 -47 -54 -77 -141 -77c-81 0 -138 32 -138 77s57 76 140 76zM430 829c-51 0 -83 -14 -83 -36c0 -21 32 -35 82 -35c51 0 83 13 83 36
c0 21 -32 35 -82 35z" />
    <glyph glyph-name="Atilde" unicode="&#xc3;" horiz-adv-x="859" 
d="M703 150h-546l-88 -150h-89l393 667h113l393 -667h-88zM665 213l-235 398l-235 -398h470zM302 732l-63 11c9 62 49 97 108 97c25 0 38 -3 87 -23c34 -14 57 -20 74 -20c28 0 45 15 50 46l63 -11c-9 -60 -50 -97 -109 -97c-25 0 -38 3 -86 23c-35 14 -58 20 -75 20
c-28 0 -44 -15 -49 -46z" />
    <glyph glyph-name="Ccedilla" unicode="&#xc7;" horiz-adv-x="937" 
d="M792 224h78v-28c0 -80 -8 -115 -34 -145c-25 -30 -58 -44 -119 -51c-38 -3 -152 -7 -242 -7c-241 0 -300 10 -349 61c-43 44 -53 97 -53 279c0 208 14 261 82 304c51 32 106 37 381 37c167 0 225 -8 266 -38c45 -31 59 -73 62 -179h-78v17c0 118 -28 130 -308 130
c-320 0 -322 -1 -322 -271c0 -152 7 -200 35 -229c32 -33 83 -41 270 -41c300 0 331 11 331 123v38zM386 -178l-27 46l152 85l36 -60z" />
    <glyph glyph-name="Eacute" unicode="&#xc9;" horiz-adv-x="819" 
d="M93 0v667h664v-67h-584v-223h563v-63h-563v-247h589v-67h-669zM349 729l-15 45l250 77l27 -71z" />
    <glyph glyph-name="Ecircumflex" unicode="&#xca;" horiz-adv-x="819" 
d="M93 0v667h664v-67h-584v-223h563v-63h-563v-247h589v-67h-669zM429 851l194 -79l-13 -43l-181 46l-181 -46l-13 43z" />
    <glyph glyph-name="Edieresis" unicode="&#xcb;" horiz-adv-x="819" 
d="M93 0v667h664v-67h-584v-223h563v-63h-563v-247h589v-67h-669zM237 745v69h140v-69h-140zM482 745v69h140v-69h-140z" />
    <glyph glyph-name="Egrave" unicode="&#xc8;" horiz-adv-x="819" 
d="M93 0v667h664v-67h-584v-223h563v-63h-563v-247h589v-67h-669zM527 729l-263 51l27 71l250 -77z" />
    <glyph glyph-name="Iacute" unicode="&#xcd;" horiz-adv-x="267" 
d="M93 0v667h80v-667h-80zM76 729l-15 45l197 77l27 -67z" />
    <glyph glyph-name="Icircumflex" unicode="&#xce;" horiz-adv-x="267" 
d="M94 0v667h80v-667h-80zM134 851l147 -82l-16 -40l-131 46l-132 -46l-16 40z" />
    <glyph glyph-name="Idieresis" unicode="&#xcf;" horiz-adv-x="267" 
d="M93 0v667h80v-667h-80zM-7 745v69h117v-69h-117zM157 745v69h117v-69h-117z" />
    <glyph glyph-name="Igrave" unicode="&#xcc;" horiz-adv-x="267" 
d="M93 0v667h80v-667h-80zM194 729l-209 55l27 67l197 -77z" />
    <glyph glyph-name="Ntilde" unicode="&#xd1;" horiz-adv-x="1026" 
d="M93 0v667h129l630 -610v610h80v-667h-129l-630 610v-610h-80zM411 732l-63 11c10 62 49 97 109 97c25 0 38 -3 86 -23c35 -14 58 -20 75 -20c28 0 44 15 49 46l63 -11c-8 -60 -49 -97 -108 -97c-26 0 -38 3 -87 23c-34 14 -57 20 -74 20c-28 0 -45 -15 -50 -46z" />
    <glyph glyph-name="Oacute" unicode="&#xd3;" horiz-adv-x="1005" 
d="M506 674c269 0 321 -9 372 -61c43 -45 53 -97 53 -279c0 -183 -10 -235 -53 -280c-51 -53 -102 -61 -376 -61s-325 8 -376 61c-43 45 -53 97 -53 279c0 183 10 236 53 280c51 53 102 61 380 61zM506 604c-230 0 -283 -7 -315 -41c-28 -29 -35 -77 -35 -230
c0 -152 7 -200 35 -229c34 -36 76 -41 311 -41s277 6 311 41c28 29 35 77 35 229c0 153 -7 201 -35 230c-31 34 -87 41 -307 41zM421 729l-14 45l250 77l27 -71z" />
    <glyph glyph-name="Ocircumflex" unicode="&#xd4;" horiz-adv-x="1005" 
d="M506 674c269 0 321 -9 372 -61c43 -45 53 -97 53 -279c0 -183 -10 -235 -53 -280c-51 -53 -102 -61 -376 -61s-325 8 -376 61c-43 45 -53 97 -53 279c0 183 10 236 53 280c51 53 102 61 380 61zM506 604c-230 0 -283 -7 -315 -41c-28 -29 -35 -77 -35 -230
c0 -152 7 -200 35 -229c34 -36 76 -41 311 -41s277 6 311 41c28 29 35 77 35 229c0 153 -7 201 -35 230c-31 34 -87 41 -307 41zM502 851l194 -79l-13 -43l-181 46l-181 -46l-13 43z" />
    <glyph glyph-name="Odieresis" unicode="&#xd6;" horiz-adv-x="1005" 
d="M506 674c269 0 321 -9 372 -61c43 -45 53 -97 53 -279c0 -183 -10 -235 -53 -280c-51 -53 -102 -61 -376 -61s-325 8 -376 61c-43 45 -53 97 -53 279c0 183 10 236 53 280c51 53 102 61 380 61zM506 604c-230 0 -283 -7 -315 -41c-28 -29 -35 -77 -35 -230
c0 -152 7 -200 35 -229c34 -36 76 -41 311 -41s277 6 311 41c28 29 35 77 35 229c0 153 -7 201 -35 230c-31 34 -87 41 -307 41zM310 745v69h140v-69h-140zM555 745v69h140v-69h-140z" />
    <glyph glyph-name="Ograve" unicode="&#xd2;" horiz-adv-x="1005" 
d="M506 674c269 0 321 -9 372 -61c43 -45 53 -97 53 -279c0 -183 -10 -235 -53 -280c-51 -53 -102 -61 -376 -61s-325 8 -376 61c-43 45 -53 97 -53 279c0 183 10 236 53 280c51 53 102 61 380 61zM506 604c-230 0 -283 -7 -315 -41c-28 -29 -35 -77 -35 -230
c0 -152 7 -200 35 -229c34 -36 76 -41 311 -41s277 6 311 41c28 29 35 77 35 229c0 153 -7 201 -35 230c-31 34 -87 41 -307 41zM589 729l-262 51l27 71l250 -77z" />
    <glyph glyph-name="Otilde" unicode="&#xd5;" horiz-adv-x="1005" 
d="M506 674c269 0 321 -9 372 -61c43 -45 53 -97 53 -279c0 -183 -10 -235 -53 -280c-51 -53 -102 -61 -376 -61s-325 8 -376 61c-43 45 -53 97 -53 279c0 183 10 236 53 280c51 53 102 61 380 61zM506 604c-230 0 -283 -7 -315 -41c-28 -29 -35 -77 -35 -230
c0 -152 7 -200 35 -229c34 -36 76 -41 311 -41s277 6 311 41c28 29 35 77 35 229c0 153 -7 201 -35 230c-31 34 -87 41 -307 41zM377 732l-63 11c10 62 50 97 109 97c25 0 38 -3 87 -23c34 -14 57 -20 74 -20c28 0 45 15 50 46l62 -11c-8 -60 -49 -97 -108 -97
c-25 0 -38 3 -87 23c-34 14 -57 20 -74 20c-28 0 -45 -15 -50 -46z" />
    <glyph glyph-name="Scaron" unicode="&#x160;" horiz-adv-x="894" 
d="M67 208h80v-18c0 -67 14 -94 57 -108c39 -13 113 -19 233 -19c261 0 308 20 308 131c0 56 -17 81 -62 94c-44 12 -48 12 -346 14c-121 1 -173 10 -214 37c-40 27 -56 64 -56 130c0 100 36 157 115 180c57 17 145 25 282 25c154 0 233 -11 279 -40c49 -30 64 -65 67 -158
h-78c-1 53 -10 77 -32 94c-31 24 -100 34 -235 34c-263 0 -314 -21 -314 -128c0 -46 13 -72 41 -85c35 -16 65 -18 254 -19c212 -1 258 -5 306 -28c54 -26 76 -71 76 -154c0 -92 -31 -147 -97 -172c-49 -18 -125 -25 -279 -25c-162 0 -238 7 -292 25c-60 21 -93 72 -93 144
v46zM447 729l-194 80l13 42l181 -46l182 46l13 -42z" />
    <glyph glyph-name="Uacute" unicode="&#xda;" horiz-adv-x="959" 
d="M793 667h80v-453c0 -74 -2 -94 -10 -118c-31 -84 -100 -103 -383 -103c-231 0 -307 12 -351 54c-24 23 -36 50 -40 89c-2 16 -2 32 -2 78v453h80v-439c0 -62 0 -68 4 -84c16 -70 58 -81 309 -81c212 0 266 8 293 45c18 25 20 36 20 120v439zM399 729l-15 45l251 77
l26 -71z" />
    <glyph glyph-name="Ucircumflex" unicode="&#xdb;" horiz-adv-x="959" 
d="M793 667h80v-453c0 -74 -2 -94 -10 -118c-31 -84 -100 -103 -383 -103c-231 0 -307 12 -351 54c-24 23 -36 50 -40 89c-2 16 -2 32 -2 78v453h80v-439c0 -62 0 -68 4 -84c16 -70 58 -81 309 -81c212 0 266 8 293 45c18 25 20 36 20 120v439zM480 851l194 -79l-13 -43
l-181 46l-181 -46l-13 43z" />
    <glyph glyph-name="Udieresis" unicode="&#xdc;" horiz-adv-x="959" 
d="M793 667h80v-453c0 -74 -2 -94 -10 -118c-31 -84 -100 -103 -383 -103c-231 0 -307 12 -351 54c-24 23 -36 50 -40 89c-2 16 -2 32 -2 78v453h80v-439c0 -62 0 -68 4 -84c16 -70 58 -81 309 -81c212 0 266 8 293 45c18 25 20 36 20 120v439zM287 745v69h140v-69h-140z
M532 745v69h140v-69h-140z" />
    <glyph glyph-name="Ugrave" unicode="&#xd9;" horiz-adv-x="959" 
d="M793 667h80v-453c0 -74 -2 -94 -10 -118c-31 -84 -100 -103 -383 -103c-231 0 -307 12 -351 54c-24 23 -36 50 -40 89c-2 16 -2 32 -2 78v453h80v-439c0 -62 0 -68 4 -84c16 -70 58 -81 309 -81c212 0 266 8 293 45c18 25 20 36 20 120v439zM564 729l-262 51l26 71
l251 -77z" />
    <glyph glyph-name="Yacute" unicode="&#xdd;" horiz-adv-x="814" 
d="M407 346l317 321h110l-387 -387v-280h-80v280l-387 387h110zM340 729l-15 45l250 77l27 -71z" />
    <glyph glyph-name="Ydieresis" unicode="&#x178;" horiz-adv-x="814" 
d="M407 346l317 321h110l-387 -387v-280h-80v280l-387 387h110zM214 745v69h140v-69h-140zM459 745v69h140v-69h-140z" />
    <glyph glyph-name="Zcaron" unicode="&#x17d;" horiz-adv-x="832" 
d="M27 0v67l644 533h-617v67h734v-67l-644 -533h655v-67h-772zM421 729l-194 80l13 42l181 -46l181 46l13 -42z" />
    <glyph glyph-name="aacute" unicode="&#xe1;" horiz-adv-x="716" 
d="M158 336h-76c1 62 16 95 52 116c38 22 81 28 204 28c161 0 211 -8 253 -41c35 -28 45 -60 45 -147v-292h-71v64c-24 -60 -60 -71 -222 -71c-157 0 -201 5 -235 30c-35 24 -48 56 -48 118c0 58 13 95 41 114c34 23 91 31 230 31c111 0 154 -4 182 -15
c27 -11 40 -24 52 -50v50c0 137 -18 149 -225 149c-157 0 -181 -11 -182 -84zM352 226c-187 0 -219 -13 -219 -88c0 -41 16 -67 47 -75c28 -8 62 -10 165 -10c94 0 136 3 164 13c40 13 57 37 57 78c0 31 -13 52 -39 66c-22 11 -72 16 -175 16zM295 543l-11 40l198 84l23 -67
z" />
    <glyph glyph-name="acircumflex" unicode="&#xe2;" horiz-adv-x="716" 
d="M158 336h-76c1 62 16 95 52 116c38 22 81 28 204 28c161 0 211 -8 253 -41c35 -28 45 -60 45 -147v-292h-71v64c-24 -60 -60 -71 -222 -71c-157 0 -201 5 -235 30c-35 24 -48 56 -48 118c0 58 13 95 41 114c34 23 91 31 230 31c111 0 154 -4 182 -15
c27 -11 40 -24 52 -50v50c0 137 -18 149 -225 149c-157 0 -181 -11 -182 -84zM352 226c-187 0 -219 -13 -219 -88c0 -41 16 -67 47 -75c28 -8 62 -10 165 -10c94 0 136 3 164 13c40 13 57 37 57 78c0 31 -13 52 -39 66c-22 11 -72 16 -175 16zM358 670l163 -91l-10 -40
l-153 55l-153 -55l-10 40z" />
    <glyph glyph-name="adieresis" unicode="&#xe4;" horiz-adv-x="716" 
d="M158 336h-76c1 62 16 95 52 116c38 22 81 28 204 28c161 0 211 -8 253 -41c35 -28 45 -60 45 -147v-292h-71v64c-24 -60 -60 -71 -222 -71c-157 0 -201 5 -235 30c-35 24 -48 56 -48 118c0 58 13 95 41 114c34 23 91 31 230 31c111 0 154 -4 182 -15
c27 -11 40 -24 52 -50v50c0 137 -18 149 -225 149c-157 0 -181 -11 -182 -84zM352 226c-187 0 -219 -13 -219 -88c0 -41 16 -67 47 -75c28 -8 62 -10 165 -10c94 0 136 3 164 13c40 13 57 37 57 78c0 31 -13 52 -39 66c-22 11 -72 16 -175 16zM172 561v64h136v-64h-136z
M408 561v64h136v-64h-136z" />
    <glyph glyph-name="agrave" unicode="&#xe0;" horiz-adv-x="716" 
d="M158 336h-76c1 62 16 95 52 116c38 22 81 28 204 28c161 0 211 -8 253 -41c35 -28 45 -60 45 -147v-292h-71v64c-24 -60 -60 -71 -222 -71c-157 0 -201 5 -235 30c-35 24 -48 56 -48 118c0 58 13 95 41 114c34 23 91 31 230 31c111 0 154 -4 182 -15
c27 -11 40 -24 52 -50v50c0 137 -18 149 -225 149c-157 0 -181 -11 -182 -84zM352 226c-187 0 -219 -13 -219 -88c0 -41 16 -67 47 -75c28 -8 62 -10 165 -10c94 0 136 3 164 13c40 13 57 37 57 78c0 31 -13 52 -39 66c-22 11 -72 16 -175 16zM435 543l-211 57l23 67
l198 -84z" />
    <glyph glyph-name="aring" unicode="&#xe5;" horiz-adv-x="716" 
d="M158 336h-76c1 62 16 95 52 116c38 22 81 28 204 28c161 0 211 -8 253 -41c35 -28 45 -60 45 -147v-292h-71v64c-24 -60 -60 -71 -222 -71c-157 0 -201 5 -235 30c-35 24 -48 56 -48 118c0 58 13 95 41 114c34 23 91 31 230 31c111 0 154 -4 182 -15
c27 -11 40 -24 52 -50v50c0 137 -18 149 -225 149c-157 0 -181 -11 -182 -84zM352 226c-187 0 -219 -13 -219 -88c0 -41 16 -67 47 -75c28 -8 62 -10 165 -10c94 0 136 3 164 13c40 13 57 37 57 78c0 31 -13 52 -39 66c-22 11 -72 16 -175 16zM358 691c84 0 134 -29 134 -76
c0 -48 -50 -76 -136 -76c-82 0 -132 29 -132 76s50 76 134 76zM358 650c-51 0 -77 -12 -77 -35s26 -35 76 -35c53 0 78 11 78 35c0 23 -26 35 -77 35z" />
    <glyph glyph-name="atilde" unicode="&#xe3;" horiz-adv-x="716" 
d="M158 336h-76c1 62 16 95 52 116c38 22 81 28 204 28c161 0 211 -8 253 -41c35 -28 45 -60 45 -147v-292h-71v64c-24 -60 -60 -71 -222 -71c-157 0 -201 5 -235 30c-35 24 -48 56 -48 118c0 58 13 95 41 114c34 23 91 31 230 31c111 0 154 -4 182 -15
c27 -11 40 -24 52 -50v50c0 137 -18 149 -225 149c-157 0 -181 -11 -182 -84zM352 226c-187 0 -219 -13 -219 -88c0 -41 16 -67 47 -75c28 -8 62 -10 165 -10c94 0 136 3 164 13c40 13 57 37 57 78c0 31 -13 52 -39 66c-22 11 -72 16 -175 16zM462 643l68 -12
c-12 -54 -47 -85 -94 -85c-27 0 -27 0 -98 29c-19 8 -32 11 -43 11c-21 0 -34 -11 -41 -33l-68 12c12 52 47 84 93 84c28 0 28 0 99 -29c19 -8 32 -11 43 -11c20 0 34 11 41 34z" />
    <glyph glyph-name="ccedilla" unicode="&#xe7;" horiz-adv-x="713" 
d="M583 173h77c-3 -64 -11 -88 -36 -118c-39 -47 -103 -62 -262 -62c-139 0 -202 12 -239 47c-40 36 -56 94 -56 197c0 102 16 160 56 196c37 35 100 47 238 47c141 0 204 -12 243 -47c31 -28 46 -63 49 -116v-10h-78v10c-1 31 -8 51 -26 68c-28 27 -72 35 -195 35
c-120 0 -158 -9 -184 -43c-19 -24 -28 -69 -28 -140c0 -80 11 -125 35 -149c28 -28 64 -35 187 -35c131 0 172 9 200 45c13 18 18 37 19 75zM268 -171l-26 42l148 86l36 -60z" />
    <glyph glyph-name="eacute" unicode="&#xe9;" horiz-adv-x="729" 
d="M666 223h-524c0 -81 6 -104 30 -130c31 -33 67 -40 200 -40c168 0 210 17 220 89h73c-3 -43 -15 -71 -40 -95c-40 -40 -107 -54 -257 -54c-137 0 -204 13 -243 47c-41 36 -58 94 -58 196c0 103 17 161 58 197c39 34 106 47 242 47c159 0 224 -17 262 -70
c28 -38 38 -85 37 -187zM142 281h449c-1 38 -4 57 -14 77c-27 50 -66 62 -210 62c-145 0 -185 -12 -211 -62c-10 -19 -13 -37 -14 -77zM305 543l-11 40l198 84l23 -67z" />
    <glyph glyph-name="ecircumflex" unicode="&#xea;" horiz-adv-x="729" 
d="M666 223h-524c0 -81 6 -104 30 -130c31 -33 67 -40 200 -40c168 0 210 17 220 89h73c-3 -43 -15 -71 -40 -95c-40 -40 -107 -54 -257 -54c-137 0 -204 13 -243 47c-41 36 -58 94 -58 196c0 103 17 161 58 197c39 34 106 47 242 47c159 0 224 -17 262 -70
c28 -38 38 -85 37 -187zM142 281h449c-1 38 -4 57 -14 77c-27 50 -66 62 -210 62c-145 0 -185 -12 -211 -62c-10 -19 -13 -37 -14 -77zM367 670l163 -91l-10 -40l-153 55l-153 -55l-10 40z" />
    <glyph glyph-name="edieresis" unicode="&#xeb;" horiz-adv-x="729" 
d="M666 223h-524c0 -81 6 -104 30 -130c31 -33 67 -40 200 -40c168 0 210 17 220 89h73c-3 -43 -15 -71 -40 -95c-40 -40 -107 -54 -257 -54c-137 0 -204 13 -243 47c-41 36 -58 94 -58 196c0 103 17 161 58 197c39 34 106 47 242 47c159 0 224 -17 262 -70
c28 -38 38 -85 37 -187zM142 281h449c-1 38 -4 57 -14 77c-27 50 -66 62 -210 62c-145 0 -185 -12 -211 -62c-10 -19 -13 -37 -14 -77zM182 561v64h136v-64h-136zM419 561v64h136v-64h-136z" />
    <glyph glyph-name="egrave" unicode="&#xe8;" horiz-adv-x="729" 
d="M666 223h-524c0 -81 6 -104 30 -130c31 -33 67 -40 200 -40c168 0 210 17 220 89h73c-3 -43 -15 -71 -40 -95c-40 -40 -107 -54 -257 -54c-137 0 -204 13 -243 47c-41 36 -58 94 -58 196c0 103 17 161 58 197c39 34 106 47 242 47c159 0 224 -17 262 -70
c28 -38 38 -85 37 -187zM142 281h449c-1 38 -4 57 -14 77c-27 50 -66 62 -210 62c-145 0 -185 -12 -211 -62c-10 -19 -13 -37 -14 -77zM442 543l-211 57l23 67l198 -84z" />
    <glyph glyph-name="iacute" unicode="&#xed;" horiz-adv-x="231" 
d="M80 0v473h71v-473h-71zM64 543l-12 40l163 84l25 -65z" />
    <glyph glyph-name="icircumflex" unicode="&#xee;" horiz-adv-x="231" 
d="M80 0v473h71v-473h-71zM116 670l136 -91l-13 -40l-123 55l-123 -55l-13 40z" />
    <glyph glyph-name="idieresis" unicode="&#xef;" horiz-adv-x="231" 
d="M80 0v473h71v-473h-71zM-17 561v64h109v-64h-109zM139 561v64h109v-64h-109z" />
    <glyph glyph-name="igrave" unicode="&#xec;" horiz-adv-x="231" 
d="M80 0v473h71v-473h-71zM169 543l-174 59l25 65l163 -84z" />
    <glyph glyph-name="ntilde" unicode="&#xf1;" horiz-adv-x="729" 
d="M80 0v473h71v-94c31 86 81 107 253 107c102 0 154 -10 192 -39s53 -70 53 -149v-298h-71v294c0 102 -35 125 -194 125c-170 0 -233 -38 -233 -141v-278h-71zM468 643l69 -12c-13 -54 -48 -85 -94 -85c-27 0 -27 0 -99 29c-18 8 -31 11 -43 11c-20 0 -34 -11 -40 -33
l-69 12c12 52 47 84 94 84c27 0 27 0 99 -29c18 -8 31 -11 43 -11c20 0 33 11 40 34z" />
    <glyph glyph-name="oacute" unicode="&#xf3;" horiz-adv-x="748" 
d="M374 480c145 0 210 -12 250 -47c41 -37 58 -94 58 -200c0 -99 -18 -157 -58 -193c-40 -35 -105 -47 -250 -47c-144 0 -209 12 -249 47c-41 36 -58 94 -58 197c0 102 17 160 58 196c39 35 105 47 249 47zM376 420c-131 0 -179 -10 -205 -42c-20 -25 -29 -70 -29 -141
c0 -80 11 -126 37 -150c27 -25 77 -34 196 -34c129 0 177 10 203 42c19 25 29 70 29 139c0 82 -11 127 -37 152c-27 25 -77 34 -194 34zM315 543l-11 40l198 84l23 -67z" />
    <glyph glyph-name="ocircumflex" unicode="&#xf4;" horiz-adv-x="748" 
d="M374 480c145 0 210 -12 250 -47c41 -37 58 -94 58 -200c0 -99 -18 -157 -58 -193c-40 -35 -105 -47 -250 -47c-144 0 -209 12 -249 47c-41 36 -58 94 -58 197c0 102 17 160 58 196c39 35 105 47 249 47zM376 420c-131 0 -179 -10 -205 -42c-20 -25 -29 -70 -29 -141
c0 -80 11 -126 37 -150c27 -25 77 -34 196 -34c129 0 177 10 203 42c19 25 29 70 29 139c0 82 -11 127 -37 152c-27 25 -77 34 -194 34zM375 670l162 -91l-10 -40l-152 55l-153 -55l-10 40z" />
    <glyph glyph-name="odieresis" unicode="&#xf6;" horiz-adv-x="748" 
d="M374 480c145 0 210 -12 250 -47c41 -37 58 -94 58 -200c0 -99 -18 -157 -58 -193c-40 -35 -105 -47 -250 -47c-144 0 -209 12 -249 47c-41 36 -58 94 -58 197c0 102 17 160 58 196c39 35 105 47 249 47zM376 420c-131 0 -179 -10 -205 -42c-20 -25 -29 -70 -29 -141
c0 -80 11 -126 37 -150c27 -25 77 -34 196 -34c129 0 177 10 203 42c19 25 29 70 29 139c0 82 -11 127 -37 152c-27 25 -77 34 -194 34zM188 561v64h136v-64h-136zM425 561v64h136v-64h-136z" />
    <glyph glyph-name="ograve" unicode="&#xf2;" horiz-adv-x="748" 
d="M374 480c145 0 210 -12 250 -47c41 -37 58 -94 58 -200c0 -99 -18 -157 -58 -193c-40 -35 -105 -47 -250 -47c-144 0 -209 12 -249 47c-41 36 -58 94 -58 197c0 102 17 160 58 196c39 35 105 47 249 47zM376 420c-131 0 -179 -10 -205 -42c-20 -25 -29 -70 -29 -141
c0 -80 11 -126 37 -150c27 -25 77 -34 196 -34c129 0 177 10 203 42c19 25 29 70 29 139c0 82 -11 127 -37 152c-27 25 -77 34 -194 34zM441 543l-210 57l23 67l198 -84z" />
    <glyph glyph-name="otilde" unicode="&#xf5;" horiz-adv-x="748" 
d="M374 480c145 0 210 -12 250 -47c41 -37 58 -94 58 -200c0 -99 -18 -157 -58 -193c-40 -35 -105 -47 -250 -47c-144 0 -209 12 -249 47c-41 36 -58 94 -58 197c0 102 17 160 58 196c39 35 105 47 249 47zM376 420c-131 0 -179 -10 -205 -42c-20 -25 -29 -70 -29 -141
c0 -80 11 -126 37 -150c27 -25 77 -34 196 -34c129 0 177 10 203 42c19 25 29 70 29 139c0 82 -11 127 -37 152c-27 25 -77 34 -194 34zM482 643l68 -12c-12 -54 -47 -85 -94 -85c-27 0 -27 0 -99 29c-18 8 -31 11 -42 11c-21 0 -34 -11 -41 -33l-69 12c13 52 48 84 94 84
c28 0 28 0 99 -29c19 -8 32 -11 43 -11c20 0 34 11 41 34z" />
    <glyph glyph-name="scaron" unicode="&#x161;" horiz-adv-x="714" 
d="M566 339v11c0 58 -32 70 -196 70c-195 0 -229 -12 -229 -80c0 -31 10 -48 33 -57c19 -8 49 -9 182 -10c179 -1 206 -4 245 -24c37 -19 52 -51 52 -112c0 -68 -19 -104 -64 -123c-43 -17 -89 -21 -234 -21c-160 0 -209 6 -246 29c-37 25 -49 54 -49 126v12h73v-12
c0 -48 4 -61 24 -73c27 -17 77 -22 216 -22c183 0 206 9 206 81c0 43 -10 60 -41 69c-25 8 -25 8 -298 10c-81 1 -120 10 -145 35c-18 18 -28 50 -28 92c0 56 18 95 53 112c41 21 98 28 226 28c165 0 215 -7 253 -35c27 -19 38 -49 38 -98v-8h-71zM357 539l-163 91l10 40
l153 -55l153 55l9 -40z" />
    <glyph glyph-name="uacute" unicode="&#xfa;" horiz-adv-x="729" 
d="M649 473v-473h-71v94c-31 -86 -81 -107 -253 -107c-102 0 -154 10 -192 39s-53 70 -53 149v298h71v-294c0 -102 35 -125 194 -125c170 0 233 38 233 141v278h71zM304 543l-10 40l198 84l23 -67z" />
    <glyph glyph-name="ucircumflex" unicode="&#xfb;" horiz-adv-x="729" 
d="M649 473v-473h-71v94c-31 -86 -81 -107 -253 -107c-102 0 -154 10 -192 39s-53 70 -53 149v298h71v-294c0 -102 35 -125 194 -125c170 0 233 38 233 141v278h71zM364 670l163 -91l-10 -40l-153 55l-152 -55l-10 40z" />
    <glyph glyph-name="udieresis" unicode="&#xfc;" horiz-adv-x="729" 
d="M649 473v-473h-71v94c-31 -86 -81 -107 -253 -107c-102 0 -154 10 -192 39s-53 70 -53 149v298h71v-294c0 -102 35 -125 194 -125c170 0 233 38 233 141v278h71zM178 561v64h136v-64h-136zM415 561v64h136v-64h-136z" />
    <glyph glyph-name="ugrave" unicode="&#xf9;" horiz-adv-x="729" 
d="M649 473v-473h-71v94c-31 -86 -81 -107 -253 -107c-102 0 -154 10 -192 39s-53 70 -53 149v298h71v-294c0 -102 35 -125 194 -125c170 0 233 38 233 141v278h71zM431 543l-210 57l23 67l198 -84z" />
    <glyph glyph-name="yacute" unicode="&#xfd;" horiz-adv-x="567" 
d="M-17 473h78l235 -426l213 426h75l-255 -511c-52 -104 -66 -126 -96 -150c-33 -28 -77 -41 -137 -41c-9 0 -16 0 -29 1v60c9 -1 18 -1 23 -1c82 0 109 21 164 131l19 38h-27zM230 543l-11 40l198 84l23 -67z" />
    <glyph glyph-name="ydieresis" unicode="&#xff;" horiz-adv-x="567" 
d="M-17 473h78l235 -426l213 426h75l-255 -511c-52 -104 -66 -126 -96 -150c-33 -28 -77 -41 -137 -41c-9 0 -16 0 -29 1v60c9 -1 18 -1 23 -1c82 0 109 21 164 131l19 38h-27zM97 561v64h136v-64h-136zM334 561v64h136v-64h-136z" />
    <glyph glyph-name="zcaron" unicode="&#x17e;" horiz-adv-x="608" 
d="M33 0v60l430 353h-411v60h513v-60l-430 -353h432v-60h-534zM308 539l-162 91l9 40l153 -55l153 55l10 -40z" />
    <glyph glyph-name="commasuperior" unicode="&#xf6e2;" horiz-adv-x="259" 
d="M98 339h72v-70c0 -42 -26 -67 -69 -67h-11v38c22 0 31 7 31 26h-23v73z" />
    <glyph glyph-name="periodsuperior" unicode="&#xf6e8;" horiz-adv-x="252" 
d="M90 266v73h72v-73h-72z" />
    <glyph glyph-name="figuredash" unicode="&#x2012;" horiz-adv-x="907" 
d="M67 294h773v-60h-773v60z" />
    <glyph glyph-name="oneeighth" unicode="&#x215b;" horiz-adv-x="1255" 
d="M149 499l-35 37l171 131h71v-400h-56v352zM303 -5l586 676h62l-586 -676h-62zM1147 204c43 -11 54 -30 54 -91c0 -56 -11 -82 -42 -100c-26 -15 -51 -17 -185 -17c-139 0 -163 3 -190 20c-27 19 -37 44 -37 97c0 61 11 79 54 91c-38 13 -50 35 -50 89c0 58 16 87 52 98
c27 8 87 13 171 13s144 -5 171 -13c36 -11 52 -40 52 -98c0 -54 -12 -76 -50 -89zM974 355c-153 0 -166 -5 -166 -60c0 -65 0 -65 163 -65c169 0 169 0 169 65c0 55 -13 60 -166 60zM976 182c-164 0 -171 -3 -171 -65c0 -67 12 -72 169 -72s169 5 169 73c0 61 -9 64 -167 64
z" />
    <glyph glyph-name="threeeighths" unicode="&#x215c;" horiz-adv-x="1255" 
d="M216 495h159c53 0 67 14 67 65c0 59 -7 62 -148 62c-184 0 -187 -1 -188 -85h-56c0 66 8 89 35 107c31 22 71 27 203 27c118 0 151 -4 180 -24c24 -16 32 -40 32 -91c0 -52 -10 -71 -45 -83c37 -12 50 -34 50 -85c0 -65 -12 -91 -48 -109c-24 -12 -51 -15 -158 -15
c-146 0 -179 3 -208 18c-31 16 -44 45 -44 99v15h57v-16c0 -63 12 -68 164 -68c175 0 179 1 179 68c0 58 -8 66 -69 66h-162v49zM303 -5l586 676h62l-586 -676h-62zM1147 204c43 -11 54 -30 54 -91c0 -56 -11 -82 -42 -100c-26 -15 -51 -17 -185 -17c-139 0 -163 3 -190 20
c-27 19 -37 44 -37 97c0 61 11 79 54 91c-38 13 -50 35 -50 89c0 58 16 87 52 98c27 8 87 13 171 13s144 -5 171 -13c36 -11 52 -40 52 -98c0 -54 -12 -76 -50 -89zM974 355c-153 0 -166 -5 -166 -60c0 -65 0 -65 163 -65c169 0 169 0 169 65c0 55 -13 60 -166 60zM976 182
c-164 0 -171 -3 -171 -65c0 -67 12 -72 169 -72s169 5 169 73c0 61 -9 64 -167 64z" />
    <glyph glyph-name="fiveeighths" unicode="&#x215d;" horiz-adv-x="1255" 
d="M55 395h56c0 -48 3 -58 21 -69c18 -10 58 -14 140 -14c177 0 183 3 183 95c0 81 -11 86 -190 86c-116 0 -141 -7 -146 -38h-57l5 212h434v-49h-381l-2 -110c24 30 43 34 154 34c131 0 164 -4 197 -22c34 -19 44 -45 44 -110c0 -74 -10 -105 -38 -123
c-30 -19 -66 -24 -176 -24c-164 0 -196 5 -221 34c-19 21 -23 39 -23 98zM303 -5l586 676h62l-586 -676h-62zM1147 204c43 -11 54 -30 54 -91c0 -56 -11 -82 -42 -100c-26 -15 -51 -17 -185 -17c-139 0 -163 3 -190 20c-27 19 -37 44 -37 97c0 61 11 80 54 91
c-38 13 -50 35 -50 89c0 58 16 87 52 98c27 8 87 13 171 13s144 -5 171 -13c36 -11 52 -40 52 -98c0 -54 -12 -76 -50 -89zM974 355c-153 0 -166 -5 -166 -60c0 -65 0 -65 163 -65c169 0 169 0 169 65c0 55 -13 60 -166 60zM976 182c-164 0 -171 -3 -171 -65
c0 -67 12 -72 169 -72s169 5 169 73c0 61 -9 64 -167 64z" />
    <glyph glyph-name="seveneighths" unicode="&#x215e;" horiz-adv-x="1255" 
d="M42 667h461v-63l-302 -337h-76l315 351h-398v49zM304 -5l585 676h62l-585 -676h-62zM1147 204c44 -11 55 -30 55 -91c0 -56 -11 -82 -42 -100c-26 -15 -52 -17 -185 -17c-140 0 -164 3 -191 20c-27 19 -37 44 -37 97c0 61 11 79 55 91c-38 13 -50 35 -50 89
c0 58 16 87 52 98c27 8 87 13 171 13c83 0 143 -5 170 -13c36 -11 52 -40 52 -98c0 -54 -12 -76 -50 -89zM975 355c-153 0 -166 -5 -166 -60c0 -65 0 -65 163 -65c168 0 168 0 168 65c0 55 -13 60 -165 60zM977 182c-165 0 -172 -3 -172 -65c0 -67 12 -72 169 -72
c158 0 170 5 170 73c0 61 -9 64 -167 64z" />
    <glyph glyph-name="onethird" unicode="&#x2153;" horiz-adv-x="1255" 
d="M149 499l-35 37l171 131h71v-400h-56v352zM303 -5l586 676h62l-586 -676h-62zM910 229h159c53 0 67 14 67 64c0 59 -7 62 -148 62c-184 0 -187 -1 -188 -84h-56c0 66 8 88 35 107c30 21 71 26 203 26c118 0 151 -4 180 -24c24 -16 32 -40 32 -91s-10 -70 -45 -82
c37 -12 50 -34 50 -86c0 -65 -12 -91 -48 -109c-24 -12 -51 -15 -158 -15c-146 0 -179 3 -208 18c-31 16 -44 45 -44 99v15h57v-16c0 -63 12 -68 164 -68c175 0 179 1 179 68c0 59 -8 67 -69 67h-162v49z" />
    <glyph glyph-name="twothirds" unicode="&#x2154;" horiz-adv-x="1255" 
d="M58 513v18c0 67 11 97 43 117c28 17 74 23 178 23c120 0 162 -6 189 -26c27 -21 38 -50 38 -101c0 -54 -13 -86 -42 -104c-21 -13 -41 -17 -102 -21l-148 -11c-91 -5 -102 -16 -103 -92h396v-49h-454v30c-4 123 26 157 142 162l149 10c90 7 104 16 104 72
c0 74 -15 81 -168 81c-150 0 -166 -9 -166 -90v-19h-56zM304 -5l585 676h62l-586 -676h-61zM910 229h159c53 0 67 14 67 64c0 59 -7 62 -148 62c-184 0 -187 -1 -188 -84h-56c0 66 8 88 35 107c30 21 71 26 203 26c118 0 151 -4 180 -24c24 -16 32 -40 32 -91
s-10 -70 -45 -82c37 -12 50 -34 50 -86c0 -65 -12 -91 -48 -109c-24 -12 -51 -15 -158 -15c-146 0 -179 3 -208 18c-31 16 -44 45 -44 99v15h57v-16c0 -63 12 -68 164 -68c175 0 179 1 179 68c0 59 -8 67 -69 67h-162v49z" />
    <glyph glyph-name="zerosuperior" unicode="&#x2070;" horiz-adv-x="561" 
d="M281 671c149 0 178 -5 206 -37c25 -29 30 -58 30 -171c0 -104 -6 -135 -30 -163c-28 -32 -57 -37 -206 -37c-150 0 -179 5 -207 37c-24 28 -30 59 -30 167s6 139 30 167c28 32 57 37 207 37zM269 622c-168 0 -168 0 -168 -155s0 -155 168 -155c136 0 156 3 173 23
c15 17 18 42 18 130c0 93 -3 117 -18 134c-17 20 -37 23 -173 23z" />
    <glyph glyph-name="foursuperior" unicode="&#x2074;" horiz-adv-x="561" 
d="M53 352v68l325 247h73v-266h65v-49h-65v-85h-56v85h-342zM109 401h282v217z" />
    <glyph glyph-name="fivesuperior" unicode="&#x2075;" horiz-adv-x="561" 
d="M55 395h56c0 -48 3 -58 21 -69c18 -10 58 -14 140 -14c177 0 183 3 183 95c0 81 -11 86 -190 86c-116 0 -141 -7 -146 -38h-57l5 212h434v-49h-381l-2 -110c24 30 43 34 154 34c131 0 164 -4 197 -22c34 -19 44 -45 44 -110c0 -74 -10 -105 -38 -123
c-30 -19 -66 -24 -176 -24c-164 0 -196 5 -221 34c-19 21 -23 39 -23 98z" />
    <glyph glyph-name="sixsuperior" unicode="&#x2076;" horiz-adv-x="561" 
d="M502 546h-60c0 72 -6 76 -140 76c-113 0 -139 -3 -163 -17c-19 -11 -25 -29 -25 -74v-63c23 35 40 39 182 39c88 0 124 -2 149 -10c42 -13 59 -42 59 -104c0 -53 -9 -82 -31 -101c-30 -25 -61 -30 -180 -30c-147 0 -175 4 -203 31s-34 57 -34 175c0 122 7 152 44 177
c30 21 66 26 200 26c113 0 149 -8 178 -37c18 -20 23 -37 24 -88zM278 458c-146 0 -163 -8 -163 -74c0 -65 18 -73 173 -73c143 0 158 8 158 82c0 63 -5 65 -168 65z" />
    <glyph glyph-name="sevensuperior" unicode="&#x2077;" horiz-adv-x="561" 
d="M42 667h461v-63l-302 -337h-76l315 351h-398v49z" />
    <glyph glyph-name="eightsuperior" unicode="&#x2078;" horiz-adv-x="561" 
d="M453 471c44 -11 55 -30 55 -91c0 -56 -11 -82 -42 -100c-26 -15 -52 -17 -185 -17c-140 0 -164 3 -191 20c-27 19 -37 44 -37 97c0 61 11 80 54 91c-38 13 -50 35 -50 89c0 58 16 87 52 98c27 8 87 13 171 13s144 -5 171 -13c36 -11 52 -40 52 -98c0 -54 -12 -76 -50 -89
zM280 622c-153 0 -166 -5 -166 -60c0 -65 0 -65 163 -65c169 0 169 0 169 65c0 55 -13 60 -166 60zM283 449c-165 0 -172 -3 -172 -65c0 -67 12 -72 169 -72c158 0 170 5 170 73c0 61 -9 64 -167 64z" />
    <glyph glyph-name="ninesuperior" unicode="&#x2079;" horiz-adv-x="561" 
d="M58 387h60v-12c-1 -58 13 -64 141 -64c112 0 138 3 162 17c19 11 25 29 25 74v63c-23 -35 -40 -39 -182 -39c-87 0 -124 2 -149 10c-42 12 -59 42 -59 103c0 54 9 83 31 102c29 25 61 30 180 30c147 0 175 -4 203 -32c28 -26 34 -57 34 -175c0 -121 -7 -151 -44 -177
c-30 -20 -66 -25 -200 -25c-113 0 -149 8 -178 37c-18 20 -23 37 -24 88zM272 622c-143 0 -158 -8 -158 -82c0 -63 5 -65 168 -65c146 0 163 8 163 74c0 65 -18 73 -173 73z" />
    <glyph glyph-name="zeroinferior" unicode="&#x2080;" horiz-adv-x="561" 
d="M281 404c149 0 178 -5 206 -37c25 -29 30 -58 30 -171c0 -104 -6 -135 -30 -163c-28 -32 -57 -37 -206 -37c-150 0 -179 5 -207 37c-24 28 -30 59 -30 167s6 139 30 167c28 32 57 37 207 37zM269 355c-168 0 -168 0 -168 -155s0 -155 168 -155c136 0 156 3 173 23
c15 17 18 42 18 130c0 93 -3 117 -18 134c-17 20 -37 23 -173 23z" />
    <glyph glyph-name="oneinferior" unicode="&#x2081;" horiz-adv-x="561" 
d="M149 232l-35 37l171 131h71v-400h-56v352z" />
    <glyph glyph-name="twoinferior" unicode="&#x2082;" horiz-adv-x="561" 
d="M58 246v18c0 67 11 97 43 117c28 17 74 23 178 23c120 0 162 -6 189 -26c27 -21 38 -50 38 -101c0 -54 -13 -86 -42 -104c-21 -13 -41 -17 -102 -21l-148 -11c-91 -5 -102 -16 -103 -92h396v-49h-454v30c-4 123 26 157 142 162l149 10c90 7 104 16 104 72
c0 74 -15 81 -168 81c-150 0 -166 -9 -166 -90v-19h-56z" />
    <glyph glyph-name="threeinferior" unicode="&#x2083;" horiz-adv-x="561" 
d="M216 229h159c53 0 67 14 67 64c0 59 -7 62 -148 62c-184 0 -187 -1 -188 -84h-56c0 66 8 88 35 107c30 21 71 26 203 26c118 0 151 -4 180 -24c24 -16 32 -40 32 -91s-10 -70 -45 -82c37 -12 50 -34 50 -86c0 -65 -12 -91 -48 -109c-24 -12 -51 -15 -158 -15
c-146 0 -179 3 -208 18c-31 16 -44 45 -44 99v15h57v-16c0 -63 12 -68 164 -68c175 0 179 1 179 68c0 59 -8 67 -69 67h-162v49z" />
    <glyph glyph-name="fourinferior" unicode="&#x2084;" horiz-adv-x="561" 
d="M53 85v68l325 247h73v-266h65v-49h-65v-85h-56v85h-342zM109 134h282v217z" />
    <glyph glyph-name="fiveinferior" unicode="&#x2085;" horiz-adv-x="561" 
d="M55 128h56c0 -48 3 -58 21 -69c18 -10 58 -14 140 -14c177 0 183 3 183 95c0 82 -11 87 -190 87c-116 0 -141 -7 -146 -39h-57l5 212h434v-49h-381l-2 -110c24 31 43 35 154 35c131 0 164 -4 197 -22c34 -19 44 -45 44 -111c0 -74 -10 -105 -38 -123
c-30 -19 -66 -24 -176 -24c-164 0 -196 5 -221 34c-19 21 -23 39 -23 98z" />
    <glyph glyph-name="sixinferior" unicode="&#x2086;" horiz-adv-x="561" 
d="M502 279h-60c0 72 -6 76 -140 76c-113 0 -139 -3 -163 -17c-19 -11 -25 -29 -25 -74v-62c23 34 40 38 182 38c87 0 124 -2 149 -10c42 -12 59 -42 59 -103c0 -54 -9 -82 -31 -101c-30 -25 -61 -30 -180 -30c-147 0 -175 4 -203 31s-34 57 -34 175c0 121 7 151 44 177
c30 20 66 25 200 25c113 0 149 -8 178 -37c18 -20 23 -37 24 -88zM278 191c-146 0 -163 -7 -163 -74c0 -64 19 -72 173 -72c143 0 158 8 158 82c0 62 -5 64 -168 64z" />
    <glyph glyph-name="seveninferior" unicode="&#x2087;" horiz-adv-x="561" 
d="M42 400h461v-63l-302 -337h-76l315 351h-398v49z" />
    <glyph glyph-name="eightinferior" unicode="&#x2088;" horiz-adv-x="561" 
d="M453 204c44 -11 55 -30 55 -91c0 -56 -11 -82 -42 -100c-26 -15 -52 -17 -185 -17c-140 0 -164 3 -191 20c-27 19 -37 44 -37 97c0 61 11 80 54 91c-38 13 -50 35 -50 89c0 58 16 87 52 98c27 8 87 13 171 13s144 -5 171 -13c36 -11 52 -40 52 -98c0 -54 -12 -76 -50 -89
zM280 355c-153 0 -166 -5 -166 -60c0 -65 0 -65 163 -65c169 0 169 0 169 65c0 55 -13 60 -166 60zM283 182c-165 0 -172 -3 -172 -65c0 -67 12 -72 169 -72c158 0 170 5 170 73c0 61 -9 64 -167 64z" />
    <glyph glyph-name="nineinferior" unicode="&#x2089;" horiz-adv-x="561" 
d="M58 121h60v-12c-1 -58 13 -64 141 -64c112 0 138 3 162 17c19 11 25 29 25 74v63c-23 -35 -40 -39 -182 -39c-87 0 -124 2 -149 10c-42 12 -59 42 -59 103c0 54 9 82 31 101c29 25 61 30 180 30c147 0 175 -4 203 -31s34 -57 34 -175c0 -121 -7 -151 -44 -177
c-30 -20 -66 -25 -200 -25c-113 0 -149 8 -178 37c-18 20 -23 37 -24 88zM272 355c-143 0 -158 -8 -158 -82c0 -62 5 -64 168 -64c146 0 163 7 163 74c0 64 -19 72 -173 72z" />
    <glyph glyph-name="IJ" unicode="&#x132;" horiz-adv-x="1000" 
d="M93 0v667h80v-667h-80zM833 667h80v-435c0 -110 -10 -151 -47 -189c-38 -39 -95 -50 -252 -50c-176 0 -243 12 -285 50c-36 34 -43 63 -43 176v26h78v-47c0 -79 12 -105 55 -119c30 -11 96 -16 190 -16c88 0 148 7 176 21c37 19 48 57 48 173v410z" />
    <glyph glyph-name="uni01CD" unicode="&#x1cd;" horiz-adv-x="859" 
d="M703 150h-546l-88 -150h-89l393 667h113l393 -667h-88zM665 213l-235 398l-235 -398h470zM430 729l-195 80l13 42l182 -46l181 46l13 -42z" />
    <glyph glyph-name="Abreve" unicode="&#x102;" horiz-adv-x="859" 
d="M703 150h-546l-88 -150h-89l393 667h113l393 -667h-88zM665 213l-235 398l-235 -398h470zM246 851h66c2 -51 27 -65 118 -65s114 13 118 65h66c-13 -95 -49 -119 -184 -119s-173 24 -184 119z" />
    <glyph glyph-name="Aogonek" unicode="&#x104;" horiz-adv-x="859" 
d="M880 0h-4c-70 -22 -103 -48 -103 -83c0 -31 30 -50 81 -50c21 0 32 2 51 8v-46c-22 -8 -37 -11 -62 -11c-82 0 -137 36 -137 90c0 29 17 56 49 75c8 4 13 7 37 17l-89 150h-545l-89 -150h-89l393 667h114zM665 213l-235 398l-235 -398h470z" />
    <glyph glyph-name="Cacute" unicode="&#x106;" horiz-adv-x="937" 
d="M792 224h78v-28c0 -80 -8 -115 -34 -145c-25 -30 -58 -44 -119 -51c-38 -3 -152 -7 -242 -7c-241 0 -300 10 -349 61c-43 44 -53 97 -53 279c0 208 14 261 82 304c51 32 106 37 381 37c167 0 225 -8 266 -38c45 -31 59 -73 62 -179h-78v17c0 118 -28 130 -308 130
c-320 0 -322 -1 -322 -271c0 -152 7 -200 35 -229c32 -33 83 -41 270 -41c300 0 331 11 331 123v38zM407 729l-15 45l251 77l26 -71z" />
    <glyph glyph-name="Ccaron" unicode="&#x10c;" horiz-adv-x="937" 
d="M792 224h78v-28c0 -80 -8 -115 -34 -145c-25 -30 -58 -44 -119 -51c-38 -3 -152 -7 -242 -7c-241 0 -300 10 -349 61c-43 44 -53 97 -53 279c0 208 14 261 82 304c51 32 106 37 381 37c167 0 225 -8 266 -38c45 -31 59 -73 62 -179h-78v17c0 118 -28 130 -308 130
c-320 0 -322 -1 -322 -271c0 -152 7 -200 35 -229c32 -33 83 -41 270 -41c300 0 331 11 331 123v38zM481 729l-194 80l13 42l181 -46l182 46l13 -42z" />
    <glyph glyph-name="Cdotaccent" unicode="&#x10a;" horiz-adv-x="937" 
d="M792 224h78v-28c0 -80 -8 -115 -34 -145c-25 -30 -58 -44 -119 -51c-38 -3 -152 -7 -242 -7c-241 0 -300 10 -349 61c-43 44 -53 97 -53 279c0 208 14 261 82 304c51 32 106 37 381 37c167 0 225 -8 266 -38c45 -31 59 -73 62 -179h-78v17c0 118 -28 130 -308 130
c-320 0 -322 -1 -322 -271c0 -152 7 -200 35 -229c32 -33 83 -41 270 -41c300 0 331 11 331 123v38zM411 745v69h140v-69h-140z" />
    <glyph glyph-name="Dcaron" unicode="&#x10e;" horiz-adv-x="990" 
d="M93 0v667h519c147 0 221 -27 261 -97c30 -49 44 -128 44 -236c0 -109 -14 -188 -44 -237c-40 -70 -114 -97 -261 -97h-519zM173 67h445c94 0 155 22 182 65c23 38 34 100 34 198c0 103 -12 173 -36 210c-27 41 -84 60 -186 60h-439v-533zM468 729l-194 80l13 42l181 -46
l181 46l13 -42z" />
    <glyph glyph-name="Dcroat" unicode="&#x110;" horiz-adv-x="990" 
d="M93 312h-93v63h93v292h519c147 0 221 -27 262 -97c28 -49 43 -129 43 -237s-15 -187 -43 -236c-41 -70 -115 -97 -262 -97h-519v312zM173 312v-245h446c93 0 154 22 181 65c23 38 34 100 34 198c0 102 -12 173 -36 210c-27 42 -84 60 -185 60h-440v-225h319v-63h-319z
" />
    <glyph glyph-name="Ecaron" unicode="&#x11a;" horiz-adv-x="819" 
d="M93 0v667h664v-67h-584v-223h563v-63h-563v-247h589v-67h-669zM429 729l-194 80l13 42l181 -46l181 46l13 -42z" />
    <glyph glyph-name="Edotaccent" unicode="&#x116;" horiz-adv-x="819" 
d="M93 0v667h664v-67h-584v-223h563v-63h-563v-247h589v-67h-669zM359 745v69h140v-69h-140z" />
    <glyph glyph-name="Eogonek" unicode="&#x118;" horiz-adv-x="819" 
d="M762 0h-29c-69 -22 -102 -48 -102 -83c0 -31 30 -50 81 -50c21 0 30 2 50 8v-46c-23 -9 -37 -11 -61 -11c-82 0 -137 36 -137 90c0 30 17 56 49 75c8 4 14 8 36 17h-556v667h664v-67h-584v-223h563v-63h-563v-247h589v-67z" />
    <glyph glyph-name="Gcaron" unicode="&#x1e6;" horiz-adv-x="982" 
d="M477 329h435c0 -109 0 -109 -4 -151c-8 -87 -38 -139 -95 -162c-43 -18 -104 -23 -307 -23c-278 0 -329 8 -380 61c-43 45 -53 97 -53 279c0 183 10 235 53 280c52 54 99 61 404 61c205 0 259 -7 307 -40c46 -31 65 -76 68 -163h-79c-2 63 -6 81 -25 98
c-32 31 -61 35 -243 35c-263 0 -320 -5 -355 -30c-38 -28 -47 -73 -47 -241c0 -152 7 -201 35 -229c32 -34 81 -41 281 -41c260 0 295 4 329 42c25 27 30 52 33 157h-357v67zM497 729l-194 80l13 42l181 -46l182 46l13 -42z" />
    <glyph glyph-name="Gbreve" unicode="&#x11e;" horiz-adv-x="982" 
d="M477 329h435c0 -109 0 -109 -4 -151c-8 -87 -38 -139 -95 -162c-43 -18 -104 -23 -307 -23c-278 0 -329 8 -380 61c-43 45 -53 97 -53 279c0 183 10 235 53 280c52 54 99 61 404 61c205 0 259 -7 307 -40c46 -31 65 -76 68 -163h-79c-2 63 -6 81 -25 98
c-32 31 -61 35 -243 35c-263 0 -320 -5 -355 -30c-38 -28 -47 -73 -47 -241c0 -152 7 -201 35 -229c32 -34 81 -41 281 -41c260 0 295 4 329 42c25 27 30 52 33 157h-357v67zM307 851h66c2 -51 27 -65 118 -65s114 13 117 65h66c-12 -95 -48 -119 -183 -119
c-136 0 -173 24 -184 119z" />
    <glyph glyph-name="Gdotaccent" unicode="&#x120;" horiz-adv-x="982" 
d="M477 329h435c0 -109 0 -109 -4 -151c-8 -87 -38 -139 -95 -162c-43 -18 -104 -23 -307 -23c-278 0 -329 8 -380 61c-43 45 -53 97 -53 279c0 183 10 235 53 280c52 54 99 61 404 61c205 0 259 -7 307 -40c46 -31 65 -76 68 -163h-79c-2 63 -6 81 -25 98
c-32 31 -61 35 -243 35c-263 0 -320 -5 -355 -30c-38 -28 -47 -73 -47 -241c0 -152 7 -201 35 -229c32 -34 81 -41 281 -41c260 0 295 4 329 42c25 27 30 52 33 157h-357v67zM427 745v69h140v-69h-140z" />
    <glyph glyph-name="Idotaccent" unicode="&#x130;" horiz-adv-x="267" 
d="M93 0v667h80v-667h-80zM63 745v69h140v-69h-140z" />
    <glyph glyph-name="Lacute" unicode="&#x139;" horiz-adv-x="722" 
d="M93 0v667h80v-600h529v-67h-609zM86 729l-15 45l250 77l27 -71z" />
    <glyph glyph-name="Lcaron" unicode="&#x13d;" horiz-adv-x="722" 
d="M93 0v667h80v-600h529v-67h-609zM331 667h89v-72c0 -47 -6 -67 -28 -83c-15 -11 -36 -17 -58 -17h-5v43c27 1 38 13 38 42v15h-36v72z" />
    <glyph glyph-name="Nacute" unicode="&#x143;" horiz-adv-x="1026" 
d="M93 0v667h129l630 -610v610h80v-667h-129l-630 610v-610h-80zM452 729l-15 45l250 77l27 -71z" />
    <glyph glyph-name="Ncaron" unicode="&#x147;" horiz-adv-x="1026" 
d="M93 0v667h129l630 -610v610h80v-667h-129l-630 610v-610h-80zM529 729l-194 80l13 42l181 -46l181 46l13 -42z" />
    <glyph glyph-name="Ohungarumlaut" unicode="&#x150;" horiz-adv-x="1005" 
d="M506 674c269 0 321 -9 372 -61c43 -45 53 -97 53 -279c0 -183 -10 -235 -53 -280c-51 -53 -102 -61 -376 -61s-325 8 -376 61c-43 45 -53 97 -53 279c0 183 10 236 53 280c51 53 102 61 380 61zM506 604c-230 0 -283 -7 -315 -41c-28 -29 -35 -77 -35 -230
c0 -152 7 -200 35 -229c34 -36 76 -41 311 -41s277 6 311 41c28 29 35 77 35 229c0 153 -7 201 -35 230c-31 34 -87 41 -307 41zM597 719l-22 36l200 115l38 -61zM367 719l-22 36l200 115l38 -61z" />
    <glyph glyph-name="Racute" unicode="&#x154;" horiz-adv-x="946" 
d="M93 0v667h550c101 0 148 -13 183 -51c27 -30 41 -81 41 -153c0 -76 -17 -121 -53 -142c-24 -13 -44 -18 -97 -23c44 -5 62 -9 83 -20c37 -20 54 -52 54 -105v-173h-80v127c0 65 -7 93 -26 113c-23 22 -50 29 -117 29h-458v-269h-80zM173 332h439c137 0 172 27 172 135
c0 106 -36 133 -177 133h-434v-268zM379 729l-15 45l250 77l27 -71z" />
    <glyph glyph-name="Rcaron" unicode="&#x158;" horiz-adv-x="946" 
d="M93 0v667h550c101 0 148 -13 183 -51c27 -30 41 -81 41 -153c0 -76 -17 -121 -53 -142c-24 -13 -44 -18 -97 -23c44 -5 62 -9 83 -20c37 -20 54 -52 54 -105v-173h-80v127c0 65 -7 93 -26 113c-23 22 -50 29 -117 29h-458v-269h-80zM173 332h439c137 0 172 27 172 135
c0 106 -36 133 -177 133h-434v-268zM459 729l-194 80l13 42l181 -46l182 46l13 -42z" />
    <glyph glyph-name="Sacute" unicode="&#x15a;" horiz-adv-x="894" 
d="M67 208h80v-18c0 -67 14 -94 57 -108c39 -13 113 -19 233 -19c261 0 308 20 308 131c0 56 -17 81 -62 94c-44 12 -48 12 -346 14c-121 1 -173 10 -214 37c-40 27 -56 64 -56 130c0 100 36 157 115 180c57 17 145 25 282 25c154 0 233 -11 279 -40c49 -30 64 -65 67 -158
h-78c-1 53 -10 77 -32 94c-31 24 -100 34 -235 34c-263 0 -314 -21 -314 -128c0 -46 13 -72 41 -85c35 -16 65 -18 254 -19c212 -1 258 -5 306 -28c54 -26 76 -71 76 -154c0 -92 -31 -147 -97 -172c-49 -18 -125 -25 -279 -25c-162 0 -238 7 -292 25c-60 21 -93 72 -93 144
v46zM373 729l-14 45l250 77l27 -71z" />
    <glyph glyph-name="Scedilla" unicode="&#x15e;" horiz-adv-x="894" 
d="M67 208h80v-18c0 -67 14 -94 57 -108c39 -13 113 -19 233 -19c261 0 308 20 308 131c0 56 -17 81 -62 94c-44 12 -48 12 -346 14c-121 1 -173 10 -214 37c-40 27 -56 64 -56 130c0 100 36 157 115 180c57 17 145 25 282 25c154 0 233 -11 279 -40c49 -30 64 -65 67 -158
h-78c-1 53 -10 77 -32 94c-31 24 -100 34 -235 34c-263 0 -314 -21 -314 -128c0 -46 13 -72 41 -85c35 -16 65 -18 254 -19c212 -1 258 -5 306 -28c54 -26 76 -71 76 -154c0 -92 -31 -147 -97 -172c-49 -18 -125 -25 -279 -25c-162 0 -238 7 -292 25c-60 21 -93 72 -93 144
v46zM352 -178l-27 46l152 85l36 -60z" />
    <glyph glyph-name="Tcaron" unicode="&#x164;" horiz-adv-x="744" 
d="M332 0v600h-339v67h757v-67h-338v-600h-80zM371 729l-194 80l13 42l181 -46l182 46l13 -42z" />
    <glyph glyph-name="Uring" unicode="&#x16e;" horiz-adv-x="959" 
d="M793 667h80v-453c0 -74 -2 -94 -10 -118c-31 -84 -100 -103 -383 -103c-231 0 -307 12 -351 54c-24 23 -36 50 -40 89c-2 16 -2 32 -2 78v453h80v-439c0 -62 0 -68 4 -84c16 -70 58 -81 309 -81c212 0 266 8 293 45c18 25 20 36 20 120v439zM480 870
c84 0 139 -30 139 -76c0 -47 -54 -77 -141 -77c-81 0 -138 32 -138 77s57 76 140 76zM480 829c-51 0 -83 -14 -83 -36c0 -21 32 -35 82 -35c51 0 83 13 83 36c0 21 -32 35 -82 35z" />
    <glyph glyph-name="Uhungarumlaut" unicode="&#x170;" horiz-adv-x="959" 
d="M793 667h80v-453c0 -74 -2 -94 -10 -118c-31 -84 -100 -103 -383 -103c-231 0 -307 12 -351 54c-24 23 -36 50 -40 89c-2 16 -2 32 -2 78v453h80v-439c0 -62 0 -68 4 -84c16 -70 58 -81 309 -81c212 0 266 8 293 45c18 25 20 36 20 120v439zM562 719l-22 36l201 115
l37 -61zM332 719l-22 36l201 115l37 -61z" />
    <glyph glyph-name="Zacute" unicode="&#x179;" horiz-adv-x="832" 
d="M27 0v67l644 533h-617v67h734v-67l-644 -533h655v-67h-772zM346 729l-15 45l250 77l27 -71z" />
    <glyph glyph-name="Zdotaccent" unicode="&#x17b;" horiz-adv-x="832" 
d="M27 0v67l644 533h-617v67h734v-67l-644 -533h655v-67h-772zM351 745v69h140v-69h-140z" />
    <glyph glyph-name="Amacron" unicode="&#x100;" horiz-adv-x="859" 
d="M232 806h396v-60h-396v60zM703 150h-546l-88 -150h-89l393 667h113l393 -667h-88zM665 213l-235 398l-235 -398h470z" />
    <glyph glyph-name="Tcommaaccent" unicode="&#x162;" horiz-adv-x="744" 
d="M332 0v600h-339v67h757v-67h-338v-600h-80zM327 -54h89v-68c0 -56 -29 -85 -86 -86h-5v43c27 0 39 13 38 43h-36v68z" />
    <glyph glyph-name="uni021A" unicode="&#x21a;" horiz-adv-x="744" 
d="M332 0v600h-339v67h757v-67h-338v-600h-80zM327 -54h89v-68c0 -56 -29 -85 -86 -86h-5v43c27 0 39 13 38 43h-36v68z" />
    <glyph glyph-name="Ccircumflex" unicode="&#x108;" horiz-adv-x="937" 
d="M792 224h78v-28c0 -80 -8 -115 -34 -145c-25 -30 -58 -44 -119 -51c-38 -3 -152 -7 -242 -7c-241 0 -300 10 -349 61c-43 44 -53 97 -53 279c0 208 14 261 82 304c51 32 106 37 381 37c167 0 225 -8 266 -38c45 -31 59 -73 62 -179h-78v17c0 118 -28 130 -308 130
c-320 0 -322 -1 -322 -271c0 -152 7 -200 35 -229c32 -33 83 -41 270 -41c300 0 331 11 331 123v38zM481 851l195 -79l-13 -43l-182 46l-181 -46l-13 43z" />
    <glyph glyph-name="Wcircumflex" unicode="&#x174;" horiz-adv-x="1370" 
d="M-7 667h88l277 -594l281 594h94l281 -594l278 594h84l-315 -667h-98l-278 589l-279 -589h-98zM685 851l194 -79l-13 -43l-181 46l-182 -46l-13 43z" />
    <glyph glyph-name="Wdieresis" unicode="&#x1e84;" horiz-adv-x="1370" 
d="M-7 667h88l277 -594l281 594h94l281 -594l278 594h84l-315 -667h-98l-278 589l-279 -589h-98zM492 745v69h140v-69h-140zM737 745v69h140v-69h-140z" />
    <glyph glyph-name="Ycircumflex" unicode="&#x176;" horiz-adv-x="814" 
d="M407 346l317 321h110l-387 -387v-280h-80v280l-387 387h110zM407 851l194 -79l-13 -43l-181 46l-181 -46l-14 43z" />
    <glyph glyph-name="Hbar" unicode="&#x126;" horiz-adv-x="972" 
d="M93 492h-93v63h93v112h80v-112h625v112h80v-112h94v-63h-94v-492h-80v312h-625v-312h-80v492zM173 492v-117h625v117h-625z" />
    <glyph glyph-name="Dbreve" horiz-adv-x="990" 
d="M93 0v667h519c147 0 221 -27 261 -97c30 -49 44 -128 44 -236c0 -109 -14 -188 -44 -237c-40 -70 -114 -97 -261 -97h-519zM173 67h445c94 0 155 22 182 65c23 38 34 100 34 198c0 103 -12 173 -36 210c-27 41 -84 60 -186 60h-439v-533zM279 851h66
c2 -51 28 -65 118 -65c91 0 114 13 118 65h66c-12 -95 -49 -119 -184 -119s-172 24 -184 119z" />
    <glyph glyph-name="Emacron" unicode="&#x112;" horiz-adv-x="819" 
d="M231 806h396v-60h-396v60zM93 0v667h664v-67h-584v-223h563v-63h-563v-247h589v-67h-669z" />
    <glyph glyph-name="Gcircumflex" unicode="&#x11c;" horiz-adv-x="982" 
d="M477 329h435c0 -109 0 -109 -4 -151c-8 -87 -38 -139 -95 -162c-43 -18 -104 -23 -307 -23c-278 0 -329 8 -380 61c-43 45 -53 97 -53 279c0 183 10 235 53 280c52 54 99 61 404 61c205 0 259 -7 307 -40c46 -31 65 -76 68 -163h-79c-2 63 -6 81 -25 98
c-32 31 -61 35 -243 35c-263 0 -320 -5 -355 -30c-38 -28 -47 -73 -47 -241c0 -152 7 -201 35 -229c32 -34 81 -41 281 -41c260 0 295 4 329 42c25 27 30 52 33 157h-357v67zM497 851l195 -79l-13 -43l-182 46l-181 -46l-13 43z" />
    <glyph glyph-name="Hcircumflex" unicode="&#x124;" horiz-adv-x="972" 
d="M93 0v667h80v-292h625v292h80v-667h-80v312h-625v-312h-80zM485 851l195 -79l-13 -43l-182 46l-181 -46l-13 43z" />
    <glyph glyph-name="Imacron" unicode="&#x12a;" horiz-adv-x="267" 
d="M-5 806h276v-60h-276v60zM93 0v667h80v-667h-80z" />
    <glyph glyph-name="Iogonek" unicode="&#x12e;" horiz-adv-x="267" 
d="M94 0v667h80v-668c-66 -22 -98 -48 -98 -82c0 -31 30 -50 81 -50c21 0 30 2 50 8v-46c-22 -8 -37 -11 -61 -11c-82 0 -137 36 -137 90c0 30 17 56 49 75c8 5 14 7 36 17z" />
    <glyph glyph-name="Kcommaaccent" unicode="&#x136;" horiz-adv-x="870" 
d="M93 0v667h80v-291h121l436 291h135l-487 -323l512 -344h-134l-464 313h-119v-313h-80zM392 -54h88v-68c0 -56 -29 -85 -85 -86h-6v43c28 0 40 13 39 43h-36v68z" />
    <glyph glyph-name="Lcommaaccent" unicode="&#x13b;" horiz-adv-x="722" 
d="M93 0v667h80v-600h529v-67h-609zM353 -54h89v-68c0 -56 -29 -85 -86 -86h-5v43c27 0 39 13 38 43h-36v68z" />
    <glyph glyph-name="Ncommaaccent" unicode="&#x145;" horiz-adv-x="1026" 
d="M93 0v667h129l630 -610v610h80v-667h-129l-630 610v-610h-80zM456 -54h89v-68c0 -56 -29 -85 -86 -86h-5v43c27 0 39 13 38 43h-36v68z" />
    <glyph glyph-name="Omacron" unicode="&#x14c;" horiz-adv-x="1005" 
d="M304 806h396v-60h-396v60zM506 674c269 0 321 -9 372 -61c43 -45 53 -97 53 -279c0 -183 -10 -235 -53 -280c-51 -53 -102 -61 -376 -61s-325 8 -376 61c-43 45 -53 97 -53 279c0 183 10 236 53 280c51 53 102 61 380 61zM506 604c-230 0 -283 -7 -315 -41
c-28 -29 -35 -77 -35 -230c0 -152 7 -200 35 -229c34 -36 76 -41 311 -41s277 6 311 41c28 29 35 77 35 229c0 153 -7 201 -35 230c-31 34 -87 41 -307 41z" />
    <glyph glyph-name="Rcommaaccent" unicode="&#x156;" horiz-adv-x="946" 
d="M93 0v667h550c101 0 148 -13 183 -51c27 -30 41 -81 41 -153c0 -76 -17 -121 -53 -142c-24 -13 -44 -18 -97 -23c44 -5 62 -9 83 -20c37 -20 54 -52 54 -105v-173h-80v127c0 65 -7 93 -26 113c-23 22 -50 29 -117 29h-458v-269h-80zM173 332h439c137 0 172 27 172 135
c0 106 -36 133 -177 133h-434v-268zM426 -54h89v-68c0 -56 -29 -85 -86 -86h-5v43c27 0 39 13 38 43h-36v68z" />
    <glyph glyph-name="Scircumflex" unicode="&#x15c;" horiz-adv-x="894" 
d="M67 208h80v-18c0 -67 14 -94 57 -108c39 -13 113 -19 233 -19c261 0 308 20 308 131c0 56 -17 81 -62 94c-44 12 -48 12 -346 14c-121 1 -173 10 -214 37c-40 27 -56 64 -56 130c0 100 36 157 115 180c57 17 145 25 282 25c154 0 233 -11 279 -40c49 -30 64 -65 67 -158
h-78c-1 53 -10 77 -32 94c-31 24 -100 34 -235 34c-263 0 -314 -21 -314 -128c0 -46 13 -72 41 -85c35 -16 65 -18 254 -19c212 -1 258 -5 306 -28c54 -26 76 -71 76 -154c0 -92 -31 -147 -97 -172c-49 -18 -125 -25 -279 -25c-162 0 -238 7 -292 25c-60 21 -93 72 -93 144
v46zM447 851l195 -79l-13 -43l-182 46l-181 -46l-13 43z" />
    <glyph glyph-name="Gcommaaccent" unicode="&#x122;" horiz-adv-x="982" 
d="M477 329h435c0 -109 0 -109 -4 -151c-8 -87 -38 -139 -95 -162c-43 -18 -104 -23 -307 -23c-278 0 -329 8 -380 61c-43 45 -53 97 -53 279c0 183 10 235 53 280c52 54 99 61 404 61c205 0 259 -7 307 -40c46 -31 65 -76 68 -163h-79c-2 63 -6 81 -25 98
c-32 31 -61 35 -243 35c-263 0 -320 -5 -355 -30c-38 -28 -47 -73 -47 -241c0 -152 7 -201 35 -229c32 -34 81 -41 281 -41c260 0 295 4 329 42c25 27 30 52 33 157h-357v67zM448 -54h88v-68c0 -56 -29 -85 -85 -86h-6v43c28 0 40 13 39 43h-36v68z" />
    <glyph glyph-name="uni01D3" unicode="&#x1d3;" horiz-adv-x="959" 
d="M793 667h80v-453c0 -74 -2 -94 -10 -118c-31 -84 -100 -103 -383 -103c-231 0 -307 12 -351 54c-24 23 -36 50 -40 89c-2 16 -2 32 -2 78v453h80v-439c0 -62 0 -68 4 -84c16 -70 58 -81 309 -81c212 0 266 8 293 45c18 25 20 36 20 120v439zM480 729l-194 80l13 42
l181 -46l181 46l13 -42z" />
    <glyph glyph-name="Umacron" unicode="&#x16a;" horiz-adv-x="959" 
d="M282 806h396v-60h-396v60zM793 667h80v-453c0 -74 -2 -94 -10 -118c-31 -84 -100 -103 -383 -103c-231 0 -307 12 -351 54c-24 23 -36 50 -40 89c-2 16 -2 32 -2 78v453h80v-439c0 -62 0 -68 4 -84c16 -70 58 -81 309 -81c212 0 266 8 293 45c18 25 20 36 20 120v439z
" />
    <glyph glyph-name="Uogonek" unicode="&#x172;" horiz-adv-x="959" 
d="M799 -125v-46c-20 -8 -36 -11 -61 -11c-82 0 -137 36 -137 90c0 40 23 65 82 91c-35 -4 -116 -6 -206 -6c-228 0 -304 12 -348 54c-24 23 -36 50 -40 89c-2 16 -2 32 -2 78v453h80v-439c0 -62 0 -68 4 -84c16 -70 58 -81 309 -81c212 0 266 8 293 45c18 25 20 36 20 120
v439h80v-453c0 -82 -2 -102 -15 -129c-18 -39 -28 -46 -130 -99c-39 -20 -61 -44 -61 -69c0 -31 31 -50 82 -50c21 0 32 2 50 8z" />
    <glyph glyph-name="Adotaccent" horiz-adv-x="859" 
d="M703 150h-546l-88 -150h-89l393 667h113l393 -667h-88zM665 213l-235 398l-235 -398h470zM360 745v69h140v-69h-140z" />
    <glyph glyph-name="Ebreve" unicode="&#x114;" horiz-adv-x="819" 
d="M93 0v667h664v-67h-584v-223h563v-63h-563v-247h589v-67h-669zM253 851h66c2 -51 27 -65 118 -65s113 13 117 65h66c-12 -95 -49 -119 -183 -119c-136 0 -173 24 -184 119z" />
    <glyph glyph-name="Fdotaccent" horiz-adv-x="768" 
d="M93 0v667h638v-67h-558v-230h529v-63h-529v-307h-80zM347 745v69h140v-69h-140z" />
    <glyph glyph-name="uni01F4" unicode="&#x1f4;" horiz-adv-x="982" 
d="M477 329h435c0 -109 0 -109 -4 -151c-8 -87 -38 -139 -95 -162c-43 -18 -104 -23 -307 -23c-278 0 -329 8 -380 61c-43 45 -53 97 -53 279c0 183 10 235 53 280c52 54 99 61 404 61c205 0 259 -7 307 -40c46 -31 65 -76 68 -163h-79c-2 63 -6 81 -25 98
c-32 31 -61 35 -243 35c-263 0 -320 -5 -355 -30c-38 -28 -47 -73 -47 -241c0 -152 7 -201 35 -229c32 -34 81 -41 281 -41c260 0 295 4 329 42c25 27 30 52 33 157h-357v67zM423 729l-15 45l251 77l26 -71z" />
    <glyph glyph-name="dotlessj" unicode="&#xf6be;" horiz-adv-x="231" 
d="M80 473h71v-497c0 -65 -8 -95 -31 -117c-24 -22 -52 -29 -124 -29v60c74 0 84 12 84 100v483z" />
    <glyph glyph-name="ij" unicode="&#x133;" horiz-adv-x="461" 
d="M80 0v473h71v-473h-71zM80 586v87h71v-87h-71zM310 473h71v-497c0 -65 -8 -95 -31 -117c-24 -22 -52 -29 -124 -29v60c74 0 84 12 84 100v483zM310 586v87h71v-87h-71z" />
    <glyph glyph-name="uni01CE" unicode="&#x1ce;" horiz-adv-x="716" 
d="M158 336h-76c1 62 16 95 52 116c38 22 81 28 204 28c161 0 211 -8 253 -41c35 -28 45 -60 45 -147v-292h-71v64c-24 -60 -60 -71 -222 -71c-157 0 -201 5 -235 30c-35 24 -48 56 -48 118c0 58 13 95 41 114c34 23 91 31 230 31c111 0 154 -4 182 -15
c27 -11 40 -24 52 -50v50c0 137 -18 149 -225 149c-157 0 -181 -11 -182 -84zM352 226c-187 0 -219 -13 -219 -88c0 -41 16 -67 47 -75c28 -8 62 -10 165 -10c94 0 136 3 164 13c40 13 57 37 57 78c0 31 -13 52 -39 66c-22 11 -72 16 -175 16zM358 539l-163 91l10 40
l153 -55l153 55l10 -40z" />
    <glyph glyph-name="abreve" unicode="&#x103;" horiz-adv-x="716" 
d="M158 336h-76c1 62 16 95 52 116c38 22 81 28 204 28c161 0 211 -8 253 -41c35 -28 45 -60 45 -147v-292h-71v64c-24 -60 -60 -71 -222 -71c-157 0 -201 5 -235 30c-35 24 -48 56 -48 118c0 58 13 95 41 114c34 23 91 31 230 31c111 0 154 -4 182 -15
c27 -11 40 -24 52 -50v50c0 137 -18 149 -225 149c-157 0 -181 -11 -182 -84zM352 226c-187 0 -219 -13 -219 -88c0 -41 16 -67 47 -75c28 -8 62 -10 165 -10c94 0 136 3 164 13c40 13 57 37 57 78c0 31 -13 52 -39 66c-22 11 -72 16 -175 16zM195 664h66
c2 -58 23 -74 97 -74s93 14 96 74h67c-11 -102 -44 -128 -163 -128s-152 26 -163 128z" />
    <glyph glyph-name="aogonek" unicode="&#x105;" horiz-adv-x="716" 
d="M636 292v-295c-60 -20 -89 -45 -89 -77c0 -31 29 -49 76 -49c20 0 30 1 48 7v-44c-20 -8 -35 -11 -58 -11c-76 0 -128 35 -128 87c0 40 23 65 80 90v64c-24 -60 -60 -71 -222 -71c-157 0 -201 5 -235 30c-35 24 -48 56 -48 118c0 58 13 95 41 114c34 23 91 31 230 31
c111 0 154 -4 182 -15c27 -11 40 -24 52 -50v50c0 137 -18 149 -225 149c-157 0 -181 -11 -182 -84h-76c1 62 16 95 52 116c38 22 81 28 204 28c161 0 211 -8 253 -41c35 -28 45 -60 45 -147zM352 226c-187 0 -219 -13 -219 -88c0 -41 16 -67 47 -75c28 -8 62 -10 165 -10
c94 0 136 3 164 13c40 13 57 37 57 78c0 31 -13 52 -39 66c-22 11 -72 16 -175 16z" />
    <glyph glyph-name="cacute" unicode="&#x107;" horiz-adv-x="713" 
d="M583 173h77c-3 -64 -11 -88 -36 -118c-39 -47 -103 -62 -262 -62c-139 0 -202 12 -239 47c-40 36 -56 94 -56 197c0 102 16 160 56 196c37 35 100 47 238 47c141 0 204 -12 243 -47c31 -28 46 -63 49 -116v-10h-78v10c-1 31 -8 51 -26 68c-28 27 -72 35 -195 35
c-120 0 -158 -9 -184 -43c-19 -24 -28 -69 -28 -140c0 -80 11 -125 35 -149c28 -28 64 -35 187 -35c131 0 172 9 200 45c13 18 18 37 19 75zM304 543l-11 40l198 84l23 -67z" />
    <glyph glyph-name="ccaron" unicode="&#x10d;" horiz-adv-x="713" 
d="M583 173h77c-3 -64 -11 -88 -36 -118c-39 -47 -103 -62 -262 -62c-139 0 -202 12 -239 47c-40 36 -56 94 -56 197c0 102 16 160 56 196c37 35 100 47 238 47c141 0 204 -12 243 -47c31 -28 46 -63 49 -116v-10h-78v10c-1 31 -8 51 -26 68c-28 27 -72 35 -195 35
c-120 0 -158 -9 -184 -43c-19 -24 -28 -69 -28 -140c0 -80 11 -125 35 -149c28 -28 64 -35 187 -35c131 0 172 9 200 45c13 18 18 37 19 75zM364 539l-163 91l10 40l153 -55l152 55l10 -40z" />
    <glyph glyph-name="cdotaccent" unicode="&#x10b;" horiz-adv-x="713" 
d="M583 173h77c-3 -64 -11 -88 -36 -118c-39 -47 -103 -62 -262 -62c-139 0 -202 12 -239 47c-40 36 -56 94 -56 197c0 102 16 160 56 196c37 35 100 47 238 47c141 0 204 -12 243 -47c31 -28 46 -63 49 -116v-10h-78v10c-1 31 -8 51 -26 68c-28 27 -72 35 -195 35
c-120 0 -158 -9 -184 -43c-19 -24 -28 -69 -28 -140c0 -80 11 -125 35 -149c28 -28 64 -35 187 -35c131 0 172 9 200 45c13 18 18 37 19 75zM296 561v64h136v-64h-136z" />
    <glyph glyph-name="dcaron" unicode="&#x10f;" horiz-adv-x="816" 
d="M678 0h-71v70c-30 -59 -84 -77 -237 -77c-140 0 -206 13 -245 47c-41 36 -58 94 -58 196c0 103 17 161 58 197c39 34 106 47 245 47c153 0 207 -18 237 -77v270h71v-673zM376 420c-131 0 -178 -10 -205 -42c-20 -25 -29 -70 -29 -141c0 -80 11 -126 37 -150
c27 -25 77 -34 196 -34c129 0 178 10 204 42c19 25 29 70 29 139c0 163 -29 186 -232 186zM735 673h81v-68c0 -46 -7 -67 -28 -83c-15 -11 -36 -17 -57 -17h-6v43c29 1 38 11 38 46v11h-28v68z" />
    <glyph glyph-name="dcroat" unicode="&#x111;" horiz-adv-x="758" 
d="M607 545h-179v53h179v75h71v-75h80v-53h-80v-545h-71v70c-30 -59 -85 -77 -237 -77c-140 0 -206 13 -245 47c-41 36 -58 94 -58 197s17 161 58 197c39 34 105 47 245 47c152 0 207 -18 237 -77v141zM376 421c-131 0 -178 -10 -205 -43c-20 -25 -29 -69 -29 -141
c0 -80 11 -125 37 -150c27 -25 77 -34 196 -34c129 0 177 10 204 42c19 25 29 70 29 140c0 163 -29 186 -232 186z" />
    <glyph glyph-name="ecaron" unicode="&#x11b;" horiz-adv-x="729" 
d="M666 223h-524c0 -81 6 -104 30 -130c31 -33 67 -40 200 -40c168 0 210 17 220 89h73c-3 -43 -15 -71 -40 -95c-40 -40 -107 -54 -257 -54c-137 0 -204 13 -243 47c-41 36 -58 94 -58 196c0 103 17 161 58 197c39 34 106 47 242 47c159 0 224 -17 262 -70
c28 -38 38 -85 37 -187zM142 281h449c-1 38 -4 57 -14 77c-27 50 -66 62 -210 62c-145 0 -185 -12 -211 -62c-10 -19 -13 -37 -14 -77zM368 539l-162 91l10 40l152 -55l153 55l10 -40z" />
    <glyph glyph-name="edotaccent" unicode="&#x117;" horiz-adv-x="729" 
d="M666 223h-524c0 -81 6 -104 30 -130c31 -33 67 -40 200 -40c168 0 210 17 220 89h73c-3 -43 -15 -71 -40 -95c-40 -40 -107 -54 -257 -54c-137 0 -204 13 -243 47c-41 36 -58 94 -58 196c0 103 17 161 58 197c39 34 106 47 242 47c159 0 224 -17 262 -70
c28 -38 38 -85 37 -187zM142 281h449c-1 38 -4 57 -14 77c-27 50 -66 62 -210 62c-145 0 -185 -12 -211 -62c-10 -19 -13 -37 -14 -77zM300 561v64h136v-64h-136z" />
    <glyph glyph-name="eogonek" unicode="&#x119;" horiz-adv-x="729" 
d="M584 -122v-44c-20 -8 -35 -11 -58 -11c-76 0 -128 35 -128 87c0 38 23 65 72 87c-42 -3 -78 -4 -105 -4c-134 0 -201 13 -240 47c-41 36 -58 94 -58 196c0 103 17 161 58 197c39 34 106 47 242 47c159 0 224 -17 262 -70c28 -38 38 -85 37 -187h-524
c0 -81 6 -104 30 -130c31 -33 67 -40 200 -40c168 0 211 17 220 89h73c-7 -73 -31 -102 -118 -141c-70 -35 -87 -51 -87 -81c0 -31 29 -49 76 -49c20 0 30 1 48 7zM142 281h449c-1 38 -4 57 -14 77c-26 50 -66 62 -210 62c-145 0 -185 -12 -211 -62c-9 -19 -13 -37 -14 -77z
" />
    <glyph glyph-name="gcaron" unicode="&#x1e7;" horiz-adv-x="758" 
d="M678 473v-427c0 -132 -13 -183 -57 -222c-39 -34 -104 -47 -245 -47c-139 0 -200 10 -241 41c-36 28 -57 72 -57 121v10h73v-10c0 -28 11 -54 30 -71c29 -25 69 -31 199 -31c147 0 187 11 209 60c14 33 17 58 18 173c-35 -61 -84 -77 -237 -77c-139 0 -205 13 -245 47
c-41 36 -58 94 -58 196c0 103 17 161 58 197c40 34 106 47 246 47c152 0 201 -16 236 -77v70h71zM372 420c-138 0 -177 -8 -205 -43c-21 -24 -30 -69 -30 -140c0 -81 11 -125 37 -150c30 -27 69 -34 196 -34c136 0 175 8 204 43c19 24 29 69 29 138c0 83 -11 127 -37 152
c-29 27 -70 34 -194 34zM379 539l-162 91l9 40l153 -55l153 55l10 -40z" />
    <glyph glyph-name="gbreve" unicode="&#x11f;" horiz-adv-x="758" 
d="M678 473v-427c0 -132 -13 -183 -57 -222c-39 -34 -104 -47 -245 -47c-139 0 -200 10 -241 41c-36 28 -57 72 -57 121v10h73v-10c0 -28 11 -54 30 -71c29 -25 69 -31 199 -31c147 0 187 11 209 60c14 33 17 58 18 173c-35 -61 -84 -77 -237 -77c-139 0 -205 13 -245 47
c-41 36 -58 94 -58 196c0 103 17 161 58 197c40 34 106 47 246 47c152 0 201 -16 236 -77v70h71zM372 420c-138 0 -177 -8 -205 -43c-21 -24 -30 -69 -30 -140c0 -81 11 -125 37 -150c30 -27 69 -34 196 -34c136 0 175 8 204 43c19 24 29 69 29 138c0 83 -11 127 -37 152
c-29 27 -70 34 -194 34zM217 664h66c1 -58 22 -74 96 -74c75 0 94 14 97 74h66c-11 -102 -44 -128 -163 -128s-152 26 -162 128z" />
    <glyph glyph-name="gdotaccent" unicode="&#x121;" horiz-adv-x="758" 
d="M678 473v-427c0 -132 -13 -183 -57 -222c-39 -34 -104 -47 -245 -47c-139 0 -200 10 -241 41c-36 28 -57 72 -57 121v10h73v-10c0 -28 11 -54 30 -71c29 -25 69 -31 199 -31c147 0 187 11 209 60c14 33 17 58 18 173c-35 -61 -84 -77 -237 -77c-139 0 -205 13 -245 47
c-41 36 -58 94 -58 196c0 103 17 161 58 197c40 34 106 47 246 47c152 0 201 -16 236 -77v70h71zM372 420c-138 0 -177 -8 -205 -43c-21 -24 -30 -69 -30 -140c0 -81 11 -125 37 -150c30 -27 69 -34 196 -34c136 0 175 8 204 43c19 24 29 69 29 138c0 83 -11 127 -37 152
c-29 27 -70 34 -194 34zM311 561v64h136v-64h-136z" />
    <glyph glyph-name="lacute" unicode="&#x13a;" horiz-adv-x="231" 
d="M80 0v673h71v-673h-71zM67 729l-11 40l185 84l23 -64z" />
    <glyph glyph-name="lcaron" unicode="&#x13e;" horiz-adv-x="289" 
d="M80 0v673h71v-673h-71zM208 673h81v-68c0 -46 -7 -67 -28 -83c-15 -11 -36 -17 -57 -17h-6v43c29 1 38 11 38 46v11h-28v68z" />
    <glyph glyph-name="nacute" unicode="&#x144;" horiz-adv-x="729" 
d="M80 0v473h71v-94c31 86 81 107 253 107c102 0 154 -10 192 -39s53 -70 53 -149v-298h-71v294c0 102 -35 125 -194 125c-170 0 -233 -38 -233 -141v-278h-71zM311 543l-11 40l198 84l24 -67z" />
    <glyph glyph-name="ncaron" unicode="&#x148;" horiz-adv-x="729" 
d="M80 0v473h71v-94c31 86 81 107 253 107c102 0 154 -10 192 -39s53 -70 53 -149v-298h-71v294c0 102 -35 125 -194 125c-170 0 -233 -38 -233 -141v-278h-71zM364 539l-162 91l10 40l152 -55l153 55l10 -40z" />
    <glyph glyph-name="ohungarumlaut" unicode="&#x151;" horiz-adv-x="748" 
d="M374 480c145 0 210 -12 250 -47c41 -37 58 -94 58 -200c0 -99 -18 -157 -58 -193c-40 -35 -105 -47 -250 -47c-144 0 -209 12 -249 47c-41 36 -58 94 -58 197c0 102 17 160 58 196c39 35 105 47 249 47zM376 420c-131 0 -179 -10 -205 -42c-20 -25 -29 -70 -29 -141
c0 -80 11 -126 37 -150c27 -25 77 -34 196 -34c129 0 177 10 203 42c19 25 29 70 29 139c0 82 -11 127 -37 152c-27 25 -77 34 -194 34zM428 537l-22 38l171 110l31 -57zM236 537l-23 38l172 110l31 -57z" />
    <glyph glyph-name="racute" unicode="&#x155;" horiz-adv-x="598" 
d="M80 0v473h71v-93c26 80 69 100 216 100c164 0 211 -41 211 -182v-28h-71v25c0 102 -29 125 -160 125c-142 0 -196 -39 -196 -142v-278h-71zM266 543l-11 40l198 84l23 -67z" />
    <glyph glyph-name="sacute" unicode="&#x15b;" horiz-adv-x="714" 
d="M566 339v11c0 58 -32 70 -196 70c-195 0 -229 -12 -229 -80c0 -31 10 -48 33 -57c19 -8 49 -9 182 -10c179 -1 206 -4 245 -24c37 -19 52 -51 52 -112c0 -68 -19 -104 -64 -123c-43 -17 -89 -21 -234 -21c-160 0 -209 6 -246 29c-37 25 -49 54 -49 126v12h73v-12
c0 -48 4 -61 24 -73c27 -17 77 -22 216 -22c183 0 206 9 206 81c0 43 -10 60 -41 69c-25 8 -25 8 -298 10c-81 1 -120 10 -145 35c-18 18 -28 50 -28 92c0 56 18 95 53 112c41 21 98 28 226 28c165 0 215 -7 253 -35c27 -19 38 -49 38 -98v-8h-71zM290 543l-10 40l197 84
l24 -67z" />
    <glyph glyph-name="scircumflex" unicode="&#x15d;" horiz-adv-x="714" 
d="M566 339v11c0 58 -32 70 -196 70c-195 0 -229 -12 -229 -80c0 -31 10 -48 33 -57c19 -8 49 -9 182 -10c179 -1 206 -4 245 -24c37 -19 52 -51 52 -112c0 -68 -19 -104 -64 -123c-43 -17 -89 -21 -234 -21c-160 0 -209 6 -246 29c-37 25 -49 54 -49 126v12h73v-12
c0 -48 4 -61 24 -73c27 -17 77 -22 216 -22c183 0 206 9 206 81c0 43 -10 60 -41 69c-25 8 -25 8 -298 10c-81 1 -120 10 -145 35c-18 18 -28 50 -28 92c0 56 18 95 53 112c41 21 98 28 226 28c165 0 215 -7 253 -35c27 -19 38 -49 38 -98v-8h-71zM357 670l162 -91l-9 -40
l-153 55l-153 -55l-10 40z" />
    <glyph glyph-name="scommaaccent" unicode="&#x219;" horiz-adv-x="714" 
d="M566 339v11c0 58 -32 70 -196 70c-195 0 -229 -12 -229 -80c0 -31 10 -48 33 -57c19 -8 49 -9 182 -10c179 -1 206 -4 245 -24c37 -19 52 -51 52 -112c0 -68 -19 -104 -64 -123c-43 -17 -89 -21 -234 -21c-160 0 -209 6 -246 29c-37 25 -49 54 -49 126v12h73v-12
c0 -48 4 -61 24 -73c27 -17 77 -22 216 -22c183 0 206 9 206 81c0 43 -10 60 -41 69c-25 8 -25 8 -298 10c-81 1 -120 10 -145 35c-18 18 -28 50 -28 92c0 56 18 95 53 112c41 21 98 28 226 28c165 0 215 -7 253 -35c27 -19 38 -49 38 -98v-8h-71zM318 -54h81v-68
c0 -56 -29 -85 -85 -86h-6v43c27 0 39 13 38 43h-28v68z" />
    <glyph glyph-name="tcaron" unicode="&#x165;" horiz-adv-x="544" 
d="M-7 413v60h114l2 105h71l-1 -105h324v-60h-326l-4 -237v-8c0 -97 24 -115 151 -115c65 0 98 10 114 36c10 16 12 30 12 100v16h64v-19c0 -93 -4 -118 -25 -144c-27 -35 -78 -49 -170 -49c-99 0 -146 10 -179 40c-31 28 -39 53 -39 121v22l5 237h-113zM371 700h81v-68
c0 -46 -7 -67 -28 -83c-15 -11 -36 -17 -57 -17h-6v43c29 1 38 11 38 46v11h-28v68z" />
    <glyph glyph-name="uring" unicode="&#x16f;" horiz-adv-x="729" 
d="M649 473v-473h-71v94c-31 -86 -81 -107 -253 -107c-102 0 -154 10 -192 39s-53 70 -53 149v298h71v-294c0 -102 35 -125 194 -125c170 0 233 38 233 141v278h71zM364 691c84 0 134 -29 134 -76c0 -48 -50 -76 -136 -76c-82 0 -132 29 -132 76s50 76 134 76zM364 650
c-51 0 -77 -12 -77 -35s26 -35 76 -35c53 0 78 11 78 35c0 23 -26 35 -77 35z" />
    <glyph glyph-name="uhungarumlaut" unicode="&#x171;" horiz-adv-x="729" 
d="M649 473v-473h-71v94c-31 -86 -81 -107 -253 -107c-102 0 -154 10 -192 39s-53 70 -53 149v298h71v-294c0 -102 35 -125 194 -125c170 0 233 38 233 141v278h71zM428 537l-22 38l171 110l32 -57zM236 537l-22 38l171 110l31 -57z" />
    <glyph glyph-name="zacute" unicode="&#x17a;" horiz-adv-x="608" 
d="M33 0v60l430 353h-411v60h513v-60l-430 -353h432v-60h-534zM250 543l-10 40l198 84l23 -67z" />
    <glyph glyph-name="zdotaccent" unicode="&#x17c;" horiz-adv-x="608" 
d="M33 0v60l430 353h-411v60h513v-60l-430 -353h432v-60h-534zM240 561v64h136v-64h-136z" />
    <glyph glyph-name="hbar" unicode="&#x127;" horiz-adv-x="727" 
d="M80 0v545h-80v53h80v75h71v-75h179v-53h-179v-164c11 34 27 54 57 72c35 20 88 28 196 28c102 0 153 -10 191 -38s53 -68 53 -144v-299h-71v295c0 102 -35 125 -194 125c-171 0 -232 -37 -232 -142v-278h-71z" />
    <glyph glyph-name="tcommaaccent" unicode="&#x163;" horiz-adv-x="544" 
d="M-7 413v60h114l2 105h71l-1 -105h324v-60h-326l-4 -237v-8c0 -97 24 -115 151 -115c65 0 98 10 114 36c10 16 12 30 12 100v16h64v-19c0 -93 -4 -118 -25 -144c-27 -35 -78 -49 -170 -49c-99 0 -146 10 -179 40c-31 28 -39 53 -39 121v22l5 237h-113zM263 -54h81v-68
c0 -56 -29 -85 -85 -86h-6v43c27 0 39 13 38 43h-28v68z" />
    <glyph glyph-name="uni021B" unicode="&#x21b;" horiz-adv-x="544" 
d="M-7 413v60h114l2 105h71l-1 -105h324v-60h-326l-4 -237v-8c0 -97 24 -115 151 -115c65 0 98 10 114 36c10 16 12 30 12 100v16h64v-19c0 -93 -4 -118 -25 -144c-27 -35 -78 -49 -170 -49c-99 0 -146 10 -179 40c-31 28 -39 53 -39 121v22l5 237h-113zM263 -54h81v-68
c0 -56 -29 -85 -85 -86h-6v43c27 0 39 13 38 43h-28v68z" />
    <glyph glyph-name="amacron" unicode="&#x101;" horiz-adv-x="716" 
d="M173 619h370v-53h-370v53zM158 336h-76c1 62 16 95 52 116c38 22 81 28 204 28c161 0 211 -8 253 -41c35 -28 45 -60 45 -147v-292h-71v64c-24 -60 -60 -71 -222 -71c-157 0 -201 5 -235 30c-35 24 -48 56 -48 118c0 58 13 95 41 114c34 23 91 31 230 31
c111 0 154 -4 182 -15c27 -11 40 -24 52 -50v50c0 137 -18 149 -225 149c-157 0 -181 -11 -182 -84zM352 226c-187 0 -219 -13 -219 -88c0 -41 16 -67 47 -75c28 -8 62 -10 165 -10c94 0 136 3 164 13c40 13 57 37 57 78c0 31 -13 52 -39 66c-22 11 -72 16 -175 16z" />
    <glyph glyph-name="ycircumflex" unicode="&#x177;" horiz-adv-x="567" 
d="M-17 473h78l235 -426l213 426h75l-255 -511c-52 -104 -66 -126 -96 -150c-33 -28 -77 -41 -137 -41c-9 0 -16 0 -29 1v60c9 -1 18 -1 23 -1c82 0 109 21 164 131l19 38h-27zM283 670l163 -91l-10 -40l-153 55l-152 -55l-10 40z" />
    <glyph glyph-name="emacron" unicode="&#x113;" horiz-adv-x="729" 
d="M184 619h369v-53h-369v53zM666 223h-524c0 -81 6 -104 30 -130c31 -33 67 -40 200 -40c168 0 210 17 220 89h73c-3 -43 -15 -71 -40 -95c-40 -40 -107 -54 -257 -54c-137 0 -204 13 -243 47c-41 36 -58 94 -58 196c0 103 17 161 58 197c39 34 106 47 242 47
c159 0 224 -17 262 -70c28 -38 38 -85 37 -187zM142 281h449c-1 38 -4 57 -14 77c-27 50 -66 62 -210 62c-145 0 -185 -12 -211 -62c-10 -19 -13 -37 -14 -77z" />
    <glyph glyph-name="gcircumflex" unicode="&#x11d;" horiz-adv-x="758" 
d="M678 473v-427c0 -132 -13 -183 -57 -222c-39 -34 -104 -47 -245 -47c-139 0 -200 10 -241 41c-36 28 -57 72 -57 121v10h73v-10c0 -28 11 -54 30 -71c29 -25 69 -31 199 -31c147 0 187 11 209 60c14 33 17 58 18 173c-35 -61 -84 -77 -237 -77c-139 0 -205 13 -245 47
c-41 36 -58 94 -58 196c0 103 17 161 58 197c40 34 106 47 246 47c152 0 201 -16 236 -77v70h71zM372 420c-138 0 -177 -8 -205 -43c-21 -24 -30 -69 -30 -140c0 -81 11 -125 37 -150c30 -27 69 -34 196 -34c136 0 175 8 204 43c19 24 29 69 29 138c0 83 -11 127 -37 152
c-29 27 -70 34 -194 34zM379 670l163 -91l-10 -40l-153 55l-152 -55l-10 40z" />
    <glyph glyph-name="ibreve" unicode="&#x12d;" horiz-adv-x="231" 
d="M-14 664h66c1 -58 17 -74 73 -74s70 14 73 74h66c-9 -102 -37 -128 -139 -128s-130 26 -139 128zM80 0v473h71v-473h-71z" />
    <glyph glyph-name="imacron" unicode="&#x12b;" horiz-adv-x="231" 
d="M-9 619h250v-53h-250v53zM80 0v473h71v-473h-71z" />
    <glyph glyph-name="kcommaaccent" unicode="&#x137;" horiz-adv-x="629" 
d="M80 0v673h71v-390h41l298 190h119l-345 -220l378 -253h-117l-333 223h-41v-223h-71zM279 -54h81v-68c0 -56 -29 -85 -85 -86h-6v43c27 0 39 13 38 43h-28v68z" />
    <glyph glyph-name="lcommaaccent" unicode="&#x13c;" horiz-adv-x="231" 
d="M80 0v673h71v-673h-71zM75 -54h81v-68c0 -56 -29 -85 -85 -86h-6v43c27 0 39 13 38 43h-28v68z" />
    <glyph glyph-name="ncommaaccent" unicode="&#x146;" horiz-adv-x="729" 
d="M80 0v473h71v-94c31 86 81 107 253 107c102 0 154 -10 192 -39s53 -70 53 -149v-298h-71v294c0 102 -35 125 -194 125c-170 0 -233 -38 -233 -141v-278h-71zM324 -54h81v-68c0 -56 -29 -85 -85 -86h-6v43c27 0 39 13 38 43h-28v68z" />
    <glyph glyph-name="omacron" unicode="&#x14d;" horiz-adv-x="748" 
d="M190 619h369v-53h-369v53zM374 480c145 0 210 -12 250 -47c41 -37 58 -94 58 -200c0 -99 -18 -157 -58 -193c-40 -35 -105 -47 -250 -47c-144 0 -209 12 -249 47c-41 36 -58 94 -58 197c0 102 17 160 58 196c39 35 105 47 249 47zM376 420c-131 0 -179 -10 -205 -42
c-20 -25 -29 -70 -29 -141c0 -80 11 -126 37 -150c27 -25 77 -34 196 -34c129 0 177 10 203 42c19 25 29 70 29 139c0 82 -11 127 -37 152c-27 25 -77 34 -194 34z" />
    <glyph glyph-name="rcommaaccent" unicode="&#x157;" horiz-adv-x="598" 
d="M80 0v473h71v-93c26 80 69 100 215 100c164 0 211 -41 211 -182v-28h-71v25c0 102 -29 125 -159 125c-142 0 -196 -39 -196 -142v-278h-71zM76 -54h81v-68c0 -56 -29 -85 -85 -86h-6v43c27 0 39 13 38 43h-28v68z" />
    <glyph glyph-name="ubreve" unicode="&#x16d;" horiz-adv-x="729" 
d="M649 473v-473h-71v94c-31 -86 -81 -107 -253 -107c-102 0 -154 10 -192 39s-53 70 -53 149v298h71v-294c0 -102 35 -125 194 -125c170 0 233 38 233 141v278h71zM202 664h66c1 -58 23 -74 97 -74s93 14 96 74h66c-11 -102 -43 -128 -163 -128c-119 0 -152 26 -162 128z
" />
    <glyph glyph-name="umacron" unicode="&#x16b;" horiz-adv-x="729" 
d="M180 619h369v-53h-369v53zM649 473v-473h-71v94c-31 -86 -81 -107 -253 -107c-102 0 -154 10 -192 39s-53 70 -53 149v298h71v-294c0 -102 35 -125 194 -125c170 0 233 38 233 141v278h71z" />
    <glyph glyph-name="uogonek" unicode="&#x173;" horiz-adv-x="729" 
d="M649 473v-476c-59 -20 -88 -45 -88 -77c0 -31 28 -49 76 -49c19 0 29 1 47 7v-44c-20 -8 -35 -11 -58 -11c-76 0 -128 35 -128 87c0 40 23 65 80 90v94c-31 -86 -81 -107 -253 -107c-102 0 -154 10 -192 39s-53 70 -53 149v298h71v-294c0 -102 35 -125 194 -125
c170 0 233 38 233 141v278h71z" />
    <glyph glyph-name="rcaron" unicode="&#x159;" horiz-adv-x="598" 
d="M80 0v473h71v-93c26 80 69 100 216 100c164 0 211 -41 211 -182v-28h-71v25c0 102 -29 125 -160 125c-142 0 -196 -39 -196 -142v-278h-71zM326 539l-163 91l10 40l153 -55l152 55l10 -40z" />
    <glyph glyph-name="scedilla" unicode="&#x15f;" horiz-adv-x="714" 
d="M566 339v11c0 58 -32 70 -196 70c-195 0 -229 -12 -229 -80c0 -31 10 -48 33 -57c19 -8 49 -9 182 -10c179 -1 206 -4 245 -24c37 -19 52 -51 52 -112c0 -68 -19 -104 -64 -123c-43 -17 -89 -21 -234 -21c-160 0 -209 6 -246 29c-37 25 -49 54 -49 126v12h73v-12
c0 -48 4 -61 24 -73c27 -17 77 -22 216 -22c183 0 206 9 206 81c0 43 -10 60 -41 69c-25 8 -25 8 -298 10c-81 1 -120 10 -145 35c-18 18 -28 50 -28 92c0 56 18 95 53 112c41 21 98 28 226 28c165 0 215 -7 253 -35c27 -19 38 -49 38 -98v-8h-71zM271 -171l-26 42l148 86
l36 -60z" />
    <glyph glyph-name="gcommaaccent" unicode="&#x123;" horiz-adv-x="758" 
d="M678 473v-427c0 -132 -13 -183 -57 -222c-39 -34 -104 -47 -245 -47c-139 0 -200 10 -241 41c-36 28 -57 72 -57 121v10h73v-10c0 -28 11 -54 30 -71c29 -25 69 -31 199 -31c147 0 187 11 209 60c14 33 17 58 18 173c-35 -61 -84 -77 -237 -77c-139 0 -205 13 -245 47
c-41 36 -58 94 -58 196c0 103 17 161 58 197c40 34 106 47 246 47c152 0 201 -16 236 -77v70h71zM372 420c-138 0 -177 -8 -205 -43c-21 -24 -30 -69 -30 -140c0 -81 11 -125 37 -150c30 -27 69 -34 196 -34c136 0 175 8 204 43c19 24 29 69 29 138c0 83 -11 127 -37 152
c-29 27 -70 34 -194 34zM418 540h-81v68c0 56 30 87 85 87h6v-43c-27 0 -39 -14 -38 -44h28v-68z" />
    <glyph glyph-name="ahungarumlaut" horiz-adv-x="716" 
d="M158 336h-76c1 62 16 95 52 116c38 22 81 28 204 28c161 0 211 -8 253 -41c35 -28 45 -60 45 -147v-292h-71v64c-24 -60 -60 -71 -222 -71c-157 0 -201 5 -235 30c-35 24 -48 56 -48 118c0 58 13 95 41 114c34 23 91 31 230 31c111 0 154 -4 182 -15
c27 -11 40 -24 52 -50v50c0 137 -18 149 -225 149c-157 0 -181 -11 -182 -84zM352 226c-187 0 -219 -13 -219 -88c0 -41 16 -67 47 -75c28 -8 62 -10 165 -10c94 0 136 3 164 13c40 13 57 37 57 78c0 31 -13 52 -39 66c-22 11 -72 16 -175 16zM421 537l-23 38l171 110
l32 -57zM228 537l-22 38l171 110l31 -57z" />
    <glyph glyph-name="adotaccent" horiz-adv-x="716" 
d="M158 336h-76c1 62 16 95 52 116c38 22 81 28 204 28c161 0 211 -8 253 -41c35 -28 45 -60 45 -147v-292h-71v64c-24 -60 -60 -71 -222 -71c-157 0 -201 5 -235 30c-35 24 -48 56 -48 118c0 58 13 95 41 114c34 23 91 31 230 31c111 0 154 -4 182 -15
c27 -11 40 -24 52 -50v50c0 137 -18 149 -225 149c-157 0 -181 -11 -182 -84zM352 226c-187 0 -219 -13 -219 -88c0 -41 16 -67 47 -75c28 -8 62 -10 165 -10c94 0 136 3 164 13c40 13 57 37 57 78c0 31 -13 52 -39 66c-22 11 -72 16 -175 16zM290 561v64h136v-64h-136z" />
    <glyph glyph-name="Euro" unicode="&#x20ac;" horiz-adv-x="907" 
d="M690 232h-478c3 -74 11 -106 33 -128c32 -33 83 -41 267 -41c225 0 280 7 312 40v-94c-44 -11 -138 -16 -295 -16c-241 0 -300 10 -349 61c-34 35 -48 84 -52 178h-103l29 68h73v33v35h-102l29 68h74c4 93 18 142 52 177c52 54 98 61 399 61c184 0 237 -8 280 -40
l-34 -80c-23 41 -79 50 -293 50c-292 0 -314 -11 -320 -168h565l-29 -68h-538v-34v-34h509z" />
    <glyph glyph-name="peseta" unicode="&#x20a7;" horiz-adv-x="1539" 
d="M93 0v667h337c104 0 145 -10 177 -44c28 -30 39 -73 39 -153c0 -98 -13 -139 -53 -171c-33 -26 -75 -37 -146 -37h-277v-262h-77zM170 329h218c145 0 177 25 177 136c0 108 -32 135 -161 135h-234v-271zM661 288v55h80l1 73h64l-2 -73h228v-55h-229l-3 -160
c1 -6 1 -6 3 -35c2 -34 25 -45 97 -45c43 0 64 6 74 22c6 10 7 19 7 67v18h58v-20c0 -68 -3 -86 -19 -105c-20 -26 -57 -37 -124 -37c-84 0 -121 12 -144 46c-12 19 -16 40 -15 89l3 160h-79zM1427 237v14c0 36 -20 43 -130 43c-132 0 -154 -7 -154 -48c0 -40 3 -41 144 -42
c128 -1 146 -3 174 -17c29 -15 40 -39 40 -85c0 -49 -15 -78 -49 -92c-31 -12 -63 -15 -166 -15c-114 0 -149 4 -176 22c-29 18 -38 40 -38 93v15h65v-15c0 -32 2 -39 14 -46c17 -11 53 -14 149 -14c123 0 136 5 136 50c0 46 -3 47 -152 48c-131 1 -148 2 -173 17
c-23 14 -34 40 -34 79c0 85 39 105 202 105c118 0 154 -5 182 -26c20 -15 29 -37 29 -74v-12h-63z" />
    <glyph glyph-name="lira" unicode="&#x20a4;" horiz-adv-x="907" 
d="M161 416v32c0 108 15 150 66 184c46 31 121 42 292 42c181 0 239 -10 279 -51c32 -32 41 -66 41 -162h-81c-1 142 -7 145 -241 145c-240 0 -279 -22 -279 -161v-29h336v-61h-336v-93h336v-61h-336v-13c0 -65 -11 -90 -55 -120h684v-68h-792v68c66 7 86 37 86 127v6h-120
v61h120v93h-120v61h120z" />
    <glyph glyph-name="franc" unicode="&#x20a3;" horiz-adv-x="928" 
d="M93 0v667h503v-67h-426v-230h331v-63h-331v-307h-77zM546 0v370h63v-40c25 35 55 45 143 45c119 0 155 -31 155 -134v-26h-63v24c0 68 -17 81 -105 81c-95 0 -130 -25 -130 -93v-227h-63z" />
    <glyph glyph-name="one.numerator" horiz-adv-x="388" 
d="M105 548l-27 29l119 90h51v-274h-42v235z" />
    <glyph glyph-name="two.numerator" horiz-adv-x="388" 
d="M84 559h-43c0 57 3 70 20 87c18 19 48 24 133 24c83 0 111 -4 130 -18s27 -34 27 -69c0 -65 -19 -82 -100 -88l-101 -7c-61 -3 -68 -9 -69 -57h271v-37h-315v21c-2 85 19 108 100 112l101 7c60 4 69 10 69 46c0 49 -10 53 -113 53c-101 0 -111 -5 -111 -60
c0 -1 0 -8 1 -14z" />
    <glyph glyph-name="three.numerator" horiz-adv-x="388" 
d="M148 552h111c34 0 43 8 43 40c0 40 -1 40 -111 40c-111 0 -113 -1 -114 -57h-42c0 49 5 63 24 77c22 15 48 18 141 18c82 0 103 -3 123 -17c17 -11 23 -28 23 -63c0 -32 -7 -46 -26 -55c22 -9 30 -25 30 -59c0 -44 -8 -62 -34 -75c-17 -8 -36 -10 -107 -10
c-100 0 -125 2 -145 12c-24 13 -31 30 -31 81h43v-13c0 -40 7 -43 111 -43c117 0 119 1 119 43c0 39 -5 44 -45 44h-113v37z" />
    <glyph glyph-name="four.numerator" horiz-adv-x="388" 
d="M37 451v49l223 167h53v-179h45v-37h-45v-58h-42v58h-234zM84 488h184v139z" />
    <glyph glyph-name="five.numerator" horiz-adv-x="388" 
d="M38 484h43c0 -34 1 -40 13 -47c11 -6 39 -9 95 -9c118 0 122 2 122 62c0 53 -7 56 -126 56c-81 0 -97 -4 -100 -26h-42l3 147h301v-37h-261v-65c13 16 30 19 101 19c91 0 114 -3 137 -15c24 -13 31 -32 31 -76c0 -90 -17 -102 -147 -102c-115 0 -136 3 -154 24
c-13 14 -16 26 -16 69z" />
    <glyph glyph-name="six.numerator" horiz-adv-x="388" 
d="M348 581h-45v11c0 36 -9 40 -94 40c-118 0 -126 -4 -126 -59v-35c17 19 29 21 122 21c60 0 86 -2 103 -7c30 -8 42 -29 42 -71c0 -36 -6 -57 -22 -69c-21 -17 -43 -21 -125 -21c-101 0 -120 3 -140 22c-20 18 -24 39 -24 117c0 84 5 105 31 123c21 14 45 17 138 17
c78 0 103 -5 123 -26c14 -14 17 -25 17 -63zM194 522c-100 0 -110 -4 -110 -48c0 -41 12 -46 116 -46c97 0 106 5 106 53c0 40 -3 41 -112 41z" />
    <glyph glyph-name="seven.numerator" horiz-adv-x="388" 
d="M29 667h319v-45l-208 -229h-57l215 237h-269v37z" />
    <glyph glyph-name="eight.numerator" horiz-adv-x="388" 
d="M320 533c26 -9 32 -22 32 -61s-8 -57 -30 -69c-18 -10 -35 -12 -126 -12c-98 0 -114 2 -133 14c-19 13 -26 30 -26 67c0 39 6 51 32 61c-23 14 -29 25 -29 59c0 68 20 78 154 78c135 0 155 -10 155 -79c0 -33 -6 -44 -29 -58zM194 633c-103 0 -111 -3 -111 -39
c0 -42 0 -42 109 -42c114 0 114 0 114 42c0 36 -8 39 -112 39zM196 515c-111 0 -115 -2 -115 -41c0 -43 7 -46 114 -46c106 0 113 3 113 47c0 38 -5 40 -112 40z" />
    <glyph glyph-name="nine.numerator" horiz-adv-x="388" 
d="M41 479h45v-11c0 -36 9 -40 94 -40c118 0 126 4 126 59v35c-17 -19 -29 -21 -122 -21c-60 0 -86 2 -103 7c-30 8 -42 29 -42 71c0 37 6 57 22 70c21 17 42 21 125 21c102 0 120 -3 140 -22c20 -18 24 -39 24 -117c0 -85 -5 -105 -31 -123c-21 -14 -45 -17 -138 -17
c-78 0 -103 5 -123 26c-14 13 -17 24 -17 62zM189 633c-97 0 -106 -5 -106 -53c0 -40 3 -41 112 -41c100 0 110 4 110 48c0 41 -12 46 -116 46z" />
    <glyph glyph-name="zero.numerator" horiz-adv-x="388" 
d="M194 670c104 0 123 -3 143 -26c17 -19 21 -40 21 -116c0 -70 -4 -93 -21 -111c-20 -23 -39 -26 -146 -26c-100 0 -120 4 -140 26c-17 19 -21 40 -21 114c0 73 4 94 21 113c20 22 39 26 143 26zM186 633c-113 0 -113 0 -113 -102c0 -103 0 -103 113 -103
c92 0 106 2 117 15c10 10 12 28 12 87c0 60 -2 77 -12 88c-11 13 -25 15 -117 15z" />
    <glyph glyph-name="one.denominator" horiz-adv-x="388" 
d="M105 155l-27 28l119 90h51v-273h-42v234z" />
    <glyph glyph-name="two.denominator" horiz-adv-x="388" 
d="M84 166h-43c0 56 3 69 20 86c18 19 49 24 133 24c83 0 111 -4 130 -18s27 -34 27 -69c0 -65 -19 -81 -100 -87l-101 -7c-61 -4 -68 -10 -69 -58h271v-37h-315v21c-2 86 19 109 100 113l101 7c60 4 69 10 69 46c0 48 -9 52 -113 52c-101 0 -111 -5 -111 -59
c0 -2 0 -8 1 -14z" />
    <glyph glyph-name="three.denominator" horiz-adv-x="388" 
d="M148 158h111c34 0 43 8 43 42c0 39 -1 39 -111 39c-111 0 -113 -1 -114 -57h-42c0 48 5 63 24 76c22 15 49 18 141 18c81 0 103 -3 123 -16c17 -12 23 -29 23 -64c0 -32 -7 -46 -26 -55c22 -9 30 -24 30 -58c0 -44 -8 -62 -34 -75c-17 -8 -36 -10 -107 -10
c-100 0 -125 2 -145 12c-24 13 -31 30 -31 81h43v-13c0 -40 7 -43 111 -43c117 0 119 1 119 43c0 39 -5 43 -45 43h-113v37z" />
    <glyph glyph-name="four.denominator" horiz-adv-x="388" 
d="M37 57v49l223 167h53v-179h45v-37h-45v-57h-42v57h-234zM84 94h184v139z" />
    <glyph glyph-name="five.denominator" horiz-adv-x="388" 
d="M38 91h43c0 -34 1 -40 13 -47c11 -6 39 -9 95 -9c118 0 122 2 122 62c0 52 -7 55 -126 55c-81 0 -97 -4 -100 -26h-42l3 147h301v-37h-261v-65c13 16 30 19 101 19c90 0 114 -3 137 -15c23 -13 31 -32 31 -76c0 -90 -17 -102 -147 -102c-115 0 -136 3 -154 24
c-13 15 -16 27 -16 70z" />
    <glyph glyph-name="six.denominator" horiz-adv-x="388" 
d="M348 188h-45v11c0 36 -9 40 -94 40c-118 0 -126 -4 -126 -59v-35c17 19 29 21 122 21c60 0 86 -2 103 -7c30 -8 42 -29 42 -71c0 -37 -6 -57 -22 -70c-21 -17 -42 -21 -125 -21c-102 0 -120 3 -140 22c-20 18 -24 39 -24 117c0 85 5 105 31 123c21 14 45 17 138 17
c78 0 103 -5 123 -26c14 -13 17 -24 17 -62zM194 128c-100 0 -110 -4 -110 -48c0 -41 12 -46 116 -46c97 0 106 5 106 53c0 40 -3 41 -112 41z" />
    <glyph glyph-name="seven.denominator" horiz-adv-x="388" 
d="M29 273h319v-45l-208 -228h-57l215 236h-269v37z" />
    <glyph glyph-name="eight.denominator" horiz-adv-x="388" 
d="M320 140c26 -10 32 -22 32 -62c0 -38 -8 -57 -30 -69c-18 -10 -35 -12 -126 -12c-99 0 -114 2 -133 14c-19 13 -26 30 -26 67c0 40 6 52 32 62c-23 13 -29 24 -29 58c0 68 20 78 154 78c135 0 155 -10 155 -78c0 -34 -6 -45 -29 -58zM194 239c-103 0 -111 -3 -111 -38
c0 -42 0 -42 109 -42c114 0 114 0 114 42c0 35 -8 38 -112 38zM196 122c-111 0 -115 -1 -115 -41c0 -44 7 -47 114 -47c106 0 113 3 113 47c0 39 -5 41 -112 41z" />
    <glyph glyph-name="nine.denominator" horiz-adv-x="388" 
d="M41 86h45v-11c0 -36 9 -40 94 -40c118 0 126 4 126 59v35c-17 -19 -29 -21 -122 -21c-60 0 -86 2 -103 7c-30 8 -42 29 -42 71c0 36 6 57 22 69c21 17 43 21 125 21c101 0 120 -3 140 -22c20 -18 24 -39 24 -117c0 -84 -5 -105 -31 -123c-21 -14 -45 -17 -138 -17
c-78 0 -103 5 -123 26c-14 14 -17 25 -17 63zM189 239c-97 0 -106 -5 -106 -53c0 -40 3 -41 112 -41c100 0 110 4 110 48c0 41 -12 46 -116 46z" />
    <glyph glyph-name="zero.denominator" horiz-adv-x="388" 
d="M194 276c104 0 123 -3 143 -26c17 -19 21 -40 21 -116c0 -70 -4 -93 -21 -111c-20 -23 -39 -26 -146 -26c-100 0 -120 4 -140 26c-17 19 -21 40 -21 114c0 73 4 94 21 113c20 22 39 26 143 26zM186 239c-113 0 -113 0 -113 -102c0 -103 0 -103 113 -103
c92 0 106 2 117 15c10 10 12 28 12 87c0 60 -2 77 -12 88c-11 13 -25 15 -117 15z" />
    <glyph glyph-name="uni0387" unicode="&#x387;" horiz-adv-x="261" 
d="M80 187v112h101v-112h-101z" />
    <glyph glyph-name="dotmath" unicode="&#x22c5;" horiz-adv-x="261" 
d="M80 187v112h101v-112h-101z" />
    <glyph glyph-name="afii57929" unicode="&#x2bc;" horiz-adv-x="288" 
d="M93 667h102v-112c0 -71 -36 -107 -107 -108h-7v54c34 0 49 17 48 54h-36v112z" />
    <glyph glyph-name="uni00AD" unicode="&#xad;" horiz-adv-x="333" 
d="M0 297h333v-67h-333v67z" />
    <glyph glyph-name="uni2011" unicode="&#x2011;" horiz-adv-x="333" 
d="M0 297h333v-67h-333v67z" />
    <glyph glyph-name="afii00208" unicode="&#x2015;" horiz-adv-x="999" 
d="M0 290h999v-54h-999v54z" />
    <glyph glyph-name="afii61248" unicode="&#x2105;" horiz-adv-x="293" 
d="M93 274v118h107v-118h-107z" />
    <glyph glyph-name="uni2101" unicode="&#x2101;" horiz-adv-x="1303" 
d="M417 355h-318l-52 -88h-60l236 400h70l236 -400h-59zM391 399l-133 225l-133 -225h266zM355 -5l585 676h62l-586 -676h-61zM801 129h54v-14c0 -38 8 -53 32 -60c22 -8 66 -11 134 -11c154 0 180 11 180 74c0 31 -9 45 -34 52c-26 7 -26 7 -203 8c-127 1 -163 24 -163 102
c0 100 46 124 239 124c90 0 137 -7 165 -24c31 -18 40 -41 42 -99h-53c-2 65 -22 75 -155 75c-153 0 -182 -11 -182 -72c0 -26 7 -40 22 -47c20 -9 36 -11 149 -11c128 0 153 -3 182 -17c33 -16 47 -44 47 -94c0 -55 -19 -89 -59 -104c-30 -11 -76 -15 -166 -15
c-96 0 -142 4 -174 15c-37 13 -57 44 -57 88v30z" />
    <glyph glyph-name="uni2236" unicode="&#x2236;" horiz-adv-x="293" 
d="M93 407v118h107v-118h-107zM93 141v118h107v-118h-107z" />
    <glyph glyph-name="oneone" horiz-adv-x="1255" 
d="M149 499l-35 37l171 131h71v-400h-56v352zM303 -5l586 676h62l-586 -676h-62zM843 232l-35 37l171 131h71v-400h-56v352z" />
    <glyph glyph-name="onefifth" horiz-adv-x="1255" 
d="M149 499l-35 37l171 131h71v-400h-56v352zM303 -5l586 676h62l-586 -676h-62zM749 128h56c0 -48 3 -58 21 -69c18 -10 58 -14 140 -14c177 0 183 3 183 95c0 82 -11 87 -190 87c-116 0 -141 -7 -146 -39h-57l5 212h434v-49h-381l-2 -110c24 31 43 35 154 35
c131 0 164 -4 197 -22c34 -19 44 -45 44 -111c0 -74 -10 -105 -38 -123c-30 -19 -66 -24 -176 -24c-164 0 -196 5 -221 34c-19 21 -23 39 -23 98z" />
    <glyph glyph-name="twofifth" horiz-adv-x="1255" 
d="M58 513v18c0 67 11 97 43 117c28 17 74 23 178 23c120 0 162 -6 189 -26c27 -21 38 -50 38 -101c0 -54 -13 -86 -42 -104c-21 -13 -41 -17 -102 -21l-148 -11c-91 -5 -102 -16 -103 -92h396v-49h-454v30c-4 123 26 157 142 162l149 10c90 7 104 16 104 72
c0 74 -15 81 -168 81c-150 0 -166 -9 -166 -90v-19h-56zM304 -5l585 676h62l-586 -676h-61zM749 128h56c0 -48 3 -58 21 -69c18 -10 58 -14 140 -14c177 0 183 3 183 95c0 82 -11 87 -190 87c-116 0 -141 -7 -146 -39h-57l5 212h434v-49h-381l-2 -110c24 31 43 35 154 35
c131 0 164 -4 197 -22c34 -19 44 -45 44 -111c0 -74 -10 -105 -38 -123c-30 -19 -66 -24 -176 -24c-164 0 -196 5 -221 34c-19 21 -23 39 -23 98z" />
    <glyph glyph-name="threefifth" horiz-adv-x="1255" 
d="M216 495h159c53 0 67 14 67 65c0 59 -7 62 -148 62c-184 0 -187 -1 -188 -85h-56c0 66 8 89 35 107c31 22 71 27 203 27c118 0 151 -4 180 -24c24 -16 32 -40 32 -91c0 -52 -10 -71 -45 -83c37 -12 50 -34 50 -85c0 -65 -12 -91 -48 -109c-24 -12 -51 -15 -158 -15
c-146 0 -179 3 -208 18c-31 16 -44 45 -44 99v15h57v-16c0 -63 12 -68 164 -68c175 0 179 1 179 68c0 58 -8 66 -69 66h-162v49zM303 -5l586 676h62l-586 -676h-62zM749 128h56c0 -48 3 -58 21 -69c18 -10 58 -14 140 -14c177 0 183 3 183 95c0 82 -11 87 -190 87
c-116 0 -141 -7 -146 -39h-57l5 212h434v-49h-381l-2 -110c24 31 43 35 154 35c131 0 164 -4 197 -22c34 -19 44 -45 44 -111c0 -74 -10 -105 -38 -123c-30 -19 -66 -24 -176 -24c-164 0 -196 5 -221 34c-19 21 -23 39 -23 98z" />
    <glyph glyph-name="fourfifth" horiz-adv-x="1255" 
d="M53 352v68l326 247h73v-266h64v-49h-64v-85h-56v85h-343zM109 401h283v217zM304 -5l585 676h62l-585 -676h-62zM749 128h56c0 -48 3 -58 21 -69c18 -10 58 -14 140 -14c177 0 183 3 183 95c0 82 -11 87 -190 87c-116 0 -141 -7 -146 -39h-57l5 212h434v-49h-381l-2 -110
c24 31 43 35 154 35c131 0 164 -4 197 -22c34 -19 44 -45 44 -111c0 -74 -10 -105 -38 -123c-30 -19 -66 -24 -176 -24c-164 0 -196 5 -221 34c-19 21 -23 39 -23 98z" />
    <glyph glyph-name="onesixth" horiz-adv-x="1255" 
d="M149 499l-35 37l171 131h71v-400h-56v352zM303 -5l586 676h62l-586 -676h-62zM1196 279h-60c0 72 -6 76 -140 76c-113 0 -139 -3 -163 -17c-19 -11 -25 -29 -25 -74v-62c23 34 40 38 182 38c87 0 124 -2 149 -10c42 -12 59 -42 59 -103c0 -54 -9 -82 -31 -101
c-30 -25 -61 -30 -180 -30c-147 0 -175 4 -203 31s-34 57 -34 175c0 121 7 151 44 177c30 20 66 25 200 25c113 0 149 -8 178 -37c18 -20 23 -37 24 -88zM972 191c-146 0 -163 -7 -163 -74c0 -64 19 -72 173 -72c143 0 158 8 158 82c0 62 -5 64 -168 64z" />
    <glyph glyph-name="fivesixth" horiz-adv-x="1255" 
d="M55 395h56c0 -48 3 -58 21 -69c18 -10 58 -14 140 -14c177 0 183 3 183 95c0 81 -11 86 -190 86c-116 0 -141 -7 -146 -38h-57l5 212h434v-49h-381l-2 -110c24 30 43 34 154 34c131 0 164 -4 197 -22c34 -19 44 -45 44 -110c0 -74 -10 -105 -38 -123
c-30 -19 -66 -24 -176 -24c-164 0 -196 5 -221 34c-19 21 -23 39 -23 98zM303 -5l586 676h62l-586 -676h-62zM1196 279h-60c0 72 -6 76 -140 76c-113 0 -139 -3 -163 -17c-19 -11 -25 -29 -25 -74v-62c23 34 40 38 182 38c87 0 124 -2 149 -10c42 -12 59 -42 59 -103
c0 -54 -9 -82 -31 -101c-30 -25 -61 -30 -180 -30c-147 0 -175 4 -203 31s-34 57 -34 175c0 121 7 151 44 177c30 20 66 25 200 25c113 0 149 -8 178 -37c18 -20 23 -37 24 -88zM972 191c-146 0 -163 -7 -163 -74c0 -64 19 -72 173 -72c143 0 158 8 158 82
c0 62 -5 64 -168 64z" />
    <glyph glyph-name="Dieresis" unicode="&#xf6cb;" 
d="M57 745v69h140v-69h-140zM302 745v69h140v-69h-140z" />
    <glyph glyph-name="Dotaccent" 
d="M180 745v69h140v-69h-140z" />
    <glyph glyph-name="Ring" 
d="M250 870c84 0 139 -30 139 -76c0 -47 -54 -77 -141 -77c-81 0 -138 32 -138 77s57 76 140 76zM250 829c-51 0 -83 -14 -83 -36c0 -21 32 -35 82 -35c51 0 83 13 83 36c0 21 -32 35 -82 35z" />
    <glyph glyph-name="Acute" unicode="&#xf6c9;" 
d="M170 729l-15 45l250 77l27 -71z" />
    <glyph glyph-name="Grave" unicode="&#xf6ce;" 
d="M331 729l-262 51l27 71l250 -77z" />
    <glyph glyph-name="Circumflex" 
d="M250 851l195 -79l-13 -43l-182 46l-181 -46l-13 43z" />
    <glyph glyph-name="Caron" unicode="&#xf6ca;" 
d="M250 729l-194 80l13 42l181 -46l182 46l13 -42z" />
    <glyph glyph-name="Breve" horiz-adv-x="434" 
d="M33 851h66c2 -51 28 -65 118 -65c91 0 114 13 118 65h66c-13 -95 -49 -119 -184 -119s-173 24 -184 119z" />
    <glyph glyph-name="Tilde" 
d="M122 732l-63 11c10 62 49 97 108 97c26 0 39 -3 87 -23c35 -14 58 -20 74 -20c29 0 45 15 50 46l63 -11c-9 -60 -50 -97 -108 -97c-26 0 -39 3 -87 23c-35 14 -58 20 -74 20c-29 0 -45 -15 -50 -46z" />
    <glyph glyph-name="Hungarumlaut" unicode="&#xf6cf;" 
d="M356 719l-22 36l200 115l38 -61zM126 719l-22 36l200 115l38 -61z" />
    <glyph glyph-name="Cedilla" 
d="M168 -178l-27 46l152 85l35 -60z" />
    <glyph glyph-name="Ogonek" 
d="M386 0h84c-71 -22 -103 -48 -103 -83c0 -31 30 -50 81 -50c21 0 32 2 51 8v-46c-22 -8 -37 -11 -62 -11c-82 0 -137 36 -137 90c0 40 24 66 86 92z" />
    <glyph glyph-name="Macron" unicode="&#xf6d0;" 
d="M52 806h396v-60h-396v60z" />
    <glyph glyph-name="commaaccent.sc" 
d="M207 -54h89v-68c0 -56 -29 -85 -86 -86h-5v43c27 0 39 13 38 43h-36v68z" />
    <glyph glyph-name="Comma.high" 
d="M207 667h89v-72c0 -47 -6 -67 -28 -83c-15 -11 -36 -17 -58 -17h-5v43c27 1 38 13 38 42v15h-36v72z" />
    <glyph glyph-name="Dieresis.alt" 
d="M110 745v69h117v-69h-117zM274 745v69h117v-69h-117z" />
    <glyph glyph-name="uni02C9" unicode="&#x2c9;" 
d="M65 619h370v-53h-370v53z" />
    <glyph glyph-name="commaaccent" unicode="&#xf6c3;" 
d="M215 -54h81v-68c0 -56 -29 -85 -85 -86h-6v43c27 0 39 13 38 43h-28v68z" />
    <glyph glyph-name="comma.high" 
d="M343 673h81v-68c0 -46 -7 -67 -28 -83c-15 -11 -36 -17 -57 -17h-6v43c29 1 38 11 38 46v11h-28v68z" />
    <glyph glyph-name="dieresis.alt" 
d="M117 561v64h109v-64h-109zM273 561v64h109v-64h-109z" />
    <glyph glyph-name="commareversed" 
d="M286 540h-81v68c0 56 30 87 85 87h6v-43c-27 0 -39 -14 -38 -44h28v-68z" />
    <glyph glyph-name="uni2117" unicode="&#x2117;" horiz-adv-x="155" 
d="M52 267v286h52v-286h-52zM52 610v61h52v-61h-52z" />
    <glyph glyph-name="zerozero.afrac" horiz-adv-x="388" 
d="M0 351h388v-34h-388v34zM194 670c104 0 123 -3 143 -26c17 -19 21 -40 21 -116c0 -70 -4 -93 -21 -111c-20 -23 -39 -26 -146 -26c-100 0 -120 4 -140 26c-17 19 -21 40 -21 114c0 73 4 94 21 113c20 22 39 26 143 26zM186 633c-113 0 -113 0 -113 -102
c0 -103 0 -103 113 -103c92 0 106 2 117 15c10 10 12 28 12 87c0 60 -2 77 -12 88c-11 13 -25 15 -117 15zM194 276c104 0 123 -3 143 -26c17 -19 21 -40 21 -116c0 -70 -4 -93 -21 -111c-20 -23 -39 -26 -146 -26c-100 0 -120 4 -140 26c-17 19 -21 40 -21 114
c0 73 4 94 21 113c20 22 39 26 143 26zM186 239c-113 0 -113 0 -113 -102c0 -103 0 -103 113 -103c92 0 106 2 117 15c10 10 12 28 12 87c0 60 -2 77 -12 88c-11 13 -25 15 -117 15z" />
    <glyph glyph-name="ebreve" unicode="&#x115;" horiz-adv-x="729" 
d="M666 223h-524c0 -81 6 -104 30 -130c31 -33 67 -40 200 -40c168 0 210 17 220 89h73c-3 -43 -15 -71 -40 -95c-40 -40 -107 -54 -257 -54c-137 0 -204 13 -243 47c-41 36 -58 94 -58 196c0 103 17 161 58 197c39 34 106 47 242 47c159 0 224 -17 262 -70
c28 -38 38 -85 37 -187zM142 281h449c-1 38 -4 57 -14 77c-27 50 -66 62 -210 62c-145 0 -185 -12 -211 -62c-10 -19 -13 -37 -14 -77zM210 664h66c2 -58 23 -74 97 -74s93 14 96 74h66c-11 -102 -43 -128 -162 -128c-120 0 -153 26 -163 128z" />
    <glyph glyph-name="iogonek" unicode="&#x12f;" horiz-adv-x="231" 
d="M80 0v473h71v-476c-60 -20 -89 -46 -89 -78c0 -31 28 -49 76 -49c20 0 30 2 48 8v-45c-20 -8 -35 -11 -58 -11c-76 0 -128 36 -128 88c0 39 23 65 80 90zM80 586v87h71v-87h-71z" />
    <glyph glyph-name="ldot" unicode="&#x140;" horiz-adv-x="333" 
d="M80 0v673h71v-673h-71zM304 269h-69v141h69v-141z" />
    <glyph glyph-name="utilde" unicode="&#x169;" horiz-adv-x="729" 
d="M649 473v-473h-71v94c-31 -86 -81 -107 -253 -107c-102 0 -154 10 -192 39s-53 70 -53 149v298h71v-294c0 -102 35 -125 194 -125c170 0 233 38 233 141v278h71zM471 643l69 -12c-13 -54 -47 -85 -94 -85c-27 0 -27 0 -99 29c-18 8 -31 11 -42 11c-21 0 -34 -11 -41 -33
l-69 12c13 52 48 84 94 84c28 0 28 0 99 -29c19 -8 32 -11 43 -11c20 0 33 11 40 34z" />
    <glyph glyph-name="uni01D4" unicode="&#x1d4;" horiz-adv-x="729" 
d="M649 473v-473h-71v94c-31 -86 -81 -107 -253 -107c-102 0 -154 10 -192 39s-53 70 -53 149v298h71v-294c0 -102 35 -125 194 -125c170 0 233 38 233 141v278h71zM364 539l-162 91l10 40l152 -55l153 55l10 -40z" />
    <glyph glyph-name="Ldot" unicode="&#x13f;" horiz-adv-x="722" 
d="M93 0v667h80v-600h529v-67h-609zM435 293h-69v140h69v-140z" />
    <glyph glyph-name="Scommaaccent" unicode="&#x218;" horiz-adv-x="894" 
d="M67 208h80v-18c0 -67 14 -94 57 -108c39 -13 113 -19 233 -19c261 0 308 20 308 131c0 56 -17 81 -62 94c-44 12 -48 12 -346 14c-121 1 -173 10 -214 37c-40 27 -56 64 -56 130c0 100 36 157 115 180c57 17 145 25 282 25c154 0 233 -11 279 -40c49 -30 64 -65 67 -158
h-78c-1 53 -10 77 -32 94c-31 24 -100 34 -235 34c-263 0 -314 -21 -314 -128c0 -46 13 -72 41 -85c35 -16 65 -18 254 -19c212 -1 258 -5 306 -28c54 -26 76 -71 76 -154c0 -92 -31 -147 -97 -172c-49 -18 -125 -25 -279 -25c-162 0 -238 7 -292 25c-60 21 -93 72 -93 144
v46zM398 -54h88v-68c0 -56 -29 -85 -85 -86h-6v43c28 0 40 13 39 43h-36v68z" />
    <glyph glyph-name="Eng" unicode="&#x14a;" horiz-adv-x="1026" 
d="M93 0v667h80v-109c48 93 126 116 396 116c145 0 226 -12 281 -43c60 -33 82 -79 82 -169v-514c0 -59 -4 -86 -17 -112c-21 -41 -64 -59 -139 -59h-21v70c8 -1 17 -1 20 -1c62 0 77 23 77 118v495c0 118 -58 145 -314 145c-267 0 -365 -44 -365 -165v-439h-80z" />
    <glyph glyph-name="Tbar" unicode="&#x166;" horiz-adv-x="744" 
d="M-7 667h757v-67h-338v-168h232v-63h-232v-369h-80v369h-233v63h233v168h-339v67z" />
    <glyph glyph-name="eng" unicode="&#x14b;" horiz-adv-x="727" 
d="M80 0v473h71v-94c31 81 81 101 252 101c102 0 153 -10 191 -38s53 -68 53 -144v-322c0 -49 -4 -73 -15 -96c-18 -34 -56 -50 -121 -50h-19v60h18c53 0 66 20 66 101v303c0 103 -35 126 -193 126c-169 0 -232 -39 -232 -142v-278h-71z" />
    <glyph glyph-name="tbar" unicode="&#x167;" horiz-adv-x="544" 
d="M105 347l1 66h-113v60h114l2 105h71l-1 -105h324v-60h-326l-1 -66h327v-57h-328l-2 -114v-9c0 -96 24 -114 151 -114c65 0 98 10 114 36c10 16 12 30 12 100v16h64v-19c0 -93 -4 -118 -25 -144c-27 -35 -78 -49 -170 -49c-99 0 -146 10 -179 40c-31 28 -39 53 -39 121v22
l3 114h-111v57h112z" />
    <glyph glyph-name="kgreenlandic" unicode="&#x138;" horiz-adv-x="629" 
d="M80 0v473h71v-190h41l298 190h119l-345 -220l378 -253h-117l-333 223h-41v-223h-71z" />
    <glyph glyph-name="napostrophe" unicode="&#x149;" horiz-adv-x="785" 
d="M137 0v473h71v-94c31 86 81 107 253 107c102 0 154 -10 192 -39s53 -70 53 -149v-298h-71v294c0 102 -35 125 -194 125c-170 0 -233 -38 -233 -141v-278h-71zM-3 634h81v-68c0 -46 -7 -68 -28 -84c-14 -10 -36 -17 -57 -17h-6v44c29 0 38 11 38 45v12h-28v68z" />
    <glyph glyph-name="Wacute" unicode="&#x1e82;" horiz-adv-x="400" 
d="M33 297h333v-67h-333v67z" />
    <glyph glyph-name="uni01D1" unicode="&#x1d1;" horiz-adv-x="288" 
d="M179 469l5 -469h-82l5 469h72zM194 667v-112h-101v112h101z" />
    <glyph glyph-name="uni2003" unicode="&#x2003;" horiz-adv-x="1000" 
 />
    <glyph glyph-name="uni2002" unicode="&#x2002;" 
 />
    <glyph glyph-name="uni2004" unicode="&#x2004;" horiz-adv-x="333" 
 />
    <glyph glyph-name="uni2005" unicode="&#x2005;" horiz-adv-x="250" 
 />
    <glyph glyph-name="uni2009" unicode="&#x2009;" horiz-adv-x="125" 
 />
    <glyph glyph-name="uni2006" unicode="&#x2006;" horiz-adv-x="67" 
 />
    <glyph glyph-name="uni200A" unicode="&#x200a;" horiz-adv-x="33" 
 />
    <glyph glyph-name="uni2007" unicode="&#x2007;" horiz-adv-x="907" 
 />
    <glyph glyph-name="uni00A0" unicode="&#xa0;" horiz-adv-x="250" 
 />
    <glyph glyph-name="smileface" unicode="&#x263a;" horiz-adv-x="667" 
d="M241 465c23 0 43 -20 43 -44s-20 -44 -44 -44s-44 20 -44 44c0 25 20 44 45 44zM434 465c23 0 43 -20 43 -44s-20 -44 -44 -44s-44 20 -44 44c0 25 20 44 45 44zM540 372c-5 -81 -18 -120 -50 -161c-37 -46 -90 -70 -156 -70c-72 0 -128 28 -164 82
c-27 39 -36 74 -42 149c10 -44 19 -62 42 -89c41 -47 94 -70 164 -70s123 23 165 70c22 27 31 45 41 89zM339 650c169 0 311 -144 311 -316c0 -175 -142 -317 -316 -317c-176 0 -317 142 -317 319c0 174 143 314 322 314zM338 608c-84 0 -153 -30 -208 -91
c-45 -50 -71 -116 -71 -181c0 -154 122 -277 275 -277c152 0 275 123 275 275c0 149 -124 274 -271 274z" />
    <glyph glyph-name="invsmileface" unicode="&#x263b;" horiz-adv-x="667" 
d="M339 650c169 0 311 -145 311 -317c0 -174 -142 -316 -316 -316c-176 0 -317 141 -317 319c0 174 143 314 322 314zM240 465c-24 0 -44 -19 -44 -43c0 -25 19 -44 44 -44c24 0 43 19 43 44c0 23 -19 43 -43 43zM540 372c-10 -44 -19 -63 -42 -89c-41 -47 -94 -70 -164 -70
s-123 23 -164 70c-23 26 -32 45 -42 89c6 -82 18 -121 51 -161c36 -46 89 -70 155 -70c72 0 128 28 165 82c26 40 36 74 41 149zM383 413l101 -13v45l-101 -13v-19z" />
    <glyph glyph-name="heart" unicode="&#x2665;" horiz-adv-x="667" 
d="M332 -11c-22 89 -56 147 -186 321c-72 98 -90 137 -90 195c0 75 57 134 129 134c48 0 92 -25 120 -68c11 -16 17 -31 27 -62c24 86 75 131 147 131c73 0 132 -59 132 -131c0 -67 -28 -125 -110 -229c-99 -124 -151 -213 -169 -291z" />
    <glyph glyph-name="diamond" unicode="&#x2666;" horiz-adv-x="667" 
d="M333 693c30 -63 183 -279 254 -359c-95 -113 -198 -259 -254 -360c-42 80 -143 224 -253 360c134 168 200 262 253 359z" />
    <glyph glyph-name="club" unicode="&#x2663;" horiz-adv-x="667" 
d="M561 0h-455v18c150 21 221 103 221 256c-17 -29 -24 -40 -34 -52c-36 -46 -92 -75 -146 -75c-79 0 -144 68 -144 152c0 82 58 147 132 147c26 0 34 -3 86 -29c-25 38 -35 66 -35 100c0 79 66 143 148 143c81 0 147 -64 147 -143c0 -34 -10 -62 -35 -100
c54 27 60 29 86 29c74 0 132 -65 132 -147c0 -85 -65 -152 -146 -152c-49 0 -106 28 -140 69c-10 13 -18 24 -38 58c2 -86 17 -135 59 -182c42 -43 70 -56 162 -74v-18z" />
    <glyph glyph-name="spade" unicode="&#x2660;" horiz-adv-x="667" 
d="M108 0v18c93 18 124 32 165 78c37 43 53 91 56 159c-7 -15 -10 -21 -13 -28c-26 -44 -79 -74 -132 -74c-65 0 -120 57 -120 125c0 57 32 108 104 169c96 78 149 155 164 239c35 -106 52 -131 151 -222c98 -89 121 -125 121 -187c0 -69 -54 -123 -122 -123
c-58 0 -101 31 -140 101c8 -144 73 -212 226 -237v-18h-460z" />
    <glyph glyph-name="male" unicode="&#x2642;" horiz-adv-x="667" 
d="M570 499l-152 -151c24 -33 36 -69 36 -110c0 -100 -81 -182 -180 -182s-180 82 -180 183c0 100 81 182 180 182c42 0 78 -13 112 -39l151 151c-26 6 -77 25 -106 40c-15 8 -21 14 -21 23c0 7 6 12 13 12c5 0 9 -1 20 -3c32 -7 53 -9 83 -9c44 0 64 2 105 14l10 1
c6 0 10 -4 10 -10c0 -4 0 -4 -5 -23c-7 -28 -10 -51 -10 -87c0 -33 2 -52 9 -84c2 -11 3 -15 3 -20c0 -7 -5 -13 -12 -13c-9 0 -11 2 -23 21c-18 26 -36 70 -43 104zM276 374c-76 0 -135 -59 -135 -135c0 -74 60 -135 133 -135c74 0 133 60 133 135c0 74 -59 135 -131 135z
" />
    <glyph glyph-name="female" unicode="&#x2640;" horiz-adv-x="667" 
d="M308 209v105c-91 14 -155 90 -155 182c0 101 80 183 179 183c100 0 181 -82 181 -183c0 -93 -65 -168 -157 -182v-105h163v-43h-163v-166h-48v166h-161v43h161zM335 632c-76 0 -135 -60 -135 -136c0 -74 60 -135 133 -135c74 0 133 61 133 135s-59 136 -131 136z" />
    <glyph glyph-name="musicalnote" unicode="&#x266a;" horiz-adv-x="667" 
d="M306 156v511h46v-61c8 -10 13 -17 15 -18l52 -63c62 -73 91 -146 91 -225c0 -60 -20 -116 -57 -162h-28c24 56 33 97 33 149c0 86 -48 165 -106 173v-304c0 -96 -63 -165 -152 -165c-43 0 -69 23 -69 61c0 60 57 115 121 115c17 0 38 -4 54 -11z" />
    <glyph glyph-name="uni266C" unicode="&#x266c;" horiz-adv-x="667" 
d="M195 587l421 107v-502c0 -96 -63 -164 -152 -164c-43 0 -68 22 -68 60c0 61 57 115 120 115c18 0 38 -4 54 -11v270l-329 -90v-236c0 -95 -63 -163 -152 -163c-43 0 -69 22 -69 60c0 59 57 113 121 113c18 0 37 -4 54 -10v451zM241 448l329 90v70l-329 -90v-70z" />
    <glyph glyph-name="sun" unicode="&#x263c;" horiz-adv-x="667" 
d="M159 472l-75 75l35 35l75 -75c33 27 73 43 114 48v105h50v-105c42 -5 83 -22 113 -47l75 74l35 -35l-74 -75c26 -32 41 -70 47 -113h105v-51h-105c-6 -43 -21 -80 -47 -114l74 -74l-35 -35l-75 74c-33 -26 -70 -42 -113 -47v-105h-50v105c-40 4 -77 19 -114 47l-75 -74
l-35 35l74 74c-25 32 -42 73 -46 114h-105v51h105c5 45 19 78 47 113zM336 493c-91 0 -163 -70 -163 -158c0 -89 71 -161 160 -161c88 0 159 72 159 160c0 86 -72 159 -156 159z" />
    <glyph glyph-name="uni2218" unicode="&#x2218;" 
d="M253 479c74 0 135 -63 135 -139c0 -78 -61 -140 -137 -140s-138 63 -138 139c0 78 62 140 140 140zM252 431c-51 0 -92 -40 -92 -92c0 -50 41 -91 91 -91s90 41 90 91s-41 92 -89 92z" />
    <glyph glyph-name="openbullet" unicode="&#x25e6;" 
d="M253 479c74 0 135 -63 135 -139c0 -78 -61 -140 -137 -140s-138 63 -138 139c0 78 62 140 140 140zM252 431c-51 0 -92 -40 -92 -92c0 -50 41 -91 91 -91s90 41 90 91s-41 92 -89 92z" />
    <glyph glyph-name="invbullet" unicode="&#x25d8;" horiz-adv-x="667" 
d="M0 0v667h667v-667h-667zM336 473c-79 0 -140 -62 -140 -140c0 -76 62 -139 138 -139s137 62 137 140c0 76 -62 139 -135 139z" />
    <glyph glyph-name="circle" unicode="&#x25cb;" horiz-adv-x="667" 
d="M334 589c143 0 260 -114 260 -255c0 -142 -117 -257 -260 -257c-146 0 -261 114 -261 260c0 138 118 252 261 252zM334 543c-117 0 -214 -94 -214 -207c0 -119 94 -213 214 -213c117 0 213 95 213 211c0 115 -96 209 -213 209z" />
    <glyph glyph-name="invcircle" unicode="&#x25d9;" horiz-adv-x="667" 
d="M334 543c117 0 213 -94 213 -209c0 -116 -96 -211 -213 -211c-120 0 -214 94 -214 213c0 113 97 207 214 207zM667 0h-667v667h667v-667zM334 590c-143 0 -261 -114 -261 -252c0 -146 115 -261 261 -261c143 0 260 116 260 257s-117 256 -260 256z" />
    <glyph glyph-name="filledrect" unicode="&#x25ac;" horiz-adv-x="667" 
d="M667 333v-333h-667v333h667z" />
    <glyph glyph-name="uni25AE" unicode="&#x25ae;" horiz-adv-x="667" 
d="M500 0h-333v667h333v-667z" />
    <glyph glyph-name="filledbox" unicode="&#x25a0;" horiz-adv-x="667" 
d="M667 0h-667v667h667v-667z" />
    <glyph glyph-name="uni25A1" unicode="&#x25a1;" horiz-adv-x="667" 
d="M667 0h-667v667h667v-667zM620 47v573h-573v-573h573z" />
    <glyph glyph-name="uni25AF" unicode="&#x25af;" horiz-adv-x="667" 
d="M334 589c143 0 260 -114 260 -255c0 -142 -117 -257 -260 -257c-146 0 -261 114 -261 260c0 138 118 252 261 252z" />
    <glyph glyph-name="triagup" unicode="&#x25b2;" horiz-adv-x="667" 
d="M633 67h-600l300 561z" />
    <glyph glyph-name="uni25B3" unicode="&#x25b3;" horiz-adv-x="667" 
d="M633 67h-600l300 561zM92 101h482l-241 451z" />
    <glyph glyph-name="uni25B8" unicode="&#x25b8;" 
d="M71 119v433l405 -217z" />
    <glyph glyph-name="uni25C2" unicode="&#x25c2;" 
d="M428 552v-433l-405 216z" />
    <glyph glyph-name="uni25B4" unicode="&#x25b4;" 
d="M466 147h-433l217 405z" />
    <glyph glyph-name="uni25BE" unicode="&#x25be;" 
d="M33 520h433l-216 -405z" />
    <glyph glyph-name="uni25B9" unicode="&#x25b9;" 
d="M71 552l405 -216l-405 -217v433zM96 161l325 175l-325 173v-348z" />
    <glyph glyph-name="uni25C3" unicode="&#x25c3;" 
d="M428 552v-433l-405 217zM403 161v348l-326 -173z" />
    <glyph glyph-name="uni25BF" unicode="&#x25bf;" 
d="M9 521h433l-217 -405zM400 496h-348l173 -326z" />
    <glyph glyph-name="uni25B5" unicode="&#x25b5;" 
d="M9 146l216 405l217 -405h-433zM400 171l-175 326l-173 -326h348z" />
    <glyph glyph-name="arrowright" unicode="&#x2192;" horiz-adv-x="667" 
d="M13 310v51h500c-20 25 -52 89 -52 104c0 8 6 14 15 14c7 0 10 -2 22 -17c34 -40 68 -67 132 -104c18 -9 23 -14 23 -20c0 -8 -2 -11 -16 -19c-83 -50 -102 -65 -145 -116c-6 -7 -10 -9 -16 -9c-9 0 -15 6 -15 15c0 16 24 62 52 101h-500z" />
    <glyph glyph-name="arrowleft" unicode="&#x2190;" horiz-adv-x="667" 
d="M653 363v-51h-500c20 -25 52 -89 52 -104c0 -8 -6 -14 -15 -14c-7 0 -10 2 -22 17c-34 40 -69 67 -132 104c-18 9 -23 14 -23 20c0 8 2 11 16 19c82 49 103 65 145 116c6 7 10 9 16 9c9 0 15 -6 15 -15c0 -16 -24 -62 -52 -101h500z" />
    <glyph glyph-name="arrowboth" unicode="&#x2194;" horiz-adv-x="667" 
d="M513 310h-361c29 -39 53 -85 53 -101c0 -9 -6 -15 -15 -15c-8 0 -8 1 -24 19c-38 43 -62 62 -143 110c-7 3 -10 8 -10 15c0 6 5 11 23 20c63 36 98 63 132 103c13 15 15 17 22 17c9 0 15 -6 15 -14c0 -15 -31 -75 -53 -103h361c-20 25 -52 88 -52 103c0 8 6 14 15 14
c7 0 10 -2 22 -17c34 -39 69 -66 132 -103c18 -10 23 -14 23 -20c0 -8 -2 -11 -16 -19c-84 -50 -102 -65 -145 -116c-6 -7 -10 -9 -16 -9c-9 0 -15 6 -15 15c0 16 24 62 52 101z" />
    <glyph glyph-name="arrowup" unicode="&#x2191;" horiz-adv-x="667" 
d="M360 13h-51v500c-25 -20 -89 -52 -104 -52c-8 0 -14 6 -14 15c0 7 2 10 17 23c39 33 68 70 103 132c10 18 15 23 21 23c8 0 11 -2 19 -17c50 -83 64 -101 116 -145c7 -6 9 -10 9 -16c0 -9 -6 -15 -15 -15c-16 0 -61 23 -101 52v-500z" />
    <glyph glyph-name="arrowdown" unicode="&#x2193;" horiz-adv-x="667" 
d="M307 653h51v-500c26 21 89 52 104 52c8 0 14 -6 14 -15c0 -7 -2 -10 -17 -22c-40 -34 -68 -70 -103 -132c-10 -18 -15 -23 -21 -23c-8 0 -11 2 -19 16c-50 84 -65 102 -116 145c-7 6 -9 10 -9 16c0 9 6 15 15 15c16 0 60 -23 101 -52v500z" />
    <glyph glyph-name="arrowupdn" unicode="&#x2195;" horiz-adv-x="667" 
d="M360 513v-361c39 29 85 53 101 53c9 0 15 -6 15 -15c0 -8 -1 -8 -19 -24c-43 -38 -62 -62 -110 -143c-4 -7 -9 -10 -15 -10s-11 5 -20 23c-35 61 -64 98 -104 132c-15 12 -17 15 -17 22c0 9 6 15 14 15c15 0 77 -31 104 -53v361c-26 -20 -89 -52 -104 -52
c-8 0 -14 6 -14 15c0 8 0 8 31 35c34 32 58 65 90 120c9 18 14 23 20 23c8 0 11 -2 19 -17c50 -83 64 -101 116 -145c7 -6 9 -10 9 -16c0 -9 -6 -15 -15 -15c-16 0 -61 23 -101 52z" />
    <glyph glyph-name="arrowupdnbse" unicode="&#x21a8;" horiz-adv-x="667" 
d="M360 513v-361c39 29 85 53 101 53c9 0 15 -6 15 -15c0 -8 -1 -8 -19 -24c-43 -38 -62 -62 -110 -143c-4 -7 -9 -10 -15 -10s-11 6 -21 23c-35 62 -63 98 -103 132c-15 12 -17 15 -17 22c0 9 6 15 14 15c15 0 77 -31 104 -53v361c-26 -20 -89 -52 -104 -52
c-8 0 -14 6 -14 15c0 8 0 8 31 35c34 32 58 65 90 120c9 18 14 23 20 23c8 0 11 -2 19 -17c50 -83 64 -101 116 -145c7 -6 9 -10 9 -16c0 -9 -6 -15 -15 -15c-16 0 -61 23 -101 52zM201 -68h264v-43h-264v43z" />
    <glyph glyph-name="uni2605" unicode="&#x2605;" horiz-adv-x="784" 
d="M750 473l-221 -161l85 -260l-222 161l-222 -161l85 260l-222 161h274l85 261l85 -261h273z" />
    <glyph glyph-name="uni2641" unicode="&#x2641;" horiz-adv-x="667" 
d="M338 600c142 0 262 -121 262 -266c0 -148 -119 -267 -266 -267c-148 0 -267 119 -267 269c0 146 121 264 271 264zM350 350h216c-8 116 -100 208 -216 216v-216zM317 350v216c-116 -8 -208 -100 -216 -216h216zM350 317v-216c116 8 208 100 216 216h-216zM317 317h-216
c8 -116 100 -208 216 -216v216z" />
    <glyph glyph-name="lozenge" unicode="&#x25ca;" horiz-adv-x="667" 
d="M334 693l259 -359l-259 -360l-260 360zM334 604l-197 -270l197 -271l197 271z" />
    <glyph glyph-name="triagdn" unicode="&#x25bc;" horiz-adv-x="667" 
d="M33 600h600l-300 -561z" />
    <glyph glyph-name="H18533" unicode="&#x25cf;" horiz-adv-x="667" 
d="M333 589c145 0 261 -115 261 -259c0 -138 -119 -253 -261 -253c-143 0 -260 115 -260 256c0 140 117 256 260 256z" />
    <glyph glyph-name="Delta" unicode="&#x2206;" horiz-adv-x="667" 
d="M28 0l266 667h77l268 -667h-611zM131 67h404l-202 513z" />
    <glyph glyph-name="notequal" unicode="&#x2260;" horiz-adv-x="840" 
d="M501 423h224v-57h-257l-29 -50h286v-57h-319l-117 -202l-51 29l100 173h-222v57h255l29 50h-284v57h317l119 206l51 -30z" />
    <glyph glyph-name="equivalence" unicode="&#x2261;" 
d="M33 515h433v-65h-433v65zM33 369h433v-65h-433v65zM33 223h433v-65h-433v65z" />
    <glyph glyph-name="radical" unicode="&#x221a;" horiz-adv-x="667" 
d="M667 829v-67h-197l-216 -762h-88l-83 299h-83v67h142l37 -130c4 -14 4 -16 14 -64l15 -74h5l4 21c10 43 20 86 30 128l10 43c14 50 29 101 43 152l109 387h258z" />
    <glyph glyph-name="integral" unicode="&#x222b;" 
d="M96 -239l16 64c20 -9 31 -11 45 -11c31 0 49 15 54 45c2 14 3 31 3 76v618c0 74 2 102 9 124c13 45 56 73 114 73c21 0 36 -2 67 -10l-16 -64c-20 7 -30 9 -45 9c-31 0 -49 -15 -54 -45c-2 -12 -2 -15 -3 -106v-586c0 -100 -3 -123 -20 -149c-21 -31 -60 -48 -113 -48
c-24 0 -36 2 -57 10z" />
    <glyph glyph-name="integraltp" unicode="&#x2320;" 
d="M286 -250h-72v807c0 70 2 98 9 120c13 45 56 73 113 73c22 0 37 -2 67 -10l-15 -64c-20 7 -30 9 -45 9c-31 0 -49 -15 -54 -44c-2 -12 -3 -34 -3 -75v-816z" />
    <glyph glyph-name="integralbt" unicode="&#x2321;" 
d="M214 750h72v-807c0 -72 -2 -97 -9 -120c-13 -45 -56 -73 -113 -73c-22 0 -37 2 -67 11l15 64c20 -8 30 -10 45 -10c31 0 49 15 54 45c2 12 3 30 3 75v815z" />
    <glyph glyph-name="similar" unicode="&#x223c;" 
d="M53 265l-43 27c38 81 78 115 137 115c27 0 57 -9 112 -35c57 -27 73 -32 97 -32c38 0 60 16 91 69l44 -26c-39 -78 -83 -112 -144 -112c-28 0 -50 8 -140 48c-27 13 -49 19 -66 19c-35 0 -60 -21 -88 -73z" />
    <glyph glyph-name="approxequal" unicode="&#x2248;" 
d="M53 347l-43 28c38 80 78 114 137 114c27 0 57 -9 112 -34c59 -27 73 -32 97 -32c38 0 60 16 91 68l44 -25c-39 -78 -83 -112 -144 -112c-28 0 -50 7 -140 48c-27 12 -49 18 -66 18c-35 0 -60 -21 -88 -73zM53 181l-43 28c37 80 79 115 137 115c27 0 57 -9 112 -35
c57 -27 73 -32 97 -32c38 0 60 17 91 68l44 -25c-39 -78 -83 -112 -144 -112c-28 0 -50 8 -140 48c-27 13 -49 19 -66 19c-35 0 -60 -21 -88 -74z" />
    <glyph glyph-name="uni2243" unicode="&#x2243;" 
d="M491 302v-60h-481v60h481zM53 347l-43 28c38 80 78 114 137 114c27 0 57 -9 112 -34c59 -27 73 -32 97 -32c38 0 60 16 91 68l44 -25c-39 -78 -83 -112 -144 -112c-28 0 -50 7 -140 48c-27 12 -49 18 -66 18c-35 0 -60 -21 -88 -73z" />
    <glyph glyph-name="lessequal" unicode="&#x2264;" 
d="M466 608v-68l-356 -158l356 -157v-69l-433 194v62zM466 127v-67h-433v67h433z" />
    <glyph glyph-name="greaterequal" unicode="&#x2265;" 
d="M33 156v69l356 157l-356 158v68l433 -196v-62zM33 60v67h433v-67h-433z" />
    <glyph glyph-name="uni2319" unicode="&#x2319;" 
d="M105 267v-200h361v-67h-433v267h72z" />
    <glyph glyph-name="revlogicalnot" unicode="&#x2310;" 
d="M105 0h-72v267h433v-67h-361v-200z" />
    <glyph glyph-name="union" unicode="&#x222a;" horiz-adv-x="579" 
d="M45 667h72v-314c0 -131 6 -174 29 -211c30 -47 86 -77 143 -77c61 0 121 35 148 86c18 36 24 82 24 202v314h72v-311c0 -168 -6 -205 -44 -257c-46 -64 -117 -99 -200 -99c-90 0 -168 43 -212 116c-26 46 -32 87 -32 240v311z" />
    <glyph glyph-name="intersection" unicode="&#x2229;" horiz-adv-x="579" 
d="M533 0h-72v314c0 132 -6 174 -29 211c-30 47 -86 77 -143 77c-61 0 -121 -35 -148 -86c-18 -36 -24 -84 -24 -202v-314h-72v311c0 168 6 205 44 257c46 64 117 99 200 99c90 0 168 -43 212 -116c26 -46 32 -87 32 -240v-311z" />
    <glyph glyph-name="infinity" unicode="&#x221e;" horiz-adv-x="667" 
d="M335 292c-51 -72 -103 -105 -166 -105c-89 0 -151 63 -151 155c0 89 64 152 152 152c61 0 114 -35 162 -105c48 72 101 105 165 105c89 0 151 -63 151 -154c0 -90 -62 -153 -150 -153c-64 0 -116 33 -163 105zM369 341c42 -67 76 -93 121 -93c50 0 87 39 87 93
c0 53 -38 92 -88 92c-44 0 -76 -25 -120 -92zM297 340c-41 66 -76 93 -121 93c-50 0 -87 -39 -87 -92c0 -54 37 -93 88 -93c44 0 77 25 120 92z" />
    <glyph glyph-name="uni222E" unicode="&#x222e;" 
d="M95 -239l16 64c20 -9 30 -11 45 -11c31 0 49 15 54 45c2 12 3 39 3 76v142c-88 17 -152 93 -152 182s60 160 152 181v127c0 60 2 90 9 110c13 46 56 73 113 73c21 0 36 -2 67 -10l-16 -64c-20 7 -30 9 -45 9c-31 0 -49 -15 -54 -44c-2 -12 -3 -34 -3 -76v-125
c37 -8 57 -16 79 -33c47 -35 75 -90 75 -148c0 -90 -64 -166 -154 -182v-129c0 -104 -2 -123 -20 -149c-20 -31 -59 -48 -112 -48c-24 0 -37 2 -57 10zM284 391v-264c32 10 39 14 54 27c30 25 47 64 47 105c0 65 -35 112 -101 132zM213 127v264c-62 -18 -99 -67 -99 -132
c0 -63 37 -113 99 -132z" />
    <glyph glyph-name="product" unicode="&#x220f;" horiz-adv-x="698" 
d="M37 750h625v-67h-80v-866h80v-67h-233v67h81v866h-322v-866h81v-67h-232v67h79v866h-79v67z" />
    <glyph glyph-name="summation" unicode="&#x2211;" horiz-adv-x="667" 
d="M597 750v-228h-65l-7 161h-417l252 -413l-252 -453h427l3 159h69v-226h-579v75l248 445l-248 407v73h569z" />
    <glyph glyph-name="afii61289" unicode="&#x2113;" 
d="M249 269c-26 -134 -33 -175 -33 -209c0 -17 6 -25 18 -25c18 0 34 17 51 55c7 14 11 18 19 18s13 -5 13 -15c0 -14 -10 -36 -26 -58c-24 -34 -47 -49 -76 -49c-41 0 -66 33 -66 86c0 28 2 47 11 130c-27 -26 -44 -39 -51 -39c-6 0 -13 8 -13 15s5 14 20 28
c11 9 40 40 51 52c55 290 116 421 195 421c38 0 62 -31 62 -80c0 -53 -23 -123 -60 -187c-24 -41 -58 -83 -115 -143zM260 332c79 88 125 184 125 262c0 27 -9 45 -24 45c-34 0 -61 -81 -101 -307z" />
    <glyph glyph-name="partialdiff" unicode="&#x2202;" 
d="M86 607l9 64c114 -16 182 -46 246 -106c81 -77 128 -194 128 -320c0 -66 -13 -117 -41 -159c-39 -61 -106 -97 -177 -97c-121 0 -220 102 -220 226c0 123 92 220 209 220c64 0 103 -20 147 -74c-2 5 -4 11 -7 16c-30 82 -67 129 -134 172c-60 36 -97 49 -160 58zM255 381
c-85 0 -151 -74 -151 -170c0 -92 66 -167 147 -167c82 0 145 75 145 173c0 95 -60 164 -141 164z" />
    <glyph glyph-name="underscoredbl" unicode="&#x2017;" 
d="M0 -57h500v-46h-500v46zM0 -174h500v-46h-500v46z" />
    <glyph glyph-name="uni203E" unicode="&#x203e;" 
d="M0 862h500v-65h-500v65z" />
    <glyph glyph-name="emptyset" unicode="&#x2205;" horiz-adv-x="618" 
d="M439 667l48 -25l-48 -88c75 -53 113 -122 113 -204c0 -136 -109 -243 -248 -243c-33 0 -56 5 -79 16l-63 -123l-48 25l61 122c-72 53 -108 120 -108 202c0 136 108 243 244 243c29 0 51 -4 81 -14zM416 502l-165 -330c24 -6 39 -8 58 -8c103 0 187 83 187 185
c0 63 -31 123 -80 153zM200 198l166 329c-21 6 -34 8 -54 8c-104 0 -189 -83 -189 -185c0 -60 26 -111 77 -152z" />
    <glyph glyph-name="exclamdbl" unicode="&#x203c;" horiz-adv-x="576" 
d="M108 197l-4 470h81l-4 -470h-73zM93 0v112h101v-112h-101zM396 197l-4 470h81l-4 -470h-73zM382 0v112h101v-112h-101z" />
    <glyph glyph-name="H18551" unicode="&#x25ab;" horiz-adv-x="330" 
d="M16 475h124v120h50v-120h125v-48h-125v-120h-50v120h-124v48z" />
    <glyph glyph-name="orthogonal" unicode="&#x221f;" horiz-adv-x="330" 
d="M16 475h298v-48h-298v48z" />
    <glyph glyph-name="minute" unicode="&#x2032;" horiz-adv-x="288" 
d="M93 667h102v-112c0 -71 -36 -107 -107 -108h-7v54c34 0 49 17 48 54h-36v112z" />
    <glyph glyph-name="second" unicode="&#x2033;" horiz-adv-x="483" 
d="M288 667h102v-112c0 -71 -36 -107 -107 -108h-7v54c34 0 49 17 48 54h-36v112zM93 667h102v-112c0 -71 -36 -107 -107 -108h-7v54c34 0 49 17 48 54h-36v112z" />
    <glyph glyph-name="house" unicode="&#x2302;" horiz-adv-x="751" 
d="M84 0v401l291 328l292 -328v-401h-583zM135 51h481v328l-241 270l-240 -270v-328z" />
    <glyph glyph-name="uni2126" unicode="&#x2126;" horiz-adv-x="667" 
d="M28 0v65h180c-122 72 -180 168 -180 299c0 180 133 319 305 319s305 -139 305 -320c0 -130 -58 -226 -180 -298h180v-65h-261v59c53 30 80 50 109 83c52 59 79 131 79 213c0 81 -26 144 -80 198c-44 44 -93 65 -151 65c-133 0 -233 -113 -233 -263
c0 -129 61 -225 188 -296v-59h-261z" />
    <glyph glyph-name="triagrt" unicode="&#x25ba;" horiz-adv-x="667" 
d="M636 337l-566 -200v400z" />
    <glyph glyph-name="triaglf" unicode="&#x25c4;" horiz-adv-x="667" 
d="M31 337l566 200v-400z" />
    <glyph glyph-name="musicalnotedbl" unicode="&#x266b;" horiz-adv-x="667" 
d="M215 645l381 -56v-446c0 -49 -8 -79 -29 -108c-28 -40 -74 -64 -121 -64c-44 0 -71 23 -71 61c0 61 57 115 122 115c18 0 35 -3 53 -11v367l-289 44v-348c0 -49 -8 -79 -29 -108c-28 -40 -74 -64 -121 -64c-44 0 -71 23 -71 61c0 61 57 115 122 115c18 0 35 -3 53 -11
v453z" />
    <glyph glyph-name="uni018F" unicode="&#x18f;" horiz-adv-x="1005" 
d="M73 361h775c-3 133 -7 161 -25 189c-30 46 -77 54 -321 54c-203 0 -266 -6 -299 -30c-24 -18 -36 -43 -41 -89h-84c5 60 20 99 48 128c51 53 103 61 376 61c274 0 325 -8 376 -61c43 -45 53 -97 53 -279c0 -183 -10 -235 -53 -280c-51 -53 -102 -61 -376 -61
c-214 0 -273 5 -324 26c-57 23 -88 71 -98 148c-6 51 -7 67 -7 194zM848 301h-691c1 -124 5 -156 24 -184c30 -47 70 -54 321 -54c194 0 235 3 278 19c38 15 57 47 63 104c2 30 3 50 5 115z" />
    <glyph glyph-name="uni0259" unicode="&#x259;" horiz-adv-x="729" 
d="M67 250h525c-1 82 -6 105 -30 130c-32 33 -68 40 -200 40c-169 0 -211 -17 -221 -88h-72c3 43 14 70 39 94c41 40 107 54 257 54c137 0 204 -13 243 -47c41 -36 58 -93 58 -196s-17 -161 -58 -197c-39 -34 -106 -47 -242 -47c-159 0 -224 17 -262 70
c-28 38 -37 85 -37 187zM592 192h-450c1 -38 4 -57 15 -77c26 -50 65 -62 209 -62c145 0 185 12 211 62c10 19 13 37 15 77z" />
    </font>
</defs>
</svg>
