  0
SECTION
  2
HEADER
  9
$ACADVER
  1
AC1014
  9
$HANDSEED
  5
FFFF
  9
$MEASUREMENT
 70
     1
  0
ENDSEC
  0
SECTION
  2
TABLES
  0
TABLE
  2
VPORT
  5
8
330
0
100
AcDbSymbolTable
 70
     4
  0
VPORT
  5
2E
330
8
100
AcDbSymbolTableRecord
100
AcDbViewportTableRecord
  2
*ACTIVE
 70
     0
 10
0.0
 20
0.0
 11
1.0
 21
1.0
 12
210.0
 22
148.5
 13
0.0
 23
0.0
 14
10.0
 24
10.0
 15
10.0
 25
10.0
 16
0.0
 26
0.0
 36
1.0
 17
0.0
 27
0.0
 37
0.0
 40
341.0
 41
1.24
 42
50.0
 43
0.0
 44
0.0
 50
0.0
 51
0.0
 71
     0
 72
   100
 73
     1
 74
     3
 75
     0
 76
     0
 77
     0
 78
     0
  0
ENDTAB
  0
TABLE
  2
LTYPE
  5
5
330
0
100
AcDbSymbolTable
 70
     1
  0
LTYPE
  5
14
330
5
100
AcDbSymbolTableRecord
100
AcDbLinetypeTableRecord
  2
BYBLOCK
 70
     0
  3

 72
    65
 73
     0
 40
0.0
  0
LTYPE
  5
15
330
5
100
AcDbSymbolTableRecord
100
AcDbLinetypeTableRecord
  2
BYLAYER
 70
     0
  3

 72
    65
 73
     0
 40
0.0
  0
LTYPE
  5
16
330
5
100
AcDbSymbolTableRecord
100
AcDbLinetypeTableRecord
  2
CONTINUOUS
 70
     0
  3
Solid line
 72
    65
 73
     0
 40
0.0
  0
ENDTAB
  0
TABLE
  2
LAYER
  5
2
100
AcDbSymbolTable
 70
2
  0
LAYER
  5
50
100
AcDbSymbolTableRecord
100
AcDbLayerTableRecord
  2
0
 70
0
  6
CONTINUOUS
  0
LAYER
  5
51
100
AcDbSymbolTableRecord
100
AcDbLayerTableRecord
  2
Layer_1
 70
0
  6
CONTINUOUS
  0
ENDTAB
  0
TABLE
  2
STYLE
  5
3
330
0
100
AcDbSymbolTable
 70
     1
  0
STYLE
  5
11
330
3
100
AcDbSymbolTableRecord
100
AcDbTextStyleTableRecord
  2
STANDARD
 70
     0
 40
0.0
 41
1.0
 50
0.0
 71
     0
 42
2.5
  3
txt
  4

  0
ENDTAB
  0
TABLE
  2
VIEW
  5
6
330
0
100
AcDbSymbolTable
 70
     0
  0
ENDTAB
  0
TABLE
  2
UCS
  5
7
330
0
100
AcDbSymbolTable
 70
     0
  0
ENDTAB
  0
TABLE
  2
APPID
  5
9
330
0
100
AcDbSymbolTable
 70
     2
  0
APPID
  5
12
330
9
100
AcDbSymbolTableRecord
100
AcDbRegAppTableRecord
  2
ACAD
 70
     0
  0
ENDTAB
  0
TABLE
  2
DIMSTYLE
  5
A
330
0
100
AcDbSymbolTable
 70
     1
  0
DIMSTYLE
105
27
330
A
100
AcDbSymbolTableRecord
100
AcDbDimStyleTableRecord
  2
ISO-25
 70
     0
  3

  4

  5

  6

  7

 40
1.0
 41
2.5
 42
0.625
 43
3.75
 44
1.25
 45
0.0
 46
0.0
 47
0.0
 48
0.0
140
2.5
141
2.5
142
0.0
143
0.03937007874016
144
1.0
145
0.0
146
1.0
147
0.625
 71
     0
 72
     0
 73
     0
 74
     0
 75
     0
 76
     0
 77
     1
 78
     8
170
     0
171
     3
172
     1
173
     0
174
     0
175
     0
176
     0
177
     0
178
     0
270
     2
271
     2
272
     2
273
     2
274
     3
340
11
275
     0
280
     0
281
     0
282
     0
283
     0
284
     8
285
     0
286
     0
287
     3
288
     0
  0
ENDTAB
  0
TABLE
  2
BLOCK_RECORD
  5
1
330
0
100
AcDbSymbolTable
 70
     1
  0
BLOCK_RECORD
  5
1F
330
1
100
AcDbSymbolTableRecord
100
AcDbBlockTableRecord
  2
*MODEL_SPACE
  0
BLOCK_RECORD
  5
1B
330
1
100
AcDbSymbolTableRecord
100
AcDbBlockTableRecord
  2
*PAPER_SPACE
  0
ENDTAB
  0
ENDSEC
  0
SECTION
  2
BLOCKS
  0
BLOCK
  5
20
330
1F
100
AcDbEntity
  8
0
100
AcDbBlockBegin
  2
*MODEL_SPACE
 70
     0
 10
0.0
 20
0.0
 30
0.0
  3
*MODEL_SPACE
  1

  0
ENDBLK
  5
21
330
1F
100
AcDbEntity
  8
0
100
AcDbBlockEnd
  0
BLOCK
  5
1C
330
1B
100
AcDbEntity
 67
     1
  8
0
100
AcDbBlockBegin
  2
*PAPER_SPACE
  1

  0
ENDBLK
  5
1D
330
1B
100
AcDbEntity
 67
     1
  8
0
100
AcDbBlockEnd
  0
ENDSEC
  0
SECTION
  2
ENTITIES
  0
LINE
  5
100
100
AcDbEntity
  8
Layer_1
 62
5
100
AcDbLine
 10
217.366906
 20
398.597824
 30
0.0
 11
217.366906
 21
387.947287
 31
0.0
  0
LINE
  5
101
100
AcDbEntity
  8
Layer_1
 62
5
100
AcDbLine
 10
217.366906
 20
387.947287
 30
0.0
 11
219.412003
 21
387.947287
 31
0.0
  0
LINE
  5
102
100
AcDbEntity
  8
Layer_1
 62
5
100
AcDbLine
 10
219.412003
 20
387.947287
 30
0.0
 11
219.412003
 21
391.379925
 31
0.0
  0
LINE
  5
103
100
AcDbEntity
  8
Layer_1
 62
5
100
AcDbLine
 10
219.412003
 20
391.379925
 30
0.0
 11
219.412003
 21
393.136890
 31
0.0
  0
LINE
  5
104
100
AcDbEntity
  8
Layer_1
 62
5
100
AcDbLine
 10
219.412003
 20
393.136890
 30
0.0
 11
219.412003
 21
395.787883
 31
0.0
  0
LINE
  5
105
100
AcDbEntity
  8
Layer_1
 62
5
100
AcDbLine
 10
219.412003
 20
395.787883
 30
0.0
 11
219.412003
 21
396.905417
 31
0.0
  0
LINE
  5
106
100
AcDbEntity
  8
Layer_1
 62
5
100
AcDbLine
 10
219.412003
 20
396.905417
 30
0.0
 11
221.918269
 21
396.905417
 31
0.0
  0
SPLINE
  5
107
100
AcDbEntity
  8
Layer_1
 62
5
100
AcDbSpline
 70
8
 71
3
 72
8
 73
4
 74
0
 40
0
 40
0
 40
0
 40
0
 40
1
 40
1
 40
1
 40
1
 10
221.918269
 20
396.905417
 30
0.0
 10
222.780546
 20
396.905417
 30
0.0
 10
222.971906
 20
396.873005
 30
0.0
 10
223.259309
 20
396.745211
 30
0.0
  0
SPLINE
  5
108
100
AcDbEntity
  8
Layer_1
 62
5
100
AcDbSpline
 70
8
 71
3
 72
8
 73
4
 74
0
 40
0
 40
0
 40
0
 40
0
 40
1
 40
1
 40
1
 40
1
 10
223.259309
 20
396.745211
 30
0.0
 10
223.674441
 20
396.521638
 30
0.0
 10
223.803227
 20
396.091029
 30
0.0
 10
223.803160
 20
394.909400
 30
0.0
  0
SPLINE
  5
109
100
AcDbEntity
  8
Layer_1
 62
5
100
AcDbSpline
 70
8
 71
3
 72
8
 73
4
 74
0
 40
0
 40
0
 40
0
 40
0
 40
1
 40
1
 40
1
 40
1
 10
223.803160
 20
394.909400
 30
0.0
 10
223.803160
 20
393.376470
 30
0.0
 10
223.514698
 20
393.136890
 30
0.0
 10
221.710306
 20
393.136890
 30
0.0
  0
LINE
  5
10a
100
AcDbEntity
  8
Layer_1
 62
5
100
AcDbLine
 10
221.710306
 20
393.136890
 30
0.0
 11
220.411930
 21
393.136890
 31
0.0
  0
LINE
  5
10b
100
AcDbEntity
  8
Layer_1
 62
5
100
AcDbLine
 10
220.411930
 20
393.136890
 30
0.0
 11
220.411930
 21
391.379925
 31
0.0
  0
LINE
  5
10c
100
AcDbEntity
  8
Layer_1
 62
5
100
AcDbLine
 10
220.411930
 20
391.379925
 30
0.0
 11
221.790409
 21
391.379925
 31
0.0
  0
SPLINE
  5
10d
100
AcDbEntity
  8
Layer_1
 62
5
100
AcDbSpline
 70
8
 71
3
 72
8
 73
4
 74
0
 40
0
 40
0
 40
0
 40
0
 40
1
 40
1
 40
1
 40
1
 10
221.790409
 20
391.379925
 30
0.0
 10
223.722529
 20
391.411675
 30
0.0
 10
223.723455
 20
391.411675
 30
0.0
 10
224.154593
 20
391.555608
 30
0.0
  0
SPLINE
  5
10e
100
AcDbEntity
  8
Layer_1
 62
5
100
AcDbSpline
 70
8
 71
3
 72
8
 73
4
 74
0
 40
0
 40
0
 40
0
 40
0
 40
1
 40
1
 40
1
 40
1
 10
224.154593
 20
391.555608
 30
0.0
 10
225.384112
 20
391.922850
 30
0.0
 10
225.878023
 20
392.897045
 30
0.0
 10
225.878023
 20
394.877121
 30
0.0
  0
SPLINE
  5
10f
100
AcDbEntity
  8
Layer_1
 62
5
100
AcDbSpline
 70
8
 71
3
 72
8
 73
4
 74
0
 40
0
 40
0
 40
0
 40
0
 40
1
 40
1
 40
1
 40
1
 10
225.878023
 20
394.877121
 30
0.0
 10
225.878023
 20
396.170536
 30
0.0
 10
225.751287
 20
396.857196
 30
0.0
 10
225.399987
 20
397.448011
 30
0.0
  0
SPLINE
  5
110
100
AcDbEntity
  8
Layer_1
 62
5
100
AcDbSpline
 70
8
 71
3
 72
8
 73
4
 74
0
 40
0
 40
0
 40
0
 40
0
 40
1
 40
1
 40
1
 40
1
 10
225.399987
 20
397.448011
 30
0.0
 10
225.000797
 20
398.102722
 30
0.0
 10
224.265983
 20
398.501648
 30
0.0
 10
223.323868
 20
398.565545
 30
0.0
  0
SPLINE
  5
111
100
AcDbEntity
  8
Layer_1
 62
5
100
AcDbSpline
 70
8
 71
3
 72
8
 73
4
 74
0
 40
0
 40
0
 40
0
 40
0
 40
1
 40
1
 40
1
 40
1
 10
223.323868
 20
398.565545
 30
0.0
 10
222.924678
 20
398.597295
 30
0.0
 10
222.813023
 20
398.597956
 30
0.0
 10
221.679284
 20
398.597956
 30
0.0
  0
LINE
  5
112
100
AcDbEntity
  8
Layer_1
 62
5
100
AcDbLine
 10
221.679284
 20
398.597956
 30
0.0
 11
217.366906
 21
398.597824
 31
0.0
  0
SPLINE
  5
113
100
AcDbEntity
  8
Layer_1
 62
5
100
AcDbSpline
 70
8
 71
3
 72
8
 73
4
 74
0
 40
0
 40
0
 40
0
 40
0
 40
1
 40
1
 40
1
 40
1
 10
230.433288
 20
395.499818
 30
0.0
 10
228.852469
 20
395.499818
 30
0.0
 10
228.181353
 20
395.355686
 30
0.0
 10
227.654369
 20
394.892599
 30
0.0
  0
SPLINE
  5
114
100
AcDbEntity
  8
Layer_1
 62
5
100
AcDbSpline
 70
8
 71
3
 72
8
 73
4
 74
0
 40
0
 40
0
 40
0
 40
0
 40
1
 40
1
 40
1
 40
1
 10
227.654369
 20
394.892599
 30
0.0
 10
227.079562
 20
394.381622
 30
0.0
 10
226.855989
 20
393.583573
 30
0.0
 10
226.855989
 20
391.954798
 30
0.0
  0
SPLINE
  5
115
100
AcDbEntity
  8
Layer_1
 62
5
100
AcDbSpline
 70
8
 71
3
 72
8
 73
4
 74
0
 40
0
 40
0
 40
0
 40
0
 40
1
 40
1
 40
1
 40
1
 10
226.855989
 20
391.954798
 30
0.0
 10
226.855989
 20
390.134465
 30
0.0
 10
226.968040
 20
389.447606
 30
0.0
 10
227.335282
 20
388.856792
 30
0.0
  0
SPLINE
  5
116
100
AcDbEntity
  8
Layer_1
 62
5
100
AcDbSpline
 70
8
 71
3
 72
8
 73
4
 74
0
 40
0
 40
0
 40
0
 40
0
 40
1
 40
1
 40
1
 40
1
 10
227.335282
 20
388.856792
 30
0.0
 10
227.733281
 20
388.203006
 30
0.0
 10
228.486881
 20
387.928832
 30
0.0
 10
229.877729
 20
387.873666
 30
0.0
  0
LINE
  5
117
100
AcDbEntity
  8
Layer_1
 62
5
100
AcDbLine
 10
229.877729
 20
387.873666
 30
0.0
 11
229.877729
 21
389.274106
 31
0.0
  0
SPLINE
  5
118
100
AcDbEntity
  8
Layer_1
 62
5
100
AcDbSpline
 70
8
 71
3
 72
8
 73
4
 74
0
 40
0
 40
0
 40
0
 40
0
 40
1
 40
1
 40
1
 40
1
 10
229.877729
 20
389.274106
 30
0.0
 10
228.854255
 20
389.359500
 30
0.0
 10
228.693057
 20
389.825431
 30
0.0
 10
228.693057
 20
391.746835
 30
0.0
  0
SPLINE
  5
119
100
AcDbEntity
  8
Layer_1
 62
5
100
AcDbSpline
 70
8
 71
3
 72
8
 73
4
 74
0
 40
0
 40
0
 40
0
 40
0
 40
1
 40
1
 40
1
 40
1
 10
228.693057
 20
391.746835
 30
0.0
 10
228.693057
 20
393.790742
 30
0.0
 10
228.915572
 20
394.094219
 30
0.0
 10
230.368663
 20
394.094219
 30
0.0
  0
SPLINE
  5
11a
100
AcDbEntity
  8
Layer_1
 62
5
100
AcDbSpline
 70
8
 71
3
 72
8
 73
4
 74
0
 40
0
 40
0
 40
0
 40
0
 40
1
 40
1
 40
1
 40
1
 10
230.368663
 20
394.094219
 30
0.0
 10
231.837762
 20
394.094219
 30
0.0
 10
232.062394
 20
393.791006
 30
0.0
 10
232.062394
 20
391.826938
 30
0.0
  0
SPLINE
  5
11b
100
AcDbEntity
  8
Layer_1
 62
5
100
AcDbSpline
 70
8
 71
3
 72
8
 73
4
 74
0
 40
0
 40
0
 40
0
 40
0
 40
1
 40
1
 40
1
 40
1
 10
232.062394
 20
391.826938
 30
0.0
 10
232.062394
 20
389.871535
 30
0.0
 10
231.902056
 20
389.375177
 30
0.0
 10
230.877722
 20
389.278008
 30
0.0
  0
LINE
  5
11c
100
AcDbEntity
  8
Layer_1
 62
5
100
AcDbLine
 10
230.877722
 20
389.278008
 30
0.0
 11
230.877722
 21
387.868507
 31
0.0
  0
SPLINE
  5
11d
100
AcDbEntity
  8
Layer_1
 62
5
100
AcDbSpline
 70
8
 71
3
 72
8
 73
4
 74
0
 40
0
 40
0
 40
0
 40
0
 40
1
 40
1
 40
1
 40
1
 10
230.877722
 20
387.868507
 30
0.0
 10
233.339537
 20
387.955952
 30
0.0
 10
233.898205
 20
388.745138
 30
0.0
 10
233.898205
 20
391.859217
 30
0.0
  0
SPLINE
  5
11e
100
AcDbEntity
  8
Layer_1
 62
5
100
AcDbSpline
 70
8
 71
3
 72
8
 73
4
 74
0
 40
0
 40
0
 40
0
 40
0
 40
1
 40
1
 40
1
 40
1
 10
233.898205
 20
391.859217
 30
0.0
 10
233.898205
 20
393.551823
 30
0.0
 10
233.690970
 20
394.350203
 30
0.0
 10
233.132104
 20
394.877121
 30
0.0
  0
SPLINE
  5
11f
100
AcDbEntity
  8
Layer_1
 62
5
100
AcDbSpline
 70
8
 71
3
 72
8
 73
4
 74
0
 40
0
 40
0
 40
0
 40
0
 40
1
 40
1
 40
1
 40
1
 10
233.132104
 20
394.877121
 30
0.0
 10
232.637069
 20
395.340208
 30
0.0
 10
231.950276
 20
395.499818
 30
0.0
 10
230.433288
 20
395.499818
 30
0.0
  0
LINE
  5
120
100
AcDbEntity
  8
Layer_1
 62
5
100
AcDbLine
 10
230.433288
 20
395.499818
 30
0.0
 11
230.433288
 21
395.499818
 31
0.0
  0
LINE
  5
121
100
AcDbEntity
  8
Layer_1
 62
5
100
AcDbLine
 10
237.196843
 20
398.597544
 30
0.0
 11
235.392465
 21
398.597544
 31
0.0
  0
LINE
  5
122
100
AcDbEntity
  8
Layer_1
 62
5
100
AcDbLine
 10
235.392465
 20
398.597544
 30
0.0
 11
235.392465
 21
387.946849
 31
0.0
  0
LINE
  5
123
100
AcDbEntity
  8
Layer_1
 62
5
100
AcDbLine
 10
235.392465
 20
387.946849
 30
0.0
 11
237.196843
 21
387.946849
 31
0.0
  0
LINE
  5
124
100
AcDbEntity
  8
Layer_1
 62
5
100
AcDbLine
 10
237.196843
 20
387.946849
 30
0.0
 11
237.196843
 21
398.597544
 31
0.0
  0
LINE
  5
125
100
AcDbEntity
  8
Layer_1
 62
5
100
AcDbLine
 10
245.235515
 20
395.403932
 30
0.0
 11
243.367252
 21
395.403932
 31
0.0
  0
LINE
  5
126
100
AcDbEntity
  8
Layer_1
 62
5
100
AcDbLine
 10
243.367252
 20
395.403932
 30
0.0
 11
242.632722
 21
392.242256
 31
0.0
  0
SPLINE
  5
127
100
AcDbEntity
  8
Layer_1
 62
5
100
AcDbSpline
 70
8
 71
3
 72
8
 73
4
 74
0
 40
0
 40
0
 40
0
 40
0
 40
1
 40
1
 40
1
 40
1
 10
242.632722
 20
392.242256
 30
0.0
 10
242.393201
 20
391.140460
 30
0.0
 10
242.249488
 20
390.517706
 30
0.0
 10
242.217552
 20
390.342057
 30
0.0
  0
SPLINE
  5
128
100
AcDbEntity
  8
Layer_1
 62
5
100
AcDbSpline
 70
8
 71
3
 72
8
 73
4
 74
0
 40
0
 40
0
 40
0
 40
0
 40
1
 40
1
 40
1
 40
1
 10
242.217552
 20
390.342057
 30
0.0
 10
242.121744
 20
389.926888
 30
0.0
 10
242.025936
 20
389.495750
 30
0.0
 10
241.946095
 20
389.080581
 30
0.0
  0
LINE
  5
129
100
AcDbEntity
  8
Layer_1
 62
5
100
AcDbLine
 10
241.946095
 20
389.080581
 30
0.0
 11
241.898191
 21
389.080581
 31
0.0
  0
SPLINE
  5
12a
100
AcDbEntity
  8
Layer_1
 62
5
100
AcDbSpline
 70
8
 71
3
 72
8
 73
4
 74
0
 40
0
 40
0
 40
0
 40
0
 40
1
 40
1
 40
1
 40
1
 10
241.898191
 20
389.080581
 30
0.0
 10
241.754479
 20
389.639463
 30
0.0
 10
241.610766
 20
390.118505
 30
0.0
 10
241.467053
 20
390.661419
 30
0.0
  0
LINE
  5
12b
100
AcDbEntity
  8
Layer_1
 62
5
100
AcDbLine
 10
241.467053
 20
390.661419
 30
0.0
 11
240.988012
 21
392.242256
 31
0.0
  0
LINE
  5
12c
100
AcDbEntity
  8
Layer_1
 62
5
100
AcDbLine
 10
240.988012
 20
392.242256
 30
0.0
 11
240.061864
 21
395.403932
 31
0.0
  0
LINE
  5
12d
100
AcDbEntity
  8
Layer_1
 62
5
100
AcDbLine
 10
240.061864
 20
395.403932
 30
0.0
 11
238.145697
 21
395.403932
 31
0.0
  0
LINE
  5
12e
100
AcDbEntity
  8
Layer_1
 62
5
100
AcDbLine
 10
238.145697
 20
395.403932
 30
0.0
 11
240.588810
 21
387.946849
 31
0.0
  0
LINE
  5
12f
100
AcDbEntity
  8
Layer_1
 62
5
100
AcDbLine
 10
240.588810
 20
387.946849
 30
0.0
 11
241.498990
 21
387.946849
 31
0.0
  0
SPLINE
  5
130
100
AcDbEntity
  8
Layer_1
 62
5
100
AcDbSpline
 70
8
 71
3
 72
8
 73
4
 74
0
 40
0
 40
0
 40
0
 40
0
 40
1
 40
1
 40
1
 40
1
 10
241.498990
 20
387.946849
 30
0.0
 10
241.403181
 20
387.308126
 30
0.0
 10
241.211565
 20
386.733276
 30
0.0
 10
240.972044
 20
386.381979
 30
0.0
  0
SPLINE
  5
131
100
AcDbEntity
  8
Layer_1
 62
5
100
AcDbSpline
 70
8
 71
3
 72
8
 73
4
 74
0
 40
0
 40
0
 40
0
 40
0
 40
1
 40
1
 40
1
 40
1
 10
240.972044
 20
386.381979
 30
0.0
 10
240.812363
 20
386.110522
 30
0.0
 10
240.477034
 20
385.966809
 30
0.0
 10
239.997992
 20
385.966809
 30
0.0
  0
LINE
  5
132
100
AcDbEntity
  8
Layer_1
 62
5
100
AcDbLine
 10
239.997992
 20
385.966809
 30
0.0
 11
239.662663
 21
385.982777
 31
0.0
  0
LINE
  5
133
100
AcDbEntity
  8
Layer_1
 62
5
100
AcDbLine
 10
239.662663
 20
385.982777
 30
0.0
 11
239.662663
 21
384.673397
 31
0.0
  0
SPLINE
  5
134
100
AcDbEntity
  8
Layer_1
 62
5
100
AcDbSpline
 70
8
 71
3
 72
8
 73
4
 74
0
 40
0
 40
0
 40
0
 40
0
 40
1
 40
1
 40
1
 40
1
 10
239.662663
 20
384.673397
 30
0.0
 10
239.902184
 20
384.641460
 30
0.0
 10
240.045896
 20
384.641460
 30
0.0
 10
240.285417
 20
384.641460
 30
0.0
  0
SPLINE
  5
135
100
AcDbEntity
  8
Layer_1
 62
5
100
AcDbSpline
 70
8
 71
3
 72
8
 73
4
 74
0
 40
0
 40
0
 40
0
 40
0
 40
1
 40
1
 40
1
 40
1
 10
240.285417
 20
384.641460
 30
0.0
 10
242.089808
 20
384.641460
 30
0.0
 10
242.728530
 20
385.248247
 30
0.0
 10
243.271444
 20
387.483775
 30
0.0
  0
LINE
  5
136
100
AcDbEntity
  8
Layer_1
 62
5
100
AcDbLine
 10
243.271444
 20
387.483775
 30
0.0
 11
245.235515
 21
395.403932
 31
0.0
  0
SPLINE
  5
137
100
AcDbEntity
  8
Layer_1
 62
5
100
AcDbSpline
 70
8
 71
3
 72
8
 73
4
 74
0
 40
0
 40
0
 40
0
 40
0
 40
1
 40
1
 40
1
 40
1
 10
247.905114
 20
392.189946
 30
0.0
 10
247.954062
 20
393.600771
 30
0.0
 10
248.377131
 20
394.063196
 30
0.0
 10
249.619416
 20
394.063196
 30
0.0
  0
SPLINE
  5
138
100
AcDbEntity
  8
Layer_1
 62
5
100
AcDbSpline
 70
8
 71
3
 72
8
 73
4
 74
0
 40
0
 40
0
 40
0
 40
0
 40
1
 40
1
 40
1
 40
1
 10
249.619416
 20
394.063196
 30
0.0
 10
250.944780
 20
394.063196
 30
0.0
 10
251.200764
 20
393.663543
 30
0.0
 10
251.200764
 20
391.683534
 30
0.0
  0
SPLINE
  5
139
100
AcDbEntity
  8
Layer_1
 62
5
100
AcDbSpline
 70
8
 71
3
 72
8
 73
4
 74
0
 40
0
 40
0
 40
0
 40
0
 40
1
 40
1
 40
1
 40
1
 10
251.200764
 20
391.683534
 30
0.0
 10
251.200764
 20
389.655569
 30
0.0
 10
250.944912
 20
389.272783
 30
0.0
 10
249.571658
 20
389.272783
 30
0.0
  0
SPLINE
  5
13a
100
AcDbEntity
  8
Layer_1
 62
5
100
AcDbSpline
 70
8
 71
3
 72
8
 73
4
 74
0
 40
0
 40
0
 40
0
 40
0
 40
1
 40
1
 40
1
 40
1
 10
249.571658
 20
389.272783
 30
0.0
 10
249.286371
 20
389.272783
 30
0.0
 10
249.060483
 20
389.293950
 30
0.0
 10
248.862377
 20
389.333637
 30
0.0
  0
LINE
  5
13b
100
AcDbEntity
  8
Layer_1
 62
5
100
AcDbLine
 10
248.862377
 20
389.333637
 30
0.0
 11
248.862377
 21
388.041743
 31
0.0
  0
SPLINE
  5
13c
100
AcDbEntity
  8
Layer_1
 62
5
100
AcDbSpline
 70
8
 71
3
 72
8
 73
4
 74
0
 40
0
 40
0
 40
0
 40
0
 40
1
 40
1
 40
1
 40
1
 10
248.862377
 20
388.041743
 30
0.0
 10
249.189005
 20
387.912097
 30
0.0
 10
249.588724
 20
387.850515
 30
0.0
 10
250.098775
 20
387.850515
 30
0.0
  0
SPLINE
  5
13d
100
AcDbEntity
  8
Layer_1
 62
5
100
AcDbSpline
 70
8
 71
3
 72
8
 73
4
 74
0
 40
0
 40
0
 40
0
 40
0
 40
1
 40
1
 40
1
 40
1
 10
250.098775
 20
387.850515
 30
0.0
 10
251.232448
 20
387.850515
 30
0.0
 10
251.983203
 20
388.106830
 30
0.0
 10
252.398334
 20
388.665763
 30
0.0
  0
SPLINE
  5
13e
100
AcDbEntity
  8
Layer_1
 62
5
100
AcDbSpline
 70
8
 71
3
 72
8
 73
4
 74
0
 40
0
 40
0
 40
0
 40
0
 40
1
 40
1
 40
1
 40
1
 10
252.398334
 20
388.665763
 30
0.0
 10
252.893370
 20
389.304467
 30
0.0
 10
253.036576
 20
389.959112
 30
0.0
 10
253.036576
 20
391.683666
 30
0.0
  0
SPLINE
  5
13f
100
AcDbEntity
  8
Layer_1
 62
5
100
AcDbSpline
 70
8
 71
3
 72
8
 73
4
 74
0
 40
0
 40
0
 40
0
 40
0
 40
1
 40
1
 40
1
 40
1
 10
253.036576
 20
391.683666
 30
0.0
 10
253.036576
 20
393.519941
 30
0.0
 10
252.861620
 20
394.318850
 30
0.0
 10
252.302754
 20
394.861775
 30
0.0
  0
SPLINE
  5
140
100
AcDbEntity
  8
Layer_1
 62
5
100
AcDbSpline
 70
8
 71
3
 72
8
 73
4
 74
0
 40
0
 40
0
 40
0
 40
0
 40
1
 40
1
 40
1
 40
1
 10
252.302754
 20
394.861775
 30
0.0
 10
251.887556
 20
395.276906
 30
0.0
 10
251.184294
 20
395.499950
 30
0.0
 10
250.242179
 20
395.499950
 30
0.0
  0
SPLINE
  5
141
100
AcDbEntity
  8
Layer_1
 62
5
100
AcDbSpline
 70
8
 71
3
 72
8
 73
4
 74
0
 40
0
 40
0
 40
0
 40
0
 40
1
 40
1
 40
1
 40
1
 10
250.242179
 20
395.499950
 30
0.0
 10
248.884866
 20
395.499950
 30
0.0
 10
248.230089
 20
395.164128
 30
0.0
 10
247.894729
 20
394.317858
 30
0.0
  0
LINE
  5
142
100
AcDbEntity
  8
Layer_1
 62
5
100
AcDbLine
 10
247.894729
 20
394.317858
 30
0.0
 11
247.862318
 21
394.334394
 31
0.0
  0
LINE
  5
143
100
AcDbEntity
  8
Layer_1
 62
5
100
AcDbLine
 10
247.862318
 20
394.334394
 30
0.0
 11
247.862318
 21
398.597692
 31
0.0
  0
LINE
  5
144
100
AcDbEntity
  8
Layer_1
 62
5
100
AcDbLine
 10
247.862318
 20
398.597692
 30
0.0
 11
246.058786
 21
398.597692
 31
0.0
  0
LINE
  5
145
100
AcDbEntity
  8
Layer_1
 62
5
100
AcDbLine
 10
246.058786
 20
398.597692
 30
0.0
 11
246.058786
 21
387.947154
 31
0.0
  0
LINE
  5
146
100
AcDbEntity
  8
Layer_1
 62
5
100
AcDbLine
 10
246.058786
 20
387.947154
 30
0.0
 11
247.862318
 21
387.947154
 31
0.0
  0
LINE
  5
147
100
AcDbEntity
  8
Layer_1
 62
5
100
AcDbLine
 10
247.862318
 20
387.947154
 30
0.0
 11
247.905114
 21
392.189946
 31
0.0
  0
LINE
  5
148
100
AcDbEntity
  8
Layer_1
 62
5
100
AcDbLine
 10
256.314858
 20
398.597544
 30
0.0
 11
254.510468
 21
398.597544
 31
0.0
  0
LINE
  5
149
100
AcDbEntity
  8
Layer_1
 62
5
100
AcDbLine
 10
254.510468
 20
398.597544
 30
0.0
 11
254.510468
 21
397.064610
 31
0.0
  0
LINE
  5
14a
100
AcDbEntity
  8
Layer_1
 62
5
100
AcDbLine
 10
254.510468
 20
397.064610
 30
0.0
 11
256.314858
 21
397.064610
 31
0.0
  0
LINE
  5
14b
100
AcDbEntity
  8
Layer_1
 62
5
100
AcDbLine
 10
256.314858
 20
397.064610
 30
0.0
 11
256.314858
 21
398.597544
 31
0.0
  0
LINE
  5
14c
100
AcDbEntity
  8
Layer_1
 62
5
100
AcDbLine
 10
256.314858
 20
395.403932
 30
0.0
 11
254.510468
 21
395.403932
 31
0.0
  0
LINE
  5
14d
100
AcDbEntity
  8
Layer_1
 62
5
100
AcDbLine
 10
254.510468
 20
395.403932
 30
0.0
 11
254.510468
 21
387.946849
 31
0.0
  0
LINE
  5
14e
100
AcDbEntity
  8
Layer_1
 62
5
100
AcDbLine
 10
254.510468
 20
387.946849
 30
0.0
 11
256.314858
 21
387.946849
 31
0.0
  0
LINE
  5
14f
100
AcDbEntity
  8
Layer_1
 62
5
100
AcDbLine
 10
256.314858
 20
387.946849
 30
0.0
 11
256.314858
 21
395.403932
 31
0.0
  0
LINE
  5
150
100
AcDbEntity
  8
Layer_1
 62
5
100
AcDbLine
 10
264.692595
 20
395.403932
 30
0.0
 11
262.888204
 21
395.403932
 31
0.0
  0
LINE
  5
151
100
AcDbEntity
  8
Layer_1
 62
5
100
AcDbLine
 10
262.888204
 20
395.403932
 30
0.0
 11
262.888204
 21
391.332077
 31
0.0
  0
SPLINE
  5
152
100
AcDbEntity
  8
Layer_1
 62
5
100
AcDbSpline
 70
8
 71
3
 72
8
 73
4
 74
0
 40
0
 40
0
 40
0
 40
0
 40
1
 40
1
 40
1
 40
1
 10
262.888204
 20
391.332077
 30
0.0
 10
262.888204
 20
390.613514
 30
0.0
 10
262.856268
 20
390.326089
 30
0.0
 10
262.728524
 20
390.054632
 30
0.0
  0
SPLINE
  5
153
100
AcDbEntity
  8
Layer_1
 62
5
100
AcDbSpline
 70
8
 71
3
 72
8
 73
4
 74
0
 40
0
 40
0
 40
0
 40
0
 40
1
 40
1
 40
1
 40
1
 10
262.728524
 20
390.054632
 30
0.0
 10
262.473035
 20
389.543654
 30
0.0
 10
261.993993
 20
389.304134
 30
0.0
 10
261.179622
 20
389.304134
 30
0.0
  0
SPLINE
  5
154
100
AcDbEntity
  8
Layer_1
 62
5
100
AcDbSpline
 70
8
 71
3
 72
8
 73
4
 74
0
 40
0
 40
0
 40
0
 40
0
 40
1
 40
1
 40
1
 40
1
 10
261.179622
 20
389.304134
 30
0.0
 10
260.524931
 20
389.304134
 30
0.0
 10
260.173634
 20
389.447846
 30
0.0
 10
259.997986
 20
389.783175
 30
0.0
  0
SPLINE
  5
155
100
AcDbEntity
  8
Layer_1
 62
5
100
AcDbSpline
 70
8
 71
3
 72
8
 73
4
 74
0
 40
0
 40
0
 40
0
 40
0
 40
1
 40
1
 40
1
 40
1
 10
259.997986
 20
389.783175
 30
0.0
 10
259.902177
 20
389.958824
 30
0.0
 10
259.854273
 20
390.262217
 30
0.0
 10
259.854273
 20
390.821099
 30
0.0
  0
LINE
  5
156
100
AcDbEntity
  8
Layer_1
 62
5
100
AcDbLine
 10
259.854273
 20
390.821099
 30
0.0
 11
259.854273
 21
395.403932
 31
0.0
  0
LINE
  5
157
100
AcDbEntity
  8
Layer_1
 62
5
100
AcDbLine
 10
259.854273
 20
395.403932
 30
0.0
 11
258.049882
 21
395.403932
 31
0.0
  0
LINE
  5
158
100
AcDbEntity
  8
Layer_1
 62
5
100
AcDbLine
 10
258.049882
 20
395.403932
 30
0.0
 11
258.049882
 21
390.389962
 31
0.0
  0
SPLINE
  5
159
100
AcDbEntity
  8
Layer_1
 62
5
100
AcDbSpline
 70
8
 71
3
 72
8
 73
4
 74
0
 40
0
 40
0
 40
0
 40
0
 40
1
 40
1
 40
1
 40
1
 10
258.049882
 20
390.389962
 30
0.0
 10
258.049882
 20
388.633475
 30
0.0
 10
258.816349
 20
387.851040
 30
0.0
 10
260.556868
 20
387.851040
 30
0.0
  0
SPLINE
  5
15a
100
AcDbEntity
  8
Layer_1
 62
5
100
AcDbSpline
 70
8
 71
3
 72
8
 73
4
 74
0
 40
0
 40
0
 40
0
 40
0
 40
1
 40
1
 40
1
 40
1
 10
260.556868
 20
387.851040
 30
0.0
 10
261.866248
 20
387.851040
 30
0.0
 10
262.584811
 20
388.266210
 30
0.0
 10
262.952076
 20
389.240261
 30
0.0
  0
LINE
  5
15b
100
AcDbEntity
  8
Layer_1
 62
5
100
AcDbLine
 10
262.952076
 20
389.240261
 30
0.0
 11
262.984012
 21
389.224293
 31
0.0
  0
LINE
  5
15c
100
AcDbEntity
  8
Layer_1
 62
5
100
AcDbLine
 10
262.984012
 20
389.224293
 30
0.0
 11
262.888204
 21
387.946849
 31
0.0
  0
LINE
  5
15d
100
AcDbEntity
  8
Layer_1
 62
5
100
AcDbLine
 10
262.888204
 20
387.946849
 30
0.0
 11
264.692595
 21
387.946849
 31
0.0
  0
LINE
  5
15e
100
AcDbEntity
  8
Layer_1
 62
5
100
AcDbLine
 10
264.692595
 20
387.946849
 30
0.0
 11
264.692595
 21
395.403932
 31
0.0
  0
SPLINE
  5
15f
100
AcDbEntity
  8
Layer_1
 62
5
100
AcDbSpline
 70
8
 71
3
 72
8
 73
4
 74
0
 40
0
 40
0
 40
0
 40
0
 40
1
 40
1
 40
1
 40
1
 10
272.666892
 20
393.360020
 30
0.0
 10
272.666892
 20
395.052635
 30
0.0
 10
271.996234
 20
395.499740
 30
0.0
 10
269.505217
 20
395.499740
 30
0.0
  0
SPLINE
  5
160
100
AcDbEntity
  8
Layer_1
 62
5
100
AcDbSpline
 70
8
 71
3
 72
8
 73
4
 74
0
 40
0
 40
0
 40
0
 40
0
 40
1
 40
1
 40
1
 40
1
 10
269.505217
 20
395.499740
 30
0.0
 10
266.854519
 20
395.499740
 30
0.0
 10
266.151924
 20
395.036667
 30
0.0
 10
266.151924
 20
393.280180
 30
0.0
  0
SPLINE
  5
161
100
AcDbEntity
  8
Layer_1
 62
5
100
AcDbSpline
 70
8
 71
3
 72
8
 73
4
 74
0
 40
0
 40
0
 40
0
 40
0
 40
1
 40
1
 40
1
 40
1
 10
266.151924
 20
393.280180
 30
0.0
 10
266.151924
 20
391.427885
 30
0.0
 10
266.806615
 20
391.060620
 30
0.0
 10
270.080067
 20
391.028684
 30
0.0
  0
SPLINE
  5
162
100
AcDbEntity
  8
Layer_1
 62
5
100
AcDbSpline
 70
8
 71
3
 72
8
 73
4
 74
0
 40
0
 40
0
 40
0
 40
0
 40
1
 40
1
 40
1
 40
1
 10
270.080067
 20
391.028684
 30
0.0
 10
270.926374
 20
391.012716
 30
0.0
 10
271.149927
 20
390.821099
 30
0.0
 10
271.149927
 20
390.102536
 30
0.0
  0
SPLINE
  5
163
100
AcDbEntity
  8
Layer_1
 62
5
100
AcDbSpline
 70
8
 71
3
 72
8
 73
4
 74
0
 40
0
 40
0
 40
0
 40
0
 40
1
 40
1
 40
1
 40
1
 10
271.149927
 20
390.102536
 30
0.0
 10
271.149927
 20
389.304134
 30
0.0
 10
270.830566
 20
389.112517
 30
0.0
 10
269.521185
 20
389.112517
 30
0.0
  0
SPLINE
  5
164
100
AcDbEntity
  8
Layer_1
 62
5
100
AcDbSpline
 70
8
 71
3
 72
8
 73
4
 74
0
 40
0
 40
0
 40
0
 40
0
 40
1
 40
1
 40
1
 40
1
 10
269.521185
 20
389.112517
 30
0.0
 10
268.227772
 20
389.112517
 30
0.0
 10
267.956315
 20
389.288165
 30
0.0
 10
267.956315
 20
390.070600
 30
0.0
  0
LINE
  5
165
100
AcDbEntity
  8
Layer_1
 62
5
100
AcDbLine
 10
267.956315
 20
390.070600
 30
0.0
 11
267.956315
 21
390.294153
 31
0.0
  0
LINE
  5
166
100
AcDbEntity
  8
Layer_1
 62
5
100
AcDbLine
 10
267.956315
 20
390.294153
 30
0.0
 11
266.104020
 21
390.294153
 31
0.0
  0
SPLINE
  5
167
100
AcDbEntity
  8
Layer_1
 62
5
100
AcDbSpline
 70
8
 71
3
 72
8
 73
4
 74
0
 40
0
 40
0
 40
0
 40
0
 40
1
 40
1
 40
1
 40
1
 10
266.104020
 20
390.294153
 30
0.0
 10
266.104020
 20
389.623495
 30
0.0
 10
266.119988
 20
389.479782
 30
0.0
 10
266.231765
 20
389.144453
 30
0.0
  0
SPLINE
  5
168
100
AcDbEntity
  8
Layer_1
 62
5
100
AcDbSpline
 70
8
 71
3
 72
8
 73
4
 74
0
 40
0
 40
0
 40
0
 40
0
 40
1
 40
1
 40
1
 40
1
 10
266.231765
 20
389.144453
 30
0.0
 10
266.519190
 20
388.186369
 30
0.0
 10
267.365497
 20
387.851040
 30
0.0
 10
269.425376
 20
387.851040
 30
0.0
  0
SPLINE
  5
169
100
AcDbEntity
  8
Layer_1
 62
5
100
AcDbSpline
 70
8
 71
3
 72
8
 73
4
 74
0
 40
0
 40
0
 40
0
 40
0
 40
1
 40
1
 40
1
 40
1
 10
269.425376
 20
387.851040
 30
0.0
 10
270.974278
 20
387.851040
 30
0.0
 10
271.724777
 20
388.010721
 30
0.0
 10
272.251723
 20
388.441858
 30
0.0
  0
SPLINE
  5
16a
100
AcDbEntity
  8
Layer_1
 62
5
100
AcDbSpline
 70
8
 71
3
 72
8
 73
4
 74
0
 40
0
 40
0
 40
0
 40
0
 40
1
 40
1
 40
1
 40
1
 10
272.251723
 20
388.441858
 30
0.0
 10
272.698828
 20
388.825092
 30
0.0
 10
272.938349
 20
389.431878
 30
0.0
 10
272.938349
 20
390.246249
 30
0.0
  0
SPLINE
  5
16b
100
AcDbEntity
  8
Layer_1
 62
5
100
AcDbSpline
 70
8
 71
3
 72
8
 73
4
 74
0
 40
0
 40
0
 40
0
 40
0
 40
1
 40
1
 40
1
 40
1
 10
272.938349
 20
390.246249
 30
0.0
 10
272.938349
 20
391.060620
 30
0.0
 10
272.714797
 20
391.651438
 30
0.0
 10
272.267691
 20
391.986767
 30
0.0
  0
SPLINE
  5
16c
100
AcDbEntity
  8
Layer_1
 62
5
100
AcDbSpline
 70
8
 71
3
 72
8
 73
4
 74
0
 40
0
 40
0
 40
0
 40
0
 40
1
 40
1
 40
1
 40
1
 10
272.267691
 20
391.986767
 30
0.0
 10
271.868489
 20
392.290161
 30
0.0
 10
271.469288
 20
392.370001
 30
0.0
 10
269.840546
 20
392.449841
 30
0.0
  0
SPLINE
  5
16d
100
AcDbEntity
  8
Layer_1
 62
5
100
AcDbSpline
 70
8
 71
3
 72
8
 73
4
 74
0
 40
0
 40
0
 40
0
 40
0
 40
1
 40
1
 40
1
 40
1
 10
269.840546
 20
392.449841
 30
0.0
 10
268.595037
 20
392.497745
 30
0.0
 10
268.515197
 20
392.513713
 30
0.0
 10
268.339548
 20
392.561618
 30
0.0
  0
SPLINE
  5
16e
100
AcDbEntity
  8
Layer_1
 62
5
100
AcDbSpline
 70
8
 71
3
 72
8
 73
4
 74
0
 40
0
 40
0
 40
0
 40
0
 40
1
 40
1
 40
1
 40
1
 10
268.339548
 20
392.561618
 30
0.0
 10
268.052123
 20
392.657426
 30
0.0
 10
267.924379
 20
392.896947
 30
0.0
 10
267.924379
 20
393.360020
 30
0.0
  0
SPLINE
  5
16f
100
AcDbEntity
  8
Layer_1
 62
5
100
AcDbSpline
 70
8
 71
3
 72
8
 73
4
 74
0
 40
0
 40
0
 40
0
 40
0
 40
1
 40
1
 40
1
 40
1
 10
267.924379
 20
393.360020
 30
0.0
 10
267.924379
 20
394.126487
 30
0.0
 10
268.147932
 20
394.254232
 30
0.0
 10
269.441345
 20
394.254232
 30
0.0
  0
SPLINE
  5
170
100
AcDbEntity
  8
Layer_1
 62
5
100
AcDbSpline
 70
8
 71
3
 72
8
 73
4
 74
0
 40
0
 40
0
 40
0
 40
0
 40
1
 40
1
 40
1
 40
1
 10
269.441345
 20
394.254232
 30
0.0
 10
270.702821
 20
394.254232
 30
0.0
 10
270.830566
 20
394.174391
 30
0.0
 10
270.910406
 20
393.360020
 30
0.0
  0
LINE
  5
171
100
AcDbEntity
  8
Layer_1
 62
5
100
AcDbLine
 10
270.910406
 20
393.360020
 30
0.0
 11
272.666892
 21
393.360020
 31
0.0
  0
LINE
  5
172
100
AcDbEntity
  8
Layer_1
 62
5
100
AcDbLine
 10
278.401915
 20
398.597824
 30
0.0
 11
278.401915
 21
387.947287
 31
0.0
  0
LINE
  5
173
100
AcDbEntity
  8
Layer_1
 62
5
100
AcDbLine
 10
278.401915
 20
387.947287
 30
0.0
 11
280.445755
 21
387.947287
 31
0.0
  0
LINE
  5
174
100
AcDbEntity
  8
Layer_1
 62
5
100
AcDbLine
 10
280.445755
 20
387.947287
 30
0.0
 11
280.445755
 21
389.639694
 31
0.0
  0
LINE
  5
175
100
AcDbEntity
  8
Layer_1
 62
5
100
AcDbLine
 10
280.445755
 20
389.639694
 30
0.0
 11
280.445755
 21
392.609840
 31
0.0
  0
LINE
  5
176
100
AcDbEntity
  8
Layer_1
 62
5
100
AcDbLine
 10
280.445755
 20
392.609840
 30
0.0
 11
280.445755
 21
394.126498
 31
0.0
  0
LINE
  5
177
100
AcDbEntity
  8
Layer_1
 62
5
100
AcDbLine
 10
280.445755
 20
394.126498
 30
0.0
 11
280.445755
 21
395.857667
 31
0.0
  0
LINE
  5
178
100
AcDbEntity
  8
Layer_1
 62
5
100
AcDbLine
 10
280.445755
 20
395.857667
 30
0.0
 11
280.445755
 21
396.905417
 31
0.0
  0
LINE
  5
179
100
AcDbEntity
  8
Layer_1
 62
5
100
AcDbLine
 10
280.445755
 20
396.905417
 30
0.0
 11
283.335732
 21
396.905417
 31
0.0
  0
SPLINE
  5
17a
100
AcDbEntity
  8
Layer_1
 62
5
100
AcDbSpline
 70
8
 71
3
 72
8
 73
4
 74
0
 40
0
 40
0
 40
0
 40
0
 40
1
 40
1
 40
1
 40
1
 10
283.335732
 20
396.905417
 30
0.0
 10
283.910606
 20
396.905417
 30
0.0
 10
284.133716
 20
396.873005
 30
0.0
 10
284.325340
 20
396.793035
 30
0.0
  0
SPLINE
  5
17b
100
AcDbEntity
  8
Layer_1
 62
5
100
AcDbSpline
 70
8
 71
3
 72
8
 73
4
 74
0
 40
0
 40
0
 40
0
 40
0
 40
1
 40
1
 40
1
 40
1
 10
284.325340
 20
396.793035
 30
0.0
 10
284.660699
 20
396.617352
 30
0.0
 10
284.804633
 20
396.282058
 30
0.0
 10
284.804633
 20
395.595398
 30
0.0
  0
SPLINE
  5
17c
100
AcDbEntity
  8
Layer_1
 62
5
100
AcDbSpline
 70
8
 71
3
 72
8
 73
4
 74
0
 40
0
 40
0
 40
0
 40
0
 40
1
 40
1
 40
1
 40
1
 10
284.804633
 20
395.595398
 30
0.0
 10
284.804633
 20
394.860915
 30
0.0
 10
284.677434
 20
394.509350
 30
0.0
 10
284.342141
 20
394.317726
 30
0.0
  0
SPLINE
  5
17d
100
AcDbEntity
  8
Layer_1
 62
5
100
AcDbSpline
 70
8
 71
3
 72
8
 73
4
 74
0
 40
0
 40
0
 40
0
 40
0
 40
1
 40
1
 40
1
 40
1
 10
284.342141
 20
394.317726
 30
0.0
 10
284.086620
 20
394.173991
 30
0.0
 10
283.783275
 20
394.126498
 30
0.0
 10
282.920998
 20
394.126498
 30
0.0
  0
LINE
  5
17e
100
AcDbEntity
  8
Layer_1
 62
5
100
AcDbLine
 10
282.920998
 20
394.126498
 30
0.0
 11
281.445681
 21
394.126498
 31
0.0
  0
LINE
  5
17f
100
AcDbEntity
  8
Layer_1
 62
5
100
AcDbLine
 10
281.445681
 20
394.126498
 30
0.0
 11
281.445681
 21
392.609840
 31
0.0
  0
LINE
  5
180
100
AcDbEntity
  8
Layer_1
 62
5
100
AcDbLine
 10
281.445681
 20
392.609840
 30
0.0
 11
283.032123
 21
392.609840
 31
0.0
  0
SPLINE
  5
181
100
AcDbEntity
  8
Layer_1
 62
5
100
AcDbSpline
 70
8
 71
3
 72
8
 73
4
 74
0
 40
0
 40
0
 40
0
 40
0
 40
1
 40
1
 40
1
 40
1
 10
283.032123
 20
392.609840
 30
0.0
 10
284.006186
 20
392.609840
 30
0.0
 10
284.261509
 20
392.593965
 30
0.0
 10
284.501023
 20
392.481914
 30
0.0
  0
SPLINE
  5
182
100
AcDbEntity
  8
Layer_1
 62
5
100
AcDbSpline
 70
8
 71
3
 72
8
 73
4
 74
0
 40
0
 40
0
 40
0
 40
0
 40
1
 40
1
 40
1
 40
1
 10
284.501023
 20
392.481914
 30
0.0
 10
284.916221
 20
392.290290
 30
0.0
 10
285.060419
 20
391.922651
 30
0.0
 10
285.060419
 20
391.076315
 30
0.0
  0
SPLINE
  5
183
100
AcDbEntity
  8
Layer_1
 62
5
100
AcDbSpline
 70
8
 71
3
 72
8
 73
4
 74
0
 40
0
 40
0
 40
0
 40
0
 40
1
 40
1
 40
1
 40
1
 10
285.060419
 20
391.076315
 30
0.0
 10
285.060419
 20
389.798841
 30
0.0
 10
284.788956
 20
389.639694
 30
0.0
 10
282.665212
 20
389.639694
 30
0.0
  0
LINE
  5
184
100
AcDbEntity
  8
Layer_1
 62
5
100
AcDbLine
 10
282.665212
 20
389.639694
 30
0.0
 11
281.445681
 21
389.639694
 31
0.0
  0
LINE
  5
185
100
AcDbEntity
  8
Layer_1
 62
5
100
AcDbLine
 10
281.445681
 20
389.639694
 30
0.0
 11
281.445681
 21
387.947287
 31
0.0
  0
LINE
  5
186
100
AcDbEntity
  8
Layer_1
 62
5
100
AcDbLine
 10
281.445681
 20
387.947287
 30
0.0
 11
283.942951
 21
387.947287
 31
0.0
  0
SPLINE
  5
187
100
AcDbEntity
  8
Layer_1
 62
5
100
AcDbSpline
 70
8
 71
3
 72
8
 73
4
 74
0
 40
0
 40
0
 40
0
 40
0
 40
1
 40
1
 40
1
 40
1
 10
283.942951
 20
387.947287
 30
0.0
 10
286.274261
 20
387.947287
 30
0.0
 10
287.088714
 20
388.713917
 30
0.0
 10
287.088714
 20
390.869609
 30
0.0
  0
SPLINE
  5
188
100
AcDbEntity
  8
Layer_1
 62
5
100
AcDbSpline
 70
8
 71
3
 72
8
 73
4
 74
0
 40
0
 40
0
 40
0
 40
0
 40
1
 40
1
 40
1
 40
1
 10
287.088714
 20
390.869609
 30
0.0
 10
287.088714
 20
392.578222
 30
0.0
 10
286.657642
 20
393.184647
 30
0.0
 10
285.268447
 20
393.408220
 30
0.0
  0
LINE
  5
189
100
AcDbEntity
  8
Layer_1
 62
5
100
AcDbLine
 10
285.268447
 20
393.408220
 30
0.0
 11
285.268447
 21
393.455845
 31
0.0
  0
SPLINE
  5
18a
100
AcDbEntity
  8
Layer_1
 62
5
100
AcDbSpline
 70
8
 71
3
 72
8
 73
4
 74
0
 40
0
 40
0
 40
0
 40
0
 40
1
 40
1
 40
1
 40
1
 10
285.268447
 20
393.455845
 30
0.0
 10
286.418128
 20
393.711301
 30
0.0
 10
286.832928
 20
394.334130
 30
0.0
 10
286.832928
 20
395.803229
 30
0.0
  0
SPLINE
  5
18b
100
AcDbEntity
  8
Layer_1
 62
5
100
AcDbSpline
 70
8
 71
3
 72
8
 73
4
 74
0
 40
0
 40
0
 40
0
 40
0
 40
1
 40
1
 40
1
 40
1
 10
286.832928
 20
395.803229
 30
0.0
 10
286.832928
 20
397.096644
 30
0.0
 10
286.513643
 20
397.862547
 30
0.0
 10
285.811042
 20
398.261737
 30
0.0
  0
SPLINE
  5
18c
100
AcDbEntity
  8
Layer_1
 62
5
100
AcDbSpline
 70
8
 71
3
 72
8
 73
4
 74
0
 40
0
 40
0
 40
0
 40
0
 40
1
 40
1
 40
1
 40
1
 10
285.811042
 20
398.261737
 30
0.0
 10
285.363962
 20
398.501251
 30
0.0
 10
284.788559
 20
398.597625
 30
0.0
 10
283.654820
 20
398.597625
 30
0.0
  0
LINE
  5
18d
100
AcDbEntity
  8
Layer_1
 62
5
100
AcDbLine
 10
283.654820
 20
398.597625
 30
0.0
 11
278.401915
 21
398.597824
 31
0.0
  0
LINE
  5
18e
100
AcDbEntity
  8
Layer_1
 62
5
100
AcDbLine
 10
290.309359
 20
398.597544
 30
0.0
 11
288.504968
 21
398.597544
 31
0.0
  0
LINE
  5
18f
100
AcDbEntity
  8
Layer_1
 62
5
100
AcDbLine
 10
288.504968
 20
398.597544
 30
0.0
 11
288.504968
 21
397.064610
 31
0.0
  0
LINE
  5
190
100
AcDbEntity
  8
Layer_1
 62
5
100
AcDbLine
 10
288.504968
 20
397.064610
 30
0.0
 11
290.309359
 21
397.064610
 31
0.0
  0
LINE
  5
191
100
AcDbEntity
  8
Layer_1
 62
5
100
AcDbLine
 10
290.309359
 20
397.064610
 30
0.0
 11
290.309359
 21
398.597544
 31
0.0
  0
LINE
  5
192
100
AcDbEntity
  8
Layer_1
 62
5
100
AcDbLine
 10
290.309359
 20
395.403932
 30
0.0
 11
288.504968
 21
395.403932
 31
0.0
  0
LINE
  5
193
100
AcDbEntity
  8
Layer_1
 62
5
100
AcDbLine
 10
288.504968
 20
395.403932
 30
0.0
 11
288.504968
 21
387.946849
 31
0.0
  0
LINE
  5
194
100
AcDbEntity
  8
Layer_1
 62
5
100
AcDbLine
 10
288.504968
 20
387.946849
 30
0.0
 11
290.309359
 21
387.946849
 31
0.0
  0
LINE
  5
195
100
AcDbEntity
  8
Layer_1
 62
5
100
AcDbLine
 10
290.309359
 20
387.946849
 30
0.0
 11
290.309359
 21
395.403932
 31
0.0
  0
SPLINE
  5
196
100
AcDbEntity
  8
Layer_1
 62
5
100
AcDbSpline
 70
8
 71
3
 72
8
 73
4
 74
0
 40
0
 40
0
 40
0
 40
0
 40
1
 40
1
 40
1
 40
1
 10
295.366005
 20
395.499818
 30
0.0
 10
293.785186
 20
395.499818
 30
0.0
 10
293.114071
 20
395.355686
 30
0.0
 10
292.587087
 20
394.892599
 30
0.0
  0
SPLINE
  5
197
100
AcDbEntity
  8
Layer_1
 62
5
100
AcDbSpline
 70
8
 71
3
 72
8
 73
4
 74
0
 40
0
 40
0
 40
0
 40
0
 40
1
 40
1
 40
1
 40
1
 10
292.587087
 20
394.892599
 30
0.0
 10
292.012279
 20
394.381622
 30
0.0
 10
291.788707
 20
393.583573
 30
0.0
 10
291.788707
 20
391.954798
 30
0.0
  0
SPLINE
  5
198
100
AcDbEntity
  8
Layer_1
 62
5
100
AcDbSpline
 70
8
 71
3
 72
8
 73
4
 74
0
 40
0
 40
0
 40
0
 40
0
 40
1
 40
1
 40
1
 40
1
 10
291.788707
 20
391.954798
 30
0.0
 10
291.788707
 20
390.134465
 30
0.0
 10
291.900758
 20
389.447606
 30
0.0
 10
292.267999
 20
388.856792
 30
0.0
  0
SPLINE
  5
199
100
AcDbEntity
  8
Layer_1
 62
5
100
AcDbSpline
 70
8
 71
3
 72
8
 73
4
 74
0
 40
0
 40
0
 40
0
 40
0
 40
1
 40
1
 40
1
 40
1
 10
292.267999
 20
388.856792
 30
0.0
 10
292.665999
 20
388.203006
 30
0.0
 10
293.419598
 20
387.928832
 30
0.0
 10
294.810513
 20
387.873666
 30
0.0
  0
LINE
  5
19a
100
AcDbEntity
  8
Layer_1
 62
5
100
AcDbLine
 10
294.810513
 20
387.873666
 30
0.0
 11
294.810513
 21
389.274106
 31
0.0
  0
SPLINE
  5
19b
100
AcDbEntity
  8
Layer_1
 62
5
100
AcDbSpline
 70
8
 71
3
 72
8
 73
4
 74
0
 40
0
 40
0
 40
0
 40
0
 40
1
 40
1
 40
1
 40
1
 10
294.810513
 20
389.274106
 30
0.0
 10
293.786972
 20
389.359500
 30
0.0
 10
293.625775
 20
389.825431
 30
0.0
 10
293.625775
 20
391.746835
 30
0.0
  0
SPLINE
  5
19c
100
AcDbEntity
  8
Layer_1
 62
5
100
AcDbSpline
 70
8
 71
3
 72
8
 73
4
 74
0
 40
0
 40
0
 40
0
 40
0
 40
1
 40
1
 40
1
 40
1
 10
293.625775
 20
391.746835
 30
0.0
 10
293.625775
 20
393.790742
 30
0.0
 10
293.848289
 20
394.094219
 30
0.0
 10
295.301381
 20
394.094219
 30
0.0
  0
SPLINE
  5
19d
100
AcDbEntity
  8
Layer_1
 62
5
100
AcDbSpline
 70
8
 71
3
 72
8
 73
4
 74
0
 40
0
 40
0
 40
0
 40
0
 40
1
 40
1
 40
1
 40
1
 10
295.301381
 20
394.094219
 30
0.0
 10
296.770480
 20
394.094219
 30
0.0
 10
296.995111
 20
393.791006
 30
0.0
 10
296.995111
 20
391.826938
 30
0.0
  0
SPLINE
  5
19e
100
AcDbEntity
  8
Layer_1
 62
5
100
AcDbSpline
 70
8
 71
3
 72
8
 73
4
 74
0
 40
0
 40
0
 40
0
 40
0
 40
1
 40
1
 40
1
 40
1
 10
296.995111
 20
391.826938
 30
0.0
 10
296.995111
 20
389.871535
 30
0.0
 10
296.834774
 20
389.375177
 30
0.0
 10
295.810439
 20
389.278008
 30
0.0
  0
LINE
  5
19f
100
AcDbEntity
  8
Layer_1
 62
5
100
AcDbLine
 10
295.810439
 20
389.278008
 30
0.0
 11
295.810439
 21
387.868507
 31
0.0
  0
SPLINE
  5
1a0
100
AcDbEntity
  8
Layer_1
 62
5
100
AcDbSpline
 70
8
 71
3
 72
8
 73
4
 74
0
 40
0
 40
0
 40
0
 40
0
 40
1
 40
1
 40
1
 40
1
 10
295.810439
 20
387.868507
 30
0.0
 10
298.271726
 20
387.956084
 30
0.0
 10
298.830923
 20
388.745468
 30
0.0
 10
298.830923
 20
391.859217
 30
0.0
  0
SPLINE
  5
1a1
100
AcDbEntity
  8
Layer_1
 62
5
100
AcDbSpline
 70
8
 71
3
 72
8
 73
4
 74
0
 40
0
 40
0
 40
0
 40
0
 40
1
 40
1
 40
1
 40
1
 10
298.830923
 20
391.859217
 30
0.0
 10
298.830923
 20
393.551823
 30
0.0
 10
298.623688
 20
394.350203
 30
0.0
 10
298.064821
 20
394.877121
 30
0.0
  0
SPLINE
  5
1a2
100
AcDbEntity
  8
Layer_1
 62
5
100
AcDbSpline
 70
8
 71
3
 72
8
 73
4
 74
0
 40
0
 40
0
 40
0
 40
0
 40
1
 40
1
 40
1
 40
1
 10
298.064821
 20
394.877121
 30
0.0
 10
297.569786
 20
395.340208
 30
0.0
 10
296.882994
 20
395.499818
 30
0.0
 10
295.366005
 20
395.499818
 30
0.0
  0
LINE
  5
1a3
100
AcDbEntity
  8
Layer_1
 62
5
100
AcDbLine
 10
295.366005
 20
395.499818
 30
0.0
 11
295.366005
 21
395.499818
 31
0.0
  0
LINE
  5
1a4
100
AcDbEntity
  8
Layer_1
 62
5
100
AcDbLine
 10
305.303354
 20
395.403932
 30
0.0
 11
302.461039
 21
395.403932
 31
0.0
  0
LINE
  5
1a5
100
AcDbEntity
  8
Layer_1
 62
5
100
AcDbLine
 10
302.461039
 20
395.403932
 30
0.0
 11
302.461039
 21
397.064610
 31
0.0
  0
LINE
  5
1a6
100
AcDbEntity
  8
Layer_1
 62
5
100
AcDbLine
 10
302.461039
 20
397.064610
 30
0.0
 11
300.656648
 21
397.064610
 31
0.0
  0
LINE
  5
1a7
100
AcDbEntity
  8
Layer_1
 62
5
100
AcDbLine
 10
300.656648
 20
397.064610
 30
0.0
 11
300.656648
 21
395.403932
 31
0.0
  0
LINE
  5
1a8
100
AcDbEntity
  8
Layer_1
 62
5
100
AcDbLine
 10
300.656648
 20
395.403932
 30
0.0
 11
299.682597
 21
395.403932
 31
0.0
  0
LINE
  5
1a9
100
AcDbEntity
  8
Layer_1
 62
5
100
AcDbLine
 10
299.682597
 20
395.403932
 30
0.0
 11
299.682597
 21
394.046647
 31
0.0
  0
LINE
  5
1aa
100
AcDbEntity
  8
Layer_1
 62
5
100
AcDbLine
 10
299.682597
 20
394.046647
 30
0.0
 11
300.656648
 21
394.046647
 31
0.0
  0
LINE
  5
1ab
100
AcDbEntity
  8
Layer_1
 62
5
100
AcDbLine
 10
300.656648
 20
394.046647
 30
0.0
 11
300.656648
 21
390.054632
 31
0.0
  0
SPLINE
  5
1ac
100
AcDbEntity
  8
Layer_1
 62
5
100
AcDbSpline
 70
8
 71
3
 72
8
 73
4
 74
0
 40
0
 40
0
 40
0
 40
0
 40
1
 40
1
 40
1
 40
1
 10
300.656648
 20
390.054632
 30
0.0
 10
300.656648
 20
389.336070
 30
0.0
 10
300.688585
 20
389.080581
 30
0.0
 10
300.848265
 20
388.777188
 30
0.0
  0
SPLINE
  5
1ad
100
AcDbEntity
  8
Layer_1
 62
5
100
AcDbSpline
 70
8
 71
3
 72
8
 73
4
 74
0
 40
0
 40
0
 40
0
 40
0
 40
1
 40
1
 40
1
 40
1
 10
300.848265
 20
388.777188
 30
0.0
 10
301.183594
 20
388.122497
 30
0.0
 10
301.806349
 20
387.851040
 30
0.0
 10
303.051857
 20
387.851040
 30
0.0
  0
SPLINE
  5
1ae
100
AcDbEntity
  8
Layer_1
 62
5
100
AcDbSpline
 70
8
 71
3
 72
8
 73
4
 74
0
 40
0
 40
0
 40
0
 40
0
 40
1
 40
1
 40
1
 40
1
 10
303.051857
 20
387.851040
 30
0.0
 10
304.201557
 20
387.851040
 30
0.0
 10
304.824312
 20
388.058625
 30
0.0
 10
305.207545
 20
388.553635
 30
0.0
  0
SPLINE
  5
1af
100
AcDbEntity
  8
Layer_1
 62
5
100
AcDbSpline
 70
8
 71
3
 72
8
 73
4
 74
0
 40
0
 40
0
 40
0
 40
0
 40
1
 40
1
 40
1
 40
1
 10
305.207545
 20
388.553635
 30
0.0
 10
305.510938
 20
388.968804
 30
0.0
 10
305.606747
 20
389.352038
 30
0.0
 10
305.606747
 20
390.389962
 30
0.0
  0
LINE
  5
1b0
100
AcDbEntity
  8
Layer_1
 62
5
100
AcDbLine
 10
305.606747
 20
390.389962
 30
0.0
 11
305.606747
 21
390.821099
 31
0.0
  0
LINE
  5
1b1
100
AcDbEntity
  8
Layer_1
 62
5
100
AcDbLine
 10
305.606747
 20
390.821099
 30
0.0
 11
304.089781
 21
390.821099
 31
0.0
  0
SPLINE
  5
1b2
100
AcDbEntity
  8
Layer_1
 62
5
100
AcDbSpline
 70
8
 71
3
 72
8
 73
4
 74
0
 40
0
 40
0
 40
0
 40
0
 40
1
 40
1
 40
1
 40
1
 10
304.089781
 20
390.821099
 30
0.0
 10
304.105749
 20
390.661419
 30
0.0
 10
304.105749
 20
390.581578
 30
0.0
 10
304.105749
 20
390.517706
 30
0.0
  0
SPLINE
  5
1b3
100
AcDbEntity
  8
Layer_1
 62
5
100
AcDbSpline
 70
8
 71
3
 72
8
 73
4
 74
0
 40
0
 40
0
 40
0
 40
0
 40
1
 40
1
 40
1
 40
1
 10
304.105749
 20
390.517706
 30
0.0
 10
304.105749
 20
389.495750
 30
0.0
 10
303.930100
 20
389.240261
 30
0.0
 10
303.227506
 20
389.240261
 30
0.0
  0
SPLINE
  5
1b4
100
AcDbEntity
  8
Layer_1
 62
5
100
AcDbSpline
 70
8
 71
3
 72
8
 73
4
 74
0
 40
0
 40
0
 40
0
 40
0
 40
1
 40
1
 40
1
 40
1
 10
303.227506
 20
389.240261
 30
0.0
 10
302.604752
 20
389.240261
 30
0.0
 10
302.461039
 20
389.447846
 30
0.0
 10
302.461039
 20
390.310121
 30
0.0
  0
LINE
  5
1b5
100
AcDbEntity
  8
Layer_1
 62
5
100
AcDbLine
 10
302.461039
 20
390.310121
 30
0.0
 11
302.461039
 21
394.046647
 31
0.0
  0
LINE
  5
1b6
100
AcDbEntity
  8
Layer_1
 62
5
100
AcDbLine
 10
302.461039
 20
394.046647
 30
0.0
 11
305.303354
 21
394.046647
 31
0.0
  0
LINE
  5
1b7
100
AcDbEntity
  8
Layer_1
 62
5
100
AcDbLine
 10
305.303354
 20
394.046647
 30
0.0
 11
305.303354
 21
395.403932
 31
0.0
  0
SPLINE
  5
1b8
100
AcDbEntity
  8
Layer_1
 62
5
100
AcDbSpline
 70
8
 71
3
 72
8
 73
4
 74
0
 40
0
 40
0
 40
0
 40
0
 40
1
 40
1
 40
1
 40
1
 10
310.084776
 20
395.499818
 30
0.0
 10
308.583729
 20
395.499818
 30
0.0
 10
307.753995
 20
395.260767
 30
0.0
 10
307.227011
 20
394.685893
 30
0.0
  0
SPLINE
  5
1b9
100
AcDbEntity
  8
Layer_1
 62
5
100
AcDbSpline
 70
8
 71
3
 72
8
 73
4
 74
0
 40
0
 40
0
 40
0
 40
0
 40
1
 40
1
 40
1
 40
1
 10
307.227011
 20
394.685893
 30
0.0
 10
306.747983
 20
394.142968
 30
0.0
 10
306.572035
 20
393.344522
 30
0.0
 10
306.572035
 20
391.715813
 30
0.0
  0
SPLINE
  5
1ba
100
AcDbEntity
  8
Layer_1
 62
5
100
AcDbSpline
 70
8
 71
3
 72
8
 73
4
 74
0
 40
0
 40
0
 40
0
 40
0
 40
1
 40
1
 40
1
 40
1
 10
306.572035
 20
391.715813
 30
0.0
 10
306.572035
 20
388.554108
 30
0.0
 10
307.242093
 20
387.850383
 30
0.0
 10
310.228180
 20
387.850383
 30
0.0
  0
SPLINE
  5
1bb
100
AcDbEntity
  8
Layer_1
 62
5
100
AcDbSpline
 70
8
 71
3
 72
8
 73
4
 74
0
 40
0
 40
0
 40
0
 40
0
 40
1
 40
1
 40
1
 40
1
 10
310.228180
 20
387.850383
 30
0.0
 10
312.687218
 20
387.850383
 30
0.0
 10
313.438568
 20
388.425521
 30
0.0
 10
313.438568
 20
390.325692
 30
0.0
  0
LINE
  5
1bc
100
AcDbEntity
  8
Layer_1
 62
5
100
AcDbLine
 10
313.438568
 20
390.325692
 30
0.0
 11
311.649257
 21
390.325692
 31
0.0
  0
SPLINE
  5
1bd
100
AcDbEntity
  8
Layer_1
 62
5
100
AcDbSpline
 70
8
 71
3
 72
8
 73
4
 74
0
 40
0
 40
0
 40
0
 40
0
 40
1
 40
1
 40
1
 40
1
 10
311.649257
 20
390.325692
 30
0.0
 10
311.633382
 20
389.367636
 30
0.0
 10
311.394133
 20
389.192680
 30
0.0
 10
310.084776
 20
389.192680
 30
0.0
  0
SPLINE
  5
1be
100
AcDbEntity
  8
Layer_1
 62
5
100
AcDbSpline
 70
8
 71
3
 72
8
 73
4
 74
0
 40
0
 40
0
 40
0
 40
0
 40
1
 40
1
 40
1
 40
1
 10
310.084776
 20
389.192680
 30
0.0
 10
308.711522
 20
389.192680
 30
0.0
 10
308.392369
 20
389.543849
 30
0.0
 10
308.392369
 20
391.060837
 30
0.0
  0
LINE
  5
1bf
100
AcDbEntity
  8
Layer_1
 62
5
100
AcDbLine
 10
308.392369
 20
391.060837
 30
0.0
 11
308.392369
 21
391.347645
 31
0.0
  0
LINE
  5
1c0
100
AcDbEntity
  8
Layer_1
 62
5
100
AcDbLine
 10
308.392369
 20
391.347645
 30
0.0
 11
309.504677
 21
391.347645
 31
0.0
  0
LINE
  5
1c1
100
AcDbEntity
  8
Layer_1
 62
5
100
AcDbLine
 10
309.504677
 20
391.347645
 30
0.0
 11
309.504677
 21
392.466436
 31
0.0
  0
LINE
  5
1c2
100
AcDbEntity
  8
Layer_1
 62
5
100
AcDbLine
 10
309.504677
 20
392.466436
 30
0.0
 11
308.407847
 21
392.466436
 31
0.0
  0
SPLINE
  5
1c3
100
AcDbEntity
  8
Layer_1
 62
5
100
AcDbSpline
 70
8
 71
3
 72
8
 73
4
 74
0
 40
0
 40
0
 40
0
 40
0
 40
1
 40
1
 40
1
 40
1
 10
308.407847
 20
392.466436
 30
0.0
 10
308.423722
 20
393.121081
 30
0.0
 10
308.440258
 20
393.327589
 30
0.0
 10
308.535773
 20
393.567103
 30
0.0
  0
SPLINE
  5
1c4
100
AcDbEntity
  8
Layer_1
 62
5
100
AcDbSpline
 70
8
 71
3
 72
8
 73
4
 74
0
 40
0
 40
0
 40
0
 40
0
 40
1
 40
1
 40
1
 40
1
 10
308.535773
 20
393.567103
 30
0.0
 10
308.727331
 20
394.030190
 30
0.0
 10
309.078367
 20
394.158843
 30
0.0
 10
310.052431
 20
394.158843
 30
0.0
  0
SPLINE
  5
1c5
100
AcDbEntity
  8
Layer_1
 62
5
100
AcDbSpline
 70
8
 71
3
 72
8
 73
4
 74
0
 40
0
 40
0
 40
0
 40
0
 40
1
 40
1
 40
1
 40
1
 10
310.052431
 20
394.158843
 30
0.0
 10
311.393736
 20
394.158843
 30
0.0
 10
311.634110
 20
393.934873
 30
0.0
 10
311.666058
 20
392.753244
 30
0.0
  0
LINE
  5
1c6
100
AcDbEntity
  8
Layer_1
 62
5
100
AcDbLine
 10
311.666058
 20
392.753244
 30
0.0
 11
311.666058
 21
392.466436
 31
0.0
  0
LINE
  5
1c7
100
AcDbEntity
  8
Layer_1
 62
5
100
AcDbLine
 10
311.666058
 20
392.466436
 30
0.0
 11
310.504604
 21
392.466436
 31
0.0
  0
LINE
  5
1c8
100
AcDbEntity
  8
Layer_1
 62
5
100
AcDbLine
 10
310.504604
 20
392.466436
 30
0.0
 11
310.504604
 21
391.347645
 31
0.0
  0
LINE
  5
1c9
100
AcDbEntity
  8
Layer_1
 62
5
100
AcDbLine
 10
310.504604
 20
391.347645
 30
0.0
 11
313.438568
 21
391.347645
 31
0.0
  0
SPLINE
  5
1ca
100
AcDbEntity
  8
Layer_1
 62
5
100
AcDbSpline
 70
8
 71
3
 72
8
 73
4
 74
0
 40
0
 40
0
 40
0
 40
0
 40
1
 40
1
 40
1
 40
1
 10
313.438568
 20
391.347645
 30
0.0
 10
313.438568
 20
392.992295
 30
0.0
 10
313.405495
 20
393.360595
 30
0.0
 10
313.246084
 20
393.887513
 30
0.0
  0
SPLINE
  5
1cb
100
AcDbEntity
  8
Layer_1
 62
5
100
AcDbSpline
 70
8
 71
3
 72
8
 73
4
 74
0
 40
0
 40
0
 40
0
 40
0
 40
1
 40
1
 40
1
 40
1
 10
313.246084
 20
393.887513
 30
0.0
 10
312.862835
 20
395.069142
 30
0.0
 10
312.032837
 20
395.499818
 30
0.0
 10
310.084776
 20
395.499818
 30
0.0
  0
LINE
  5
1cc
100
AcDbEntity
  8
Layer_1
 62
5
100
AcDbLine
 10
310.084776
 20
395.499818
 30
0.0
 11
310.084776
 21
395.499818
 31
0.0
  0
SPLINE
  5
1cd
100
AcDbEntity
  8
Layer_1
 62
5
100
AcDbSpline
 70
8
 71
3
 72
8
 73
4
 74
0
 40
0
 40
0
 40
0
 40
0
 40
1
 40
1
 40
1
 40
1
 10
319.694573
 20
390.789163
 30
0.0
 10
319.694573
 20
389.463814
 30
0.0
 10
319.502956
 20
389.256229
 30
0.0
 10
318.209543
 20
389.256229
 30
0.0
  0
SPLINE
  5
1ce
100
AcDbEntity
  8
Layer_1
 62
5
100
AcDbSpline
 70
8
 71
3
 72
8
 73
4
 74
0
 40
0
 40
0
 40
0
 40
0
 40
1
 40
1
 40
1
 40
1
 10
318.209543
 20
389.256229
 30
0.0
 10
317.506949
 20
389.256229
 30
0.0
 10
317.107747
 20
389.336070
 30
0.0
 10
316.916130
 20
389.527686
 30
0.0
  0
SPLINE
  5
1cf
100
AcDbEntity
  8
Layer_1
 62
5
100
AcDbSpline
 70
8
 71
3
 72
8
 73
4
 74
0
 40
0
 40
0
 40
0
 40
0
 40
1
 40
1
 40
1
 40
1
 10
316.916130
 20
389.527686
 30
0.0
 10
316.628705
 20
389.815111
 30
0.0
 10
316.516929
 20
390.421898
 30
0.0
 10
316.516929
 20
391.635470
 30
0.0
  0
SPLINE
  5
1d0
100
AcDbEntity
  8
Layer_1
 62
5
100
AcDbSpline
 70
8
 71
3
 72
8
 73
4
 74
0
 40
0
 40
0
 40
0
 40
0
 40
1
 40
1
 40
1
 40
1
 10
316.516929
 20
391.635470
 30
0.0
 10
316.516929
 20
393.807126
 30
0.0
 10
316.708546
 20
394.078583
 30
0.0
 10
318.161639
 20
394.078583
 30
0.0
  0
SPLINE
  5
1d1
100
AcDbEntity
  8
Layer_1
 62
5
100
AcDbSpline
 70
8
 71
3
 72
8
 73
4
 74
0
 40
0
 40
0
 40
0
 40
0
 40
1
 40
1
 40
1
 40
1
 10
318.161639
 20
394.078583
 30
0.0
 10
319.343275
 20
394.078583
 30
0.0
 10
319.614732
 20
393.839062
 30
0.0
 10
319.614732
 20
392.769202
 30
0.0
  0
LINE
  5
1d2
100
AcDbEntity
  8
Layer_1
 62
5
100
AcDbLine
 10
319.614732
 20
392.769202
 30
0.0
 11
321.371219
 21
392.769202
 31
0.0
  0
SPLINE
  5
1d3
100
AcDbEntity
  8
Layer_1
 62
5
100
AcDbSpline
 70
8
 71
3
 72
8
 73
4
 74
0
 40
0
 40
0
 40
0
 40
0
 40
1
 40
1
 40
1
 40
1
 10
321.371219
 20
392.769202
 30
0.0
 10
321.371219
 20
394.908922
 30
0.0
 10
320.652656
 20
395.499740
 30
0.0
 10
318.065831
 20
395.499740
 30
0.0
  0
SPLINE
  5
1d4
100
AcDbEntity
  8
Layer_1
 62
5
100
AcDbSpline
 70
8
 71
3
 72
8
 73
4
 74
0
 40
0
 40
0
 40
0
 40
0
 40
1
 40
1
 40
1
 40
1
 10
318.065831
 20
395.499740
 30
0.0
 10
316.612737
 20
395.499740
 30
0.0
 10
315.734494
 20
395.212315
 30
0.0
 10
315.255452
 20
394.557625
 30
0.0
  0
SPLINE
  5
1d5
100
AcDbEntity
  8
Layer_1
 62
5
100
AcDbSpline
 70
8
 71
3
 72
8
 73
4
 74
0
 40
0
 40
0
 40
0
 40
0
 40
1
 40
1
 40
1
 40
1
 10
315.255452
 20
394.557625
 30
0.0
 10
314.824315
 20
393.982775
 30
0.0
 10
314.680602
 20
393.232276
 30
0.0
 10
314.680602
 20
391.683374
 30
0.0
  0
SPLINE
  5
1d6
100
AcDbEntity
  8
Layer_1
 62
5
100
AcDbSpline
 70
8
 71
3
 72
8
 73
4
 74
0
 40
0
 40
0
 40
0
 40
0
 40
1
 40
1
 40
1
 40
1
 10
314.680602
 20
391.683374
 30
0.0
 10
314.680602
 20
389.847048
 30
0.0
 10
314.904155
 20
389.032677
 30
0.0
 10
315.526909
 20
388.489763
 30
0.0
  0
SPLINE
  5
1d7
100
AcDbEntity
  8
Layer_1
 62
5
100
AcDbSpline
 70
8
 71
3
 72
8
 73
4
 74
0
 40
0
 40
0
 40
0
 40
0
 40
1
 40
1
 40
1
 40
1
 10
315.526909
 20
388.489763
 30
0.0
 10
316.069823
 20
388.026689
 30
0.0
 10
316.820322
 20
387.851040
 30
0.0
 10
318.273415
 20
387.851040
 30
0.0
  0
SPLINE
  5
1d8
100
AcDbEntity
  8
Layer_1
 62
5
100
AcDbSpline
 70
8
 71
3
 72
8
 73
4
 74
0
 40
0
 40
0
 40
0
 40
0
 40
1
 40
1
 40
1
 40
1
 10
318.273415
 20
387.851040
 30
0.0
 10
319.966030
 20
387.851040
 30
0.0
 10
320.668624
 20
388.074593
 30
0.0
 10
321.115730
 20
388.777188
 30
0.0
  0
SPLINE
  5
1d9
100
AcDbEntity
  8
Layer_1
 62
5
100
AcDbSpline
 70
8
 71
3
 72
8
 73
4
 74
0
 40
0
 40
0
 40
0
 40
0
 40
1
 40
1
 40
1
 40
1
 10
321.115730
 20
388.777188
 30
0.0
 10
321.371219
 20
389.160421
 30
0.0
 10
321.482995
 20
389.703335
 30
0.0
 10
321.482995
 20
390.533674
 30
0.0
  0
LINE
  5
1da
100
AcDbEntity
  8
Layer_1
 62
5
100
AcDbLine
 10
321.482995
 20
390.533674
 30
0.0
 11
321.482995
 21
390.789163
 31
0.0
  0
LINE
  5
1db
100
AcDbEntity
  8
Layer_1
 62
5
100
AcDbLine
 10
321.482995
 20
390.789163
 30
0.0
 11
319.694573
 21
390.789163
 31
0.0
  0
LINE
  5
1dc
100
AcDbEntity
  8
Layer_1
 62
5
100
AcDbLine
 10
324.553351
 20
398.597544
 30
0.0
 11
322.748961
 21
398.597544
 31
0.0
  0
LINE
  5
1dd
100
AcDbEntity
  8
Layer_1
 62
5
100
AcDbLine
 10
322.748961
 20
398.597544
 30
0.0
 11
322.748961
 21
387.946849
 31
0.0
  0
LINE
  5
1de
100
AcDbEntity
  8
Layer_1
 62
5
100
AcDbLine
 10
322.748961
 20
387.946849
 30
0.0
 11
324.553351
 21
387.946849
 31
0.0
  0
LINE
  5
1df
100
AcDbEntity
  8
Layer_1
 62
5
100
AcDbLine
 10
324.553351
 20
387.946849
 30
0.0
 11
324.553351
 21
392.178384
 31
0.0
  0
SPLINE
  5
1e0
100
AcDbEntity
  8
Layer_1
 62
5
100
AcDbSpline
 70
8
 71
3
 72
8
 73
4
 74
0
 40
0
 40
0
 40
0
 40
0
 40
1
 40
1
 40
1
 40
1
 10
324.553351
 20
392.178384
 30
0.0
 10
324.553351
 20
393.567605
 30
0.0
 10
325.000457
 20
394.046647
 30
0.0
 10
326.357742
 20
394.046647
 30
0.0
  0
SPLINE
  5
1e1
100
AcDbEntity
  8
Layer_1
 62
5
100
AcDbSpline
 70
8
 71
3
 72
8
 73
4
 74
0
 40
0
 40
0
 40
0
 40
0
 40
1
 40
1
 40
1
 40
1
 10
326.357742
 20
394.046647
 30
0.0
 10
326.980496
 20
394.046647
 30
0.0
 10
327.315825
 20
393.918902
 30
0.0
 10
327.507442
 20
393.583573
 30
0.0
  0
SPLINE
  5
1e2
100
AcDbEntity
  8
Layer_1
 62
5
100
AcDbSpline
 70
8
 71
3
 72
8
 73
4
 74
0
 40
0
 40
0
 40
0
 40
0
 40
1
 40
1
 40
1
 40
1
 10
327.507442
 20
393.583573
 30
0.0
 10
327.651155
 20
393.360020
 30
0.0
 10
327.667123
 20
393.216308
 30
0.0
 10
327.667123
 20
392.529681
 30
0.0
  0
LINE
  5
1e3
100
AcDbEntity
  8
Layer_1
 62
5
100
AcDbLine
 10
327.667123
 20
392.529681
 30
0.0
 11
327.667123
 21
387.946849
 31
0.0
  0
LINE
  5
1e4
100
AcDbEntity
  8
Layer_1
 62
5
100
AcDbLine
 10
327.667123
 20
387.946849
 30
0.0
 11
329.471513
 21
387.946849
 31
0.0
  0
LINE
  5
1e5
100
AcDbEntity
  8
Layer_1
 62
5
100
AcDbLine
 10
329.471513
 20
387.946849
 30
0.0
 11
329.471513
 21
393.008723
 31
0.0
  0
SPLINE
  5
1e6
100
AcDbEntity
  8
Layer_1
 62
5
100
AcDbSpline
 70
8
 71
3
 72
8
 73
4
 74
0
 40
0
 40
0
 40
0
 40
0
 40
1
 40
1
 40
1
 40
1
 10
329.471513
 20
393.008723
 30
0.0
 10
329.471513
 20
394.781178
 30
0.0
 10
328.736982
 20
395.499740
 30
0.0
 10
326.900656
 20
395.499740
 30
0.0
  0
SPLINE
  5
1e7
100
AcDbEntity
  8
Layer_1
 62
5
100
AcDbSpline
 70
8
 71
3
 72
8
 73
4
 74
0
 40
0
 40
0
 40
0
 40
0
 40
1
 40
1
 40
1
 40
1
 10
326.900656
 20
395.499740
 30
0.0
 10
325.511435
 20
395.499740
 30
0.0
 10
324.968521
 20
395.180379
 30
0.0
 10
324.585287
 20
394.174391
 30
0.0
  0
LINE
  5
1e8
100
AcDbEntity
  8
Layer_1
 62
5
100
AcDbLine
 10
324.585287
 20
394.174391
 30
0.0
 11
324.553351
 21
394.174391
 31
0.0
  0
LINE
  5
1e9
100
AcDbEntity
  8
Layer_1
 62
5
100
AcDbLine
 10
324.553351
 20
394.174391
 30
0.0
 11
324.553351
 21
398.597544
 31
0.0
  0
SPLINE
  5
1ea
100
AcDbEntity
  8
Layer_1
 62
5
100
AcDbSpline
 70
8
 71
3
 72
8
 73
4
 74
0
 40
0
 40
0
 40
0
 40
0
 40
1
 40
1
 40
1
 40
1
 10
293.945720
 20
421.269953
 30
0.0
 10
294.092720
 20
421.269953
 30
0.0
 10
294.212145
 20
421.315953
 30
0.0
 10
294.303995
 20
421.407703
 30
0.0
  0
SPLINE
  5
1eb
100
AcDbEntity
  8
Layer_1
 62
5
100
AcDbSpline
 70
8
 71
3
 72
8
 73
4
 74
0
 40
0
 40
0
 40
0
 40
0
 40
1
 40
1
 40
1
 40
1
 10
294.303995
 20
421.407703
 30
0.0
 10
294.395745
 20
421.499453
 30
0.0
 10
294.441745
 20
421.618953
 30
0.0
 10
294.441745
 20
421.765978
 30
0.0
  0
SPLINE
  5
1ec
100
AcDbEntity
  8
Layer_1
 62
5
100
AcDbSpline
 70
8
 71
3
 72
8
 73
4
 74
0
 40
0
 40
0
 40
0
 40
0
 40
1
 40
1
 40
1
 40
1
 10
294.441745
 20
421.765978
 30
0.0
 10
294.441745
 20
421.912978
 30
0.0
 10
294.395745
 20
422.032403
 30
0.0
 10
294.303995
 20
422.124278
 30
0.0
  0
SPLINE
  5
1ed
100
AcDbEntity
  8
Layer_1
 62
5
100
AcDbSpline
 70
8
 71
3
 72
8
 73
4
 74
0
 40
0
 40
0
 40
0
 40
0
 40
1
 40
1
 40
1
 40
1
 10
294.303995
 20
422.124278
 30
0.0
 10
294.212245
 20
422.216028
 30
0.0
 10
294.092745
 20
422.262028
 30
0.0
 10
293.945720
 20
422.262028
 30
0.0
  0
SPLINE
  5
1ee
100
AcDbEntity
  8
Layer_1
 62
5
100
AcDbSpline
 70
8
 71
3
 72
8
 73
4
 74
0
 40
0
 40
0
 40
0
 40
0
 40
1
 40
1
 40
1
 40
1
 10
293.945720
 20
422.262028
 30
0.0
 10
293.798720
 20
422.262028
 30
0.0
 10
293.679295
 20
422.216028
 30
0.0
 10
293.587420
 20
422.124278
 30
0.0
  0
SPLINE
  5
1ef
100
AcDbEntity
  8
Layer_1
 62
5
100
AcDbSpline
 70
8
 71
3
 72
8
 73
4
 74
0
 40
0
 40
0
 40
0
 40
0
 40
1
 40
1
 40
1
 40
1
 10
293.587420
 20
422.124278
 30
0.0
 10
293.495670
 20
422.032528
 30
0.0
 10
293.449670
 20
421.913028
 30
0.0
 10
293.449670
 20
421.765978
 30
0.0
  0
SPLINE
  5
1f0
100
AcDbEntity
  8
Layer_1
 62
5
100
AcDbSpline
 70
8
 71
3
 72
8
 73
4
 74
0
 40
0
 40
0
 40
0
 40
0
 40
1
 40
1
 40
1
 40
1
 10
293.449670
 20
421.765978
 30
0.0
 10
293.449670
 20
421.618978
 30
0.0
 10
293.495670
 20
421.499553
 30
0.0
 10
293.587420
 20
421.407703
 30
0.0
  0
SPLINE
  5
1f1
100
AcDbEntity
  8
Layer_1
 62
5
100
AcDbSpline
 70
8
 71
3
 72
8
 73
4
 74
0
 40
0
 40
0
 40
0
 40
0
 40
1
 40
1
 40
1
 40
1
 10
293.587420
 20
421.407703
 30
0.0
 10
293.679170
 20
421.315953
 30
0.0
 10
293.798670
 20
421.269953
 30
0.0
 10
293.945720
 20
421.269953
 30
0.0
  0
LINE
  5
1f2
100
AcDbEntity
  8
Layer_1
 62
5
100
AcDbLine
 10
293.945720
 20
421.269953
 30
0.0
 11
293.945720
 21
421.269953
 31
0.0
  0
SPLINE
  5
1f3
100
AcDbEntity
  8
Layer_1
 62
5
100
AcDbSpline
 70
8
 71
3
 72
8
 73
4
 74
0
 40
0
 40
0
 40
0
 40
0
 40
1
 40
1
 40
1
 40
1
 10
293.008645
 20
419.450928
 30
0.0
 10
293.670120
 20
418.752728
 30
0.0
 10
294.166195
 20
418.109653
 30
0.0
 10
294.496920
 20
417.521678
 30
0.0
  0
LINE
  5
1f4
100
AcDbEntity
  8
Layer_1
 62
5
100
AcDbLine
 10
294.496920
 20
417.521678
 30
0.0
 11
293.890595
 21
417.108278
 31
0.0
  0
SPLINE
  5
1f5
100
AcDbEntity
  8
Layer_1
 62
5
100
AcDbSpline
 70
8
 71
3
 72
8
 73
4
 74
0
 40
0
 40
0
 40
0
 40
0
 40
1
 40
1
 40
1
 40
1
 10
293.890595
 20
417.108278
 30
0.0
 10
293.504745
 20
417.788103
 30
0.0
 10
293.036220
 20
418.421978
 30
0.0
 10
292.484995
 20
419.009953
 30
0.0
  0
LINE
  5
1f6
100
AcDbEntity
  8
Layer_1
 62
5
100
AcDbLine
 10
292.484995
 20
419.009953
 30
0.0
 11
293.008645
 21
419.450928
 31
0.0
  0
LINE
  5
1f7
100
AcDbEntity
  8
Layer_1
 62
5
100
AcDbLine
 10
291.685720
 20
420.636053
 30
0.0
 11
294.221320
 21
420.636053
 31
0.0
  0
LINE
  5
1f8
100
AcDbEntity
  8
Layer_1
 62
5
100
AcDbLine
 10
294.221320
 20
420.636053
 30
0.0
 11
294.221320
 21
420.029703
 31
0.0
  0
LINE
  5
1f9
100
AcDbEntity
  8
Layer_1
 62
5
100
AcDbLine
 10
294.221320
 20
420.029703
 30
0.0
 11
291.685720
 21
420.029703
 31
0.0
  0
LINE
  5
1fa
100
AcDbEntity
  8
Layer_1
 62
5
100
AcDbLine
 10
291.685720
 20
420.029703
 30
0.0
 11
291.685720
 21
416.198753
 31
0.0
  0
LINE
  5
1fb
100
AcDbEntity
  8
Layer_1
 62
5
100
AcDbLine
 10
291.685720
 20
416.198753
 30
0.0
 11
291.051820
 21
416.198753
 31
0.0
  0
LINE
  5
1fc
100
AcDbEntity
  8
Layer_1
 62
5
100
AcDbLine
 10
291.051820
 20
416.198753
 30
0.0
 11
291.051820
 21
420.029703
 31
0.0
  0
LINE
  5
1fd
100
AcDbEntity
  8
Layer_1
 62
5
100
AcDbLine
 10
291.051820
 20
420.029703
 30
0.0
 11
288.571370
 21
420.029703
 31
0.0
  0
LINE
  5
1fe
100
AcDbEntity
  8
Layer_1
 62
5
100
AcDbLine
 10
288.571370
 20
420.029703
 30
0.0
 11
288.571370
 21
420.636053
 31
0.0
  0
LINE
  5
1ff
100
AcDbEntity
  8
Layer_1
 62
5
100
AcDbLine
 10
288.571370
 20
420.636053
 30
0.0
 11
291.051820
 21
420.636053
 31
0.0
  0
LINE
  5
200
100
AcDbEntity
  8
Layer_1
 62
5
100
AcDbLine
 10
291.051820
 20
420.636053
 30
0.0
 11
291.051820
 21
422.179453
 31
0.0
  0
LINE
  5
201
100
AcDbEntity
  8
Layer_1
 62
5
100
AcDbLine
 10
291.051820
 20
422.179453
 30
0.0
 11
291.630595
 21
422.179453
 31
0.0
  0
SPLINE
  5
202
100
AcDbEntity
  8
Layer_1
 62
5
100
AcDbSpline
 70
8
 71
3
 72
8
 73
4
 74
0
 40
0
 40
0
 40
0
 40
0
 40
1
 40
1
 40
1
 40
1
 10
291.630595
 20
422.179453
 30
0.0
 10
291.832595
 20
422.142703
 30
0.0
 10
291.851095
 20
422.069203
 30
0.0
 10
291.685845
 20
421.958952
 30
0.0
  0
LINE
  5
203
100
AcDbEntity
  8
Layer_1
 62
5
100
AcDbLine
 10
291.685845
 20
421.958952
 30
0.0
 11
291.685720
 21
420.636053
 31
0.0
  0
SPLINE
  5
204
100
AcDbEntity
  8
Layer_1
 62
5
100
AcDbSpline
 70
8
 71
3
 72
8
 73
4
 74
0
 40
0
 40
0
 40
0
 40
0
 40
1
 40
1
 40
1
 40
1
 10
290.225020
 20
419.120203
 30
0.0
 10
290.335270
 20
419.028452
 30
0.0
 10
290.298520
 20
418.963953
 30
0.0
 10
290.114770
 20
418.927203
 30
0.0
  0
SPLINE
  5
205
100
AcDbEntity
  8
Layer_1
 62
5
100
AcDbSpline
 70
8
 71
3
 72
8
 73
4
 74
0
 40
0
 40
0
 40
0
 40
0
 40
1
 40
1
 40
1
 40
1
 10
290.114770
 20
418.927203
 30
0.0
 10
289.839145
 20
418.320878
 30
0.0
 10
289.490045
 20
417.686978
 30
0.0
 10
289.067445
 20
417.025503
 30
0.0
  0
LINE
  5
206
100
AcDbEntity
  8
Layer_1
 62
5
100
AcDbLine
 10
289.067445
 20
417.025503
 30
0.0
 11
288.461120
 21
417.356228
 31
0.0
  0
SPLINE
  5
207
100
AcDbEntity
  8
Layer_1
 62
5
100
AcDbSpline
 70
8
 71
3
 72
8
 73
4
 74
0
 40
0
 40
0
 40
0
 40
0
 40
1
 40
1
 40
1
 40
1
 10
288.461120
 20
417.356228
 30
0.0
 10
288.920470
 20
418.017703
 30
0.0
 10
289.306320
 20
418.715903
 30
0.0
 10
289.618670
 20
419.450853
 30
0.0
  0
LINE
  5
208
100
AcDbEntity
  8
Layer_1
 62
5
100
AcDbLine
 10
289.618670
 20
419.450853
 30
0.0
 11
290.225020
 21
419.120203
 31
0.0
  0
SPLINE
  5
209
100
AcDbEntity
  8
Layer_1
 62
5
100
AcDbSpline
 70
8
 71
3
 72
8
 73
4
 74
0
 40
0
 40
0
 40
0
 40
0
 40
1
 40
1
 40
1
 40
1
 10
300.174445
 20
419.065077
 30
0.0
 10
300.174445
 20
417.687044
 30
0.0
 10
299.531362
 20
416.694861
 30
0.0
 10
298.245195
 20
416.088528
 30
0.0
  0
LINE
  5
20a
100
AcDbEntity
  8
Layer_1
 62
5
100
AcDbLine
 10
298.245195
 20
416.088528
 30
0.0
 11
297.693970
 21
416.557053
 31
0.0
  0
SPLINE
  5
20b
100
AcDbEntity
  8
Layer_1
 62
5
100
AcDbSpline
 70
8
 71
3
 72
8
 73
4
 74
0
 40
0
 40
0
 40
0
 40
0
 40
1
 40
1
 40
1
 40
1
 10
297.693970
 20
416.557053
 30
0.0
 10
298.906653
 20
417.108269
 30
0.0
 10
299.522178
 20
417.953469
 30
0.0
 10
299.540545
 20
419.092652
 30
0.0
  0
LINE
  5
20c
100
AcDbEntity
  8
Layer_1
 62
5
100
AcDbLine
 10
299.540545
 20
419.092652
 30
0.0
 11
299.540545
 21
421.848727
 31
0.0
  0
LINE
  5
20d
100
AcDbEntity
  8
Layer_1
 62
5
100
AcDbLine
 10
299.540545
 20
421.848727
 30
0.0
 11
300.119320
 21
421.848727
 31
0.0
  0
SPLINE
  5
20e
100
AcDbEntity
  8
Layer_1
 62
5
100
AcDbSpline
 70
8
 71
3
 72
8
 73
4
 74
0
 40
0
 40
0
 40
0
 40
0
 40
1
 40
1
 40
1
 40
1
 10
300.119320
 20
421.848727
 30
0.0
 10
300.303053
 20
421.811894
 30
0.0
 10
300.321470
 20
421.738394
 30
0.0
 10
300.174570
 20
421.628228
 30
0.0
  0
LINE
  5
20f
100
AcDbEntity
  8
Layer_1
 62
5
100
AcDbLine
 10
300.174570
 20
421.628228
 30
0.0
 11
300.174445
 21
419.065077
 31
0.0
  0
LINE
  5
210
100
AcDbEntity
  8
Layer_1
 62
5
100
AcDbLine
 10
297.335695
 20
418.458752
 30
0.0
 11
296.701795
 21
418.458752
 31
0.0
  0
LINE
  5
211
100
AcDbEntity
  8
Layer_1
 62
5
100
AcDbLine
 10
296.701795
 20
418.458752
 30
0.0
 11
296.701795
 21
421.573102
 31
0.0
  0
LINE
  5
212
100
AcDbEntity
  8
Layer_1
 62
5
100
AcDbLine
 10
296.701795
 20
421.573102
 30
0.0
 11
297.308120
 21
421.573102
 31
0.0
  0
SPLINE
  5
213
100
AcDbEntity
  8
Layer_1
 62
5
100
AcDbSpline
 70
8
 71
3
 72
8
 73
4
 74
0
 40
0
 40
0
 40
0
 40
0
 40
1
 40
1
 40
1
 40
1
 10
297.308120
 20
421.573102
 30
0.0
 10
297.491853
 20
421.554769
 30
0.0
 10
297.501020
 20
421.481269
 30
0.0
 10
297.335620
 20
421.352602
 30
0.0
  0
LINE
  5
214
100
AcDbEntity
  8
Layer_1
 62
5
100
AcDbLine
 10
297.335620
 20
421.352602
 30
0.0
 11
297.335695
 21
418.458752
 31
0.0
  0
LINE
  5
215
100
AcDbEntity
  8
Layer_1
 62
5
100
AcDbLine
 10
308.001695
 20
416.860228
 30
0.0
 11
303.040770
 21
416.860228
 31
0.0
  0
LINE
  5
216
100
AcDbEntity
  8
Layer_1
 62
5
100
AcDbLine
 10
303.040770
 20
416.860228
 30
0.0
 11
303.040770
 21
417.383878
 31
0.0
  0
LINE
  5
217
100
AcDbEntity
  8
Layer_1
 62
5
100
AcDbLine
 10
303.040770
 20
417.383878
 30
0.0
 11
306.017320
 21
417.383878
 31
0.0
  0
LINE
  5
218
100
AcDbEntity
  8
Layer_1
 62
5
100
AcDbLine
 10
306.017320
 20
417.383878
 30
0.0
 11
306.072320
 21
419.450928
 31
0.0
  0
LINE
  5
219
100
AcDbEntity
  8
Layer_1
 62
5
100
AcDbLine
 10
306.072320
 20
419.450928
 30
0.0
 11
303.812345
 21
419.450928
 31
0.0
  0
LINE
  5
21a
100
AcDbEntity
  8
Layer_1
 62
5
100
AcDbLine
 10
303.812345
 20
419.450928
 30
0.0
 11
303.812345
 21
419.974578
 31
0.0
  0
LINE
  5
21b
100
AcDbEntity
  8
Layer_1
 62
5
100
AcDbLine
 10
303.812345
 20
419.974578
 30
0.0
 11
306.623545
 21
419.974578
 31
0.0
  0
LINE
  5
21c
100
AcDbEntity
  8
Layer_1
 62
5
100
AcDbLine
 10
306.623545
 20
419.974578
 30
0.0
 11
306.568295
 21
417.383878
 31
0.0
  0
LINE
  5
21d
100
AcDbEntity
  8
Layer_1
 62
5
100
AcDbLine
 10
306.568295
 20
417.383878
 30
0.0
 11
308.001445
 21
417.383878
 31
0.0
  0
LINE
  5
21e
100
AcDbEntity
  8
Layer_1
 62
5
100
AcDbLine
 10
308.001445
 20
417.383878
 30
0.0
 11
308.001695
 21
416.860228
 31
0.0
  0
SPLINE
  5
21f
100
AcDbEntity
  8
Layer_1
 62
5
100
AcDbSpline
 70
8
 71
3
 72
8
 73
4
 74
0
 40
0
 40
0
 40
0
 40
0
 40
1
 40
1
 40
1
 40
1
 10
314.781645
 20
420.057278
 30
0.0
 10
314.873478
 20
419.891944
 30
0.0
 10
314.790812
 20
419.864361
 30
0.0
 10
314.533645
 20
419.974528
 30
0.0
  0
SPLINE
  5
220
100
AcDbEntity
  8
Layer_1
 62
5
100
AcDbSpline
 70
8
 71
3
 72
8
 73
4
 74
0
 40
0
 40
0
 40
0
 40
0
 40
1
 40
1
 40
1
 40
1
 10
314.533645
 20
419.974528
 30
0.0
 10
313.504712
 20
419.698928
 30
0.0
 10
312.420653
 20
419.487627
 30
0.0
 10
311.281470
 20
419.340627
 30
0.0
  0
LINE
  5
221
100
AcDbEntity
  8
Layer_1
 62
5
100
AcDbLine
 10
311.281470
 20
419.340627
 30
0.0
 11
311.281470
 21
417.549178
 31
0.0
  0
SPLINE
  5
222
100
AcDbEntity
  8
Layer_1
 62
5
100
AcDbSpline
 70
8
 71
3
 72
8
 73
4
 74
0
 40
0
 40
0
 40
0
 40
0
 40
1
 40
1
 40
1
 40
1
 10
311.281470
 20
417.549178
 30
0.0
 10
311.281470
 20
417.310327
 30
0.0
 10
311.400903
 20
417.190902
 30
0.0
 10
311.639770
 20
417.190902
 30
0.0
  0
LINE
  5
223
100
AcDbEntity
  8
Layer_1
 62
5
100
AcDbLine
 10
311.639770
 20
417.190902
 30
0.0
 11
314.809270
 21
417.190902
 31
0.0
  0
LINE
  5
224
100
AcDbEntity
  8
Layer_1
 62
5
100
AcDbLine
 10
314.809270
 20
417.190902
 30
0.0
 11
314.754270
 21
416.584552
 31
0.0
  0
LINE
  5
225
100
AcDbEntity
  8
Layer_1
 62
5
100
AcDbLine
 10
314.754270
 20
416.584552
 30
0.0
 11
311.529645
 21
416.584552
 31
0.0
  0
SPLINE
  5
226
100
AcDbEntity
  8
Layer_1
 62
5
100
AcDbSpline
 70
8
 71
3
 72
8
 73
4
 74
0
 40
0
 40
0
 40
0
 40
0
 40
1
 40
1
 40
1
 40
1
 10
311.529645
 20
416.584552
 30
0.0
 10
310.941695
 20
416.584552
 30
0.0
 10
310.647720
 20
416.823419
 30
0.0
 10
310.647720
 20
417.301152
 30
0.0
  0
LINE
  5
227
100
AcDbEntity
  8
Layer_1
 62
5
100
AcDbLine
 10
310.647720
 20
417.301152
 30
0.0
 11
310.647720
 21
421.628177
 31
0.0
  0
LINE
  5
228
100
AcDbEntity
  8
Layer_1
 62
5
100
AcDbLine
 10
310.647720
 20
421.628177
 30
0.0
 11
311.198920
 21
421.628177
 31
0.0
  0
SPLINE
  5
229
100
AcDbEntity
  8
Layer_1
 62
5
100
AcDbSpline
 70
8
 71
3
 72
8
 73
4
 74
0
 40
0
 40
0
 40
0
 40
0
 40
1
 40
1
 40
1
 40
1
 10
311.198920
 20
421.628177
 30
0.0
 10
311.401037
 20
421.591344
 30
0.0
 10
311.428620
 20
421.517844
 30
0.0
 10
311.281670
 20
421.407678
 30
0.0
  0
LINE
  5
22a
100
AcDbEntity
  8
Layer_1
 62
5
100
AcDbLine
 10
311.281670
 20
421.407678
 30
0.0
 11
311.281670
 21
420.002078
 31
0.0
  0
SPLINE
  5
22b
100
AcDbEntity
  8
Layer_1
 62
5
100
AcDbSpline
 70
8
 71
3
 72
8
 73
4
 74
0
 40
0
 40
0
 40
0
 40
0
 40
1
 40
1
 40
1
 40
1
 10
311.281670
 20
420.002078
 30
0.0
 10
312.531103
 20
420.149077
 30
0.0
 10
313.624353
 20
420.378752
 30
0.0
 10
314.561420
 20
420.691103
 30
0.0
  0
LINE
  5
22c
100
AcDbEntity
  8
Layer_1
 62
5
100
AcDbLine
 10
314.561420
 20
420.691103
 30
0.0
 11
314.781645
 21
420.057278
 31
0.0
  0
SPLINE
  5
22d
100
AcDbEntity
  8
Layer_1
 62
5
100
AcDbSpline
 70
8
 71
3
 72
8
 73
4
 74
0
 40
0
 40
0
 40
0
 40
0
 40
1
 40
1
 40
1
 40
1
 10
314.450920
 20
420.966778
 30
0.0
 10
314.156937
 20
421.334244
 30
0.0
 10
313.872145
 20
421.655786
 30
0.0
 10
313.596545
 20
421.931402
 30
0.0
  0
LINE
  5
22e
100
AcDbEntity
  8
Layer_1
 62
5
100
AcDbLine
 10
313.596545
 20
421.931402
 30
0.0
 11
313.982395
 21
422.234577
 31
0.0
  0
SPLINE
  5
22f
100
AcDbEntity
  8
Layer_1
 62
5
100
AcDbSpline
 70
8
 71
3
 72
8
 73
4
 74
0
 40
0
 40
0
 40
0
 40
0
 40
1
 40
1
 40
1
 40
1
 10
313.982395
 20
422.234577
 30
0.0
 10
314.239628
 20
421.995711
 30
0.0
 10
314.524420
 20
421.674169
 30
0.0
 10
314.836770
 20
421.269952
 30
0.0
  0
LINE
  5
230
100
AcDbEntity
  8
Layer_1
 62
5
100
AcDbLine
 10
314.836770
 20
421.269952
 30
0.0
 11
314.450920
 21
420.966778
 31
0.0
  0
SPLINE
  5
231
100
AcDbEntity
  8
Layer_1
 62
5
100
AcDbSpline
 70
8
 71
3
 72
8
 73
4
 74
0
 40
0
 40
0
 40
0
 40
0
 40
1
 40
1
 40
1
 40
1
 10
315.250170
 20
421.352628
 30
0.0
 10
314.919453
 20
421.738477
 30
0.0
 10
314.634662
 20
422.050827
 30
0.0
 10
314.395795
 20
422.289678
 30
0.0
  0
LINE
  5
232
100
AcDbEntity
  8
Layer_1
 62
5
100
AcDbLine
 10
314.395795
 20
422.289678
 30
0.0
 11
314.726520
 21
422.592852
 31
0.0
  0
SPLINE
  5
233
100
AcDbEntity
  8
Layer_1
 62
5
100
AcDbSpline
 70
8
 71
3
 72
8
 73
4
 74
0
 40
0
 40
0
 40
0
 40
0
 40
1
 40
1
 40
1
 40
1
 10
314.726520
 20
422.592852
 30
0.0
 10
315.002137
 20
422.335619
 30
0.0
 10
315.296120
 20
422.023269
 30
0.0
 10
315.608470
 20
421.655802
 30
0.0
  0
LINE
  5
234
100
AcDbEntity
  8
Layer_1
 62
5
100
AcDbLine
 10
315.608470
 20
421.655802
 30
0.0
 11
315.250170
 21
421.352628
 31
0.0
  0
SPLINE
  5
235
100
AcDbEntity
  8
Layer_1
 62
5
100
AcDbSpline
 70
8
 71
3
 72
8
 73
4
 74
0
 40
0
 40
0
 40
0
 40
0
 40
1
 40
1
 40
1
 40
1
 10
316.517970
 20
417.356303
 30
0.0
 10
317.693903
 20
418.109636
 30
0.0
 10
318.612595
 20
419.009961
 30
0.0
 10
319.274045
 20
420.057278
 30
0.0
  0
LINE
  5
236
100
AcDbEntity
  8
Layer_1
 62
5
100
AcDbLine
 10
319.274045
 20
420.057278
 30
0.0
 11
316.683345
 21
420.057278
 31
0.0
  0
LINE
  5
237
100
AcDbEntity
  8
Layer_1
 62
5
100
AcDbLine
 10
316.683345
 20
420.057278
 30
0.0
 11
316.683345
 21
420.663603
 31
0.0
  0
LINE
  5
238
100
AcDbEntity
  8
Layer_1
 62
5
100
AcDbLine
 10
316.683345
 20
420.663603
 30
0.0
 11
319.604770
 21
420.663603
 31
0.0
  0
LINE
  5
239
100
AcDbEntity
  8
Layer_1
 62
5
100
AcDbLine
 10
319.604770
 20
420.663603
 30
0.0
 11
319.604770
 21
422.179453
 31
0.0
  0
LINE
  5
23a
100
AcDbEntity
  8
Layer_1
 62
5
100
AcDbLine
 10
319.604770
 20
422.179453
 30
0.0
 11
320.183570
 21
422.179453
 31
0.0
  0
SPLINE
  5
23b
100
AcDbEntity
  8
Layer_1
 62
5
100
AcDbSpline
 70
8
 71
3
 72
8
 73
4
 74
0
 40
0
 40
0
 40
0
 40
0
 40
1
 40
1
 40
1
 40
1
 10
320.183570
 20
422.179453
 30
0.0
 10
320.348903
 20
422.142619
 30
0.0
 10
320.367237
 20
422.069119
 30
0.0
 10
320.238570
 20
421.958952
 30
0.0
  0
LINE
  5
23c
100
AcDbEntity
  8
Layer_1
 62
5
100
AcDbLine
 10
320.238570
 20
421.958952
 30
0.0
 11
320.238570
 21
420.663603
 31
0.0
  0
LINE
  5
23d
100
AcDbEntity
  8
Layer_1
 62
5
100
AcDbLine
 10
320.238570
 20
420.663603
 30
0.0
 11
322.553695
 21
420.663603
 31
0.0
  0
LINE
  5
23e
100
AcDbEntity
  8
Layer_1
 62
5
100
AcDbLine
 10
322.553695
 20
420.663603
 30
0.0
 11
322.553695
 21
420.057278
 31
0.0
  0
LINE
  5
23f
100
AcDbEntity
  8
Layer_1
 62
5
100
AcDbLine
 10
322.553695
 20
420.057278
 30
0.0
 11
320.238570
 21
420.057278
 31
0.0
  0
LINE
  5
240
100
AcDbEntity
  8
Layer_1
 62
5
100
AcDbLine
 10
320.238570
 20
420.057278
 30
0.0
 11
320.238570
 21
416.832652
 31
0.0
  0
SPLINE
  5
241
100
AcDbEntity
  8
Layer_1
 62
5
100
AcDbSpline
 70
8
 71
3
 72
8
 73
4
 74
0
 40
0
 40
0
 40
0
 40
0
 40
1
 40
1
 40
1
 40
1
 10
320.238570
 20
416.832652
 30
0.0
 10
320.238570
 20
416.391686
 30
0.0
 10
320.027270
 20
416.171202
 30
0.0
 10
319.604670
 20
416.171202
 30
0.0
  0
LINE
  5
242
100
AcDbEntity
  8
Layer_1
 62
5
100
AcDbLine
 10
319.604670
 20
416.171202
 30
0.0
 11
318.832970
 21
416.171202
 31
0.0
  0
LINE
  5
243
100
AcDbEntity
  8
Layer_1
 62
5
100
AcDbLine
 10
318.832970
 20
416.171202
 30
0.0
 11
318.722720
 21
416.777527
 31
0.0
  0
LINE
  5
244
100
AcDbEntity
  8
Layer_1
 62
5
100
AcDbLine
 10
318.722720
 20
416.777527
 30
0.0
 11
319.273920
 21
416.777527
 31
0.0
  0
SPLINE
  5
245
100
AcDbEntity
  8
Layer_1
 62
5
100
AcDbSpline
 70
8
 71
3
 72
8
 73
4
 74
0
 40
0
 40
0
 40
0
 40
0
 40
1
 40
1
 40
1
 40
1
 10
319.273920
 20
416.777527
 30
0.0
 10
319.494403
 20
416.814194
 30
0.0
 10
319.604645
 20
416.933628
 30
0.0
 10
319.604645
 20
417.135828
 30
0.0
  0
LINE
  5
246
100
AcDbEntity
  8
Layer_1
 62
5
100
AcDbLine
 10
319.604645
 20
417.135828
 30
0.0
 11
319.604645
 21
419.450927
 31
0.0
  0
SPLINE
  5
247
100
AcDbEntity
  8
Layer_1
 62
5
100
AcDbSpline
 70
8
 71
3
 72
8
 73
4
 74
0
 40
0
 40
0
 40
0
 40
0
 40
1
 40
1
 40
1
 40
1
 10
319.604645
 20
419.450927
 30
0.0
 10
318.906445
 20
418.421994
 30
0.0
 10
318.061253
 20
417.558427
 30
0.0
 10
317.069070
 20
416.860227
 30
0.0
  0
LINE
  5
248
100
AcDbEntity
  8
Layer_1
 62
5
100
AcDbLine
 10
317.069070
 20
416.860227
 30
0.0
 11
316.517970
 21
417.356303
 31
0.0
  0
SPLINE
  5
249
100
AcDbEntity
  8
Layer_1
 62
5
100
AcDbSpline
 70
8
 71
3
 72
8
 73
4
 74
0
 40
0
 40
0
 40
0
 40
0
 40
1
 40
1
 40
1
 40
1
 10
327.128870
 20
419.147753
 30
0.0
 10
327.918953
 20
418.541419
 30
0.0
 10
328.699845
 20
417.843219
 30
0.0
 10
329.471545
 20
417.053153
 30
0.0
  0
LINE
  5
24a
100
AcDbEntity
  8
Layer_1
 62
5
100
AcDbLine
 10
329.471545
 20
417.053153
 30
0.0
 11
328.920320
 21
416.584603
 31
0.0
  0
SPLINE
  5
24b
100
AcDbEntity
  8
Layer_1
 62
5
100
AcDbSpline
 70
8
 71
3
 72
8
 73
4
 74
0
 40
0
 40
0
 40
0
 40
0
 40
1
 40
1
 40
1
 40
1
 10
328.920320
 20
416.584603
 30
0.0
 10
328.148620
 20
417.393052
 30
0.0
 10
327.404478
 20
418.072886
 30
0.0
 10
326.687895
 20
418.624103
 30
0.0
  0
SPLINE
  5
24c
100
AcDbEntity
  8
Layer_1
 62
5
100
AcDbSpline
 70
8
 71
3
 72
8
 73
4
 74
0
 40
0
 40
0
 40
0
 40
0
 40
1
 40
1
 40
1
 40
1
 10
326.687895
 20
418.624103
 30
0.0
 10
325.971312
 20
417.852402
 30
0.0
 10
325.153678
 20
417.163386
 30
0.0
 10
324.234995
 20
416.557053
 30
0.0
  0
LINE
  5
24d
100
AcDbEntity
  8
Layer_1
 62
5
100
AcDbLine
 10
324.234995
 20
416.557053
 30
0.0
 11
323.711345
 21
417.025578
 31
0.0
  0
SPLINE
  5
24e
100
AcDbEntity
  8
Layer_1
 62
5
100
AcDbSpline
 70
8
 71
3
 72
8
 73
4
 74
0
 40
0
 40
0
 40
0
 40
0
 40
1
 40
1
 40
1
 40
1
 10
323.711345
 20
417.025578
 30
0.0
 10
325.658962
 20
418.293377
 30
0.0
 10
326.908378
 20
419.561177
 30
0.0
 10
327.459595
 20
420.828978
 30
0.0
  0
LINE
  5
24f
100
AcDbEntity
  8
Layer_1
 62
5
100
AcDbLine
 10
327.459595
 20
420.828978
 30
0.0
 11
324.455470
 21
420.635978
 31
0.0
  0
LINE
  5
250
100
AcDbEntity
  8
Layer_1
 62
5
100
AcDbLine
 10
324.455470
 20
420.635978
 30
0.0
 11
324.372720
 21
421.297428
 31
0.0
  0
LINE
  5
251
100
AcDbEntity
  8
Layer_1
 62
5
100
AcDbLine
 10
324.372720
 20
421.297428
 30
0.0
 11
327.569770
 21
421.435178
 31
0.0
  0
LINE
  5
252
100
AcDbEntity
  8
Layer_1
 62
5
100
AcDbLine
 10
327.569770
 20
421.435178
 30
0.0
 11
327.900495
 21
421.517928
 31
0.0
  0
LINE
  5
253
100
AcDbEntity
  8
Layer_1
 62
5
100
AcDbLine
 10
327.900495
 20
421.517928
 30
0.0
 11
328.341470
 21
421.076978
 31
0.0
  0
SPLINE
  5
254
100
AcDbEntity
  8
Layer_1
 62
5
100
AcDbSpline
 70
8
 71
3
 72
8
 73
4
 74
0
 40
0
 40
0
 40
0
 40
0
 40
1
 40
1
 40
1
 40
1
 10
328.341470
 20
421.076978
 30
0.0
 10
328.470137
 20
420.948311
 30
0.0
 10
328.433387
 20
420.865644
 30
0.0
 10
328.231220
 20
420.828978
 30
0.0
  0
SPLINE
  5
255
100
AcDbEntity
  8
Layer_1
 62
5
100
AcDbSpline
 70
8
 71
3
 72
8
 73
4
 74
0
 40
0
 40
0
 40
0
 40
0
 40
1
 40
1
 40
1
 40
1
 10
328.231220
 20
420.828978
 30
0.0
 10
327.882120
 20
420.222628
 30
0.0
 10
327.514645
 20
419.662219
 30
0.0
 10
327.128795
 20
419.147753
 30
0.0
  0
LINE
  5
256
100
AcDbEntity
  8
Layer_1
 62
5
100
AcDbLine
 10
327.128795
 20
419.147753
 30
0.0
 11
327.128870
 21
419.147753
 31
0.0
  0
SPLINE
  5
257
100
AcDbEntity
  8
Layer_1
 62
5
100
AcDbSpline
 70
8
 71
3
 72
8
 73
4
 74
0
 40
0
 40
0
 40
0
 40
0
 40
1
 40
1
 40
1
 40
1
 10
300.288070
 20
411.455953
 30
0.0
 10
301.206770
 20
410.298403
 30
0.0
 10
301.859045
 20
409.076544
 30
0.0
 10
302.244895
 20
407.790378
 30
0.0
  0
LINE
  5
258
100
AcDbEntity
  8
Layer_1
 62
5
100
AcDbLine
 10
302.244895
 20
407.790378
 30
0.0
 11
301.500745
 21
407.542378
 31
0.0
  0
SPLINE
  5
259
100
AcDbEntity
  8
Layer_1
 62
5
100
AcDbSpline
 70
8
 71
3
 72
8
 73
4
 74
0
 40
0
 40
0
 40
0
 40
0
 40
1
 40
1
 40
1
 40
1
 10
301.500745
 20
407.542378
 30
0.0
 10
301.041412
 20
408.993911
 30
0.0
 10
300.444262
 20
410.151461
 30
0.0
 10
299.709295
 20
411.015028
 30
0.0
  0
LINE
  5
25a
100
AcDbEntity
  8
Layer_1
 62
5
100
AcDbLine
 10
299.709295
 20
411.015028
 30
0.0
 11
300.288070
 21
411.455953
 31
0.0
  0
SPLINE
  5
25b
100
AcDbEntity
  8
Layer_1
 62
5
100
AcDbSpline
 70
8
 71
3
 72
8
 73
4
 74
0
 40
0
 40
0
 40
0
 40
0
 40
1
 40
1
 40
1
 40
1
 10
298.193470
 20
410.822053
 30
0.0
 10
298.340470
 20
410.730219
 30
0.0
 10
298.322053
 20
410.647553
 30
0.0
 10
298.138220
 20
410.574053
 30
0.0
  0
SPLINE
  5
25c
100
AcDbEntity
  8
Layer_1
 62
5
100
AcDbSpline
 70
8
 71
3
 72
8
 73
4
 74
0
 40
0
 40
0
 40
0
 40
0
 40
1
 40
1
 40
1
 40
1
 10
298.138220
 20
410.574053
 30
0.0
 10
297.807487
 20
409.416486
 30
0.0
 10
297.274645
 20
408.359986
 30
0.0
 10
296.539695
 20
407.404553
 30
0.0
  0
LINE
  5
25d
100
AcDbEntity
  8
Layer_1
 62
5
100
AcDbLine
 10
296.539695
 20
407.404553
 30
0.0
 11
295.905795
 21
407.817978
 31
0.0
  0
SPLINE
  5
25e
100
AcDbEntity
  8
Layer_1
 62
5
100
AcDbSpline
 70
8
 71
3
 72
8
 73
4
 74
0
 40
0
 40
0
 40
0
 40
0
 40
1
 40
1
 40
1
 40
1
 10
295.905795
 20
407.817978
 30
0.0
 10
296.714245
 20
408.791778
 30
0.0
 10
297.256270
 20
409.894203
 30
0.0
 10
297.531870
 20
411.125253
 30
0.0
  0
LINE
  5
25f
100
AcDbEntity
  8
Layer_1
 62
5
100
AcDbLine
 10
297.531870
 20
411.125253
 30
0.0
 11
298.193470
 21
410.822053
 31
0.0
  0
SPLINE
  5
260
100
AcDbEntity
  8
Layer_1
 62
5
100
AcDbSpline
 70
8
 71
3
 72
8
 73
4
 74
0
 40
0
 40
0
 40
0
 40
0
 40
1
 40
1
 40
1
 40
1
 10
301.500745
 20
412.971803
 30
0.0
 10
301.739612
 20
412.769686
 30
0.0
 10
302.033595
 20
412.484894
 30
0.0
 10
302.382695
 20
412.117428
 30
0.0
  0
LINE
  5
261
100
AcDbEntity
  8
Layer_1
 62
5
100
AcDbLine
 10
302.382695
 20
412.117428
 30
0.0
 11
302.024420
 21
411.786703
 31
0.0
  0
SPLINE
  5
262
100
AcDbEntity
  8
Layer_1
 62
5
100
AcDbSpline
 70
8
 71
3
 72
8
 73
4
 74
0
 40
0
 40
0
 40
0
 40
0
 40
1
 40
1
 40
1
 40
1
 10
302.024420
 20
411.786703
 30
0.0
 10
301.693687
 20
412.154169
 30
0.0
 10
301.399703
 20
412.448144
 30
0.0
 10
301.142470
 20
412.668628
 30
0.0
  0
LINE
  5
263
100
AcDbEntity
  8
Layer_1
 62
5
100
AcDbLine
 10
301.142470
 20
412.668628
 30
0.0
 11
301.500745
 21
412.971803
 31
0.0
  0
SPLINE
  5
264
100
AcDbEntity
  8
Layer_1
 62
5
100
AcDbSpline
 70
8
 71
3
 72
8
 73
4
 74
0
 40
0
 40
0
 40
0
 40
0
 40
1
 40
1
 40
1
 40
1
 10
300.839295
 20
412.558403
 30
0.0
 10
301.114912
 20
412.301169
 30
0.0
 10
301.408895
 20
411.988811
 30
0.0
 10
301.721245
 20
411.621328
 30
0.0
  0
LINE
  5
265
100
AcDbEntity
  8
Layer_1
 62
5
100
AcDbLine
 10
301.721245
 20
411.621328
 30
0.0
 11
301.307820
 21
411.318153
 31
0.0
  0
SPLINE
  5
266
100
AcDbEntity
  8
Layer_1
 62
5
100
AcDbSpline
 70
8
 71
3
 72
8
 73
4
 74
0
 40
0
 40
0
 40
0
 40
0
 40
1
 40
1
 40
1
 40
1
 10
301.307820
 20
411.318153
 30
0.0
 10
301.032220
 20
411.685636
 30
0.0
 10
300.747428
 20
411.997994
 30
0.0
 10
300.453445
 20
412.255228
 30
0.0
  0
LINE
  5
267
100
AcDbEntity
  8
Layer_1
 62
5
100
AcDbLine
 10
300.453445
 20
412.255228
 30
0.0
 11
300.839295
 21
412.558403
 31
0.0
  0
SPLINE
  5
268
100
AcDbEntity
  8
Layer_1
 62
5
100
AcDbSpline
 70
8
 71
3
 72
8
 73
4
 74
0
 40
0
 40
0
 40
0
 40
0
 40
1
 40
1
 40
1
 40
1
 10
303.292220
 20
409.168428
 30
0.0
 10
305.221470
 20
409.976877
 30
0.0
 10
306.682187
 20
411.116052
 30
0.0
 10
307.674370
 20
412.585953
 30
0.0
  0
LINE
  5
269
100
AcDbEntity
  8
Layer_1
 62
5
100
AcDbLine
 10
307.674370
 20
412.585953
 30
0.0
 11
308.198020
 21
412.144978
 31
0.0
  0
SPLINE
  5
26a
100
AcDbEntity
  8
Layer_1
 62
5
100
AcDbSpline
 70
8
 71
3
 72
8
 73
4
 74
0
 40
0
 40
0
 40
0
 40
0
 40
1
 40
1
 40
1
 40
1
 10
308.198020
 20
412.144978
 30
0.0
 10
308.345020
 20
412.034811
 30
0.0
 10
308.280687
 20
411.952144
 30
0.0
 10
308.005020
 20
411.896978
 30
0.0
  0
SPLINE
  5
26b
100
AcDbEntity
  8
Layer_1
 62
5
100
AcDbSpline
 70
8
 71
3
 72
8
 73
4
 74
0
 40
0
 40
0
 40
0
 40
0
 40
1
 40
1
 40
1
 40
1
 10
308.005020
 20
411.896978
 30
0.0
 10
307.655920
 20
411.437644
 30
0.0
 10
307.205762
 20
410.969111
 30
0.0
 10
306.654545
 20
410.491378
 30
0.0
  0
LINE
  5
26c
100
AcDbEntity
  8
Layer_1
 62
5
100
AcDbLine
 10
306.654545
 20
410.491378
 30
0.0
 11
306.654545
 21
406.743128
 31
0.0
  0
LINE
  5
26d
100
AcDbEntity
  8
Layer_1
 62
5
100
AcDbLine
 10
306.654545
 20
406.743128
 30
0.0
 11
306.020645
 21
406.743128
 31
0.0
  0
LINE
  5
26e
100
AcDbEntity
  8
Layer_1
 62
5
100
AcDbLine
 10
306.020645
 20
406.743128
 30
0.0
 11
306.020645
 21
409.967728
 31
0.0
  0
SPLINE
  5
26f
100
AcDbEntity
  8
Layer_1
 62
5
100
AcDbSpline
 70
8
 71
3
 72
8
 73
4
 74
0
 40
0
 40
0
 40
0
 40
0
 40
1
 40
1
 40
1
 40
1
 10
306.020645
 20
409.967728
 30
0.0
 10
305.377562
 20
409.471644
 30
0.0
 10
304.624237
 20
409.021486
 30
0.0
 10
303.760670
 20
408.617253
 30
0.0
  0
LINE
  5
270
100
AcDbEntity
  8
Layer_1
 62
5
100
AcDbLine
 10
303.760670
 20
408.617253
 30
0.0
 11
303.292220
 21
409.168428
 31
0.0
  0
SPLINE
  5
271
100
AcDbEntity
  8
Layer_1
 62
5
100
AcDbSpline
 70
8
 71
3
 72
8
 73
4
 74
0
 40
0
 40
0
 40
0
 40
0
 40
1
 40
1
 40
1
 40
1
 10
310.072145
 20
407.873053
 30
0.0
 10
311.248078
 20
408.626386
 30
0.0
 10
312.166770
 20
409.526711
 30
0.0
 10
312.828220
 20
410.574028
 30
0.0
  0
LINE
  5
272
100
AcDbEntity
  8
Layer_1
 62
5
100
AcDbLine
 10
312.828220
 20
410.574028
 30
0.0
 11
310.237520
 21
410.574028
 31
0.0
  0
LINE
  5
273
100
AcDbEntity
  8
Layer_1
 62
5
100
AcDbLine
 10
310.237520
 20
410.574028
 30
0.0
 11
310.237520
 21
411.180353
 31
0.0
  0
LINE
  5
274
100
AcDbEntity
  8
Layer_1
 62
5
100
AcDbLine
 10
310.237520
 20
411.180353
 30
0.0
 11
313.158970
 21
411.180353
 31
0.0
  0
LINE
  5
275
100
AcDbEntity
  8
Layer_1
 62
5
100
AcDbLine
 10
313.158970
 20
411.180353
 30
0.0
 11
313.158970
 21
412.696203
 31
0.0
  0
LINE
  5
276
100
AcDbEntity
  8
Layer_1
 62
5
100
AcDbLine
 10
313.158970
 20
412.696203
 30
0.0
 11
313.737745
 21
412.696203
 31
0.0
  0
SPLINE
  5
277
100
AcDbEntity
  8
Layer_1
 62
5
100
AcDbSpline
 70
8
 71
3
 72
8
 73
4
 74
0
 40
0
 40
0
 40
0
 40
0
 40
1
 40
1
 40
1
 40
1
 10
313.737745
 20
412.696203
 30
0.0
 10
313.903078
 20
412.659369
 30
0.0
 10
313.921495
 20
412.585869
 30
0.0
 10
313.792995
 20
412.475702
 30
0.0
  0
LINE
  5
278
100
AcDbEntity
  8
Layer_1
 62
5
100
AcDbLine
 10
313.792995
 20
412.475702
 30
0.0
 11
313.792995
 21
411.180353
 31
0.0
  0
LINE
  5
279
100
AcDbEntity
  8
Layer_1
 62
5
100
AcDbLine
 10
313.792995
 20
411.180353
 30
0.0
 11
316.108095
 21
411.180353
 31
0.0
  0
LINE
  5
27a
100
AcDbEntity
  8
Layer_1
 62
5
100
AcDbLine
 10
316.108095
 20
411.180353
 30
0.0
 11
316.108095
 21
410.574028
 31
0.0
  0
LINE
  5
27b
100
AcDbEntity
  8
Layer_1
 62
5
100
AcDbLine
 10
316.108095
 20
410.574028
 30
0.0
 11
313.792995
 21
410.574028
 31
0.0
  0
LINE
  5
27c
100
AcDbEntity
  8
Layer_1
 62
5
100
AcDbLine
 10
313.792995
 20
410.574028
 30
0.0
 11
313.792995
 21
407.349402
 31
0.0
  0
SPLINE
  5
27d
100
AcDbEntity
  8
Layer_1
 62
5
100
AcDbSpline
 70
8
 71
3
 72
8
 73
4
 74
0
 40
0
 40
0
 40
0
 40
0
 40
1
 40
1
 40
1
 40
1
 10
313.792995
 20
407.349402
 30
0.0
 10
313.792995
 20
406.908436
 30
0.0
 10
313.581695
 20
406.687952
 30
0.0
 10
313.159095
 20
406.687952
 30
0.0
  0
LINE
  5
27e
100
AcDbEntity
  8
Layer_1
 62
5
100
AcDbLine
 10
313.159095
 20
406.687952
 30
0.0
 11
312.387395
 21
406.687952
 31
0.0
  0
LINE
  5
27f
100
AcDbEntity
  8
Layer_1
 62
5
100
AcDbLine
 10
312.387395
 20
406.687952
 30
0.0
 11
312.277145
 21
407.294277
 31
0.0
  0
LINE
  5
280
100
AcDbEntity
  8
Layer_1
 62
5
100
AcDbLine
 10
312.277145
 20
407.294277
 30
0.0
 11
312.828345
 21
407.294277
 31
0.0
  0
SPLINE
  5
281
100
AcDbEntity
  8
Layer_1
 62
5
100
AcDbSpline
 70
8
 71
3
 72
8
 73
4
 74
0
 40
0
 40
0
 40
0
 40
0
 40
1
 40
1
 40
1
 40
1
 10
312.828345
 20
407.294277
 30
0.0
 10
313.048845
 20
407.330944
 30
0.0
 10
313.159095
 20
407.450378
 30
0.0
 10
313.159095
 20
407.652578
 30
0.0
  0
LINE
  5
282
100
AcDbEntity
  8
Layer_1
 62
5
100
AcDbLine
 10
313.159095
 20
407.652578
 30
0.0
 11
313.159095
 21
409.967677
 31
0.0
  0
SPLINE
  5
283
100
AcDbEntity
  8
Layer_1
 62
5
100
AcDbSpline
 70
8
 71
3
 72
8
 73
4
 74
0
 40
0
 40
0
 40
0
 40
0
 40
1
 40
1
 40
1
 40
1
 10
313.159095
 20
409.967677
 30
0.0
 10
312.460878
 20
408.938744
 30
0.0
 10
311.615678
 20
408.075177
 30
0.0
 10
310.623495
 20
407.376977
 30
0.0
  0
LINE
  5
284
100
AcDbEntity
  8
Layer_1
 62
5
100
AcDbLine
 10
310.623495
 20
407.376977
 30
0.0
 11
310.072145
 21
407.873053
 31
0.0
  0
LINE
  5
285
100
AcDbEntity
  8
Layer_1
 62
5
100
AcDbLine
 10
320.159395
 20
409.912552
 30
0.0
 11
317.403320
 21
409.912552
 31
0.0
  0
LINE
  5
286
100
AcDbEntity
  8
Layer_1
 62
5
100
AcDbLine
 10
317.403320
 20
409.912552
 30
0.0
 11
317.403320
 21
410.518902
 31
0.0
  0
LINE
  5
287
100
AcDbEntity
  8
Layer_1
 62
5
100
AcDbLine
 10
317.403320
 20
410.518902
 30
0.0
 11
323.053270
 21
410.518902
 31
0.0
  0
LINE
  5
288
100
AcDbEntity
  8
Layer_1
 62
5
100
AcDbLine
 10
323.053270
 20
410.518902
 30
0.0
 11
323.053270
 21
409.912552
 31
0.0
  0
LINE
  5
289
100
AcDbEntity
  8
Layer_1
 62
5
100
AcDbLine
 10
323.053270
 20
409.912552
 30
0.0
 11
320.793295
 21
409.912552
 31
0.0
  0
LINE
  5
28a
100
AcDbEntity
  8
Layer_1
 62
5
100
AcDbLine
 10
320.793295
 20
409.912552
 30
0.0
 11
320.793295
 21
409.554277
 31
0.0
  0
SPLINE
  5
28b
100
AcDbEntity
  8
Layer_1
 62
5
100
AcDbSpline
 70
8
 71
3
 72
8
 73
4
 74
0
 40
0
 40
0
 40
0
 40
0
 40
1
 40
1
 40
1
 40
1
 10
320.793295
 20
409.554277
 30
0.0
 10
320.793295
 20
408.396727
 30
0.0
 10
320.379878
 20
407.441286
 30
0.0
 10
319.553045
 20
406.687952
 30
0.0
  0
LINE
  5
28c
100
AcDbEntity
  8
Layer_1
 62
5
100
AcDbLine
 10
319.553045
 20
406.687952
 30
0.0
 11
319.001845
 21
407.101352
 31
0.0
  0
SPLINE
  5
28d
100
AcDbEntity
  8
Layer_1
 62
5
100
AcDbSpline
 70
8
 71
3
 72
8
 73
4
 74
0
 40
0
 40
0
 40
0
 40
0
 40
1
 40
1
 40
1
 40
1
 10
319.001845
 20
407.101352
 30
0.0
 10
319.773545
 20
407.707702
 30
0.0
 10
320.159395
 20
408.525344
 30
0.0
 10
320.159395
 20
409.554277
 30
0.0
  0
LINE
  5
28e
100
AcDbEntity
  8
Layer_1
 62
5
100
AcDbLine
 10
320.159395
 20
409.554277
 30
0.0
 11
320.159395
 21
409.912552
 31
0.0
  0
LINE
  5
28f
100
AcDbEntity
  8
Layer_1
 62
5
100
AcDbLine
 10
318.395495
 20
411.593778
 30
0.0
 11
318.395495
 21
412.200102
 31
0.0
  0
LINE
  5
290
100
AcDbEntity
  8
Layer_1
 62
5
100
AcDbLine
 10
318.395495
 20
412.200102
 30
0.0
 11
322.061095
 21
412.200102
 31
0.0
  0
LINE
  5
291
100
AcDbEntity
  8
Layer_1
 62
5
100
AcDbLine
 10
322.061095
 20
412.200102
 30
0.0
 11
322.061095
 21
411.593778
 31
0.0
  0
LINE
  5
292
100
AcDbEntity
  8
Layer_1
 62
5
100
AcDbLine
 10
322.061095
 20
411.593778
 30
0.0
 11
318.395495
 21
411.593778
 31
0.0
  0
SPLINE
  5
293
100
AcDbEntity
  8
Layer_1
 62
5
100
AcDbSpline
 70
8
 71
3
 72
8
 73
4
 74
0
 40
0
 40
0
 40
0
 40
0
 40
1
 40
1
 40
1
 40
1
 10
329.309570
 20
410.932303
 30
0.0
 10
328.960470
 20
408.929552
 30
0.0
 10
327.812103
 20
407.496394
 30
0.0
 10
325.864470
 20
406.632828
 30
0.0
  0
LINE
  5
294
100
AcDbEntity
  8
Layer_1
 62
5
100
AcDbLine
 10
325.864470
 20
406.632828
 30
0.0
 11
325.368370
 21
407.156478
 31
0.0
  0
SPLINE
  5
295
100
AcDbEntity
  8
Layer_1
 62
5
100
AcDbSpline
 70
8
 71
3
 72
8
 73
4
 74
0
 40
0
 40
0
 40
0
 40
0
 40
1
 40
1
 40
1
 40
1
 10
325.368370
 20
407.156478
 30
0.0
 10
327.169003
 20
407.891427
 30
0.0
 10
328.253062
 20
409.159228
 30
0.0
 10
328.620545
 20
410.959878
 30
0.0
  0
LINE
  5
296
100
AcDbEntity
  8
Layer_1
 62
5
100
AcDbLine
 10
328.620545
 20
410.959878
 30
0.0
 11
326.415695
 21
410.959878
 31
0.0
  0
SPLINE
  5
297
100
AcDbEntity
  8
Layer_1
 62
5
100
AcDbSpline
 70
8
 71
3
 72
8
 73
4
 74
0
 40
0
 40
0
 40
0
 40
0
 40
1
 40
1
 40
1
 40
1
 10
326.415695
 20
410.959878
 30
0.0
 10
325.993095
 20
410.261661
 30
0.0
 10
325.552120
 20
409.701253
 30
0.0
 10
325.092770
 20
409.278653
 30
0.0
  0
LINE
  5
298
100
AcDbEntity
  8
Layer_1
 62
5
100
AcDbLine
 10
325.092770
 20
409.278653
 30
0.0
 11
324.541545
 21
409.636953
 31
0.0
  0
SPLINE
  5
299
100
AcDbEntity
  8
Layer_1
 62
5
100
AcDbSpline
 70
8
 71
3
 72
8
 73
4
 74
0
 40
0
 40
0
 40
0
 40
0
 40
1
 40
1
 40
1
 40
1
 10
324.541545
 20
409.636953
 30
0.0
 10
325.496995
 20
410.500519
 30
0.0
 10
326.112520
 20
411.511078
 30
0.0
 10
326.388120
 20
412.668628
 30
0.0
  0
LINE
  5
29a
100
AcDbEntity
  8
Layer_1
 62
5
100
AcDbLine
 10
326.388120
 20
412.668628
 30
0.0
 11
327.022020
 21
412.448128
 31
0.0
  0
SPLINE
  5
29b
100
AcDbEntity
  8
Layer_1
 62
5
100
AcDbSpline
 70
8
 71
3
 72
8
 73
4
 74
0
 40
0
 40
0
 40
0
 40
0
 40
1
 40
1
 40
1
 40
1
 10
327.022020
 20
412.448128
 30
0.0
 10
327.132187
 20
412.392961
 30
0.0
 10
327.113770
 20
412.337878
 30
0.0
 10
326.966770
 20
412.282878
 30
0.0
  0
SPLINE
  5
29c
100
AcDbEntity
  8
Layer_1
 62
5
100
AcDbSpline
 70
8
 71
3
 72
8
 73
4
 74
0
 40
0
 40
0
 40
0
 40
0
 40
1
 40
1
 40
1
 40
1
 10
326.966770
 20
412.282878
 30
0.0
 10
326.893270
 20
412.044027
 30
0.0
 10
326.792220
 20
411.805169
 30
0.0
 10
326.663620
 20
411.566303
 30
0.0
  0
LINE
  5
29d
100
AcDbEntity
  8
Layer_1
 62
5
100
AcDbLine
 10
326.663620
 20
411.566303
 30
0.0
 11
328.647995
 21
411.566303
 31
0.0
  0
LINE
  5
29e
100
AcDbEntity
  8
Layer_1
 62
5
100
AcDbLine
 10
328.647995
 20
411.566303
 30
0.0
 11
328.895995
 21
411.704053
 31
0.0
  0
LINE
  5
29f
100
AcDbEntity
  8
Layer_1
 62
5
100
AcDbLine
 10
328.895995
 20
411.704053
 30
0.0
 11
329.392095
 21
411.207978
 31
0.0
  0
SPLINE
  5
2a0
100
AcDbEntity
  8
Layer_1
 62
5
100
AcDbSpline
 70
8
 71
3
 72
8
 73
4
 74
0
 40
0
 40
0
 40
0
 40
0
 40
1
 40
1
 40
1
 40
1
 10
329.392095
 20
411.207978
 30
0.0
 10
329.520762
 20
411.079311
 30
0.0
 10
329.493178
 20
410.987436
 30
0.0
 10
329.309345
 20
410.932353
 30
0.0
  0
LINE
  5
2a1
100
AcDbEntity
  8
Layer_1
 62
5
100
AcDbLine
 10
329.309345
 20
410.932353
 30
0.0
 11
329.309570
 21
410.932303
 31
0.0
  0
SPLINE
  5
2a2
100
AcDbEntity
  8
Layer_1
 62
3
100
AcDbSpline
 70
8
 71
3
 72
8
 73
4
 74
0
 40
0
 40
0
 40
0
 40
0
 40
1
 40
1
 40
1
 40
1
 10
237.175795
 20
529.238490
 30
0.0
 10
234.329413
 20
529.322808
 30
0.0
 10
231.796378
 20
527.444737
 30
0.0
 10
231.050026
 20
524.696654
 30
0.0
  0
SPLINE
  5
2a3
100
AcDbEntity
  8
Layer_1
 62
3
100
AcDbSpline
 70
8
 71
3
 72
8
 73
4
 74
0
 40
0
 40
0
 40
0
 40
0
 40
1
 40
1
 40
1
 40
1
 10
231.050026
 20
524.696654
 30
0.0
 10
230.303673
 20
521.948571
 30
0.0
 10
231.538644
 20
519.047147
 30
0.0
 10
234.036620
 20
517.679990
 30
0.0
  0
LINE
  5
2a4
100
AcDbEntity
  8
Layer_1
 62
3
100
AcDbLine
 10
234.036620
 20
517.679990
 30
0.0
 11
270.425895
 21
497.064740
 31
0.0
  0
SPLINE
  5
2a5
100
AcDbEntity
  8
Layer_1
 62
3
100
AcDbSpline
 70
8
 71
3
 72
8
 73
4
 74
0
 40
0
 40
0
 40
0
 40
0
 40
1
 40
1
 40
1
 40
1
 10
270.425895
 20
497.064740
 30
0.0
 10
272.308189
 20
495.999212
 30
0.0
 10
274.611476
 20
495.999212
 30
0.0
 10
276.493770
 20
497.064740
 30
0.0
  0
LINE
  5
2a6
100
AcDbEntity
  8
Layer_1
 62
3
100
AcDbLine
 10
276.493770
 20
497.064740
 30
0.0
 11
303.687995
 21
512.471990
 31
0.0
  0
LINE
  5
2a7
100
AcDbEntity
  8
Layer_1
 62
3
100
AcDbLine
 10
303.687995
 20
512.471990
 30
0.0
 11
303.687995
 21
484.483740
 31
0.0
  0
SPLINE
  5
2a8
100
AcDbEntity
  8
Layer_1
 62
3
100
AcDbSpline
 70
8
 71
3
 72
8
 73
4
 74
0
 40
0
 40
0
 40
0
 40
0
 40
1
 40
1
 40
1
 40
1
 10
303.687995
 20
484.483740
 30
0.0
 10
303.687995
 20
484.483740
 30
0.0
 10
270.377770
 20
465.209990
 30
0.0
 10
270.377770
 20
465.209990
 30
0.0
  0
SPLINE
  5
2a9
100
AcDbEntity
  8
Layer_1
 62
3
100
AcDbSpline
 70
8
 71
3
 72
8
 73
4
 74
0
 40
0
 40
0
 40
0
 40
0
 40
1
 40
1
 40
1
 40
1
 10
270.377770
 20
465.209990
 30
0.0
 10
268.472097
 20
464.109604
 30
0.0
 10
267.298335
 20
462.076044
 30
0.0
 10
267.298720
 20
459.875490
 30
0.0
  0
LINE
  5
2aa
100
AcDbEntity
  8
Layer_1
 62
3
100
AcDbLine
 10
267.298720
 20
459.875490
 30
0.0
 11
267.298720
 21
428.886740
 31
0.0
  0
LINE
  5
2ab
100
AcDbEntity
  8
Layer_1
 62
3
100
AcDbLine
 10
267.298720
 20
428.886740
 30
0.0
 11
243.231645
 21
442.814490
 31
0.0
  0
LINE
  5
2ac
100
AcDbEntity
  8
Layer_1
 62
3
100
AcDbLine
 10
243.231645
 20
442.814490
 30
0.0
 11
243.231645
 21
481.368740
 31
0.0
  0
SPLINE
  5
2ad
100
AcDbEntity
  8
Layer_1
 62
3
100
AcDbSpline
 70
8
 71
3
 72
8
 73
4
 74
0
 40
0
 40
0
 40
0
 40
0
 40
1
 40
1
 40
1
 40
1
 10
243.231645
 20
481.368740
 30
0.0
 10
243.263180
 20
483.589651
 30
0.0
 10
242.096401
 20
485.655485
 30
0.0
 10
240.178119
 20
486.775144
 30
0.0
  0
SPLINE
  5
2ae
100
AcDbEntity
  8
Layer_1
 62
3
100
AcDbSpline
 70
8
 71
3
 72
8
 73
4
 74
0
 40
0
 40
0
 40
0
 40
0
 40
1
 40
1
 40
1
 40
1
 10
240.178119
 20
486.775144
 30
0.0
 10
238.259838
 20
487.894802
 30
0.0
 10
235.887277
 20
487.894802
 30
0.0
 10
233.968996
 20
486.775144
 30
0.0
  0
SPLINE
  5
2af
100
AcDbEntity
  8
Layer_1
 62
3
100
AcDbSpline
 70
8
 71
3
 72
8
 73
4
 74
0
 40
0
 40
0
 40
0
 40
0
 40
1
 40
1
 40
1
 40
1
 10
233.968996
 20
486.775144
 30
0.0
 10
232.050714
 20
485.655485
 30
0.0
 10
230.883935
 20
483.589651
 30
0.0
 10
230.915470
 20
481.368740
 30
0.0
  0
SPLINE
  5
2b0
100
AcDbEntity
  8
Layer_1
 62
3
100
AcDbSpline
 70
8
 71
3
 72
8
 73
4
 74
0
 40
0
 40
0
 40
0
 40
0
 40
1
 40
1
 40
1
 40
1
 10
230.915470
 20
481.368740
 30
0.0
 10
230.915470
 20
481.368740
 30
0.0
 10
230.915470
 20
439.260240
 30
0.0
 10
230.915470
 20
439.260240
 30
0.0
  0
SPLINE
  5
2b1
100
AcDbEntity
  8
Layer_1
 62
3
100
AcDbSpline
 70
8
 71
3
 72
8
 73
4
 74
0
 40
0
 40
0
 40
0
 40
0
 40
1
 40
1
 40
1
 40
1
 10
230.915470
 20
439.260240
 30
0.0
 10
230.916162
 20
437.063250
 30
0.0
 10
232.087151
 20
435.032993
 30
0.0
 10
233.988495
 20
433.932240
 30
0.0
  0
SPLINE
  5
2b2
100
AcDbEntity
  8
Layer_1
 62
3
100
AcDbSpline
 70
8
 71
3
 72
8
 73
4
 74
0
 40
0
 40
0
 40
0
 40
0
 40
1
 40
1
 40
1
 40
1
 10
233.988495
 20
433.932240
 30
0.0
 10
233.988495
 20
433.932240
 30
0.0
 10
270.377770
 20
412.878240
 30
0.0
 10
270.377770
 20
412.878240
 30
0.0
  0
SPLINE
  5
2b3
100
AcDbEntity
  8
Layer_1
 62
3
100
AcDbSpline
 70
8
 71
3
 72
8
 73
4
 74
0
 40
0
 40
0
 40
0
 40
0
 40
1
 40
1
 40
1
 40
1
 10
270.377770
 20
412.878240
 30
0.0
 10
272.282359
 20
411.779058
 30
0.0
 10
274.628518
 20
411.778775
 30
0.0
 10
276.533372
 20
412.877497
 30
0.0
  0
SPLINE
  5
2b4
100
AcDbEntity
  8
Layer_1
 62
3
100
AcDbSpline
 70
8
 71
3
 72
8
 73
4
 74
0
 40
0
 40
0
 40
0
 40
0
 40
1
 40
1
 40
1
 40
1
 10
276.533372
 20
412.877497
 30
0.0
 10
278.438226
 20
413.976219
 30
0.0
 10
279.612734
 20
416.007228
 30
0.0
 10
279.614920
 20
418.206240
 30
0.0
  0
LINE
  5
2b5
100
AcDbEntity
  8
Layer_1
 62
3
100
AcDbLine
 10
279.614920
 20
418.206240
 30
0.0
 11
279.614920
 21
456.327490
 31
0.0
  0
SPLINE
  5
2b6
100
AcDbEntity
  8
Layer_1
 62
3
100
AcDbSpline
 70
8
 71
3
 72
8
 73
4
 74
0
 40
0
 40
0
 40
0
 40
0
 40
1
 40
1
 40
1
 40
1
 10
279.614920
 20
456.327490
 30
0.0
 10
279.614920
 20
456.327490
 30
0.0
 10
312.931145
 20
475.601740
 30
0.0
 10
312.931145
 20
475.601740
 30
0.0
  0
SPLINE
  5
2b7
100
AcDbEntity
  8
Layer_1
 62
3
100
AcDbSpline
 70
8
 71
3
 72
8
 73
4
 74
0
 40
0
 40
0
 40
0
 40
0
 40
1
 40
1
 40
1
 40
1
 10
312.931145
 20
475.601740
 30
0.0
 10
314.832489
 20
476.702493
 30
0.0
 10
316.003478
 20
478.732750
 30
0.0
 10
316.004170
 20
480.929740
 30
0.0
  0
LINE
  5
2b8
100
AcDbEntity
  8
Layer_1
 62
3
100
AcDbLine
 10
316.004170
 20
480.929740
 30
0.0
 11
316.004170
 21
523.037990
 31
0.0
  0
SPLINE
  5
2b9
100
AcDbEntity
  8
Layer_1
 62
3
100
AcDbSpline
 70
8
 71
3
 72
8
 73
4
 74
0
 40
0
 40
0
 40
0
 40
0
 40
1
 40
1
 40
1
 40
1
 10
316.004170
 20
523.037990
 30
0.0
 10
316.002975
 20
525.227599
 30
0.0
 10
314.839306
 20
527.251928
 30
0.0
 10
312.947787
 20
528.354900
 30
0.0
  0
SPLINE
  5
2ba
100
AcDbEntity
  8
Layer_1
 62
3
100
AcDbSpline
 70
8
 71
3
 72
8
 73
4
 74
0
 40
0
 40
0
 40
0
 40
0
 40
1
 40
1
 40
1
 40
1
 10
312.947787
 20
528.354900
 30
0.0
 10
311.056268
 20
529.457871
 30
0.0
 10
308.721362
 20
529.473611
 30
0.0
 10
306.815145
 20
528.396240
 30
0.0
  0
LINE
  5
2bb
100
AcDbEntity
  8
Layer_1
 62
3
100
AcDbLine
 10
306.815145
 20
528.396240
 30
0.0
 11
273.456820
 21
509.500990
 31
0.0
  0
SPLINE
  5
2bc
100
AcDbEntity
  8
Layer_1
 62
3
100
AcDbSpline
 70
8
 71
3
 72
8
 73
4
 74
0
 40
0
 40
0
 40
0
 40
0
 40
1
 40
1
 40
1
 40
1
 10
273.456820
 20
509.500990
 30
0.0
 10
273.456820
 20
509.500990
 30
0.0
 10
240.104495
 20
528.396240
 30
0.0
 10
240.104495
 20
528.396240
 30
0.0
  0
SPLINE
  5
2bd
100
AcDbEntity
  8
Layer_1
 62
3
100
AcDbSpline
 70
8
 71
3
 72
8
 73
4
 74
0
 40
0
 40
0
 40
0
 40
0
 40
1
 40
1
 40
1
 40
1
 10
240.104495
 20
528.396240
 30
0.0
 10
239.214232
 20
528.917897
 30
0.0
 10
238.207170
 20
529.207513
 30
0.0
 10
237.175795
 20
529.238490
 30
0.0
  0
LINE
  5
2be
100
AcDbEntity
  8
Layer_1
 62
3
100
AcDbLine
 10
237.175795
 20
529.238490
 30
0.0
 11
237.175795
 21
529.238490
 31
0.0
  0
LINE
  5
2bf
100
AcDbEntity
  8
Layer_1
 62
7
100
AcDbLine
 10
173.419220
 20
556.941340
 30
0.0
 11
373.419220
 21
556.941340
 31
0.0
  0
LINE
  5
2c0
100
AcDbEntity
  8
Layer_1
 62
7
100
AcDbLine
 10
373.419220
 20
556.941340
 30
0.0
 11
373.419220
 21
356.941340
 31
0.0
  0
LINE
  5
2c1
100
AcDbEntity
  8
Layer_1
 62
7
100
AcDbLine
 10
373.419220
 20
356.941340
 30
0.0
 11
173.419220
 21
356.941340
 31
0.0
  0
LINE
  5
2c2
100
AcDbEntity
  8
Layer_1
 62
7
100
AcDbLine
 10
173.419220
 20
356.941340
 30
0.0
 11
173.419220
 21
556.941340
 31
0.0
  0
ENDSEC
  0
SECTION
  2
OBJECTS
  0
DICTIONARY
  5
C
330
0
100
AcDbDictionary
  3
ACAD_GROUP
350
D
  3
ACAD_MLINESTYLE
350
17
  0
DICTIONARY
  5
D
330
C
100
AcDbDictionary
  0
DICTIONARY
  5
1A
330
C
100
AcDbDictionary
  0
DICTIONARY
  5
17
330
C
100
AcDbDictionary
  3
STANDARD
350
18
  0
DICTIONARY
  5
19
330
C
100
AcDbDictionary
  0
ENDSEC
  0
EOF
